<?xml version="1.0" encoding="UTF-8" standalone="no"?>
<!-- Created with Inkscape (http://www.inkscape.org/) -->

<svg
   width="142.96274mm"
   height="107.53664mm"
   viewBox="0 0 142.96274 107.53664"
   version="1.1"
   id="svg1"
   xml:space="preserve"
   inkscape:version="1.4 (86a8ad7, 2024-10-11)"
   sodipodi:docname="skonguistuff.svg"
   xmlns:inkscape="http://www.inkscape.org/namespaces/inkscape"
   xmlns:sodipodi="http://sodipodi.sourceforge.net/DTD/sodipodi-0.dtd"
   xmlns:xlink="http://www.w3.org/1999/xlink"
   xmlns="http://www.w3.org/2000/svg"
   xmlns:svg="http://www.w3.org/2000/svg"><sodipodi:namedview
     id="namedview1"
     pagecolor="#ffffff"
     bordercolor="#000000"
     borderopacity="0.25"
     inkscape:showpageshadow="2"
     inkscape:pageopacity="0.0"
     inkscape:pagecheckerboard="0"
     inkscape:deskcolor="#d1d1d1"
     inkscape:document-units="mm"
     inkscape:zoom="1.4253648"
     inkscape:cx="466.89803"
     inkscape:cy="241.34173"
     inkscape:window-width="1920"
     inkscape:window-height="1009"
     inkscape:window-x="-8"
     inkscape:window-y="-8"
     inkscape:window-maximized="1"
     inkscape:current-layer="layer1"
     showgrid="false"
     showguides="true"><inkscape:page
       x="0"
       y="0"
       width="142.96274"
       height="107.53664"
       id="page2"
       margin="0"
       bleed="0" /></sodipodi:namedview><defs
     id="defs1"><linearGradient
       id="linearGradient13"
       inkscape:collect="always"><stop
         style="stop-color:#ffffff;stop-opacity:0;"
         offset="0"
         id="stop15" /><stop
         style="stop-color:#ffffff;stop-opacity:1;"
         offset="0.5"
         id="stop13" /><stop
         style="stop-color:#ffffff;stop-opacity:0;"
         offset="1"
         id="stop14" /></linearGradient><linearGradient
       inkscape:collect="always"
       xlink:href="#linearGradient13"
       id="linearGradient14"
       x1="148.45132"
       y1="14.360372"
       x2="148.45132"
       y2="77.474274"
       gradientUnits="userSpaceOnUse"
       gradientTransform="translate(-48.03995,17.588397)" /><filter
       inkscape:collect="always"
       style="color-interpolation-filters:sRGB"
       id="filter23"
       x="-0.023133567"
       y="-0.033205764"
       width="1.0462671"
       height="1.0664115"><feGaussianBlur
         inkscape:collect="always"
         stdDeviation="1.2930154"
         id="feGaussianBlur23" /></filter><filter
       inkscape:collect="always"
       style="color-interpolation-filters:sRGB"
       id="filter28"
       x="-0.028583811"
       y="-0.038852987"
       width="1.0571676"
       height="1.077706"><feGaussianBlur
         inkscape:collect="always"
         stdDeviation="1.538438"
         id="feGaussianBlur28" /></filter><filter
       inkscape:collect="always"
       style="color-interpolation-filters:sRGB"
       id="filter29"
       x="-1.4163462"
       y="-1.0409893"
       width="3.8326923"
       height="3.0819786"><feGaussianBlur
         inkscape:collect="always"
         stdDeviation="22.785468"
         id="feGaussianBlur29" /></filter></defs><g
     inkscape:label="Layer 1"
     inkscape:groupmode="layer"
     id="layer1"
     transform="translate(-30.774179,-6.8722723)"><rect
       style="mix-blend-mode:normal;fill:#000000;fill-opacity:1;stroke:none;stroke-width:0.38154;stroke-dasharray:none;stroke-opacity:1;filter:url(#filter23)"
       id="rect23"
       width="134.14433"
       height="93.454765"
       x="83.741768"
       y="-3.412674"
       transform="matrix(1.0186101,0,0,1.0790217,-51.365043,13.903081)" /><path
       style="fill:#ffffff;fill-opacity:1"
       d="m 160.68548,34.680115 c -0.009,-0.643759 -0.0513,-4.142915 -0.0949,-7.775902 -0.0577,-4.816927 -0.11965,-6.645841 -0.22862,-6.754679 -0.10109,-0.100974 -0.12592,-0.42959 -0.0768,-1.015961 0.0835,-0.99556 -0.14633,-1.781437 -0.66276,-2.266603 -0.40403,-0.379569 -0.41505,-0.756234 -0.0221,-0.756234 0.3693,0 0.59473,-0.223577 0.59473,-0.589849 0,-0.228345 -0.10573,-0.314629 -0.52335,-0.427082 -0.76072,-0.204842 -1.6072,-0.04183 -2.70918,0.52173 -0.53258,0.272361 -1.01961,0.495201 -1.0823,0.495201 -0.0627,0 -0.11398,-0.173544 -0.11398,-0.385654 0,-0.490412 -0.41006,-0.879427 -1.21986,-1.157254 -0.50021,-0.171613 -1.28197,-0.220611 -4.19028,-0.262637 -3.20634,-0.04633 -3.86679,-0.09501 -3.68984,-0.271956 0.0291,-0.0291 1.50484,-0.103312 3.27943,-0.164925 2.68692,-0.09329 3.30519,-0.15001 3.6969,-0.33916 l 0.47036,-0.227136 0.35213,0.280259 0.35213,0.280259 2.34094,-0.08605 2.34094,-0.08605 0.47181,-0.308293 c 0.25949,-0.169561 0.50086,-0.308292 0.53637,-0.308292 0.1869,0 1.62645,1.216054 1.7434,1.472724 0.17326,0.380265 0.0337,0.526627 -0.30217,0.316878 -0.43289,-0.270345 -0.3991,-0.07593 0.074,0.425688 0.48525,0.514516 0.78311,1.298588 0.57309,1.508603 -0.0826,0.08257 -0.19186,0.03001 -0.321,-0.154362 -0.10769,-0.153756 -0.28792,-0.279556 -0.4005,-0.279556 -0.16987,0 -0.15914,0.04848 0.0631,0.285082 0.40279,0.428753 0.91501,1.637836 1.00083,2.36244 0.10054,0.848956 -0.10873,0.840494 -0.54088,-0.02187 -0.68263,-1.362241 -1.06327,-1.485384 -1.06327,-0.343987 0,0.918259 0.38726,2.141788 0.8975,2.835604 0.4448,0.604841 0.47192,0.924152 0.0832,0.979363 -0.23116,0.03283 -0.3515,0.230813 -0.63986,1.052735 -0.4732,1.34875 -0.58417,2.715539 -0.59072,7.275907 -0.005,3.77218 -0.0752,5.0615 -0.27386,5.0615 -0.0599,0 -0.11598,-0.526712 -0.12462,-1.170472 z m 0.64646,-12.583014 c 0.001,-0.222078 -0.055,-0.438971 -0.1246,-0.481983 -0.0784,-0.04844 -0.1258,0.177511 -0.1246,0.593585 0.001,0.480409 0.0369,0.617717 0.1246,0.481984 0.0675,-0.104394 0.12354,-0.371507 0.1246,-0.593586 z m -3.79419,-7.705439 c 0,-0.02885 -0.42796,-0.05245 -0.95102,-0.05245 h -0.95103 l 0.40208,0.359261 0.40208,0.359262 0.54895,-0.306811 c 0.30192,-0.168746 0.54894,-0.330414 0.54894,-0.359262 z"
       id="path22" /><path
       style="fill:#ffffff;fill-opacity:1"
       d="m 44.167711,50.175296 c -0.04392,-0.219621 -0.11919,-2.877158 -0.16726,-5.905638 l -0.0874,-5.506328 -0.23274,-0.210627 c -0.168237,-0.152252 -0.23274,-0.390198 -0.23274,-0.858558 0,-0.464267 -0.106481,-0.862231 -0.375642,-1.403935 -0.49802,-1.002299 -0.487268,-1.16883 0.09093,-1.408447 0.260984,-0.108156 0.492416,-0.213309 0.514294,-0.233672 0.02188,-0.02036 -0.136836,-0.537412 -0.352699,-1.148998 -0.533972,-1.512855 -0.638901,-2.028014 -0.761577,-3.739037 -0.08691,-1.212159 -0.163298,-1.580392 -0.432913,-2.086862 -0.32313,-0.606998 -0.448117,-1.566032 -0.204095,-1.566032 0.06781,0 0.206409,0.160738 0.308001,0.357195 0.190488,0.368364 0.549013,0.729283 0.637021,0.641275 0.02744,-0.02744 -0.07026,-0.30603 -0.217116,-0.619085 -0.344083,-0.73349 -0.441931,-2.110613 -0.17529,-2.467055 0.240829,-0.321937 0.310045,-0.245432 0.448513,0.495749 0.06182,0.330926 0.171231,0.660509 0.243127,0.732405 0.205698,0.205698 0.681637,-0.981778 0.753801,-1.880727 l 0.06273,-0.781381 -0.342105,-0.342105 c -0.280188,-0.280187 -0.420158,-0.329438 -0.773371,-0.272119 -0.609102,0.09884 -0.65749,-0.11017 -0.138763,-0.599392 0.557879,-0.526148 1.882957,-0.9055 4.053301,-1.160404 1.220029,-0.143291 2.645948,-0.162902 6.974666,-0.09593 5.55366,0.08593 7.16151,0.01464 9.2054,-0.408169 1.24505,-0.257556 1.62875,-0.45398 2.40694,-1.232174 1.19295,-1.192948 1.24069,-2.078924 0.15334,-2.845364 -0.91462,-0.644679 -0.75784,-0.853211 0.43438,-0.577783 0.44324,0.102401 0.95442,0.168944 1.13594,0.147874 0.26252,-0.03047 0.1454,-0.110598 -0.57243,-0.391617 -0.88694,-0.347225 -1.96286,-1.1196 -1.79673,-1.289836 0.0465,-0.04769 0.58128,0.06479 1.18832,0.249947 1.59085,0.485239 2.83397,0.697307 4.08441,0.696771 l 1.09607,-4.69e-4 1.64499,-0.573691 c 0.90474,-0.315529 1.98663,-0.604117 2.40421,-0.641306 0.98013,-0.08729 2.57524,0.20278 3.61516,0.657413 1.05403,0.460799 1.74877,0.442947 3.15459,-0.08106 1.43425,-0.534599 1.72654,-0.579193 2.02514,-0.308968 0.44134,0.399408 1.61152,0.586675 4.11193,0.658042 2.73222,0.07798 3.65137,-0.04212 4.15175,-0.542505 l 0.31326,-0.313262 0.42739,0.252165 c 0.23506,0.13869 0.68245,0.343335 0.9942,0.454767 l 0.56682,0.202602 15.690646,0.0484 c 8.62985,0.02662 16.26007,0.08998 16.95602,0.140795 l 1.26538,0.09239 -0.44288,0.103864 c -0.24359,0.05713 -8.18698,0.135551 -17.65199,0.17428 l -17.209096,0.07042 c 0,0 28.892926,0.190482 -1.19894,0.190482 -1.4171,0 -2.04801,0.481507 -1.93589,0.773672 l 0.0758,0.197522 -1.19104,-0.07073 c -0.65507,-0.0389 -1.67368,-0.196809 -2.26358,-0.350902 l -1.07254,-0.280171 -0.52652,0.279316 -0.52651,0.279316 -0.26468,-0.165295 c -0.21898,-0.136756 -0.33615,-0.135054 -0.67862,0.0099 -0.82514,0.349147 -1.59551,0.305318 -2.62834,-0.149535 l -0.94903,-0.417947 -1.24817,0.34932 c -1.98882,0.556602 -2.90704,0.7066 -5.33178,0.870983 -1.557,0.105556 -2.3422,0.209469 -2.48159,0.328415 -0.33595,0.286665 -0.65831,1.129828 -0.56861,1.487231 0.048,0.191168 0.29659,0.459975 0.60611,0.655372 0.61971,0.391204 0.53253,0.481222 -0.59281,0.612066 -0.41758,0.04855 -2.46748,0.421662 -4.55535,0.829135 -2.08788,0.407472 -4.50791,0.801755 -5.37785,0.876183 -2.47283,0.211562 -2.62814,0.244 -3.08381,0.644086 l -0.41584,0.365114 -0.81256,-0.342034 -0.81256,-0.342034 h -1.45518 c -1.985667,0 -2.889783,0.252964 -5.369809,1.502425 -2.808436,1.414918 -3.662377,2.296777 -2.823496,2.915808 0.186756,0.137812 0.232378,0.233124 0.132603,0.277032 -0.08366,0.03682 -0.339897,0.194427 -0.569419,0.350247 l -0.417312,0.283309 0.006,0.688834 c 0.0046,0.523928 0.128737,0.962552 0.518662,1.832201 1.059927,2.363953 1.070927,3.459331 0.05436,5.414498 l -0.647274,1.244904 -0.07179,0.90704 c -0.07954,1.004913 0.132226,1.819218 0.603546,2.320915 l 0.265154,0.282243 -0.329372,0.391435 c -0.181155,0.215289 -0.384473,0.602379 -0.451821,0.860198 -0.06735,0.257819 -0.16216,2.461728 -0.210693,4.897575 -0.04853,2.435847 -0.12811,4.538744 -0.176834,4.673105 l -0.08859,0.244294 z m 0.917045,-16.742124 0.291871,-0.519316 -0.06325,-0.9675 c -0.05504,-0.841884 -0.464823,-2.169606 -0.669617,-2.169606 -0.03154,0 -0.05735,0.939541 -0.05735,2.087869 0,1.148328 0.04646,2.087868 0.103237,2.087868 0.05678,0 0.23458,-0.233691 0.395109,-0.519315 z m -1.243719,-4.832023 c -0.104807,0 -0.206063,0.04143 -0.350525,0.306933 -0.391097,0.718791 -0.260028,2.750864 0.250884,3.889668 0.122733,0.273567 0.155189,-0.05718 0.183776,-1.872752 0.0198,-1.25737 0.01171,-2.323849 -0.08413,-2.323849 z m 4.731305,-6.614716 c 0.765552,-0.30363 1.762034,-0.662661 2.214406,-0.797846 l 0.822494,-0.24579 -1.065204,-0.01184 c -2.258557,-0.0251 -3.779363,0.49766 -4.298628,1.477595 -0.233007,0.439719 -0.0634,0.560015 0.467273,0.331421 0.25726,-0.110818 1.094107,-0.449913 1.859659,-0.753544 z M 68.14414,19.062841 69.368,18.859019 69.25114,18.551647 c -0.13521,-0.355615 -0.0508,-0.792442 0.28111,-1.455241 0.12932,-0.258211 0.23512,-0.508145 0.23512,-0.55541 0,-0.163749 -1.25037,0.06306 -1.74844,0.317155 -0.61781,0.315182 -1.47305,1.380406 -1.80115,2.243402 l -0.12623,0.332004 0.41436,-0.08345 c 0.22791,-0.0459 0.96511,-0.175167 1.63823,-0.287269 z m 6.97028,-3.649627 c 0,1.308989 3.1127,-0.524573 3.55495,-0.65206 0.35186,-0.101429 0.11889,-0.241543 -0.93013,-0.559414 -0.61529,-0.186443 -1.28277,-0.288801 -1.89807,-0.29107 l -0.94903,-0.0035 -0.82249,0.399281 c -0.95932,0.465703 -1.89806,1.059117 -1.89806,1.199833 0,0.161008 2.94283,-1.496245 2.94283,-0.09307 z m 14.71685,-0.453812 c 0.0837,-0.135381 -1.28258,-0.135811 -2.09557,-6.58e-4 l -0.56942,0.09466 0.75923,0.09355 c 0.41757,0.05145 0.84463,0.107721 0.94903,0.125039 0.24207,0.04016 0.86438,-0.163173 0.95673,-0.312595 z m -6.67837,-0.165742 0.34379,-0.181896 -0.22995,-0.08983 c -0.29721,-0.116103 -1.63777,0.0052 -1.94064,0.175532 l -0.23362,0.131424 c 9.10959,2.807013 -15.49635,-3.993941 0.31634,0.133438 0.40676,0.106172 1.27958,0.07709 1.74408,-0.168668 z"
       id="path21" /><path
       style="fill:#848484;fill-opacity:1"
       d="m 133.68231,59.887635 c -0.1419,-0.229587 0.30903,-0.752383 0.89413,-1.036646 0.52505,-0.255089 0.72832,-0.522738 0.74649,-0.982895 l 0.007,-0.189807 5.69419,0.03322 c 3.1318,0.01827 6.37749,0.0722 7.21264,0.119842 l 1.51845,0.08662 -0.65883,0.08711 c -0.36236,0.04791 -2.89627,0.128048 -5.63092,0.178085 -3.64231,0.06664 -5.07362,0.135189 -5.3517,0.256294 -0.20879,0.09093 -0.77821,0.235034 -1.26538,0.320242 -1.11,0.194144 -2.15723,0.568983 -2.68114,0.959671 -0.2533,0.188892 -0.43397,0.251517 -0.48542,0.168264 z"
       id="path20" /><path
       style="fill:#848484;fill-opacity:1"
       d="m 128.24448,59.892935 c -0.224,-0.362441 -2.15439,-1.059666 -3.35034,-1.210089 -0.38109,-0.04793 -0.80815,-0.159918 -0.94903,-0.248857 -0.19024,-0.120103 -1.55835,-0.184827 -5.31764,-0.251572 -8.73089,-0.155014 -7.31354,-0.414743 2.62565,-0.481151 l 5.53602,-0.03699 v 0.291707 c 0,0.288739 0.39753,0.797857 0.62298,0.797857 0.16797,0 0.87891,0.618381 1.0252,0.891732 0.13234,0.247269 -0.0491,0.479972 -0.19284,0.247363 z"
       id="path19" /><path
       style="fill:#848484;fill-opacity:1"
       d="m 130.45873,60.202022 c -0.57848,-0.25701 -1.096,-0.756419 -1.43514,-1.384912 l -0.27312,-0.50615 c -0.33987,-0.990929 -0.1869,-1.79283 0,-2.783825 l 0.35302,-0.753886 c 0.50818,-1.085251 0.92306,-1.587058 1.31213,-1.587058 h 0.32362 l -0.0936,0.347978 c -0.38897,1.445495 -0.40468,2.285689 -0.0512,2.735126 0.3168,0.402749 0.62855,0.424512 0.95187,0.06645 0.28507,-0.315712 0.30846,-1.318134 0.0554,-2.373143 -0.0875,-0.364943 -0.12695,-0.695769 -0.0875,-0.735168 0.20471,-0.204702 0.70069,0.144034 1.12827,0.793299 0.62567,0.950066 0.9136,1.529214 0.91775,2.907304 0,0 -0.0174,0.779134 -0.12826,1.147825 -0.0803,0.26724 -0.3812,0.745335 -0.3812,0.745335 -0.62398,1.220027 -1.68379,1.784523 -2.59243,1.380826 z m 0.18324,-0.678337 c 0.10861,-0.175737 -0.15904,-0.782435 -0.46053,-1.043919 -0.36429,-0.315942 -0.73501,-0.30218 -0.73501,0.02728 0,0.328653 0.32388,0.962871 0.53512,1.047863 0.26609,0.107061 0.58425,0.09202 0.66042,-0.03123 z m 1.80979,-0.383859 c 0.33196,-0.493762 0.32738,-0.804985 -0.0128,-0.8705 -0.44565,-0.08582 -1.13187,0.87609 -0.89658,1.256796 0.15157,0.245256 0.61799,0.04713 0.90939,-0.386296 z"
       id="path18" /><path
       style="fill:#ffffff;fill-opacity:1"
       d="m 162.90236,66.401714 c -0.0447,-0.178192 -0.0433,-0.56255 0.003,-0.854128 0.21081,-1.321088 0.22857,-1.60571 0.10022,-1.60571 -0.0728,0 -0.21312,0.242003 -0.31171,0.537784 -0.22522,0.675655 -0.40021,0.687466 -0.44868,0.03028 -0.0262,-0.355597 0.0779,-0.76192 0.34798,-1.3575 0.43076,-0.950017 0.47934,-1.424362 0.18842,-1.839701 -0.24766,-0.353592 -0.43564,-0.353965 -0.8834,-0.0018 l -0.3553,0.279475 -0.26282,-0.372687 c -0.14455,-0.204977 -0.44655,-0.547096 -0.67111,-0.760263 l -0.40829,-0.387576 0.68211,-0.721318 c 0.37516,-0.396725 0.72604,-0.721318 0.77974,-0.721318 0.0537,0 0.2342,0.128119 0.40112,0.284709 l 0.30348,0.28471 0.30573,-0.355035 c 0.4019,-0.466716 0.38507,-0.875889 -0.0739,-1.796103 -0.363,-0.727842 -0.46707,-1.333102 -0.3028,-1.761176 0.12478,-0.325179 0.27314,-0.231569 0.43481,0.27436 0.22443,0.702289 0.4169,0.83223 0.32802,0.221441 -0.25471,-1.750189 -0.24645,-2.594019 0.0254,-2.594019 0.0555,0 0.20429,0.4413 0.33054,0.980666 0.3254,1.390114 0.88833,2.869248 1.45964,3.835284 0.46885,0.792784 1.49706,1.890538 1.77077,1.890538 0.23167,0 0.13615,0.360404 -0.11681,0.440689 -0.46926,0.14894 -1.56004,1.502175 -2.04168,2.532942 -0.42364,0.906637 -0.98465,2.56788 -1.18583,3.511416 -0.0932,0.437061 -0.29226,0.449033 -0.39894,0.02399 z m 0.74663,-3.313966 c 0.29104,-0.962448 0.65806,-1.752885 0.90359,-1.946016 0.16073,-0.12643 0.38917,-0.43415 0.50765,-0.683822 l 0.21541,-0.45395 -0.21574,-0.340352 c -0.11866,-0.187193 -0.35645,-0.491798 -0.52843,-0.6769 -0.17198,-0.185101 -0.44596,-0.717946 -0.60884,-1.184099 -0.16289,-0.466152 -0.32799,-0.879379 -0.36689,-0.918281 -0.17118,-0.171178 -0.20231,0.115484 -0.0671,0.617681 0.16391,0.608694 0.0798,1.406297 -0.18878,1.789714 -0.13855,0.197798 -0.1448,0.304322 -0.0288,0.490109 0.11488,0.183952 0.11119,0.296713 -0.0164,0.50099 l -0.16463,0.263609 0.20687,0.315724 c 0.23391,0.356992 0.29825,1.265329 0.13972,1.972518 -0.10765,0.48019 0.077,0.700354 0.21231,0.253075 z m -1.61512,-2.819926 0.23307,-0.257541 -0.27673,-0.276728 -0.27673,-0.276729 -0.27673,0.276729 -0.27673,0.276728 0.23308,0.257541 c 0.12818,0.141648 0.27236,0.257541 0.32038,0.257541 0.048,0 0.1922,-0.115893 0.32039,-0.257541 z"
       id="path17" /><path
       style="fill:#ffffff;fill-opacity:1"
       d="m 41.109462,66.321157 c 0,-0.789617 -0.850091,-2.944003 -1.107241,-3.454572 -0.458336,-0.910024 -1.328991,-2.030109 -1.868819,-2.40421 l -0.529038,-0.366624 0.35922,-0.255521 c 0.683143,-0.485934 1.31469,-1.28049 1.869286,-2.351767 0.553848,-1.069832 1.337028,-3.420454 1.337028,-4.012931 0,-0.51772 0.304292,-0.255642 0.407908,0.351319 0.06453,0.378015 0.03021,0.816558 -0.106616,1.362124 -0.244399,0.974513 -0.05446,1.389209 0.21629,0.472233 0.212356,-0.719203 0.419225,-0.680228 0.469658,0.08849 0.02812,0.428581 -0.04707,0.750694 -0.284709,1.219643 -0.406375,0.801942 -0.435039,1.643811 -0.0673,1.97661 l 0.25562,0.231333 0.3877,-0.28664 0.3877,-0.286639 0.685324,0.736386 c 0.376929,0.405013 0.685324,0.738955 0.685324,0.742094 0,0.0031 -0.312953,0.341978 -0.695452,0.752976 l -0.695451,0.747268 -0.306083,-0.28755 c -0.367951,-0.345672 -0.731107,-0.273278 -0.941099,0.187605 -0.215097,0.472087 -0.184944,0.667546 0.242303,1.570676 0.389611,0.823572 0.511951,1.684027 0.27336,1.922618 -0.08623,0.08622 -0.179064,-0.03057 -0.284749,-0.358228 -0.220825,-0.684627 -0.278831,-0.754281 -0.386272,-0.463841 -0.05196,0.140468 -0.03906,0.515224 0.02867,0.83279 0.151375,0.709755 0.09552,1.639116 -0.102428,1.704139 -0.0819,0.0269 -0.230134,-0.131752 -0.230134,-0.369778 z m -0.0069,-3.233409 c 0.132398,0 -0.12252,-0.55885 -0.156891,-0.97124 -0.04761,-0.571228 -0.0081,-0.850819 0.165939,-1.17397 0.174676,-0.324354 0.193521,-0.45908 0.08008,-0.572518 -0.192822,-0.192822 -0.190686,-0.568679 0.0036,-0.633441 0.110296,-0.03677 0.08839,-0.184595 -0.07993,-0.539288 -0.188335,-0.396886 -0.217061,-0.663879 -0.152984,-1.421904 0.04339,-0.513296 0.02981,-0.902932 -0.03018,-0.865858 -0.05999,0.03707 -0.240824,0.424503 -0.401859,0.860955 -0.161035,0.436451 -0.510081,1.043568 -0.775658,1.349148 -0.299679,0.344818 -0.482868,0.68353 -0.482868,0.892813 0,0.325455 0.413061,1.006769 0.796264,1.31338 0.102125,0.08171 0.220742,0.299876 0.263592,0.484806 0.13829,0.596822 0.571967,1.498557 0.72071,1.498557 0.08929,0 -0.0985,-0.22144 0.05018,-0.22144 z m 2.013334,-2.845336 c 0,0.204442 0.08375,-0.274275 -0.118544,-0.47657 l -0.256888,-0.256887 -0.28736,0.267717 -0.287361,0.267716 0.221878,0.245173 c 0.256886,0.283857 0.728275,-0.417351 0.728275,-0.04715 z"
       id="path16" /><path
       style="fill:#ffffff;fill-opacity:1"
       d="m 44.439464,107.56168 c 0.01849,0.24042 -0.569571,-0.46898 -0.854128,-0.6991 -0.284557,-0.23012 -0.517376,-0.52906 -0.517376,-0.66432 0,-0.28182 0.04899,-0.29634 0.387932,-0.11494 0.362504,0.194 0.299844,-0.0452 -0.133281,-0.50892 -0.380942,-0.4078 -0.746612,-1.32343 -0.590769,-1.47927 0.04622,-0.0462 0.215606,0.0396 0.376407,0.19062 0.494315,0.46439 0.638791,0.30639 0.212272,-0.23213 -0.220766,-0.27874 -0.51026,-0.80465 -0.64332,-1.16869 -0.256716,-0.70234 -0.324112,-1.61449 -0.119291,-1.61449 0.06745,0 0.275579,0.31235 0.462508,0.69411 0.186929,0.38175 0.448399,0.79232 0.581044,0.91236 l 0.241173,0.21826 0.116875,-0.18477 c 0.39353,-0.62216 -0.135113,-2.6391 -0.983924,-3.753995 -0.326284,-0.428569 -0.296403,-0.669791 0.08297,-0.669791 0.156369,0 0.316462,-0.21018 0.506012,-0.664321 0.576484,-1.381192 0.651574,-2.153931 0.722397,-7.434079 0.03687,-2.749027 0.09273,-5.07893 0.124123,-5.177562 0.219237,-0.688784 0.296722,0.924678 0.370185,7.708312 0.05719,5.281068 0.126223,7.708306 0.222568,7.825716 0.08265,0.10071 0.125878,0.57456 0.105896,1.16072 -0.03656,1.07238 0.115292,1.53733 0.709661,2.17295 0.357566,0.38237 0.314861,0.69456 -0.103547,0.75696 -0.346282,0.0516 -0.652024,0.48617 -0.507085,0.72069 0.157998,0.25565 1.126762,0.39196 1.836647,0.25843 0.343315,-0.0646 0.985871,-0.3162 1.427902,-0.55917 0.985554,-0.54173 1.174594,-0.55563 1.174594,-0.0863 0,0.50544 0.215225,0.73051 1.047543,1.09547 l 0.731198,0.32062 3.06493,0.0111 c 5.13829,0.0186 5.86847,0.32078 0.97706,0.40437 l -2.97364,0.0508 -0.584195,0.2613 -0.584198,0.26129 -0.364833,-0.24052 -0.364833,-0.24052 -2.087869,0.005 c -2.13211,0.005 -2.796637,0.11657 -3.276681,0.551 -0.289352,0.26186 -0.833412,-0.61317 -0.792928,-0.0869 z m 5.208446,-1.046 c 0,0.0381 -0.150131,-0.19848 -0.333624,-0.35631 l -0.333624,-0.28697 -0.552138,0.254 c -0.303676,0.13971 -0.552139,0.30005 -0.552139,0.35631 0,0.0563 0.398593,0.10231 0.885763,0.10231 0.487169,0 0.885762,-0.10748 0.885762,-0.0693 z m -5.429451,-8.121242 c -0.209076,0 -0.131249,-0.123947 -0.134351,0.292528 -0.0021,0.284182 0.03886,0.560097 0.09106,0.613146 0.149787,0.15223 0.33179,-0.905674 0.0433,-0.905674 z"
       id="path15" /><path
       style="fill:#ffffff;fill-opacity:1"
       d="m 127.74182,107.66574 -1.51481,-0.43956 -0.26769,0.25148 -0.26769,0.25148 -0.55845,-0.3094 -0.55845,-0.3094 -13.47624,-0.0649 c -11.63978,-0.0561 -14.97418,-0.13447 -14.67835,-0.34508 0.0348,-0.0248 5.87134,-0.0776 12.97009,-0.11748 l 12.90683,-0.0724 0.92226,-0.26767 c 0.50724,-0.14722 1.06042,-0.3582 1.22929,-0.46884 0.43012,-0.28183 0.52591,-0.26172 1.30219,0.27334 l 0.68843,0.47451 1.41392,0.0419 c 0.77766,0.023 1.82932,-0.0157 2.33703,-0.0861 1.13745,-0.15762 2.50005,-0.78665 3.36112,-1.55163 0.42242,-0.37528 0.75063,-0.56132 1.0123,-0.5738 0.21296,-0.0102 0.70039,-0.13642 1.08317,-0.28058 0.38277,-0.14416 0.89525,-0.26271 1.13883,-0.26346 0.50966,-0.002 1.38015,0.36371 2.00796,0.84257 l 0.43344,0.3306 1.27842,-0.14788 c 2.55299,-0.2953 5.13975,-0.11019 7.01583,0.50207 l 0.42284,0.138 1.22958,-0.57836 c 1.72882,-0.81319 3.27908,-1.18598 3.49294,-0.83994 0.0433,0.0701 -0.0245,0.15875 -0.1507,0.19703 -0.58727,0.17811 -2.57041,1.20808 -2.57041,1.33497 0,0.0996 0.28236,0.12054 0.9351,0.0694 1.22524,-0.0959 2.05371,-0.31194 2.5886,-0.67493 0.61597,-0.418 0.82946,-0.39092 0.73268,0.0929 l -0.0775,0.38765 0.28316,-0.0795 c 0.69613,-0.19535 2.13653,-0.9928 2.56229,-1.41856 0.51853,-0.51853 0.69449,-0.88253 0.69449,-1.43665 v -0.37137 h -0.43541 c -0.89473,0 -0.57925,-0.62072 0.36985,-0.7277 l 0.55247,-0.0623 0.30727,0.30727 c 0.169,0.169 0.33332,0.38541 0.36515,0.4809 0.0431,0.12934 0.20629,0.0715 0.63957,-0.22658 l 0.58169,-0.40021 -0.0681,-0.75116 -0.0681,-0.75117 0.39802,-0.800968 c 0.21891,-0.440533 0.49355,-0.951093 0.6103,-1.134577 l 0.21228,-0.333608 -0.52401,-0.80523 c -0.67772,-1.04143 -0.99842,-1.779397 -1.242,-2.857984 l -0.19714,-0.872965 0.2014,-0.868393 c 0.2148,-0.926232 0.70859,-1.883914 1.33106,-2.581544 l 0.38224,-0.428394 v -0.819269 c 0,-0.671282 -0.07,-0.950525 -0.3873,-1.545922 l -0.3873,-0.726653 0.26447,-0.507401 c 0.32856,-0.630363 0.46735,-1.856667 0.58407,-5.160817 0.10157,-2.875283 0.28024,-2.98741 0.30246,-0.189807 0.008,1.009137 0.0629,3.059045 0.12194,4.555351 l 0.10738,2.720556 0.27565,0.727591 c 0.15161,0.400174 0.32241,0.72759 0.37956,0.72759 0.0572,0 0.14203,0.09933 0.18861,0.22073 0.0581,0.151499 -0.0185,0.303006 -0.24428,0.483053 l -0.32898,0.262323 0.25782,0.327765 c 0.36697,0.466534 0.3213,0.785352 -0.18507,1.291712 l -0.44288,0.442881 v 2.414888 2.414887 l 0.44288,0.185048 c 0.24359,0.101776 0.44289,0.269696 0.44289,0.373155 0,0.10346 -0.0433,0.188108 -0.0961,0.188108 -0.29444,0 -0.70638,1.235138 -0.58028,1.739891 0.071,0.284301 0.4233,0.407159 0.4233,0.147627 0,-0.0754 0.0712,-0.113312 0.15817,-0.08426 0.22063,0.07368 0.12627,0.800466 -0.18458,1.421696 -0.13978,0.27935 -0.82103,1.06309 -1.51388,1.74164 -0.69286,0.67856 -1.23234,1.23374 -1.19886,1.23374 0.23738,0 1.39815,-0.61011 1.94286,-1.02119 0.36239,-0.27349 0.68981,-0.49726 0.72759,-0.49726 0.13356,0 0.0663,0.52332 -0.11139,0.86698 -0.30409,0.58804 -1.30735,1.40845 -2.29724,1.87854 -1.40194,0.66578 -1.3396,0.84308 0.11823,0.33623 0.63417,-0.22049 0.78068,-0.11413 0.46107,0.33473 -0.33365,0.46857 -0.95411,0.8463 -1.93379,1.17727 l -0.7868,0.26582 -2.66944,0.006 c -1.94026,0.004 -2.72146,0.0492 -2.85985,0.16406 -0.15612,0.12955 -0.46047,0.0555 -1.69079,-0.41125 -0.82521,-0.31308 -1.65558,-0.56924 -1.84527,-0.56924 -0.18968,0 -0.61913,0.16966 -0.95434,0.37703 -0.77297,0.47817 -1.78556,0.82495 -3.00933,1.03058 -1.59691,0.26832 -2.90307,-0.14173 -4.46542,-1.4019 -0.43533,-0.35112 -0.89673,-0.6384 -1.02535,-0.6384 -0.38284,0 -3.06239,0.7314 -3.94093,1.07569 -1.62619,0.63731 -3.41813,1.07482 -4.6705,1.14035 l -1.21318,0.0635 z m 17.28582,-0.66337 c 0.86124,-0.27318 1.93717,-0.91791 1.78528,-1.0698 -0.0625,-0.0625 -0.73556,-0.19635 -1.49576,-0.29751 -2.15006,-0.28613 -5.19031,-0.22488 -5.08123,0.10236 0.0562,0.16858 1.19166,0.80727 2.09775,1.17996 0.86037,0.35389 1.75704,0.38218 2.69396,0.085 z m -9.10777,-1.16285 c 0.86165,-0.27361 1.78054,-0.5376 2.04197,-0.58665 l 0.47534,-0.0892 -0.153,-0.18435 c -0.24645,-0.29695 -1.07737,-0.67201 -1.48879,-0.67201 -1.15078,0 -3.81207,1.62933 -3.49616,2.14047 0.0891,0.14409 0.69193,0.004 2.62064,-0.60829 z m 25.00738,-5.10687 c 0.14723,-0.17843 0.0516,-1.360275 -0.11003,-1.360275 -0.10918,0 -0.36719,0.804955 -0.3684,1.149385 -0.001,0.36738 0.2558,0.48071 0.47843,0.21089 z m 0.0833,-8.179185 c -0.14456,-0.144564 -0.80164,0.732234 -0.88609,1.182395 -0.1192,0.635393 0.0112,1.166498 0.48292,1.966927 l 0.41014,0.695957 0.0351,-1.884035 c 0.0193,-1.036218 3.8e-4,-1.918778 -0.0421,-1.961244 z m 0.0702,-1.342904 c 0,-0.550135 -0.38926,-0.293766 -0.80723,0.531646 -0.37393,0.738433 -0.24534,0.869162 0.30108,0.306106 0.31633,-0.325955 0.50615,-0.640137 0.50615,-0.837752 z"
       id="path1" /><text
       xml:space="preserve"
       style="font-size:4.81387px;line-height:1.1;font-family:'Trajan Pro';-inkscape-font-specification:'Trajan Pro, Normal';text-align:start;letter-spacing:0px;word-spacing:0px;writing-mode:lr-tb;direction:ltr;text-orientation:upright;text-anchor:start;fill:#ffffff;fill-opacity:1;stroke:#ce717a;stroke-width:0.0499998"
       x="44.614193"
       y="17.202129"
       id="text13"><tspan
         sodipodi:role="line"
         id="tspan13"
         style="font-style:normal;font-variant:normal;font-weight:normal;font-stretch:normal;font-size:4.81387px;font-family:Perpetua;-inkscape-font-specification:'Perpetua, Normal';font-variant-ligatures:normal;font-variant-caps:normal;font-variant-numeric:normal;font-variant-east-asian:normal;stroke:none;stroke-width:0.05"
         x="44.614193"
         y="17.202129">Journal</tspan></text><text
       xml:space="preserve"
       style="font-size:4.87892px;line-height:1.1;font-family:'Trajan Pro';-inkscape-font-specification:'Trajan Pro, Normal';text-align:start;letter-spacing:0px;word-spacing:0px;writing-mode:lr-tb;direction:ltr;text-orientation:upright;text-anchor:start;fill:#ffffff;fill-opacity:1;stroke:#ffffff;stroke-width:0.0499998;stroke-opacity:1"
       x="128.52509"
       y="28.927547"
       id="text13-1"
       transform="scale(1.0135134,0.98666678)"><tspan
         sodipodi:role="line"
         id="tspan13-7"
         style="font-style:normal;font-variant:normal;font-weight:normal;font-stretch:normal;font-size:4.87892px;font-family:Perpetua;-inkscape-font-specification:'Perpetua, Normal';font-variant-ligatures:normal;font-variant-caps:normal;font-variant-numeric:normal;font-variant-east-asian:normal;text-align:center;text-anchor:middle;stroke:#ffffff;stroke-width:0.05;stroke-opacity:1"
         x="128.52509"
         y="28.927547">Lorem Ipsum</tspan></text><text
       xml:space="preserve"
       style="font-size:3.41833px;line-height:1;font-family:'Trajan Pro';-inkscape-font-specification:'Trajan Pro, Normal';text-align:start;letter-spacing:-0.0105833px;word-spacing:0px;writing-mode:lr-tb;direction:ltr;text-orientation:upright;text-anchor:start;white-space:pre;inline-size:50.9204;fill:#ffffff;fill-opacity:1;stroke:#ffffff;stroke-width:0.0499998;stroke-opacity:1"
       x="102.45934"
       y="36.323727"
       id="text13-1-2"
       transform="scale(1.0168252,0.9834532)"><tspan
         x="102.45934"
         y="36.323727"
         id="tspan2"><tspan
           style="font-family:Perpetua;-inkscape-font-specification:'Perpetua, Normal';stroke-width:0.05"
           id="tspan1">Lorem Ipsum Dolors Si Lorem Ipsum </tspan></tspan><tspan
         x="102.45934"
         y="40.000626"
         id="tspan4"><tspan
           style="font-family:Perpetua;-inkscape-font-specification:'Perpetua, Normal';stroke-width:0.05"
           id="tspan3">Dolors Si Lorem Ipsum Dolors Si Lorem </tspan></tspan><tspan
         x="102.45934"
         y="43.677525"
         id="tspan6"><tspan
           style="font-family:Perpetua;-inkscape-font-specification:'Perpetua, Normal';stroke-width:0.05"
           id="tspan5">Ipsum Dolors Si Lorem Ipsum Dolors Si </tspan></tspan><tspan
         x="102.45934"
         y="47.354424"
         id="tspan8"><tspan
           style="font-family:Perpetua;-inkscape-font-specification:'Perpetua, Normal';stroke-width:0.05"
           id="tspan7">Lorem Ipsum Dolors Si Lorem Ipsum </tspan></tspan><tspan
         x="102.45934"
         y="51.031323"
         id="tspan10"><tspan
           style="font-family:Perpetua;-inkscape-font-specification:'Perpetua, Normal';stroke-width:0.05"
           id="tspan9">Dolors Si Lorem Ipsum Dolors Si</tspan></tspan></text><text
       xml:space="preserve"
       style="font-size:3.41833px;line-height:1;font-family:'Trajan Pro';-inkscape-font-specification:'Trajan Pro, Normal';text-align:start;letter-spacing:-0.0105833px;word-spacing:0px;writing-mode:lr-tb;direction:ltr;text-orientation:upright;text-anchor:start;white-space:pre;inline-size:50.9204;fill:#ffffff;fill-opacity:1;stroke:#ffffff;stroke-width:0.0499998;stroke-opacity:1"
       x="102.45934"
       y="36.323727"
       transform="scale(1.0168252,0.9834532)"
       id="text30"><tspan
         x="102.45934"
         y="36.323727"
         id="tspan12"><tspan
           style="font-family:Perpetua;-inkscape-font-specification:'Perpetua, Normal';stroke-width:0.05"
           id="tspan11">
</tspan></tspan><tspan
         x="102.45934"
         y="40.000626"
         id="tspan15"><tspan
           style="font-family:Perpetua;-inkscape-font-specification:'Perpetua, Normal';stroke-width:0.05"
           id="tspan14"> </tspan></tspan></text><text
       xml:space="preserve"
       style="font-size:3.41833px;line-height:1;font-family:'Trajan Pro';-inkscape-font-specification:'Trajan Pro, Normal';text-align:start;letter-spacing:-0.0105833px;word-spacing:0px;writing-mode:lr-tb;direction:ltr;text-orientation:upright;text-anchor:start;fill:#848484;fill-opacity:1;stroke:#848484;stroke-width:0.0499998;stroke-opacity:1"
       x="102.63445"
       y="66.426201"
       id="text13-1-2-2"
       transform="scale(1.0168252,0.9834532)"><tspan
         sodipodi:role="line"
         style="font-style:normal;font-variant:normal;font-weight:normal;font-stretch:normal;font-size:3.41833px;line-height:1;font-family:Perpetua;-inkscape-font-specification:'Perpetua, Normal';font-variant-ligatures:normal;font-variant-caps:normal;font-variant-numeric:normal;font-variant-east-asian:normal;letter-spacing:-0.0105833px;fill:#848484;fill-opacity:1;stroke:#848484;stroke-width:0.05;stroke-opacity:1"
         x="102.63445"
         y="66.426201"
         id="tspan15-2">Defeat 3 more times to complete the</tspan><tspan
         sodipodi:role="line"
         style="font-style:normal;font-variant:normal;font-weight:normal;font-stretch:normal;font-size:3.41833px;line-height:1;font-family:Perpetua;-inkscape-font-specification:'Perpetua, Normal';font-variant-ligatures:normal;font-variant-caps:normal;font-variant-numeric:normal;font-variant-east-asian:normal;letter-spacing:-0.0105833px;fill:#848484;fill-opacity:1;stroke:#848484;stroke-width:0.05;stroke-opacity:1"
         x="102.63445"
         y="70.103104"
         id="tspan22">hunter's notes.</tspan></text><path
       style="fill:#ffffff;fill-opacity:1;stroke:url(#linearGradient14);stroke-width:0.4;stroke-dasharray:none;stroke-opacity:1"
       d="M 100.41137,32.15789 V 94.11105"
       id="path13" /><g
       id="g28"
       style="opacity:0.673134;filter:url(#filter28)"><path
         style="fill:#ffffff;fill-opacity:1"
         d="m 160.68548,34.680115 c -0.009,-0.643759 -0.0513,-4.142915 -0.0949,-7.775902 -0.0577,-4.816927 -0.11965,-6.645841 -0.22862,-6.754679 -0.10109,-0.100974 -0.12592,-0.42959 -0.0768,-1.015961 0.0835,-0.99556 -0.14633,-1.781437 -0.66276,-2.266603 -0.40403,-0.379569 -0.41505,-0.756234 -0.0221,-0.756234 0.3693,0 0.59473,-0.223577 0.59473,-0.589849 0,-0.228345 -0.10573,-0.314629 -0.52335,-0.427082 -0.76072,-0.204842 -1.6072,-0.04183 -2.70918,0.52173 -0.53258,0.272361 -1.01961,0.495201 -1.0823,0.495201 -0.0627,0 -0.11398,-0.173544 -0.11398,-0.385654 0,-0.490412 -0.41006,-0.879427 -1.21986,-1.157254 -0.50021,-0.171613 -1.28197,-0.220611 -4.19028,-0.262637 -3.20634,-0.04633 -3.86679,-0.09501 -3.68984,-0.271956 0.0291,-0.0291 1.50484,-0.103312 3.27943,-0.164925 2.68692,-0.09329 3.30519,-0.15001 3.6969,-0.33916 l 0.47036,-0.227136 0.35213,0.280259 0.35213,0.280259 2.34094,-0.08605 2.34094,-0.08605 0.47181,-0.308293 c 0.25949,-0.169561 0.50086,-0.308292 0.53637,-0.308292 0.1869,0 1.62645,1.216054 1.7434,1.472724 0.17326,0.380265 0.0337,0.526627 -0.30217,0.316878 -0.43289,-0.270345 -0.3991,-0.07593 0.074,0.425688 0.48525,0.514516 0.78311,1.298588 0.57309,1.508603 -0.0826,0.08257 -0.19186,0.03001 -0.321,-0.154362 -0.10769,-0.153756 -0.28792,-0.279556 -0.4005,-0.279556 -0.16987,0 -0.15914,0.04848 0.0631,0.285082 0.40279,0.428753 0.91501,1.637836 1.00083,2.36244 0.10054,0.848956 -0.10873,0.840494 -0.54088,-0.02187 -0.68263,-1.362241 -1.06327,-1.485384 -1.06327,-0.343987 0,0.918259 0.38726,2.141788 0.8975,2.835604 0.4448,0.604841 0.47192,0.924152 0.0832,0.979363 -0.23116,0.03283 -0.3515,0.230813 -0.63986,1.052735 -0.4732,1.34875 -0.58417,2.715539 -0.59072,7.275907 -0.005,3.77218 -0.0752,5.0615 -0.27386,5.0615 -0.0599,0 -0.11598,-0.526712 -0.12462,-1.170472 z m 0.64646,-12.583014 c 0.001,-0.222078 -0.055,-0.438971 -0.1246,-0.481983 -0.0784,-0.04844 -0.1258,0.177511 -0.1246,0.593585 0.001,0.480409 0.0369,0.617717 0.1246,0.481984 0.0675,-0.104394 0.12354,-0.371507 0.1246,-0.593586 z m -3.79419,-7.705439 c 0,-0.02885 -0.42796,-0.05245 -0.95102,-0.05245 h -0.95103 l 0.40208,0.359261 0.40208,0.359262 0.54895,-0.306811 c 0.30192,-0.168746 0.54894,-0.330414 0.54894,-0.359262 z"
         id="path23" /><path
         style="fill:#ffffff;fill-opacity:1"
         d="m 44.167711,50.175296 c -0.04392,-0.219621 -0.11919,-2.877158 -0.16726,-5.905638 l -0.0874,-5.506328 -0.23274,-0.210627 c -0.168237,-0.152252 -0.23274,-0.390198 -0.23274,-0.858558 0,-0.464267 -0.106481,-0.862231 -0.375642,-1.403935 -0.49802,-1.002299 -0.487268,-1.16883 0.09093,-1.408447 0.260984,-0.108156 0.492416,-0.213309 0.514294,-0.233672 0.02188,-0.02036 -0.136836,-0.537412 -0.352699,-1.148998 -0.533972,-1.512855 -0.638901,-2.028014 -0.761577,-3.739037 -0.08691,-1.212159 -0.163298,-1.580392 -0.432913,-2.086862 -0.32313,-0.606998 -0.448117,-1.566032 -0.204095,-1.566032 0.06781,0 0.206409,0.160738 0.308001,0.357195 0.190488,0.368364 0.549013,0.729283 0.637021,0.641275 0.02744,-0.02744 -0.07026,-0.30603 -0.217116,-0.619085 -0.344083,-0.73349 -0.441931,-2.110613 -0.17529,-2.467055 0.240829,-0.321937 0.310045,-0.245432 0.448513,0.495749 0.06182,0.330926 0.171231,0.660509 0.243127,0.732405 0.205698,0.205698 0.681637,-0.981778 0.753801,-1.880727 l 0.06273,-0.781381 -0.342105,-0.342105 c -0.280188,-0.280187 -0.420158,-0.329438 -0.773371,-0.272119 -0.609102,0.09884 -0.65749,-0.11017 -0.138763,-0.599392 0.557879,-0.526148 1.882957,-0.9055 4.053301,-1.160404 1.220029,-0.143291 2.645948,-0.162902 6.974666,-0.09593 5.55366,0.08593 7.16151,0.01464 9.2054,-0.408169 1.24505,-0.257556 1.62875,-0.45398 2.40694,-1.232174 1.19295,-1.192948 1.24069,-2.078924 0.15334,-2.845364 -0.91462,-0.644679 -0.75784,-0.853211 0.43438,-0.577783 0.44324,0.102401 0.95442,0.168944 1.13594,0.147874 0.26252,-0.03047 0.1454,-0.110598 -0.57243,-0.391617 -0.88694,-0.347225 -1.96286,-1.1196 -1.79673,-1.289836 0.0465,-0.04769 0.58128,0.06479 1.18832,0.249947 1.59085,0.485239 2.83397,0.697307 4.08441,0.696771 l 1.09607,-4.69e-4 1.64499,-0.573691 c 0.90474,-0.315529 1.98663,-0.604117 2.40421,-0.641306 0.98013,-0.08729 2.57524,0.20278 3.61516,0.657413 1.05403,0.460799 1.74877,0.442947 3.15459,-0.08106 1.43425,-0.534599 1.72654,-0.579193 2.02514,-0.308968 0.44134,0.399408 1.61152,0.586675 4.11193,0.658042 2.73222,0.07798 3.65137,-0.04212 4.15175,-0.542505 l 0.31326,-0.313262 0.42739,0.252165 c 0.23506,0.13869 0.68245,0.343335 0.9942,0.454767 l 0.56682,0.202602 15.690646,0.0484 c 8.62985,0.02662 16.26007,0.08998 16.95602,0.140795 l 1.26538,0.09239 -0.44288,0.103864 c -0.24359,0.05713 -8.18698,0.135551 -17.65199,0.17428 l -17.209096,0.07042 c 0,0 28.892926,0.190482 -1.19894,0.190482 -1.4171,0 -2.04801,0.481507 -1.93589,0.773672 l 0.0758,0.197522 -1.19104,-0.07073 c -0.65507,-0.0389 -1.67368,-0.196809 -2.26358,-0.350902 l -1.07254,-0.280171 -0.52652,0.279316 -0.52651,0.279316 -0.26468,-0.165295 c -0.21898,-0.136756 -0.33615,-0.135054 -0.67862,0.0099 -0.82514,0.349147 -1.59551,0.305318 -2.62834,-0.149535 l -0.94903,-0.417947 -1.24817,0.34932 c -1.98882,0.556602 -2.90704,0.7066 -5.33178,0.870983 -1.557,0.105556 -2.3422,0.209469 -2.48159,0.328415 -0.33595,0.286665 -0.65831,1.129828 -0.56861,1.487231 0.048,0.191168 0.29659,0.459975 0.60611,0.655372 0.61971,0.391204 0.53253,0.481222 -0.59281,0.612066 -0.41758,0.04855 -2.46748,0.421662 -4.55535,0.829135 -2.08788,0.407472 -4.50791,0.801755 -5.37785,0.876183 -2.47283,0.211562 -2.62814,0.244 -3.08381,0.644086 l -0.41584,0.365114 -0.81256,-0.342034 -0.81256,-0.342034 h -1.45518 c -1.985667,0 -2.889783,0.252964 -5.369809,1.502425 -2.808436,1.414918 -3.662377,2.296777 -2.823496,2.915808 0.186756,0.137812 0.232378,0.233124 0.132603,0.277032 -0.08366,0.03682 -0.339897,0.194427 -0.569419,0.350247 l -0.417312,0.283309 0.006,0.688834 c 0.0046,0.523928 0.128737,0.962552 0.518662,1.832201 1.059927,2.363953 1.070927,3.459331 0.05436,5.414498 l -0.647274,1.244904 -0.07179,0.90704 c -0.07954,1.004913 0.132226,1.819218 0.603546,2.320915 l 0.265154,0.282243 -0.329372,0.391435 c -0.181155,0.215289 -0.384473,0.602379 -0.451821,0.860198 -0.06735,0.257819 -0.16216,2.461728 -0.210693,4.897575 -0.04853,2.435847 -0.12811,4.538744 -0.176834,4.673105 l -0.08859,0.244294 z m 0.917045,-16.742124 0.291871,-0.519316 -0.06325,-0.9675 c -0.05504,-0.841884 -0.464823,-2.169606 -0.669617,-2.169606 -0.03154,0 -0.05735,0.939541 -0.05735,2.087869 0,1.148328 0.04646,2.087868 0.103237,2.087868 0.05678,0 0.23458,-0.233691 0.395109,-0.519315 z m -1.243719,-4.832023 c -0.104807,0 -0.206063,0.04143 -0.350525,0.306933 -0.391097,0.718791 -0.260028,2.750864 0.250884,3.889668 0.122733,0.273567 0.155189,-0.05718 0.183776,-1.872752 0.0198,-1.25737 0.01171,-2.323849 -0.08413,-2.323849 z m 4.731305,-6.614716 c 0.765552,-0.30363 1.762034,-0.662661 2.214406,-0.797846 l 0.822494,-0.24579 -1.065204,-0.01184 c -2.258557,-0.0251 -3.779363,0.49766 -4.298628,1.477595 -0.233007,0.439719 -0.0634,0.560015 0.467273,0.331421 0.25726,-0.110818 1.094107,-0.449913 1.859659,-0.753544 z M 68.14414,19.062841 69.368,18.859019 69.25114,18.551647 c -0.13521,-0.355615 -0.0508,-0.792442 0.28111,-1.455241 0.12932,-0.258211 0.23512,-0.508145 0.23512,-0.55541 0,-0.163749 -1.25037,0.06306 -1.74844,0.317155 -0.61781,0.315182 -1.47305,1.380406 -1.80115,2.243402 l -0.12623,0.332004 0.41436,-0.08345 c 0.22791,-0.0459 0.96511,-0.175167 1.63823,-0.287269 z m 6.97028,-3.649627 c 0,1.308989 3.1127,-0.524573 3.55495,-0.65206 0.35186,-0.101429 0.11889,-0.241543 -0.93013,-0.559414 -0.61529,-0.186443 -1.28277,-0.288801 -1.89807,-0.29107 l -0.94903,-0.0035 -0.82249,0.399281 c -0.95932,0.465703 -1.89806,1.059117 -1.89806,1.199833 0,0.161008 2.94283,-1.496245 2.94283,-0.09307 z m 14.71685,-0.453812 c 0.0837,-0.135381 -1.28258,-0.135811 -2.09557,-6.58e-4 l -0.56942,0.09466 0.75923,0.09355 c 0.41757,0.05145 0.84463,0.107721 0.94903,0.125039 0.24207,0.04016 0.86438,-0.163173 0.95673,-0.312595 z m -6.67837,-0.165742 0.34379,-0.181896 -0.22995,-0.08983 c -0.29721,-0.116103 -1.63777,0.0052 -1.94064,0.175532 l -0.23362,0.131424 c 9.10959,2.807013 -15.49635,-3.993941 0.31634,0.133438 0.40676,0.106172 1.27958,0.07709 1.74408,-0.168668 z"
         id="path24" /><path
         style="fill:#ffffff;fill-opacity:1"
         d="m 162.90236,66.401714 c -0.0447,-0.178192 -0.0433,-0.56255 0.003,-0.854128 0.21081,-1.321088 0.22857,-1.60571 0.10022,-1.60571 -0.0728,0 -0.21312,0.242003 -0.31171,0.537784 -0.22522,0.675655 -0.40021,0.687466 -0.44868,0.03028 -0.0262,-0.355597 0.0779,-0.76192 0.34798,-1.3575 0.43076,-0.950017 0.47934,-1.424362 0.18842,-1.839701 -0.24766,-0.353592 -0.43564,-0.353965 -0.8834,-0.0018 l -0.3553,0.279475 -0.26282,-0.372687 c -0.14455,-0.204977 -0.44655,-0.547096 -0.67111,-0.760263 l -0.40829,-0.387576 0.68211,-0.721318 c 0.37516,-0.396725 0.72604,-0.721318 0.77974,-0.721318 0.0537,0 0.2342,0.128119 0.40112,0.284709 l 0.30348,0.28471 0.30573,-0.355035 c 0.4019,-0.466716 0.38507,-0.875889 -0.0739,-1.796103 -0.363,-0.727842 -0.46707,-1.333102 -0.3028,-1.761176 0.12478,-0.325179 0.27314,-0.231569 0.43481,0.27436 0.22443,0.702289 0.4169,0.83223 0.32802,0.221441 -0.25471,-1.750189 -0.24645,-2.594019 0.0254,-2.594019 0.0555,0 0.20429,0.4413 0.33054,0.980666 0.3254,1.390114 0.88833,2.869248 1.45964,3.835284 0.46885,0.792784 1.49706,1.890538 1.77077,1.890538 0.23167,0 0.13615,0.360404 -0.11681,0.440689 -0.46926,0.14894 -1.56004,1.502175 -2.04168,2.532942 -0.42364,0.906637 -0.98465,2.56788 -1.18583,3.511416 -0.0932,0.437061 -0.29226,0.449033 -0.39894,0.02399 z m 0.74663,-3.313966 c 0.29104,-0.962448 0.65806,-1.752885 0.90359,-1.946016 0.16073,-0.12643 0.38917,-0.43415 0.50765,-0.683822 l 0.21541,-0.45395 -0.21574,-0.340352 c -0.11866,-0.187193 -0.35645,-0.491798 -0.52843,-0.6769 -0.17198,-0.185101 -0.44596,-0.717946 -0.60884,-1.184099 -0.16289,-0.466152 -0.32799,-0.879379 -0.36689,-0.918281 -0.17118,-0.171178 -0.20231,0.115484 -0.0671,0.617681 0.16391,0.608694 0.0798,1.406297 -0.18878,1.789714 -0.13855,0.197798 -0.1448,0.304322 -0.0288,0.490109 0.11488,0.183952 0.11119,0.296713 -0.0164,0.50099 l -0.16463,0.263609 0.20687,0.315724 c 0.23391,0.356992 0.29825,1.265329 0.13972,1.972518 -0.10765,0.48019 0.077,0.700354 0.21231,0.253075 z m -1.61512,-2.819926 0.23307,-0.257541 -0.27673,-0.276728 -0.27673,-0.276729 -0.27673,0.276729 -0.27673,0.276728 0.23308,0.257541 c 0.12818,0.141648 0.27236,0.257541 0.32038,0.257541 0.048,0 0.1922,-0.115893 0.32039,-0.257541 z"
         id="path25" /><path
         style="fill:#ffffff;fill-opacity:1"
         d="m 41.109462,66.321157 c 0,-0.789617 -0.850091,-2.944003 -1.107241,-3.454572 -0.458336,-0.910024 -1.328991,-2.030109 -1.868819,-2.40421 l -0.529038,-0.366624 0.35922,-0.255521 c 0.683143,-0.485934 1.31469,-1.28049 1.869286,-2.351767 0.553848,-1.069832 1.337028,-3.420454 1.337028,-4.012931 0,-0.51772 0.304292,-0.255642 0.407908,0.351319 0.06453,0.378015 0.03021,0.816558 -0.106616,1.362124 -0.244399,0.974513 -0.05446,1.389209 0.21629,0.472233 0.212356,-0.719203 0.419225,-0.680228 0.469658,0.08849 0.02812,0.428581 -0.04707,0.750694 -0.284709,1.219643 -0.406375,0.801942 -0.435039,1.643811 -0.0673,1.97661 l 0.25562,0.231333 0.3877,-0.28664 0.3877,-0.286639 0.685324,0.736386 c 0.376929,0.405013 0.685324,0.738955 0.685324,0.742094 0,0.0031 -0.312953,0.341978 -0.695452,0.752976 l -0.695451,0.747268 -0.306083,-0.28755 c -0.367951,-0.345672 -0.731107,-0.273278 -0.941099,0.187605 -0.215097,0.472087 -0.184944,0.667546 0.242303,1.570676 0.389611,0.823572 0.511951,1.684027 0.27336,1.922618 -0.08623,0.08622 -0.179064,-0.03057 -0.284749,-0.358228 -0.220825,-0.684627 -0.278831,-0.754281 -0.386272,-0.463841 -0.05196,0.140468 -0.03906,0.515224 0.02867,0.83279 0.151375,0.709755 0.09552,1.639116 -0.102428,1.704139 -0.0819,0.0269 -0.230134,-0.131752 -0.230134,-0.369778 z m -0.0069,-3.233409 c 0.132398,0 -0.12252,-0.55885 -0.156891,-0.97124 -0.04761,-0.571228 -0.0081,-0.850819 0.165939,-1.17397 0.174676,-0.324354 0.193521,-0.45908 0.08008,-0.572518 -0.192822,-0.192822 -0.190686,-0.568679 0.0036,-0.633441 0.110296,-0.03677 0.08839,-0.184595 -0.07993,-0.539288 -0.188335,-0.396886 -0.217061,-0.663879 -0.152984,-1.421904 0.04339,-0.513296 0.02981,-0.902932 -0.03018,-0.865858 -0.05999,0.03707 -0.240824,0.424503 -0.401859,0.860955 -0.161035,0.436451 -0.510081,1.043568 -0.775658,1.349148 -0.299679,0.344818 -0.482868,0.68353 -0.482868,0.892813 0,0.325455 0.413061,1.006769 0.796264,1.31338 0.102125,0.08171 0.220742,0.299876 0.263592,0.484806 0.13829,0.596822 0.571967,1.498557 0.72071,1.498557 0.08929,0 -0.0985,-0.22144 0.05018,-0.22144 z m 2.013334,-2.845336 c 0,0.204442 0.08375,-0.274275 -0.118544,-0.47657 l -0.256888,-0.256887 -0.28736,0.267717 -0.287361,0.267716 0.221878,0.245173 c 0.256886,0.283857 0.728275,-0.417351 0.728275,-0.04715 z"
         id="path26" /><path
         style="fill:#ffffff;fill-opacity:1"
         d="m 44.439464,107.56168 c 0.01849,0.24042 -0.569571,-0.46898 -0.854128,-0.6991 -0.284557,-0.23012 -0.517376,-0.52906 -0.517376,-0.66432 0,-0.28182 0.04899,-0.29634 0.387932,-0.11494 0.362504,0.194 0.299844,-0.0452 -0.133281,-0.50892 -0.380942,-0.4078 -0.746612,-1.32343 -0.590769,-1.47927 0.04622,-0.0462 0.215606,0.0396 0.376407,0.19062 0.494315,0.46439 0.638791,0.30639 0.212272,-0.23213 -0.220766,-0.27874 -0.51026,-0.80465 -0.64332,-1.16869 -0.256716,-0.70234 -0.324112,-1.61449 -0.119291,-1.61449 0.06745,0 0.275579,0.31235 0.462508,0.69411 0.186929,0.38175 0.448399,0.79232 0.581044,0.91236 l 0.241173,0.21826 0.116875,-0.18477 c 0.39353,-0.62216 -0.135113,-2.6391 -0.983924,-3.753995 -0.326284,-0.428569 -0.296403,-0.669791 0.08297,-0.669791 0.156369,0 0.316462,-0.21018 0.506012,-0.664321 0.576484,-1.381192 0.651574,-2.153931 0.722397,-7.434079 0.03687,-2.749027 0.09273,-5.07893 0.124123,-5.177562 0.219237,-0.688784 0.296722,0.924678 0.370185,7.708312 0.05719,5.281068 0.126223,7.708306 0.222568,7.825716 0.08265,0.10071 0.125878,0.57456 0.105896,1.16072 -0.03656,1.07238 0.115292,1.53733 0.709661,2.17295 0.357566,0.38237 0.314861,0.69456 -0.103547,0.75696 -0.346282,0.0516 -0.652024,0.48617 -0.507085,0.72069 0.157998,0.25565 1.126762,0.39196 1.836647,0.25843 0.343315,-0.0646 0.985871,-0.3162 1.427902,-0.55917 0.985554,-0.54173 1.174594,-0.55563 1.174594,-0.0863 0,0.50544 0.215225,0.73051 1.047543,1.09547 l 0.731198,0.32062 3.06493,0.0111 c 5.13829,0.0186 5.86847,0.32078 0.97706,0.40437 l -2.97364,0.0508 -0.584195,0.2613 -0.584198,0.26129 -0.364833,-0.24052 -0.364833,-0.24052 -2.087869,0.005 c -2.13211,0.005 -2.796637,0.11657 -3.276681,0.551 -0.289352,0.26186 -0.833412,-0.61317 -0.792928,-0.0869 z m 5.208446,-1.046 c 0,0.0381 -0.150131,-0.19848 -0.333624,-0.35631 l -0.333624,-0.28697 -0.552138,0.254 c -0.303676,0.13971 -0.552139,0.30005 -0.552139,0.35631 0,0.0563 0.398593,0.10231 0.885763,0.10231 0.487169,0 0.885762,-0.10748 0.885762,-0.0693 z m -5.429451,-8.121242 c -0.209076,0 -0.131249,-0.123947 -0.134351,0.292528 -0.0021,0.284182 0.03886,0.560097 0.09106,0.613146 0.149787,0.15223 0.33179,-0.905674 0.0433,-0.905674 z"
         id="path27" /><path
         style="fill:#ffffff;fill-opacity:1"
         d="m 127.74182,107.66574 -1.51481,-0.43956 -0.26769,0.25148 -0.26769,0.25148 -0.55845,-0.3094 -0.55845,-0.3094 -13.47624,-0.0649 c -11.63978,-0.0561 -14.97418,-0.13447 -14.67835,-0.34508 0.0348,-0.0248 5.87134,-0.0776 12.97009,-0.11748 l 12.90683,-0.0724 0.92226,-0.26767 c 0.50724,-0.14722 1.06042,-0.3582 1.22929,-0.46884 0.43012,-0.28183 0.52591,-0.26172 1.30219,0.27334 l 0.68843,0.47451 1.41392,0.0419 c 0.77766,0.023 1.82932,-0.0157 2.33703,-0.0861 1.13745,-0.15762 2.50005,-0.78665 3.36112,-1.55163 0.42242,-0.37528 0.75063,-0.56132 1.0123,-0.5738 0.21296,-0.0102 0.70039,-0.13642 1.08317,-0.28058 0.38277,-0.14416 0.89525,-0.26271 1.13883,-0.26346 0.50966,-0.002 1.38015,0.36371 2.00796,0.84257 l 0.43344,0.3306 1.27842,-0.14788 c 2.55299,-0.2953 5.13975,-0.11019 7.01583,0.50207 l 0.42284,0.138 1.22958,-0.57836 c 1.72882,-0.81319 3.27908,-1.18598 3.49294,-0.83994 0.0433,0.0701 -0.0245,0.15875 -0.1507,0.19703 -0.58727,0.17811 -2.57041,1.20808 -2.57041,1.33497 0,0.0996 0.28236,0.12054 0.9351,0.0694 1.22524,-0.0959 2.05371,-0.31194 2.5886,-0.67493 0.61597,-0.418 0.82946,-0.39092 0.73268,0.0929 l -0.0775,0.38765 0.28316,-0.0795 c 0.69613,-0.19535 2.13653,-0.9928 2.56229,-1.41856 0.51853,-0.51853 0.69449,-0.88253 0.69449,-1.43665 v -0.37137 h -0.43541 c -0.89473,0 -0.57925,-0.62072 0.36985,-0.7277 l 0.55247,-0.0623 0.30727,0.30727 c 0.169,0.169 0.33332,0.38541 0.36515,0.4809 0.0431,0.12934 0.20629,0.0715 0.63957,-0.22658 l 0.58169,-0.40021 -0.0681,-0.75116 -0.0681,-0.75117 0.39802,-0.800968 c 0.21891,-0.440533 0.49355,-0.951093 0.6103,-1.134577 l 0.21228,-0.333608 -0.52401,-0.80523 c -0.67772,-1.04143 -0.99842,-1.779397 -1.242,-2.857984 l -0.19714,-0.872965 0.2014,-0.868393 c 0.2148,-0.926232 0.70859,-1.883914 1.33106,-2.581544 l 0.38224,-0.428394 v -0.819269 c 0,-0.671282 -0.07,-0.950525 -0.3873,-1.545922 l -0.3873,-0.726653 0.26447,-0.507401 c 0.32856,-0.630363 0.46735,-1.856667 0.58407,-5.160817 0.10157,-2.875283 0.28024,-2.98741 0.30246,-0.189807 0.008,1.009137 0.0629,3.059045 0.12194,4.555351 l 0.10738,2.720556 0.27565,0.727591 c 0.15161,0.400174 0.32241,0.72759 0.37956,0.72759 0.0572,0 0.14203,0.09933 0.18861,0.22073 0.0581,0.151499 -0.0185,0.303006 -0.24428,0.483053 l -0.32898,0.262323 0.25782,0.327765 c 0.36697,0.466534 0.3213,0.785352 -0.18507,1.291712 l -0.44288,0.442881 v 2.414888 2.414887 l 0.44288,0.185048 c 0.24359,0.101776 0.44289,0.269696 0.44289,0.373155 0,0.10346 -0.0433,0.188108 -0.0961,0.188108 -0.29444,0 -0.70638,1.235138 -0.58028,1.739891 0.071,0.284301 0.4233,0.407159 0.4233,0.147627 0,-0.0754 0.0712,-0.113312 0.15817,-0.08426 0.22063,0.07368 0.12627,0.800466 -0.18458,1.421696 -0.13978,0.27935 -0.82103,1.06309 -1.51388,1.74164 -0.69286,0.67856 -1.23234,1.23374 -1.19886,1.23374 0.23738,0 1.39815,-0.61011 1.94286,-1.02119 0.36239,-0.27349 0.68981,-0.49726 0.72759,-0.49726 0.13356,0 0.0663,0.52332 -0.11139,0.86698 -0.30409,0.58804 -1.30735,1.40845 -2.29724,1.87854 -1.40194,0.66578 -1.3396,0.84308 0.11823,0.33623 0.63417,-0.22049 0.78068,-0.11413 0.46107,0.33473 -0.33365,0.46857 -0.95411,0.8463 -1.93379,1.17727 l -0.7868,0.26582 -2.66944,0.006 c -1.94026,0.004 -2.72146,0.0492 -2.85985,0.16406 -0.15612,0.12955 -0.46047,0.0555 -1.69079,-0.41125 -0.82521,-0.31308 -1.65558,-0.56924 -1.84527,-0.56924 -0.18968,0 -0.61913,0.16966 -0.95434,0.37703 -0.77297,0.47817 -1.78556,0.82495 -3.00933,1.03058 -1.59691,0.26832 -2.90307,-0.14173 -4.46542,-1.4019 -0.43533,-0.35112 -0.89673,-0.6384 -1.02535,-0.6384 -0.38284,0 -3.06239,0.7314 -3.94093,1.07569 -1.62619,0.63731 -3.41813,1.07482 -4.6705,1.14035 l -1.21318,0.0635 z m 17.28582,-0.66337 c 0.86124,-0.27318 1.93717,-0.91791 1.78528,-1.0698 -0.0625,-0.0625 -0.73556,-0.19635 -1.49576,-0.29751 -2.15006,-0.28613 -5.19031,-0.22488 -5.08123,0.10236 0.0562,0.16858 1.19166,0.80727 2.09775,1.17996 0.86037,0.35389 1.75704,0.38218 2.69396,0.085 z m -9.10777,-1.16285 c 0.86165,-0.27361 1.78054,-0.5376 2.04197,-0.58665 l 0.47534,-0.0892 -0.153,-0.18435 c -0.24645,-0.29695 -1.07737,-0.67201 -1.48879,-0.67201 -1.15078,0 -3.81207,1.62933 -3.49616,2.14047 0.0891,0.14409 0.69193,0.004 2.62064,-0.60829 z m 25.00738,-5.10687 c 0.14723,-0.17843 0.0516,-1.360275 -0.11003,-1.360275 -0.10918,0 -0.36719,0.804955 -0.3684,1.149385 -0.001,0.36738 0.2558,0.48071 0.47843,0.21089 z m 0.0833,-8.179185 c -0.14456,-0.144564 -0.80164,0.732234 -0.88609,1.182395 -0.1192,0.635393 0.0112,1.166498 0.48292,1.966927 l 0.41014,0.695957 0.0351,-1.884035 c 0.0193,-1.036218 3.8e-4,-1.918778 -0.0421,-1.961244 z m 0.0702,-1.342904 c 0,-0.550135 -0.38926,-0.293766 -0.80723,0.531646 -0.37393,0.738433 -0.24534,0.869162 0.30108,0.306106 0.31633,-0.325955 0.50615,-0.640137 0.50615,-0.837752 z"
         id="path28" /></g><ellipse
       style="opacity:0.556716;fill:#ffffff;fill-opacity:1;stroke:none;stroke-width:0.671079;stroke-dasharray:none;stroke-opacity:1;filter:url(#filter29)"
       id="path29"
       cx="72.022499"
       cy="63.576561"
       rx="19.304998"
       ry="26.265938"
       transform="matrix(0.59605525,0,0,0.59605525,26.993005,24.106338)" /></g></svg>
