<?xml version="1.0" encoding="UTF-8" standalone="no"?>
<!-- Created with Inkscape (http://www.inkscape.org/) -->

<svg
   width="63.273323mm"
   height="8.1340485mm"
   viewBox="0 0 63.273323 8.1340485"
   version="1.1"
   id="svg1"
   xml:space="preserve"
   inkscape:version="1.4 (86a8ad7, 2024-10-11)"
   sodipodi:docname="skonguistuff.svg"
   inkscape:export-filename="..\Github\skonguistuff.png"
   inkscape:export-xdpi="400"
   inkscape:export-ydpi="400"
   xmlns:inkscape="http://www.inkscape.org/namespaces/inkscape"
   xmlns:sodipodi="http://sodipodi.sourceforge.net/DTD/sodipodi-0.dtd"
   xmlns="http://www.w3.org/2000/svg"
   xmlns:svg="http://www.w3.org/2000/svg"><sodipodi:namedview
     id="namedview1"
     pagecolor="#ffffff"
     bordercolor="#000000"
     borderopacity="0.25"
     inkscape:showpageshadow="2"
     inkscape:pageopacity="0.0"
     inkscape:pagecheckerboard="0"
     inkscape:deskcolor="#d1d1d1"
     inkscape:document-units="mm"
     inkscape:zoom="2.0000001"
     inkscape:cx="434.74999"
     inkscape:cy="555.49999"
     inkscape:window-width="1920"
     inkscape:window-height="1012"
     inkscape:window-x="0"
     inkscape:window-y="0"
     inkscape:window-maximized="1"
     inkscape:current-layer="layer1"
     showgrid="false"
     showguides="true"><inkscape:page
       x="0"
       y="0"
       width="63.273323"
       height="8.1340485"
       id="page2"
       margin="0"
       bleed="0" /></sodipodi:namedview><defs
     id="defs1"><filter
       inkscape:collect="always"
       style="color-interpolation-filters:sRGB"
       id="filter207"
       x="-0.02599783"
       y="-0.31231281"
       width="1.0519957"
       height="1.6246256"><feGaussianBlur
         inkscape:collect="always"
         stdDeviation="0.65152718"
         id="feGaussianBlur207" /></filter></defs><g
     inkscape:label="Layer 1"
     inkscape:groupmode="layer"
     id="layer1"
     transform="translate(-19.881637,-207.18689)"><g
       id="g208"
       transform="translate(-96.257118,11.973674)"><g
         id="g183"><path
           style="fill:#4b4b4b;fill-opacity:1;stroke-width:1.23527"
           d="m 147.97787,201.76736 c -0.80617,0.0518 -1.16174,-0.0135 -1.6105,-0.29535 -0.31676,-0.19897 -0.70128,-0.60418 -0.85452,-0.90047 -0.1532,-0.29629 -0.27826,-0.88678 -0.2779,-1.31218 4e-4,-0.44947 0.14778,-1.01475 0.35183,-1.34942 0.19315,-0.31676 0.5936,-0.70129 0.88989,-0.85449 0.29627,-0.15323 0.87186,-0.27858 1.27904,-0.27858 0.40719,0 0.91716,0.091 1.13328,0.20237 0.21611,0.11129 0.57599,0.36913 0.79972,0.57294 0.22373,0.20381 0.48994,0.67941 0.5916,1.05688 0.12613,0.46843 0.12638,0.90326 8.5e-4,1.36951 -0.10115,0.37574 -0.42804,0.91699 -0.72635,1.20278 -0.44266,0.42411 -0.73255,0.53184 -1.57694,0.58601 z m -0.33571,-0.31499 c 0.51945,-8.8e-4 0.48948,-0.0349 -0.41019,-0.45356 -0.53383,-0.24851 -1.00358,-0.41885 -1.04387,-0.37855 -0.0404,0.0403 0.14428,0.24441 0.41019,0.45357 0.26592,0.20917 0.73564,0.37951 1.04387,0.37854 z m 1.0404,-0.37068 c 0.0661,0.007 0.24824,-0.0364 0.40475,-0.0966 0.15651,-0.0601 0.28457,-0.16338 0.28457,-0.22962 0,-0.0662 -0.34405,-0.0869 -0.76456,-0.0459 -0.59922,0.0587 -0.68675,0.10538 -0.40476,0.21699 0.19788,0.0784 0.41388,0.14802 0.48,0.15497 z m -1.05405,-0.88957 c 0.90938,-8.9e-4 1.76419,-0.073 1.89958,-0.15871 0.15135,-0.0959 -0.50698,-0.18688 -1.70901,-0.23626 -1.07533,-0.0442 -1.98351,-0.059 -2.01813,-0.0331 -0.0345,0.026 -0.0104,0.13348 0.0556,0.23901 0.0703,0.11377 0.79202,0.19074 1.77198,0.18911 z m 0.65622,-0.7891 1.64546,0.0177 -0.0542,-0.46742 c -0.05,-0.4309 -0.11611,-0.46453 -0.84632,-0.43062 -0.43561,0.0202 -1.18024,0.17639 -1.65473,0.347 -0.4745,0.17063 -0.83412,0.35647 -0.79915,0.41296 0.035,0.0564 0.80402,0.11069 1.70902,0.12044 z m -2.08937,-0.42601 c 0.31242,-0.17072 0.81089,-0.40822 1.10772,-0.52777 0.51175,-0.20611 0.48909,-0.21544 -0.43761,-0.18032 -0.8993,0.0341 -0.98771,0.0762 -1.10773,0.52779 l -0.13042,0.49074 z m 1.64741,-1.31608 c 0.8685,-0.007 1.14761,-0.0578 0.89948,-0.16448 -0.1979,-0.0851 -0.64313,-0.15907 -0.98943,-0.1645 -0.3463,-0.005 -0.75106,0.0684 -0.89949,0.1645 -0.18763,0.12131 0.11377,0.17136 0.98944,0.16448 z"
           id="path149" /><path
           style="fill:#4b4b4b;fill-opacity:1;stroke:none;stroke-opacity:1"
           d="m 150.59175,201.23322 c -0.0672,0 -0.12214,-0.0756 -0.12214,-0.16807 0,-0.0924 0.26214,-0.39245 0.58253,-0.66669 0.44061,-0.37715 0.58252,-0.60562 0.58252,-0.93781 0,-0.3167 -0.0812,-0.46042 -0.29126,-0.51535 -0.1602,-0.0419 -0.29126,-0.16161 -0.29126,-0.26605 0,-0.10445 0.18021,-0.22338 0.40048,-0.26431 0.22027,-0.0409 0.95753,-0.15112 1.63836,-0.24489 0.68083,-0.0938 1.95875,-0.30004 2.83983,-0.45839 0.88107,-0.15836 2.09657,-0.41182 2.70112,-0.56324 1.06863,-0.26766 1.12325,-0.26792 1.96603,-0.009 0.47677,0.14632 1.129,0.40349 1.44939,0.5715 0.32039,0.168 0.77913,0.34014 1.01942,0.38252 0.24029,0.0424 0.66583,0.14366 0.94565,0.22505 0.27981,0.0814 0.90962,0.14799 1.39959,0.14799 0.71697,0 0.99868,-0.0732 1.44338,-0.37497 l 0.55255,-0.37497 0.66924,0.36315 c 0.65864,0.3574 0.74128,0.36483 5.22023,0.46891 2.50305,0.0582 4.551,0.1562 4.551,0.21784 0,0.0616 -0.44235,0.13428 -0.98301,0.16142 -0.54066,0.0271 -3.24395,0.0699 -6.00732,0.0951 -2.76337,0.0252 -5.18814,0.0794 -5.38838,0.12056 -0.20025,0.0412 -0.52792,0.1297 -0.72816,0.19677 -0.20025,0.0671 -0.54249,0.16085 -0.76054,0.20838 -0.21805,0.0475 -0.52363,0.22292 -0.67906,0.38975 -0.19551,0.20986 -0.37694,0.27341 -0.58868,0.2062 -0.16833,-0.0534 -0.26962,-0.1561 -0.22508,-0.22817 0.0445,-0.0721 -0.0276,-0.29672 -0.16027,-0.49923 l -0.24125,-0.36819 H 158.963 c -3.01714,0 -3.15065,0.0123 -3.91447,0.36172 -0.43494,0.19894 -1.03693,0.51701 -1.33776,0.70682 -0.30084,0.18981 -1.0982,0.51855 -1.77192,0.73052 -0.67372,0.21198 -1.27992,0.38542 -1.3471,0.38542 z m 8.50655,-2.77555 c 1.40179,0.005 2.2937,-0.0468 2.2937,-0.13373 0,-0.0783 -0.17485,-0.25684 -0.38855,-0.39687 -0.27504,-0.18021 -0.6473,-0.24823 -1.27428,-0.23285 -0.52905,0.013 -1.29624,0.16936 -1.90515,0.38832 l -1.01942,0.36658 z"
           id="path83" /><path
           style="fill:#4b4b4b;fill-opacity:1;stroke:none;stroke-opacity:1"
           d="m 144.89059,201.22879 c -0.0954,-0.002 -0.27175,-0.0605 -0.39189,-0.12892 -0.12015,-0.0685 -0.44782,-0.17119 -0.72816,-0.22828 -0.28034,-0.0571 -0.90292,-0.275 -1.3835,-0.48427 -0.48059,-0.20926 -0.90802,-0.42832 -0.94985,-0.48678 -0.0418,-0.0585 -0.43504,-0.2734 -0.87379,-0.47763 -0.77623,-0.36131 -0.88153,-0.37136 -3.90548,-0.37275 -3.04561,-0.001 -3.11321,0.005 -3.3811,0.32625 -0.15035,0.18022 -0.27554,0.44236 -0.2782,0.58253 -0.003,0.15615 -0.11765,0.25485 -0.29611,0.25485 -0.16019,0 -0.29126,-0.0639 -0.29126,-0.14189 0,-0.078 -0.18778,-0.23899 -0.41728,-0.35767 -0.2295,-0.11868 -0.57356,-0.24431 -0.76457,-0.27917 -0.19101,-0.0349 -0.60943,-0.13193 -0.92982,-0.21572 -0.33359,-0.0872 -2.76068,-0.17166 -5.67964,-0.19755 -2.80342,-0.0249 -5.50671,-0.0676 -6.00732,-0.0949 -0.50061,-0.0273 -0.9102,-0.0999 -0.9102,-0.16123 0,-0.0614 2.04795,-0.15851 4.551,-0.21588 3.14847,-0.0722 4.6632,-0.16018 4.91508,-0.2856 0.20024,-0.0997 0.49792,-0.26615 0.6615,-0.36985 0.25803,-0.16359 0.37162,-0.13821 0.8577,0.19165 0.44985,0.30528 0.73236,0.38022 1.43327,0.38022 0.48014,0 1.10996,-0.0617 1.39959,-0.13703 0.28963,-0.0754 0.8379,-0.21496 1.21836,-0.31019 0.38046,-0.0952 0.69175,-0.22526 0.69175,-0.28895 0,-0.0637 0.52458,-0.2856 1.16572,-0.49315 l 1.16573,-0.37737 1.49206,0.36216 c 0.82063,0.19918 1.78102,0.43216 2.1342,0.51772 0.35317,0.0856 1.30342,0.21854 2.11166,0.2955 0.80824,0.077 1.84635,0.21401 2.30691,0.30456 0.46056,0.0906 0.83738,0.21114 0.83738,0.26795 0,0.0568 -0.16384,0.17796 -0.36408,0.2692 -0.25271,0.11514 -0.36408,0.28192 -0.36408,0.54523 0,0.23997 0.18176,0.55585 0.49472,0.85978 0.27209,0.26424 0.5786,0.5084 0.68113,0.54257 0.10252,0.0342 0.13817,0.14019 0.0792,0.23558 -0.059,0.0954 -0.18524,0.17146 -0.28064,0.16902 z m -8.63223,-2.76718 c 1.27488,0.003 2.28492,-0.0284 2.24452,-0.0688 -0.0404,-0.0404 -0.52645,-0.22514 -1.0801,-0.41052 -0.55366,-0.18539 -1.17049,-0.32827 -1.37073,-0.31751 -0.20025,0.0108 -0.57342,0.0317 -0.82927,0.0464 -0.25597,0.0148 -0.64895,0.18855 -0.87379,0.38636 l -0.40861,0.35948 z"
           id="path84" /></g><g
         id="g207"
         style="opacity:0.5;filter:url(#filter207)"><path
           style="fill:#4b4b4b;fill-opacity:1;stroke-width:1.23527"
           d="m 147.97787,201.76736 c -0.80617,0.0518 -1.16174,-0.0135 -1.6105,-0.29535 -0.31676,-0.19897 -0.70128,-0.60418 -0.85452,-0.90047 -0.1532,-0.29629 -0.27826,-0.88678 -0.2779,-1.31218 4e-4,-0.44947 0.14778,-1.01475 0.35183,-1.34942 0.19315,-0.31676 0.5936,-0.70129 0.88989,-0.85449 0.29627,-0.15323 0.87186,-0.27858 1.27904,-0.27858 0.40719,0 0.91716,0.091 1.13328,0.20237 0.21611,0.11129 0.57599,0.36913 0.79972,0.57294 0.22373,0.20381 0.48994,0.67941 0.5916,1.05688 0.12613,0.46843 0.12638,0.90326 8.5e-4,1.36951 -0.10115,0.37574 -0.42804,0.91699 -0.72635,1.20278 -0.44266,0.42411 -0.73255,0.53184 -1.57694,0.58601 z m -0.33571,-0.31499 c 0.51945,-8.8e-4 0.48948,-0.0349 -0.41019,-0.45356 -0.53383,-0.24851 -1.00358,-0.41885 -1.04387,-0.37855 -0.0404,0.0403 0.14428,0.24441 0.41019,0.45357 0.26592,0.20917 0.73564,0.37951 1.04387,0.37854 z m 1.0404,-0.37068 c 0.0661,0.007 0.24824,-0.0364 0.40475,-0.0966 0.15651,-0.0601 0.28457,-0.16338 0.28457,-0.22962 0,-0.0662 -0.34405,-0.0869 -0.76456,-0.0459 -0.59922,0.0587 -0.68675,0.10538 -0.40476,0.21699 0.19788,0.0784 0.41388,0.14802 0.48,0.15497 z m -1.05405,-0.88957 c 0.90938,-8.9e-4 1.76419,-0.073 1.89958,-0.15871 0.15135,-0.0959 -0.50698,-0.18688 -1.70901,-0.23626 -1.07533,-0.0442 -1.98351,-0.059 -2.01813,-0.0331 -0.0345,0.026 -0.0104,0.13348 0.0556,0.23901 0.0703,0.11377 0.79202,0.19074 1.77198,0.18911 z m 0.65622,-0.7891 1.64546,0.0177 -0.0542,-0.46742 c -0.05,-0.4309 -0.11611,-0.46453 -0.84632,-0.43062 -0.43561,0.0202 -1.18024,0.17639 -1.65473,0.347 -0.4745,0.17063 -0.83412,0.35647 -0.79915,0.41296 0.035,0.0564 0.80402,0.11069 1.70902,0.12044 z m -2.08937,-0.42601 c 0.31242,-0.17072 0.81089,-0.40822 1.10772,-0.52777 0.51175,-0.20611 0.48909,-0.21544 -0.43761,-0.18032 -0.8993,0.0341 -0.98771,0.0762 -1.10773,0.52779 l -0.13042,0.49074 z m 1.64741,-1.31608 c 0.8685,-0.007 1.14761,-0.0578 0.89948,-0.16448 -0.1979,-0.0851 -0.64313,-0.15907 -0.98943,-0.1645 -0.3463,-0.005 -0.75106,0.0684 -0.89949,0.1645 -0.18763,0.12131 0.11377,0.17136 0.98944,0.16448 z"
           id="path184" /><path
           style="fill:#4b4b4b;fill-opacity:1;stroke:none;stroke-opacity:1"
           d="m 150.59175,201.23322 c -0.0672,0 -0.12214,-0.0756 -0.12214,-0.16807 0,-0.0924 0.26214,-0.39245 0.58253,-0.66669 0.44061,-0.37715 0.58252,-0.60562 0.58252,-0.93781 0,-0.3167 -0.0812,-0.46042 -0.29126,-0.51535 -0.1602,-0.0419 -0.29126,-0.16161 -0.29126,-0.26605 0,-0.10445 0.18021,-0.22338 0.40048,-0.26431 0.22027,-0.0409 0.95753,-0.15112 1.63836,-0.24489 0.68083,-0.0938 1.95875,-0.30004 2.83983,-0.45839 0.88107,-0.15836 2.09657,-0.41182 2.70112,-0.56324 1.06863,-0.26766 1.12325,-0.26792 1.96603,-0.009 0.47677,0.14632 1.129,0.40349 1.44939,0.5715 0.32039,0.168 0.77913,0.34014 1.01942,0.38252 0.24029,0.0424 0.66583,0.14366 0.94565,0.22505 0.27981,0.0814 0.90962,0.14799 1.39959,0.14799 0.71697,0 0.99868,-0.0732 1.44338,-0.37497 l 0.55255,-0.37497 0.66924,0.36315 c 0.65864,0.3574 0.74128,0.36483 5.22023,0.46891 2.50305,0.0582 4.551,0.1562 4.551,0.21784 0,0.0616 -0.44235,0.13428 -0.98301,0.16142 -0.54066,0.0271 -3.24395,0.0699 -6.00732,0.0951 -2.76337,0.0252 -5.18814,0.0794 -5.38838,0.12056 -0.20025,0.0412 -0.52792,0.1297 -0.72816,0.19677 -0.20025,0.0671 -0.54249,0.16085 -0.76054,0.20838 -0.21805,0.0475 -0.52363,0.22292 -0.67906,0.38975 -0.19551,0.20986 -0.37694,0.27341 -0.58868,0.2062 -0.16833,-0.0534 -0.26962,-0.1561 -0.22508,-0.22817 0.0445,-0.0721 -0.0276,-0.29672 -0.16027,-0.49923 l -0.24125,-0.36819 H 158.963 c -3.01714,0 -3.15065,0.0123 -3.91447,0.36172 -0.43494,0.19894 -1.03693,0.51701 -1.33776,0.70682 -0.30084,0.18981 -1.0982,0.51855 -1.77192,0.73052 -0.67372,0.21198 -1.27992,0.38542 -1.3471,0.38542 z m 8.50655,-2.77555 c 1.40179,0.005 2.2937,-0.0468 2.2937,-0.13373 0,-0.0783 -0.17485,-0.25684 -0.38855,-0.39687 -0.27504,-0.18021 -0.6473,-0.24823 -1.27428,-0.23285 -0.52905,0.013 -1.29624,0.16936 -1.90515,0.38832 l -1.01942,0.36658 z"
           id="path198" /><path
           style="fill:#4b4b4b;fill-opacity:1;stroke:none;stroke-opacity:1"
           d="m 144.89059,201.22879 c -0.0954,-0.002 -0.27175,-0.0605 -0.39189,-0.12892 -0.12015,-0.0685 -0.44782,-0.17119 -0.72816,-0.22828 -0.28034,-0.0571 -0.90292,-0.275 -1.3835,-0.48427 -0.48059,-0.20926 -0.90802,-0.42832 -0.94985,-0.48678 -0.0418,-0.0585 -0.43504,-0.2734 -0.87379,-0.47763 -0.77623,-0.36131 -0.88153,-0.37136 -3.90548,-0.37275 -3.04561,-0.001 -3.11321,0.005 -3.3811,0.32625 -0.15035,0.18022 -0.27554,0.44236 -0.2782,0.58253 -0.003,0.15615 -0.11765,0.25485 -0.29611,0.25485 -0.16019,0 -0.29126,-0.0639 -0.29126,-0.14189 0,-0.078 -0.18778,-0.23899 -0.41728,-0.35767 -0.2295,-0.11868 -0.57356,-0.24431 -0.76457,-0.27917 -0.19101,-0.0349 -0.60943,-0.13193 -0.92982,-0.21572 -0.33359,-0.0872 -2.76068,-0.17166 -5.67964,-0.19755 -2.80342,-0.0249 -5.50671,-0.0676 -6.00732,-0.0949 -0.50061,-0.0273 -0.9102,-0.0999 -0.9102,-0.16123 0,-0.0614 2.04795,-0.15851 4.551,-0.21588 3.14847,-0.0722 4.6632,-0.16018 4.91508,-0.2856 0.20024,-0.0997 0.49792,-0.26615 0.6615,-0.36985 0.25803,-0.16359 0.37162,-0.13821 0.8577,0.19165 0.44985,0.30528 0.73236,0.38022 1.43327,0.38022 0.48014,0 1.10996,-0.0617 1.39959,-0.13703 0.28963,-0.0754 0.8379,-0.21496 1.21836,-0.31019 0.38046,-0.0952 0.69175,-0.22526 0.69175,-0.28895 0,-0.0637 0.52458,-0.2856 1.16572,-0.49315 l 1.16573,-0.37737 1.49206,0.36216 c 0.82063,0.19918 1.78102,0.43216 2.1342,0.51772 0.35317,0.0856 1.30342,0.21854 2.11166,0.2955 0.80824,0.077 1.84635,0.21401 2.30691,0.30456 0.46056,0.0906 0.83738,0.21114 0.83738,0.26795 0,0.0568 -0.16384,0.17796 -0.36408,0.2692 -0.25271,0.11514 -0.36408,0.28192 -0.36408,0.54523 0,0.23997 0.18176,0.55585 0.49472,0.85978 0.27209,0.26424 0.5786,0.5084 0.68113,0.54257 0.10252,0.0342 0.13817,0.14019 0.0792,0.23558 -0.059,0.0954 -0.18524,0.17146 -0.28064,0.16902 z m -8.63223,-2.76718 c 1.27488,0.003 2.28492,-0.0284 2.24452,-0.0688 -0.0404,-0.0404 -0.52645,-0.22514 -1.0801,-0.41052 -0.55366,-0.18539 -1.17049,-0.32827 -1.37073,-0.31751 -0.20025,0.0108 -0.57342,0.0317 -0.82927,0.0464 -0.25597,0.0148 -0.64895,0.18855 -0.87379,0.38636 l -0.40861,0.35948 z"
           id="path207" /></g></g></g></svg>
