<?xml version="1.0" encoding="UTF-8" standalone="no"?>
<!-- Created with Inkscape (http://www.inkscape.org/) -->

<svg
   width="88.10878mm"
   height="19.584398mm"
   viewBox="0 0 88.10878 19.584398"
   version="1.1"
   id="svg1"
   xml:space="preserve"
   inkscape:version="1.4.3 (0d15f75042, 2025-12-25)"
   sodipodi:docname="skonguistuff.svg"
   inkscape:export-filename="..\Github\skonguistuff.png"
   inkscape:export-xdpi="400"
   inkscape:export-ydpi="400"
   xmlns:inkscape="http://www.inkscape.org/namespaces/inkscape"
   xmlns:sodipodi="http://sodipodi.sourceforge.net/DTD/sodipodi-0.dtd"
   xmlns="http://www.w3.org/2000/svg"
   xmlns:svg="http://www.w3.org/2000/svg"><sodipodi:namedview
     id="namedview1"
     pagecolor="#ffffff"
     bordercolor="#000000"
     borderopacity="0.25"
     inkscape:showpageshadow="2"
     inkscape:pageopacity="0.0"
     inkscape:pagecheckerboard="0"
     inkscape:deskcolor="#d1d1d1"
     inkscape:document-units="mm"
     inkscape:zoom="2.8284271"
     inkscape:cx="627.02694"
     inkscape:cy="1001.6168"
     inkscape:window-width="1920"
     inkscape:window-height="1010"
     inkscape:window-x="0"
     inkscape:window-y="0"
     inkscape:window-maximized="1"
     inkscape:current-layer="layer1"
     showgrid="false"
     showguides="false"><inkscape:page
       x="0"
       y="0"
       width="88.10878"
       height="19.584398"
       id="page2"
       margin="0"
       bleed="0" /></sodipodi:namedview><defs
     id="defs1"><inkscape:path-effect
       effect="fillet_chamfer"
       id="path-effect272"
       is_visible="true"
       lpeversion="1"
       nodesatellites_param="F,0,0,1,0,0,0,1 @ F,0,0,1,0,0,0,1 @ F,0,0,1,0,0,0,1 @ F,0,0,1,0,0.35464739,0,1 @ F,0,0,1,0,0,0,1 @ F,0,0,1,0,0,0,1 @ F,0,0,1,0,0,0,1 @ F,0,0,1,0,0,0,1 @ F,0,0,1,0,0,0,1 @ F,0,0,1,0,0,0,1 @ F,0,0,1,0,0,0,1 @ F,0,0,1,0,0,0,1 @ F,0,0,1,0,0,0,1 @ F,0,0,1,0,0,0,1 @ F,0,0,1,0,0,0,1 @ F,0,0,1,0,0,0,1 @ F,0,0,1,0,0,0,1 @ F,0,1,1,0,0.35464739,0,1 @ F,0,0,1,0,0,0,1 @ F,0,0,1,0,0,0,1 @ F,0,0,1,0,0,0,1 @ F,0,0,1,0,0,0,1 @ F,0,0,1,0,0,0,1 @ F,0,0,1,0,0,0,1 @ F,0,0,1,0,0,0,1 @ F,0,0,1,0,0,0,1 @ F,0,0,1,0,0,0,1 @ F,0,0,1,0,0,0,1 @ F,0,0,1,0,0,0,1 @ F,0,1,1,0,0.35464739,0,1 @ F,0,0,1,0,0,0,1 @ F,0,1,1,0,0.35464739,0,1 @ F,0,0,1,0,0,0,1 @ F,0,0,1,0,0,0,1 @ F,0,0,1,0,0,0,1 @ F,0,0,1,0,0,0,1 @ F,0,0,1,0,0,0,1 @ F,0,0,1,0,0,0,1 @ F,0,0,1,0,0,0,1 @ F,0,0,1,0,0,0,1 @ F,0,0,1,0,0,0,1"
       radius="0"
       unit="px"
       method="auto"
       mode="F"
       chamfer_steps="1"
       flexible="false"
       use_knot_distance="true"
       apply_no_radius="true"
       apply_with_radius="true"
       only_selected="false"
       hide_knots="false" /><inkscape:path-effect
       effect="fillet_chamfer"
       id="path-effect270"
       is_visible="true"
       lpeversion="1"
       nodesatellites_param="F,0,0,1,0,0,0,1 @ F,0,0,1,0,0,0,1 @ F,0,0,1,0,0,0,1 @ F,0,0,1,0,0,0,1 @ F,0,0,1,0,0,0,1 @ F,0,0,1,0,0,0,1 @ F,0,0,1,0,0,0,1 @ F,0,0,1,0,0,0,1 @ F,0,0,1,0,0,0,1 @ F,0,0,1,0,0,0,1 @ F,0,0,1,0,0,0,1 @ F,0,0,1,0,0,0,1 @ F,0,0,1,0,0,0,1 @ F,0,0,1,0,0,0,1 @ F,0,0,1,0,0,0,1 @ F,0,0,1,0,0,0,1 @ F,0,0,1,0,0,0,1 @ F,0,0,1,0,0,0,1 @ F,0,0,1,0,0,0,1 @ F,0,0,1,0,0,0,1 @ F,0,0,1,0,0,0,1 @ F,0,0,1,0,0,0,1 @ F,0,0,1,0,0,0,1 @ F,0,0,1,0,0,0,1 @ F,0,0,1,0,0,0,1 @ F,0,0,1,0,0.34129326,0,1 @ F,0,0,1,0,0,0,1 @ F,0,0,1,0,0.63993529,0,1 @ F,0,0,1,0,0,0,1 | F,0,0,1,0,0,0,1 @ F,0,0,1,0,0,0,1 @ F,0,0,1,0,0,0,1 @ F,0,0,1,0,0,0,1 @ F,0,0,1,0,0,0,1 @ F,0,0,1,0,0,0,1 @ F,0,0,1,0,0,0,1 @ F,0,0,1,0,0,0,1 | F,0,0,1,0,0,0,1 @ F,0,0,1,0,0,0,1 @ F,0,0,1,0,0,0,1 @ F,0,0,1,0,0,0,1 @ F,0,0,1,0,0,0,1 @ F,0,0,1,0,0,0,1 @ F,0,0,1,0,0,0,1 @ F,0,0,1,0,0,0,1 @ F,0,0,1,0,0,0,1 @ F,0,0,1,0,0,0,1 @ F,0,0,1,0,0,0,1 @ F,0,0,1,0,0,0,1 @ F,0,0,1,0,0,0,1 @ F,0,0,1,0,0,0,1 @ F,0,0,1,0,0,0,1 @ F,0,0,1,0,0,0,1 @ F,0,0,1,0,0,0,1 @ F,0,0,1,0,0,0,1 @ F,0,0,1,0,0,0,1 @ F,0,0,1,0,0,0,1 @ F,0,0,1,0,0,0,1 @ F,0,0,1,0,0,0,1 @ F,0,0,1,0,0,0,1 @ F,0,0,1,0,0,0,1 @ F,0,0,1,0,0,0,1 @ F,0,0,1,0,0,0,1 @ F,0,0,1,0,0,0,1 @ F,0,0,1,0,0,0,1 @ F,0,0,1,0,0,0,1 | F,0,0,1,0,0,0,1 @ F,0,0,1,0,0,0,1 @ F,0,0,1,0,0,0,1 @ F,0,0,1,0,0,0,1 @ F,0,0,1,0,0,0,1 @ F,0,0,1,0,0,0,1 @ F,0,0,1,0,0,0,1 @ F,0,0,1,0,0,0,1"
       radius="0"
       unit="px"
       method="auto"
       mode="F"
       chamfer_steps="1"
       flexible="false"
       use_knot_distance="true"
       apply_no_radius="true"
       apply_with_radius="true"
       only_selected="false"
       hide_knots="false" /><inkscape:path-effect
       effect="mirror_symmetry"
       start_point="139.76147,117.42697"
       end_point="139.76147,124.14641"
       center_point="139.76147,120.78669"
       id="path-effect268"
       is_visible="true"
       lpeversion="1.2"
       lpesatellites=""
       mode="free"
       discard_orig_path="false"
       fuse_paths="false"
       oposite_fuse="false"
       split_items="false"
       split_open="false"
       link_styles="false" /><inkscape:path-effect
       effect="fillet_chamfer"
       id="path-effect266"
       is_visible="true"
       lpeversion="1"
       nodesatellites_param="F,0,0,1,0,0,0,1 @ F,0,0,1,0,0,0,1 @ F,0,0,1,0,0,0,1 @ F,0,0,1,0,0.35464739,0,1 @ F,0,0,1,0,0,0,1 @ F,0,0,1,0,0,0,1 @ F,0,0,1,0,0,0,1 @ F,0,0,1,0,0,0,1 @ F,0,0,1,0,0,0,1 @ F,0,0,1,0,0,0,1 @ F,0,0,1,0,0,0,1 @ F,0,0,1,0,0,0,1 @ F,0,0,1,0,0,0,1 @ F,0,0,1,0,0,0,1 @ F,0,0,1,0,0,0,1 @ F,0,0,1,0,0,0,1 @ F,0,0,1,0,0,0,1 @ F,0,1,1,0,0.35464739,0,1 @ F,0,0,1,0,0,0,1 @ F,0,0,1,0,0,0,1 @ F,0,0,1,0,0,0,1 @ F,0,0,1,0,0,0,1 @ F,0,0,1,0,0,0,1 @ F,0,0,1,0,0,0,1 @ F,0,0,1,0,0,0,1 @ F,0,0,1,0,0,0,1 @ F,0,0,1,0,0,0,1 @ F,0,0,1,0,0,0,1 @ F,0,0,1,0,0,0,1 @ F,0,1,1,0,0.35464739,0,1 @ F,0,0,1,0,0,0,1 @ F,0,1,1,0,0.35464739,0,1 @ F,0,0,1,0,0,0,1 @ F,0,0,1,0,0,0,1 @ F,0,0,1,0,0,0,1 @ F,0,0,1,0,0,0,1 @ F,0,0,1,0,0,0,1 @ F,0,0,1,0,0,0,1 @ F,0,0,1,0,0,0,1 @ F,0,0,1,0,0,0,1 @ F,0,0,1,0,0,0,1"
       radius="0"
       unit="px"
       method="auto"
       mode="F"
       chamfer_steps="1"
       flexible="false"
       use_knot_distance="true"
       apply_no_radius="true"
       apply_with_radius="true"
       only_selected="false"
       hide_knots="false" /><inkscape:path-effect
       effect="fillet_chamfer"
       id="path-effect263"
       is_visible="true"
       lpeversion="1"
       nodesatellites_param="F,0,0,1,0,0,0,1 @ F,0,0,1,0,0,0,1 @ F,0,0,1,0,0,0,1 @ F,0,0,1,0,0,0,1 @ F,0,0,1,0,0,0,1 @ F,0,0,1,0,0,0,1 @ F,0,0,1,0,0,0,1 @ F,0,0,1,0,0,0,1 @ F,0,0,1,0,0,0,1 @ F,0,0,1,0,0,0,1 @ F,0,0,1,0,0,0,1 @ F,0,0,1,0,0,0,1 @ F,0,0,1,0,0,0,1 @ F,0,0,1,0,0,0,1 @ F,0,0,1,0,0,0,1 @ F,0,0,1,0,0,0,1 @ F,0,0,1,0,0,0,1 @ F,0,0,1,0,0,0,1 @ F,0,0,1,0,0,0,1 @ F,0,0,1,0,0,0,1 @ F,0,0,1,0,0,0,1 @ F,0,0,1,0,0,0,1 @ F,0,0,1,0,0,0,1 @ F,0,0,1,0,0,0,1 @ F,0,0,1,0,0,0,1 @ F,0,0,1,0,0.34129326,0,1 @ F,0,0,1,0,0,0,1 @ F,0,0,1,0,0.63993529,0,1 @ F,0,0,1,0,0,0,1 | F,0,0,1,0,0,0,1 @ F,0,0,1,0,0,0,1 @ F,0,0,1,0,0,0,1 @ F,0,0,1,0,0,0,1 @ F,0,0,1,0,0,0,1 @ F,0,0,1,0,0,0,1 @ F,0,0,1,0,0,0,1 @ F,0,0,1,0,0,0,1 | F,0,0,1,0,0,0,1 @ F,0,0,1,0,0,0,1 @ F,0,0,1,0,0,0,1 @ F,0,0,1,0,0,0,1 @ F,0,0,1,0,0,0,1 @ F,0,0,1,0,0,0,1 @ F,0,0,1,0,0,0,1 @ F,0,0,1,0,0,0,1 @ F,0,0,1,0,0,0,1 @ F,0,0,1,0,0,0,1 @ F,0,0,1,0,0,0,1 @ F,0,0,1,0,0,0,1 @ F,0,0,1,0,0,0,1 @ F,0,0,1,0,0,0,1 @ F,0,0,1,0,0,0,1 @ F,0,0,1,0,0,0,1 @ F,0,0,1,0,0,0,1 @ F,0,0,1,0,0,0,1 @ F,0,0,1,0,0,0,1 @ F,0,0,1,0,0,0,1 @ F,0,0,1,0,0,0,1 @ F,0,0,1,0,0,0,1 @ F,0,0,1,0,0,0,1 @ F,0,0,1,0,0,0,1 @ F,0,0,1,0,0,0,1 @ F,0,0,1,0,0,0,1 @ F,0,0,1,0,0,0,1 @ F,0,0,1,0,0,0,1 @ F,0,0,1,0,0,0,1 | F,0,0,1,0,0,0,1 @ F,0,0,1,0,0,0,1 @ F,0,0,1,0,0,0,1 @ F,0,0,1,0,0,0,1 @ F,0,0,1,0,0,0,1 @ F,0,0,1,0,0,0,1 @ F,0,0,1,0,0,0,1 @ F,0,0,1,0,0,0,1"
       radius="0"
       unit="px"
       method="auto"
       mode="F"
       chamfer_steps="1"
       flexible="false"
       use_knot_distance="true"
       apply_no_radius="true"
       apply_with_radius="true"
       only_selected="false"
       hide_knots="false" /><inkscape:path-effect
       effect="mirror_symmetry"
       start_point="139.8254,248.00469"
       end_point="139.8254,248.71099"
       center_point="139.8254,248.35784"
       id="path-effect246"
       is_visible="true"
       lpeversion="1.2"
       lpesatellites=""
       mode="free"
       discard_orig_path="false"
       fuse_paths="true"
       oposite_fuse="false"
       split_items="false"
       split_open="false"
       link_styles="false" /><filter
       inkscape:collect="always"
       style="color-interpolation-filters:sRGB"
       id="filter196"
       x="-0.055875312"
       y="-0.32441348"
       width="1.1117506"
       height="1.648827"><feGaussianBlur
         inkscape:collect="always"
         stdDeviation="0.90463119"
         id="feGaussianBlur196" /></filter><inkscape:path-effect
       effect="mirror_symmetry"
       start_point="139.76147,117.42697"
       end_point="139.76147,124.14641"
       center_point="139.76147,120.78669"
       id="path-effect7-2"
       is_visible="true"
       lpeversion="1.2"
       lpesatellites=""
       mode="free"
       discard_orig_path="false"
       fuse_paths="false"
       oposite_fuse="false"
       split_items="false"
       split_open="false"
       link_styles="false" /><filter
       inkscape:collect="always"
       style="color-interpolation-filters:sRGB"
       id="filter272"
       x="-0.028278932"
       y="-0.15861295"
       width="1.0565579"
       height="1.3172259"><feGaussianBlur
         inkscape:collect="always"
         stdDeviation="0.982602"
         id="feGaussianBlur272" /></filter></defs><g
     inkscape:label="Layer 1"
     inkscape:groupmode="layer"
     id="layer1"
     transform="translate(-95.824735,-240.00683)"><path
       style="opacity:0;fill:#4b4b4b;fill-opacity:1;stroke:none;filter:url(#filter196)"
       d="m 50.435779,231.09887 c -0.14017,-0.004 -0.562818,-0.12722 -0.939216,-0.27439 -0.376398,-0.14716 -0.720453,-0.23147 -0.764567,-0.18736 -0.04411,0.0441 -0.08021,0.0169 -0.08021,-0.0604 0,-0.0774 -0.241089,-0.22783 -0.535753,-0.33438 -0.294664,-0.10655 -1.210299,-0.65138 -2.034746,-1.21072 -1.37658,-0.93394 -1.543926,-1.00956 -2.049214,-0.92596 -0.302621,0.0501 -1.566004,0.14933 -2.807516,0.22057 -1.660401,0.0953 -2.854189,0.0765 -4.51459,-0.0709 -1.241512,-0.11022 -2.568067,-0.27282 -2.947898,-0.36133 -0.663886,-0.1547 -0.711651,-0.14357 -1.234645,0.28752 -0.299223,0.24665 -0.620307,0.44845 -0.713521,0.44845 -0.09321,0 -0.211158,-0.16607 -0.2621,-0.36904 -0.05094,-0.20296 -0.254649,-0.44285 -0.452683,-0.53308 -0.198034,-0.0902 -0.360062,-0.21269 -0.360062,-0.27213 0,-0.0594 -0.442357,-0.23952 -0.983016,-0.40017 -0.540659,-0.16066 -1.179619,-0.32883 -1.419911,-0.37372 -0.240293,-0.0449 -0.731801,-0.11818 -1.09224,-0.16287 -0.360439,-0.0447 -1.114084,-0.14488 -1.674767,-0.22265 -0.560683,-0.0778 -3.848352,-0.15793 -7.305932,-0.17815 -3.457579,-0.0202 -6.33127,-0.0815 -6.38598,-0.13629 -0.05471,-0.0547 -0.05781,-0.16694 -0.0069,-0.24932 0.06098,-0.0987 2.234734,-0.15251 6.370399,-0.15777 3.452804,-0.004 6.448673,-0.045 6.657487,-0.0902 0.208814,-0.0452 0.543498,-0.13708 0.743742,-0.20416 0.200244,-0.0671 0.532214,-0.15826 0.737712,-0.20264 0.205497,-0.0444 0.526813,-0.21354 0.714035,-0.37592 0.187221,-0.16238 0.437545,-0.29523 0.556275,-0.29523 0.11873,0 0.358067,0.14745 0.53186,0.32767 0.173792,0.18022 0.50682,0.47513 0.740063,0.65535 0.233242,0.18022 0.533909,0.32767 0.668148,0.32767 0.134239,0 0.278409,0.0895 0.320377,0.19885 0.04197,0.10936 0.596833,0.3715 1.233034,0.58252 0.636201,0.21103 1.259538,0.38368 1.385193,0.38368 0.125655,0 0.331665,-0.1032 0.457799,-0.22933 0.126135,-0.12614 0.900845,-0.4577 1.721578,-0.7368 0.820733,-0.27911 2.016516,-0.57538 2.657297,-0.65838 0.64078,-0.083 1.709394,-0.11121 2.374698,-0.0627 0.665303,0.0485 1.78645,0.21669 2.491439,0.37372 0.704989,0.15704 1.471337,0.3586 1.702997,0.44792 0.231659,0.0893 0.748871,0.21521 1.149359,0.27974 0.439826,0.0709 1.068071,0.0542 1.586576,-0.0421 0.639148,-0.11872 0.988446,-0.28208 1.367466,-0.63954 0.279978,-0.26406 0.560843,-0.4801 0.624145,-0.4801 0.0633,0 0.05468,0.21299 -0.01915,0.4733 -0.07383,0.26032 -0.468268,0.79654 -0.876519,1.19161 -0.656277,0.63509 -0.732016,0.7696 -0.653725,1.16106 0.0487,0.24351 0.300258,0.66264 0.559013,0.93141 0.258755,0.26877 0.86005,0.72931 1.336212,1.02343 0.476162,0.29411 0.918519,0.51837 0.983016,0.49835 0.0645,-0.02 0.117266,0.0247 0.117266,0.0994 0,0.0747 0.131069,0.17742 0.291264,0.22826 0.160195,0.0508 0.291264,0.15356 0.291264,0.22826 0,0.0747 -0.114685,0.13275 -0.254856,0.12901 z m -12.560754,-3.51711 c 0.841024,0.0242 2.407715,-0.0274 3.481534,-0.1147 1.07382,-0.0873 2.013504,-0.19654 2.088187,-0.2427 0.07468,-0.0462 -0.197879,-0.27448 -0.605694,-0.50739 -0.520322,-0.29717 -1.099267,-0.47163 -1.941026,-0.58492 -0.659749,-0.0888 -1.888343,-0.12701 -2.730208,-0.0849 -0.996248,0.0498 -1.886587,0.19006 -2.550088,0.40177 -0.560683,0.17891 -1.199644,0.39839 -1.419912,0.48774 -0.220268,0.0894 -0.400488,0.20729 -0.400488,0.26207 0,0.0548 0.344056,0.13712 0.764568,0.18298 0.420512,0.0459 0.993938,0.0997 1.274279,0.1197 0.280342,0.02 1.197823,0.0562 2.038848,0.0804 z"
       id="path26" /><path
       style="opacity:0;fill:#4b4b4b;fill-opacity:1;stroke:none;filter:url(#filter196)"
       d="m 53.208546,231.10214 c 0.14017,-0.004 0.56282,-0.12722 0.93921,-0.27439 0.3764,-0.14716 0.72046,-0.23147 0.76457,-0.18736 0.0441,0.0441 0.0802,0.0169 0.0802,-0.0604 0,-0.0774 0.24109,-0.22783 0.53575,-0.33438 0.29467,-0.10655 1.2103,-0.65138 2.03475,-1.21072 1.37658,-0.93394 1.54393,-1.00956 2.04921,-0.92596 0.30262,0.0501 1.56601,0.14933 2.80752,0.22057 1.6604,0.0953 2.85419,0.0765 4.51459,-0.0709 1.241515,-0.11022 2.568075,-0.27282 2.947905,-0.36133 0.66388,-0.1547 0.71165,-0.14357 1.234637,0.28752 0.29923,0.24665 0.62031,0.44845 0.71352,0.44845 0.0932,0 0.21116,-0.16607 0.2621,-0.36904 0.0509,-0.20296 0.25465,-0.44285 0.45269,-0.53308 0.19803,-0.0902 0.36006,-0.21269 0.36006,-0.27213 0,-0.0594 0.44236,-0.23952 0.98301,-0.40017 0.54066,-0.16066 1.17962,-0.32883 1.41991,-0.37372 0.2403,-0.0449 0.73181,-0.11818 1.09224,-0.16287 0.36044,-0.0447 1.11409,-0.14488 1.67477,-0.22265 0.56068,-0.0778 3.84835,-0.15793 7.30593,-0.17815 3.45758,-0.0202 6.33127,-0.0815 6.38598,-0.13629 0.0547,-0.0547 0.0578,-0.16694 0.007,-0.24932 -0.061,-0.0987 -2.23473,-0.15251 -6.3704,-0.15777 -3.4528,-0.004 -6.44867,-0.045 -6.65748,-0.0902 -0.20882,-0.0452 -0.5435,-0.13708 -0.74374,-0.20416 -0.20025,-0.0671 -0.53222,-0.15826 -0.73772,-0.20264 -0.20549,-0.0444 -0.52681,-0.21354 -0.71403,-0.37592 -0.18722,-0.16238 -0.43755,-0.29523 -0.55628,-0.29523 -0.11873,0 -0.35806,0.14745 -0.53186,0.32767 -0.17379,0.18022 -0.50682,0.47513 -0.74006,0.65535 -0.23324,0.18022 -0.53391,0.32767 -0.66815,0.32767 -0.13424,0 -0.27841,0.0895 -0.32037,0.19885 -0.042,0.10936 -0.59684,0.3715 -1.23304,0.58252 -0.6362,0.21103 -1.25954,0.38368 -1.38519,0.38368 -0.12566,0 -0.331667,-0.1032 -0.457797,-0.22933 -0.12613,-0.12614 -0.90084,-0.4577 -1.72158,-0.7368 -0.82073,-0.27911 -2.016515,-0.57538 -2.657295,-0.65838 -0.64078,-0.083 -1.7094,-0.11121 -2.3747,-0.0627 -0.66531,0.0485 -1.78645,0.21669 -2.49144,0.37372 -0.70499,0.15704 -1.47134,0.3586 -1.703,0.44792 -0.23166,0.0893 -0.74887,0.21521 -1.14936,0.27974 -0.43982,0.0709 -1.06807,0.0542 -1.58657,-0.0421 -0.63915,-0.11872 -0.98845,-0.28208 -1.36747,-0.63954 -0.27998,-0.26406 -0.56084,-0.4801 -0.62414,-0.4801 -0.0633,0 -0.0547,0.21299 0.0192,0.4733 0.0738,0.26032 0.46826,0.79654 0.87651,1.19161 0.65628,0.63509 0.73202,0.7696 0.65373,1.16106 -0.0487,0.24351 -0.30026,0.66264 -0.55901,0.93141 -0.25876,0.26877 -0.86005,0.72931 -1.33622,1.02343 -0.47616,0.29411 -0.91851,0.51837 -0.98301,0.49835 -0.0645,-0.02 -0.11727,0.0247 -0.11727,0.0994 0,0.0747 -0.13107,0.17742 -0.29126,0.22826 -0.1602,0.0508 -0.29127,0.15356 -0.29127,0.22826 0,0.0747 0.11469,0.13275 0.25486,0.12901 z m 12.56075,-3.51711 c -0.84102,0.0242 -2.40771,-0.0274 -3.48153,-0.1147 -1.07382,-0.0873 -2.01351,-0.19654 -2.08819,-0.2427 -0.0747,-0.0462 0.19788,-0.27448 0.60569,-0.50739 0.52033,-0.29717 1.09927,-0.47163 1.94103,-0.58492 0.65975,-0.0888 1.88834,-0.12701 2.73021,-0.0849 0.99625,0.0498 1.88659,0.19006 2.550095,0.40177 0.56068,0.17891 1.19964,0.39839 1.41991,0.48774 0.22027,0.0894 0.40049,0.20729 0.40049,0.26207 0,0.0548 -0.34406,0.13712 -0.76457,0.18298 -0.42051,0.0459 -0.99394,0.0997 -1.274285,0.1197 -0.28034,0.02 -1.19782,0.0562 -2.03885,0.0804 z"
       id="path27" /><g
       id="g266"><path
         style="fill:#4b4b4b;fill-opacity:1;stroke:none"
         d="m 130.3214,117.65073 c -0.43574,-0.53107 -1.04618,-0.41206 -2.28769,-0.34085 -1.6604,0.0953 -2.85419,0.0765 -4.51459,-0.0709 -1.24151,-0.11022 -2.56807,-0.27282 -2.9479,-0.36133 -0.66388,-0.1547 -0.71165,-0.14357 -1.23464,0.28752 -0.29923,0.24665 -0.67293,0.49522 -0.76614,0.49522 -0.0932,0 0.0926,-0.44144 0.006,-0.63179 -0.31459,-0.68889 -1.31772,-0.77103 -2.01091,-0.9894 -0.54066,-0.16066 -1.17962,-0.32883 -1.41992,-0.37372 -0.24029,-0.0449 -0.7318,-0.11818 -1.09224,-0.16287 -0.36043,-0.0447 -1.11408,-0.14488 -1.67476,-0.22265 -1.80611,-0.25062 -14.522671,-0.0882 -14.310664,-0.43147 0.252167,-0.40815 9.169144,0.45714 13.639734,-0.38026 0.76367,-0.14305 1.59154,-0.29395 2.19549,-0.78272 0.16034,-0.12976 0.20603,-0.52674 0.32476,-0.52674 0.11873,0 0.58958,0.37896 0.76338,0.55918 0.17379,0.18022 0.50089,0.48306 0.74006,0.65535 0.6926,0.49893 1.40462,0.81747 2.22156,1.10904 0.6362,0.21103 1.25954,0.38368 1.38519,0.38368 0.12566,0 0.30298,-0.1575 0.4578,-0.22933 0.56623,-0.2627 0.90084,-0.4577 1.72158,-0.7368 0.82073,-0.27911 2.01651,-0.57538 2.65729,-0.65838 0.64078,-0.083 1.25193,-0.1483 2.05767,-0.0833 0.18574,0.015 -0.4654,-0.43621 -1.0523,-0.94995 -0.93951,-0.8224 -1.40037,-2.10284 -0.85683,-1.38399 0.13951,0.18451 1.73803,1.95314 4.49825,2.63881 0.18276,0.0454 0.47362,0.0177 0.64758,-0.0549 1.68823,-0.70445 3.37864,-1.44581 5.22885,-1.49118 -1.21688,0.44539 -2.79098,1.07738 -3.56377,2.53238 -0.16556,0.31171 -0.1614,0.86107 -0.0125,1.1814 0.94988,2.04283 2.94085,3.35777 4.54157,4.51735 -1.50125,-0.19502 -4.738,-2.76133 -5.34195,-3.49739 z m -0.59668,-1.44272 c 0.0747,-0.0462 -0.38048,-0.37084 -0.6057,-0.50739 -0.4356,-0.2641 -0.91384,-0.47777 -1.41185,-0.58492 -0.89014,-0.19152 -1.88834,-0.12701 -2.73021,-0.0849 -0.99625,0.0498 -1.88659,0.19006 -2.55009,0.40177 -0.56068,0.17891 -1.19964,0.39839 -1.41991,0.48774 -0.22027,0.0894 -0.40049,0.20729 -0.40049,0.26207 0,0.0548 0.34406,0.13712 0.76457,0.18298 2.36767,0.36636 7.88869,0.13006 8.35368,-0.15735 z m 19.47682,1.44272 c 0.43574,-0.53107 1.04618,-0.41206 2.28769,-0.34085 1.6604,0.0953 2.85419,0.0765 4.51459,-0.0709 1.24151,-0.11022 2.56807,-0.27282 2.9479,-0.36133 0.66388,-0.1547 0.71165,-0.14357 1.23464,0.28752 0.29923,0.24665 0.67293,0.49522 0.76614,0.49522 0.0932,0 -0.0926,-0.44144 -0.006,-0.63179 0.31459,-0.68889 1.31772,-0.77103 2.01091,-0.9894 0.54066,-0.16066 1.17962,-0.32883 1.41992,-0.37372 0.24029,-0.0449 0.7318,-0.11818 1.09224,-0.16287 0.36043,-0.0447 1.11408,-0.14488 1.67476,-0.22265 1.80611,-0.25062 14.52267,-0.0882 14.31066,-0.43147 -0.25216,-0.40815 -9.16914,0.45714 -13.63973,-0.38026 -0.76367,-0.14305 -1.59154,-0.29395 -2.19549,-0.78272 -0.16034,-0.12976 -0.20603,-0.52674 -0.32476,-0.52674 -0.11873,0 -0.58958,0.37896 -0.76338,0.55918 -0.17379,0.18022 -0.50089,0.48306 -0.74006,0.65535 -0.6926,0.49893 -1.40462,0.81747 -2.22156,1.10904 -0.6362,0.21103 -1.25954,0.38368 -1.38519,0.38368 -0.12566,0 -0.30298,-0.1575 -0.4578,-0.22933 -0.56623,-0.2627 -0.90084,-0.4577 -1.72158,-0.7368 -0.82073,-0.27911 -2.01651,-0.57538 -2.65729,-0.65838 -0.64078,-0.083 -1.25193,-0.1483 -2.05767,-0.0833 -0.18574,0.015 0.4654,-0.43621 1.0523,-0.94995 0.93951,-0.8224 1.40037,-2.10284 0.85683,-1.38399 -0.14502,0.1918 -1.86654,2.09528 -4.83064,2.71481 -1.79365,-0.7404 -3.57869,-1.5739 -5.54404,-1.62209 1.36957,0.50128 3.19162,1.23891 3.81453,3.1202 -0.81183,2.38875 -3.02924,3.84275 -4.77987,5.11093 1.50125,-0.19502 4.738,-2.76133 5.34195,-3.49739 z m 0.59668,-1.44272 c -0.0747,-0.0462 0.38048,-0.37084 0.6057,-0.50739 0.4356,-0.2641 0.91384,-0.47777 1.41185,-0.58492 0.89014,-0.19152 1.88834,-0.12701 2.73021,-0.0849 0.99625,0.0498 1.88659,0.19006 2.55009,0.40177 0.56068,0.17891 1.19964,0.39839 1.41991,0.48774 0.22027,0.0894 0.40049,0.20729 0.40049,0.26207 0,0.0548 -0.34406,0.13712 -0.76457,0.18298 -2.36767,0.36636 -7.88869,0.13006 -8.35368,-0.15735 z"
         id="path5-7"
         sodipodi:nodetypes="ssssssssssssaasssssasssssssccsascscscaa"
         inkscape:path-effect="#path-effect7-2;#path-effect263"
         inkscape:original-d="m 130.3214,117.65073 c -0.43574,-0.53107 -1.04618,-0.41206 -2.28769,-0.34085 -1.6604,0.0953 -2.85419,0.0765 -4.51459,-0.0709 -1.24151,-0.11022 -2.56807,-0.27282 -2.9479,-0.36133 -0.66388,-0.1547 -0.71165,-0.14357 -1.23464,0.28752 -0.29923,0.24665 -0.67293,0.49522 -0.76614,0.49522 -0.0932,0 0.0926,-0.44144 0.006,-0.63179 -0.31459,-0.68889 -1.31772,-0.77103 -2.01091,-0.9894 -0.54066,-0.16066 -1.17962,-0.32883 -1.41992,-0.37372 -0.24029,-0.0449 -0.7318,-0.11818 -1.09224,-0.16287 -0.36043,-0.0447 -1.11408,-0.14488 -1.67476,-0.22265 -1.80611,-0.25062 -14.522671,-0.0882 -14.310664,-0.43147 0.252167,-0.40815 9.169144,0.45714 13.639734,-0.38026 0.76367,-0.14305 1.59154,-0.29395 2.19549,-0.78272 0.16034,-0.12976 0.20603,-0.52674 0.32476,-0.52674 0.11873,0 0.58958,0.37896 0.76338,0.55918 0.17379,0.18022 0.50089,0.48306 0.74006,0.65535 0.6926,0.49893 1.40462,0.81747 2.22156,1.10904 0.6362,0.21103 1.25954,0.38368 1.38519,0.38368 0.12566,0 0.30298,-0.1575 0.4578,-0.22933 0.56623,-0.2627 0.90084,-0.4577 1.72158,-0.7368 0.82073,-0.27911 2.01651,-0.57538 2.65729,-0.65838 0.64078,-0.083 1.25193,-0.1483 2.05767,-0.0833 0.18574,0.015 -0.4654,-0.43621 -1.0523,-0.94995 -0.93951,-0.8224 -1.40037,-2.10284 -0.85683,-1.38399 0.14502,0.1918 1.86654,2.09528 4.83064,2.71481 1.79365,-0.7404 3.57869,-1.5739 5.54404,-1.62209 -1.36957,0.50128 -3.19162,1.23891 -3.81453,3.1202 0.81183,2.38875 3.02924,3.84275 4.77987,5.11093 -1.50125,-0.19502 -4.738,-2.76133 -5.34195,-3.49739 z m -0.59668,-1.44272 c 0.0747,-0.0462 -0.38048,-0.37084 -0.6057,-0.50739 -0.4356,-0.2641 -0.91384,-0.47777 -1.41185,-0.58492 -0.89014,-0.19152 -1.88834,-0.12701 -2.73021,-0.0849 -0.99625,0.0498 -1.88659,0.19006 -2.55009,0.40177 -0.56068,0.17891 -1.19964,0.39839 -1.41991,0.48774 -0.22027,0.0894 -0.40049,0.20729 -0.40049,0.26207 0,0.0548 0.34406,0.13712 0.76457,0.18298 2.36767,0.36636 7.88869,0.13006 8.35368,-0.15735 z"
         transform="translate(0.11765782,136.08485)" /><path
         id="path201"
         style="fill:#4b4b4b;fill-opacity:1;stroke-width:8.16801;stroke-linecap:square;paint-order:markers fill stroke"
         d="m 50.690883,234.33717 c -2.11316,0.0584 -4.140413,1.5897 -5.004974,3.41474 -1.072018,2.26297 -0.907073,5.67482 0.6553,7.48372 2.332454,2.7005 8.477011,2.25245 10.131982,4.97341 0.101485,0.16685 0.02902,0.39759 -0.127425,0.51535 -1.05716,0.79575 -1.642158,1.96291 -1.913024,3.25912 -0.05144,0.32685 0.180193,0.7251 0.485408,0.85369 1.132306,0.47703 2.370888,0.63052 3.359865,0.2923 0.238996,-0.0817 0.36075,0.0137 0.277526,0.2522 -0.484742,1.38938 -1.012259,1.82991 -2.810088,2.3078 -0.240775,0.064 -0.239771,0.15712 0.0032,0.21315 l 3.522371,0.81253 c 0.177019,0.3308 0.471366,0.62111 0.804088,0.8864 0.240959,0.19213 0.656084,0.19236 0.896949,0 0.332059,-0.2652 0.624165,-0.55561 0.800922,-0.8864 l 3.963459,-0.91594 c -2.349403,-0.57345 -2.816022,-0.99231 -3.390467,-2.8523 1.18957,0.63646 2.894742,0.38829 4.320128,-0.36933 -0.04394,-1.9313 -1.120188,-3.16486 -1.978171,-3.84446 -0.153482,-0.12157 -0.22152,-0.35859 -0.11966,-0.52572 1.658872,-2.72196 7.798021,-2.27031 10.131327,-4.9718 1.562373,-1.8089 1.726263,-5.22075 0.654245,-7.48372 -0.864561,-1.82504 -2.890759,-3.35633 -5.003919,-3.41474 -1.458738,-0.0403 -3.084021,1.0974 -3.204746,2.38588 -0.07621,0.81343 0.817659,1.45982 1.520592,1.4615 0.452131,0.001 1.007434,-0.28828 0.982423,-0.93599 -0.03243,-0.83987 -0.719779,-0.82456 -0.60887,-1.06368 0.271828,-0.58605 0.985151,-0.64894 1.637723,-0.58459 1.531636,0.15105 2.967716,1.13199 3.461167,2.66657 0.684348,2.12824 0.555089,4.8576 -0.842076,6.45381 -2.087988,2.38543 -6.771484,1.51705 -9.494995,3.50865 -0.340149,0.24874 -0.703278,0.61504 -1.059359,1.03011 -0.127405,0.14851 -0.376975,0.2195 -0.565604,0.16685 -0.502154,-0.14017 -1.053861,-0.22419 -1.656814,-0.2177 -0.60255,-0.007 -1.154054,0.0782 -1.655823,0.21858 -0.18859,0.0528 -0.438225,-0.0183 -0.565702,-0.16698 -0.356059,-0.41533 -0.718941,-0.78204 -1.059198,-1.03086 -2.723511,-1.9916 -7.407006,-1.12322 -9.494994,-3.50865 -1.397165,-1.59621 -1.52537,-4.32557 -0.841022,-6.45381 0.493451,-1.53458 1.928476,-2.51552 3.460112,-2.66657 0.652572,-0.0643 1.365895,-0.001 1.637723,0.58459 0.110909,0.23912 -0.575384,0.22381 -0.607814,1.06368 -0.02501,0.64771 0.529236,0.93699 0.981367,0.93599 0.702933,-0.002 1.596802,-0.64807 1.520592,-1.4615 -0.120725,-1.28848 -1.744952,-2.42618 -3.20369,-2.38588 z"
         transform="matrix(0.48971543,0,0,0.48971543,110.24155,127.60704)"
         sodipodi:nodetypes="ssscsssssccsscccccssssssssssscccsssssscsss"
         inkscape:path-effect="#path-effect266"
         inkscape:original-d="m 50.690883,234.33717 c -2.11316,0.0584 -4.140413,1.5897 -5.004974,3.41474 -1.072018,2.26297 -0.907073,5.67482 0.6553,7.48372 2.418217,2.7998 8.934029,2.21524 10.295917,5.28672 -1.242701,0.79256 -1.909588,2.05043 -2.204384,3.46116 -0.05144,0.32685 0.180193,0.7251 0.485408,0.85369 1.132306,0.47703 2.370888,0.63052 3.359865,0.2923 0.238996,-0.0817 0.36075,0.0137 0.277526,0.2522 -0.484742,1.38938 -1.012259,1.82991 -2.810088,2.3078 -0.240775,0.064 -0.239771,0.15712 0.0032,0.21315 l 3.522371,0.81253 c 0.177019,0.3308 0.471366,0.62111 0.804088,0.8864 0.240959,0.19213 0.656084,0.19236 0.896949,0 0.332059,-0.2652 0.624165,-0.55561 0.800922,-0.8864 l 3.963459,-0.91594 c -2.349403,-0.57345 -2.816022,-0.99231 -3.390467,-2.8523 1.18957,0.63646 2.894742,0.38829 4.320128,-0.36933 -0.04897,-2.15243 -1.380179,-3.4382 -2.262422,-4.05632 1.366255,-3.07335 7.876707,-2.48471 10.295918,-5.28566 1.562373,-1.8089 1.726263,-5.22075 0.654245,-7.48372 -0.864561,-1.82504 -2.890759,-3.35633 -5.003919,-3.41474 -1.458738,-0.0403 -3.084021,1.0974 -3.204746,2.38588 -0.07621,0.81343 0.817659,1.45982 1.520592,1.4615 0.452131,0.001 1.007434,-0.28828 0.982423,-0.93599 -0.03243,-0.83987 -0.719779,-0.82456 -0.60887,-1.06368 0.271828,-0.58605 0.985151,-0.64894 1.637723,-0.58459 1.531636,0.15105 2.967716,1.13199 3.461167,2.66657 0.684348,2.12824 0.555089,4.8576 -0.842076,6.45381 -2.087988,2.38543 -6.771484,1.51705 -9.494995,3.50865 -0.412822,0.30188 -0.859491,0.77692 -1.28633,1.30216 -0.589719,-0.20193 -1.253819,-0.33088 -1.995447,-0.3229 -0.741231,-0.008 -1.405215,0.12197 -1.994393,0.32396 -0.427003,-0.52551 -0.873333,-1.00121 -1.28633,-1.30322 -2.723511,-1.9916 -7.407006,-1.12322 -9.494994,-3.50865 -1.397165,-1.59621 -1.52537,-4.32557 -0.841022,-6.45381 0.493451,-1.53458 1.928476,-2.51552 3.460112,-2.66657 0.652572,-0.0643 1.365895,-0.001 1.637723,0.58459 0.110909,0.23912 -0.575384,0.22381 -0.607814,1.06368 -0.02501,0.64771 0.529236,0.93699 0.981367,0.93599 0.702933,-0.002 1.596802,-0.64807 1.520592,-1.4615 -0.120725,-1.28848 -1.744952,-2.42618 -3.20369,-2.38588 z" /></g><path
       style="fill:#4b4b4b;fill-opacity:1;stroke-width:4;stroke-linecap:square;paint-order:markers fill stroke"
       d="m 139.82617,247.79297 c -1.80564,0.0661 -2.66211,0.97265 -2.66211,0.97265 0,10e-6 0.8824,-0.19122 1.43555,-0.26562 0.34064,-0.0459 0.84687,-0.0661 1.22656,-0.0781 0.3797,0.012 0.88397,0.0323 1.22461,0.0781 0.55315,0.0744 1.43555,0.26562 1.43555,0.26562 0,10e-6 -0.85452,-0.90655 -2.66016,-0.97265 z"
       id="path245"
       sodipodi:nodetypes="cscssc"
       inkscape:path-effect="#path-effect246"
       inkscape:original-d="m 137.16422,248.76485 c 0,0 0.92479,-0.97928 2.88065,-0.97584 0.83414,0.001 1.97882,0.85183 1.97882,0.85183 0,0 -0.89927,-0.27841 -1.73058,-0.23386 -0.23472,0.0126 -1.16272,0.0221 -1.69291,0.0935 -0.55315,0.0744 -1.43598,0.26441 -1.43598,0.26441 z"
       transform="translate(0,-0.46772167)" /><g
       id="g267"
       style="opacity:0.5;filter:url(#filter272)"
       inkscape:export-filename="midbartrobbio.png"
       inkscape:export-xdpi="400"
       inkscape:export-ydpi="400"><path
         style="fill:#4b4b4b;fill-opacity:1;stroke:none"
         d="m 130.3214,117.65073 c -0.43574,-0.53107 -1.04618,-0.41206 -2.28769,-0.34085 -1.6604,0.0953 -2.85419,0.0765 -4.51459,-0.0709 -1.24151,-0.11022 -2.56807,-0.27282 -2.9479,-0.36133 -0.66388,-0.1547 -0.71165,-0.14357 -1.23464,0.28752 -0.29923,0.24665 -0.67293,0.49522 -0.76614,0.49522 -0.0932,0 0.0926,-0.44144 0.006,-0.63179 -0.31459,-0.68889 -1.31772,-0.77103 -2.01091,-0.9894 -0.54066,-0.16066 -1.17962,-0.32883 -1.41992,-0.37372 -0.24029,-0.0449 -0.7318,-0.11818 -1.09224,-0.16287 -0.36043,-0.0447 -1.11408,-0.14488 -1.67476,-0.22265 -1.80611,-0.25062 -14.522671,-0.0882 -14.310664,-0.43147 0.252167,-0.40815 9.169144,0.45714 13.639734,-0.38026 0.76367,-0.14305 1.59154,-0.29395 2.19549,-0.78272 0.16034,-0.12976 0.20603,-0.52674 0.32476,-0.52674 0.11873,0 0.58958,0.37896 0.76338,0.55918 0.17379,0.18022 0.50089,0.48306 0.74006,0.65535 0.6926,0.49893 1.40462,0.81747 2.22156,1.10904 0.6362,0.21103 1.25954,0.38368 1.38519,0.38368 0.12566,0 0.30298,-0.1575 0.4578,-0.22933 0.56623,-0.2627 0.90084,-0.4577 1.72158,-0.7368 0.82073,-0.27911 2.01651,-0.57538 2.65729,-0.65838 0.64078,-0.083 1.25193,-0.1483 2.05767,-0.0833 0.18574,0.015 -0.4654,-0.43621 -1.0523,-0.94995 -0.93951,-0.8224 -1.40037,-2.10284 -0.85683,-1.38399 0.13951,0.18451 1.73803,1.95314 4.49825,2.63881 0.18276,0.0454 0.47362,0.0177 0.64758,-0.0549 1.68823,-0.70445 3.37864,-1.44581 5.22885,-1.49118 -1.21688,0.44539 -2.79098,1.07738 -3.56377,2.53238 -0.16556,0.31171 -0.1614,0.86107 -0.0125,1.1814 0.94988,2.04283 2.94085,3.35777 4.54157,4.51735 -1.50125,-0.19502 -4.738,-2.76133 -5.34195,-3.49739 z m -0.59668,-1.44272 c 0.0747,-0.0462 -0.38048,-0.37084 -0.6057,-0.50739 -0.4356,-0.2641 -0.91384,-0.47777 -1.41185,-0.58492 -0.89014,-0.19152 -1.88834,-0.12701 -2.73021,-0.0849 -0.99625,0.0498 -1.88659,0.19006 -2.55009,0.40177 -0.56068,0.17891 -1.19964,0.39839 -1.41991,0.48774 -0.22027,0.0894 -0.40049,0.20729 -0.40049,0.26207 0,0.0548 0.34406,0.13712 0.76457,0.18298 2.36767,0.36636 7.88869,0.13006 8.35368,-0.15735 z m 19.47682,1.44272 c 0.43574,-0.53107 1.04618,-0.41206 2.28769,-0.34085 1.6604,0.0953 2.85419,0.0765 4.51459,-0.0709 1.24151,-0.11022 2.56807,-0.27282 2.9479,-0.36133 0.66388,-0.1547 0.71165,-0.14357 1.23464,0.28752 0.29923,0.24665 0.67293,0.49522 0.76614,0.49522 0.0932,0 -0.0926,-0.44144 -0.006,-0.63179 0.31459,-0.68889 1.31772,-0.77103 2.01091,-0.9894 0.54066,-0.16066 1.17962,-0.32883 1.41992,-0.37372 0.24029,-0.0449 0.7318,-0.11818 1.09224,-0.16287 0.36043,-0.0447 1.11408,-0.14488 1.67476,-0.22265 1.80611,-0.25062 14.52267,-0.0882 14.31066,-0.43147 -0.25216,-0.40815 -9.16914,0.45714 -13.63973,-0.38026 -0.76367,-0.14305 -1.59154,-0.29395 -2.19549,-0.78272 -0.16034,-0.12976 -0.20603,-0.52674 -0.32476,-0.52674 -0.11873,0 -0.58958,0.37896 -0.76338,0.55918 -0.17379,0.18022 -0.50089,0.48306 -0.74006,0.65535 -0.6926,0.49893 -1.40462,0.81747 -2.22156,1.10904 -0.6362,0.21103 -1.25954,0.38368 -1.38519,0.38368 -0.12566,0 -0.30298,-0.1575 -0.4578,-0.22933 -0.56623,-0.2627 -0.90084,-0.4577 -1.72158,-0.7368 -0.82073,-0.27911 -2.01651,-0.57538 -2.65729,-0.65838 -0.64078,-0.083 -1.25193,-0.1483 -2.05767,-0.0833 -0.18574,0.015 0.4654,-0.43621 1.0523,-0.94995 0.93951,-0.8224 1.40037,-2.10284 0.85683,-1.38399 -0.14502,0.1918 -1.86654,2.09528 -4.83064,2.71481 -1.79365,-0.7404 -3.57869,-1.5739 -5.54404,-1.62209 1.36957,0.50128 3.19162,1.23891 3.81453,3.1202 -0.81183,2.38875 -3.02924,3.84275 -4.77987,5.11093 1.50125,-0.19502 4.738,-2.76133 5.34195,-3.49739 z m 0.59668,-1.44272 c -0.0747,-0.0462 0.38048,-0.37084 0.6057,-0.50739 0.4356,-0.2641 0.91384,-0.47777 1.41185,-0.58492 0.89014,-0.19152 1.88834,-0.12701 2.73021,-0.0849 0.99625,0.0498 1.88659,0.19006 2.55009,0.40177 0.56068,0.17891 1.19964,0.39839 1.41991,0.48774 0.22027,0.0894 0.40049,0.20729 0.40049,0.26207 0,0.0548 -0.34406,0.13712 -0.76457,0.18298 -2.36767,0.36636 -7.88869,0.13006 -8.35368,-0.15735 z"
         id="path266"
         sodipodi:nodetypes="ssssssssssssaasssssasssssssccsascscscaa"
         inkscape:path-effect="#path-effect268;#path-effect270"
         inkscape:original-d="m 130.3214,117.65073 c -0.43574,-0.53107 -1.04618,-0.41206 -2.28769,-0.34085 -1.6604,0.0953 -2.85419,0.0765 -4.51459,-0.0709 -1.24151,-0.11022 -2.56807,-0.27282 -2.9479,-0.36133 -0.66388,-0.1547 -0.71165,-0.14357 -1.23464,0.28752 -0.29923,0.24665 -0.67293,0.49522 -0.76614,0.49522 -0.0932,0 0.0926,-0.44144 0.006,-0.63179 -0.31459,-0.68889 -1.31772,-0.77103 -2.01091,-0.9894 -0.54066,-0.16066 -1.17962,-0.32883 -1.41992,-0.37372 -0.24029,-0.0449 -0.7318,-0.11818 -1.09224,-0.16287 -0.36043,-0.0447 -1.11408,-0.14488 -1.67476,-0.22265 -1.80611,-0.25062 -14.522671,-0.0882 -14.310664,-0.43147 0.252167,-0.40815 9.169144,0.45714 13.639734,-0.38026 0.76367,-0.14305 1.59154,-0.29395 2.19549,-0.78272 0.16034,-0.12976 0.20603,-0.52674 0.32476,-0.52674 0.11873,0 0.58958,0.37896 0.76338,0.55918 0.17379,0.18022 0.50089,0.48306 0.74006,0.65535 0.6926,0.49893 1.40462,0.81747 2.22156,1.10904 0.6362,0.21103 1.25954,0.38368 1.38519,0.38368 0.12566,0 0.30298,-0.1575 0.4578,-0.22933 0.56623,-0.2627 0.90084,-0.4577 1.72158,-0.7368 0.82073,-0.27911 2.01651,-0.57538 2.65729,-0.65838 0.64078,-0.083 1.25193,-0.1483 2.05767,-0.0833 0.18574,0.015 -0.4654,-0.43621 -1.0523,-0.94995 -0.93951,-0.8224 -1.40037,-2.10284 -0.85683,-1.38399 0.14502,0.1918 1.86654,2.09528 4.83064,2.71481 1.79365,-0.7404 3.57869,-1.5739 5.54404,-1.62209 -1.36957,0.50128 -3.19162,1.23891 -3.81453,3.1202 0.81183,2.38875 3.02924,3.84275 4.77987,5.11093 -1.50125,-0.19502 -4.738,-2.76133 -5.34195,-3.49739 z m -0.59668,-1.44272 c 0.0747,-0.0462 -0.38048,-0.37084 -0.6057,-0.50739 -0.4356,-0.2641 -0.91384,-0.47777 -1.41185,-0.58492 -0.89014,-0.19152 -1.88834,-0.12701 -2.73021,-0.0849 -0.99625,0.0498 -1.88659,0.19006 -2.55009,0.40177 -0.56068,0.17891 -1.19964,0.39839 -1.41991,0.48774 -0.22027,0.0894 -0.40049,0.20729 -0.40049,0.26207 0,0.0548 0.34406,0.13712 0.76457,0.18298 2.36767,0.36636 7.88869,0.13006 8.35368,-0.15735 z"
         transform="translate(0.11765782,136.08485)" /><path
         id="path267"
         style="fill:#4b4b4b;fill-opacity:1;stroke-width:8.16801;stroke-linecap:square;paint-order:markers fill stroke"
         d="m 50.690883,234.33717 c -2.11316,0.0584 -4.140413,1.5897 -5.004974,3.41474 -1.072018,2.26297 -0.907073,5.67482 0.6553,7.48372 2.332454,2.7005 8.477011,2.25245 10.131982,4.97341 0.101485,0.16685 0.02902,0.39759 -0.127425,0.51535 -1.05716,0.79575 -1.642158,1.96291 -1.913024,3.25912 -0.05144,0.32685 0.180193,0.7251 0.485408,0.85369 1.132306,0.47703 2.370888,0.63052 3.359865,0.2923 0.238996,-0.0817 0.36075,0.0137 0.277526,0.2522 -0.484742,1.38938 -1.012259,1.82991 -2.810088,2.3078 -0.240775,0.064 -0.239771,0.15712 0.0032,0.21315 l 3.522371,0.81253 c 0.177019,0.3308 0.471366,0.62111 0.804088,0.8864 0.240959,0.19213 0.656084,0.19236 0.896949,0 0.332059,-0.2652 0.624165,-0.55561 0.800922,-0.8864 l 3.963459,-0.91594 c -2.349403,-0.57345 -2.816022,-0.99231 -3.390467,-2.8523 1.18957,0.63646 2.894742,0.38829 4.320128,-0.36933 -0.04394,-1.9313 -1.120188,-3.16486 -1.978171,-3.84446 -0.153482,-0.12157 -0.22152,-0.35859 -0.11966,-0.52572 1.658872,-2.72196 7.798021,-2.27031 10.131327,-4.9718 1.562373,-1.8089 1.726263,-5.22075 0.654245,-7.48372 -0.864561,-1.82504 -2.890759,-3.35633 -5.003919,-3.41474 -1.458738,-0.0403 -3.084021,1.0974 -3.204746,2.38588 -0.07621,0.81343 0.817659,1.45982 1.520592,1.4615 0.452131,0.001 1.007434,-0.28828 0.982423,-0.93599 -0.03243,-0.83987 -0.719779,-0.82456 -0.60887,-1.06368 0.271828,-0.58605 0.985151,-0.64894 1.637723,-0.58459 1.531636,0.15105 2.967716,1.13199 3.461167,2.66657 0.684348,2.12824 0.555089,4.8576 -0.842076,6.45381 -2.087988,2.38543 -6.771484,1.51705 -9.494995,3.50865 -0.340149,0.24874 -0.703278,0.61504 -1.059359,1.03011 -0.127405,0.14851 -0.376975,0.2195 -0.565604,0.16685 -0.502154,-0.14017 -1.053861,-0.22419 -1.656814,-0.2177 -0.60255,-0.007 -1.154054,0.0782 -1.655823,0.21858 -0.18859,0.0528 -0.438225,-0.0183 -0.565702,-0.16698 -0.356059,-0.41533 -0.718941,-0.78204 -1.059198,-1.03086 -2.723511,-1.9916 -7.407006,-1.12322 -9.494994,-3.50865 -1.397165,-1.59621 -1.52537,-4.32557 -0.841022,-6.45381 0.493451,-1.53458 1.928476,-2.51552 3.460112,-2.66657 0.652572,-0.0643 1.365895,-0.001 1.637723,0.58459 0.110909,0.23912 -0.575384,0.22381 -0.607814,1.06368 -0.02501,0.64771 0.529236,0.93699 0.981367,0.93599 0.702933,-0.002 1.596802,-0.64807 1.520592,-1.4615 -0.120725,-1.28848 -1.744952,-2.42618 -3.20369,-2.38588 z"
         transform="matrix(0.48971543,0,0,0.48971543,110.24155,127.60704)"
         sodipodi:nodetypes="ssscsssssccsscccccssssssssssscccsssssscsss"
         inkscape:path-effect="#path-effect272"
         inkscape:original-d="m 50.690883,234.33717 c -2.11316,0.0584 -4.140413,1.5897 -5.004974,3.41474 -1.072018,2.26297 -0.907073,5.67482 0.6553,7.48372 2.418217,2.7998 8.934029,2.21524 10.295917,5.28672 -1.242701,0.79256 -1.909588,2.05043 -2.204384,3.46116 -0.05144,0.32685 0.180193,0.7251 0.485408,0.85369 1.132306,0.47703 2.370888,0.63052 3.359865,0.2923 0.238996,-0.0817 0.36075,0.0137 0.277526,0.2522 -0.484742,1.38938 -1.012259,1.82991 -2.810088,2.3078 -0.240775,0.064 -0.239771,0.15712 0.0032,0.21315 l 3.522371,0.81253 c 0.177019,0.3308 0.471366,0.62111 0.804088,0.8864 0.240959,0.19213 0.656084,0.19236 0.896949,0 0.332059,-0.2652 0.624165,-0.55561 0.800922,-0.8864 l 3.963459,-0.91594 c -2.349403,-0.57345 -2.816022,-0.99231 -3.390467,-2.8523 1.18957,0.63646 2.894742,0.38829 4.320128,-0.36933 -0.04897,-2.15243 -1.380179,-3.4382 -2.262422,-4.05632 1.366255,-3.07335 7.876707,-2.48471 10.295918,-5.28566 1.562373,-1.8089 1.726263,-5.22075 0.654245,-7.48372 -0.864561,-1.82504 -2.890759,-3.35633 -5.003919,-3.41474 -1.458738,-0.0403 -3.084021,1.0974 -3.204746,2.38588 -0.07621,0.81343 0.817659,1.45982 1.520592,1.4615 0.452131,0.001 1.007434,-0.28828 0.982423,-0.93599 -0.03243,-0.83987 -0.719779,-0.82456 -0.60887,-1.06368 0.271828,-0.58605 0.985151,-0.64894 1.637723,-0.58459 1.531636,0.15105 2.967716,1.13199 3.461167,2.66657 0.684348,2.12824 0.555089,4.8576 -0.842076,6.45381 -2.087988,2.38543 -6.771484,1.51705 -9.494995,3.50865 -0.412822,0.30188 -0.859491,0.77692 -1.28633,1.30216 -0.589719,-0.20193 -1.253819,-0.33088 -1.995447,-0.3229 -0.741231,-0.008 -1.405215,0.12197 -1.994393,0.32396 -0.427003,-0.52551 -0.873333,-1.00121 -1.28633,-1.30322 -2.723511,-1.9916 -7.407006,-1.12322 -9.494994,-3.50865 -1.397165,-1.59621 -1.52537,-4.32557 -0.841022,-6.45381 0.493451,-1.53458 1.928476,-2.51552 3.460112,-2.66657 0.652572,-0.0643 1.365895,-0.001 1.637723,0.58459 0.110909,0.23912 -0.575384,0.22381 -0.607814,1.06368 -0.02501,0.64771 0.529236,0.93699 0.981367,0.93599 0.702933,-0.002 1.596802,-0.64807 1.520592,-1.4615 -0.120725,-1.28848 -1.744952,-2.42618 -3.20369,-2.38588 z" /></g></g></svg>
