<?xml version="1.0" encoding="UTF-8" standalone="no"?>
<!-- Created with Inkscape (http://www.inkscape.org/) -->

<svg
   width="84.524826mm"
   height="17.255375mm"
   viewBox="0 0 84.524826 17.255375"
   version="1.1"
   id="svg1"
   xml:space="preserve"
   inkscape:version="1.4.3 (0d15f75042, 2025-12-25)"
   sodipodi:docname="skonguistuff.svg"
   inkscape:export-filename="..\Github\skonguistuff.png"
   inkscape:export-xdpi="400"
   inkscape:export-ydpi="400"
   xmlns:inkscape="http://www.inkscape.org/namespaces/inkscape"
   xmlns:sodipodi="http://sodipodi.sourceforge.net/DTD/sodipodi-0.dtd"
   xmlns="http://www.w3.org/2000/svg"
   xmlns:svg="http://www.w3.org/2000/svg"><sodipodi:namedview
     id="namedview1"
     pagecolor="#ffffff"
     bordercolor="#000000"
     borderopacity="0.25"
     inkscape:showpageshadow="2"
     inkscape:pageopacity="0.0"
     inkscape:pagecheckerboard="0"
     inkscape:deskcolor="#d1d1d1"
     inkscape:document-units="mm"
     inkscape:zoom="32.000002"
     inkscape:cx="524.06247"
     inkscape:cy="817.43746"
     inkscape:window-width="1920"
     inkscape:window-height="1014"
     inkscape:window-x="0"
     inkscape:window-y="0"
     inkscape:window-maximized="1"
     inkscape:current-layer="layer1"
     showgrid="false"
     showguides="true"><inkscape:page
       x="0"
       y="-4.9762597e-38"
       width="84.524826"
       height="17.255375"
       id="page2"
       margin="0"
       bleed="0" /></sodipodi:namedview><defs
     id="defs1"><inkscape:path-effect
       effect="mirror_symmetry"
       start_point="138.70314,117.49312"
       end_point="138.70314,124.21256"
       center_point="138.70314,120.85284"
       id="path-effect23"
       is_visible="true"
       lpeversion="1.2"
       lpesatellites=""
       mode="free"
       discard_orig_path="false"
       fuse_paths="false"
       oposite_fuse="false"
       split_items="false"
       split_open="false"
       link_styles="false" /><inkscape:path-effect
       effect="fillet_chamfer"
       id="path-effect238"
       is_visible="true"
       lpeversion="1"
       nodesatellites_param="F,0,0,1,0,0,0,1 @ F,0,0,1,0,0,0,1 @ F,0,0,1,0,0,0,1 @ F,0,0,1,0,0,0,1 @ F,0,0,1,0,0,0,1 @ F,0,0,1,0,0,0,1 @ F,0,0,1,0,0,0,1 @ F,0,0,1,0,0,0,1 @ F,0,0,1,0,0,0,1 @ F,0,0,1,0,0,0,1 @ F,0,0,1,0,0,0,1 @ F,0,0,1,0,0,0,1 @ F,0,0,1,0,0,0,1 @ F,0,0,1,0,0,0,1 @ F,0,0,1,0,0,0,1 @ F,0,0,1,0,0,0,1 @ F,0,0,1,0,0,0,1 @ F,0,0,1,0,0,0,1 @ F,0,0,1,0,0,0,1 @ F,0,0,1,0,0,0,1 @ F,0,0,1,0,0,0,1 | F,0,1,1,0,0.25637275,0,1 @ F,0,0,1,0,0,0,1 @ F,0,0,1,0,0,0,1 @ F,0,0,1,0,0,0,1 | F,0,0,1,0,0.25637275,0,1 @ F,0,0,1,0,0,0,1 @ F,0,0,1,0,0,0,1 @ F,0,0,1,0,0,0,1"
       radius="0"
       unit="px"
       method="auto"
       mode="F"
       chamfer_steps="1"
       flexible="false"
       use_knot_distance="true"
       apply_no_radius="true"
       apply_with_radius="true"
       only_selected="false"
       hide_knots="false" /><inkscape:path-effect
       effect="mirror_symmetry"
       start_point="138.70314,117.49312"
       end_point="138.70314,124.21256"
       center_point="138.70314,120.85284"
       id="path-effect236"
       is_visible="true"
       lpeversion="1.2"
       lpesatellites=""
       mode="free"
       discard_orig_path="false"
       fuse_paths="false"
       oposite_fuse="false"
       split_items="false"
       split_open="false"
       link_styles="false" /><inkscape:path-effect
       effect="mirror_symmetry"
       start_point="138.70314,117.49312"
       end_point="138.70314,124.21256"
       center_point="138.70314,120.85284"
       id="path-effect225"
       is_visible="true"
       lpeversion="1.2"
       lpesatellites=""
       mode="free"
       discard_orig_path="false"
       fuse_paths="false"
       oposite_fuse="false"
       split_items="false"
       split_open="false"
       link_styles="false" /><inkscape:path-effect
       effect="fillet_chamfer"
       id="path-effect223"
       is_visible="true"
       lpeversion="1"
       nodesatellites_param="F,0,0,1,0,0,0,1 @ F,0,0,1,0,0,0,1 @ F,0,0,1,0,0,0,1 @ F,0,0,1,0,0,0,1 @ F,0,0,1,0,0,0,1 @ F,0,0,1,0,0,0,1 @ F,0,0,1,0,0,0,1 @ F,0,0,1,0,0,0,1 @ F,0,0,1,0,0,0,1 @ F,0,0,1,0,0,0,1 @ F,0,0,1,0,0,0,1 @ F,0,0,1,0,0,0,1 @ F,0,0,1,0,0,0,1 @ F,0,0,1,0,0,0,1 @ F,0,0,1,0,0,0,1 @ F,0,0,1,0,0,0,1 @ F,0,0,1,0,0,0,1 @ F,0,0,1,0,0,0,1 @ F,0,0,1,0,0,0,1 @ F,0,0,1,0,0,0,1 @ F,0,0,1,0,0,0,1 | F,0,1,1,0,0.25637275,0,1 @ F,0,0,1,0,0,0,1 @ F,0,0,1,0,0,0,1 @ F,0,0,1,0,0,0,1 | F,0,0,1,0,0.25637275,0,1 @ F,0,0,1,0,0,0,1 @ F,0,0,1,0,0,0,1 @ F,0,0,1,0,0,0,1"
       radius="0"
       unit="px"
       method="auto"
       mode="F"
       chamfer_steps="1"
       flexible="false"
       use_knot_distance="true"
       apply_no_radius="true"
       apply_with_radius="true"
       only_selected="false"
       hide_knots="false" /><inkscape:path-effect
       effect="mirror_symmetry"
       start_point="138.70314,117.49312"
       end_point="138.70314,124.21256"
       center_point="138.70314,120.85284"
       id="path-effect212"
       is_visible="true"
       lpeversion="1.2"
       lpesatellites=""
       mode="free"
       discard_orig_path="false"
       fuse_paths="false"
       oposite_fuse="false"
       split_items="false"
       split_open="false"
       link_styles="false" /><filter
       inkscape:collect="always"
       style="color-interpolation-filters:sRGB"
       id="filter239"
       x="-0.027265686"
       y="-0.20037935"
       width="1.0545314"
       height="1.4007587"><feGaussianBlur
         inkscape:collect="always"
         stdDeviation="0.9096209"
         id="feGaussianBlur239" /></filter><filter
       inkscape:collect="always"
       style="color-interpolation-filters:sRGB"
       id="filter24"
       x="-0.027836127"
       y="-0.17415141"
       width="1.0556723"
       height="1.3483028"><feGaussianBlur
         inkscape:collect="always"
         stdDeviation="0.92865155"
         id="feGaussianBlur24" /></filter></defs><g
     inkscape:label="Layer 1"
     inkscape:groupmode="layer"
     id="layer1"
     transform="translate(-97.895924,-203.10084)"><g
       id="g27"><g
         id="g235"
         style="opacity:0.5;filter:url(#filter239)"
         transform="translate(0,-1.4552083)"><path
           style="fill:#4b4b4b;fill-opacity:1;stroke:none"
           d="m 134.79306,118.91948 c 0.20701,0.10449 -1.66165,-0.12234 -2.4861,-0.6817 -1.37658,-0.93394 -1.34632,-1.1736 -1.8516,-1.09 -0.30263,0.0501 -1.18014,0.0909 -2.42165,0.1621 -1.6604,0.0953 -2.85419,0.0765 -4.51459,-0.0709 -1.24151,-0.11022 -2.56807,-0.27282 -2.9479,-0.36133 -0.66388,-0.1547 -0.71165,0.0879 -1.23464,0.51903 -0.29923,0.24665 -1.49674,1.34142 -1.58995,1.34142 -0.0932,0 0.86371,-1.30709 0.81277,-1.51006 -0.0148,-0.0588 -0.70338,-0.80528 -1.9942,-1.18884 -0.54066,-0.16066 -1.17962,-0.32883 -1.41992,-0.37372 -0.24029,-0.0449 -0.7318,-0.11818 -1.09224,-0.16287 -0.36043,-0.0447 -1.11408,-0.14488 -1.67476,-0.22265 -0.56069,-0.0778 -3.84835,-0.15793 -7.30593,-0.17815 -3.45758,-0.0202 -6.331275,-0.0815 -6.385985,-0.13629 -0.329233,-0.32917 4.242545,-0.14432 6.363495,-0.22519 2.2194,-0.0846 4.44427,-0.0861 6.65749,-0.2721 0.51565,-0.0433 1.04052,-0.0608 1.53993,-0.19633 0.32742,-0.0889 0.74897,-0.23692 0.93619,-0.3993 0.18722,-0.16238 -1.04954,-1.32838 -0.57094,-1.05929 0.65082,0.3659 1.47941,1.14323 2.11851,1.55999 0.69328,0.45209 1.39459,0.8247 2.22156,1.10904 0.6362,0.21103 1.25954,0.38368 1.38519,0.38368 0.12566,0 0.33167,-0.1032 0.4578,-0.22933 0.12613,-0.12614 0.90084,-0.4577 1.72158,-0.7368 0.82073,-0.27911 2.01651,-0.57538 2.65729,-0.65838 0.64078,-0.083 1.61662,-0.20824 2.42147,-0.13286 1.24205,0.11633 2.28335,0.47582 3.63376,0.89537 0.42544,0.13218 0.79265,-0.32876 0.94845,-0.75561 0.715,-1.95866 0.29839,-2.62321 0.33827,-2.89168 0.0182,-0.12192 0.55047,0.75009 0.24638,2.48227 -0.13116,0.74712 -0.23489,1.60566 -0.0197,2.3636 0.18817,0.66277 0.56678,1.27165 1.10071,1.74942 0.53394,0.47777 1.94926,0.96746 1.94926,0.96746 z m -10.10889,-2.35407 c 0.84102,0.0242 2.40771,-0.0274 3.48153,-0.1147 1.07382,-0.0873 2.01351,-0.19654 2.08819,-0.2427 0.0747,-0.0462 -0.19788,-0.27448 -0.6057,-0.50739 -0.52032,-0.29717 -1.09926,-0.47163 -1.94102,-0.58492 -0.65975,-0.0888 -1.88834,-0.12701 -2.73021,-0.0849 -0.99625,0.0498 -1.88659,0.19006 -2.55009,0.40177 -0.56068,0.17891 -1.19964,0.39839 -1.41991,0.48774 -0.22027,0.0894 -0.40049,0.20729 -0.40049,0.26207 0,0.0548 0.34406,0.13712 0.76457,0.18298 0.42051,0.0459 0.99394,0.0997 1.27428,0.1197 0.28034,0.02 1.19782,0.0562 2.03885,0.0804 z m 17.92905,2.35407 c -0.20701,0.10449 1.66165,-0.12234 2.4861,-0.6817 1.37658,-0.93394 1.34632,-1.1736 1.8516,-1.09 0.30263,0.0501 1.18014,0.0909 2.42165,0.1621 1.6604,0.0953 2.85419,0.0765 4.51459,-0.0709 1.24151,-0.11022 2.56807,-0.27282 2.9479,-0.36133 0.66388,-0.1547 0.71165,0.0879 1.23464,0.51903 0.29923,0.24665 1.49674,1.34142 1.58995,1.34142 0.0932,0 -0.86371,-1.30709 -0.81277,-1.51006 0.0148,-0.0588 0.70338,-0.80528 1.9942,-1.18884 0.54066,-0.16066 1.17962,-0.32883 1.41992,-0.37372 0.24029,-0.0449 0.7318,-0.11818 1.09224,-0.16287 0.36043,-0.0447 1.11408,-0.14488 1.67476,-0.22265 0.56069,-0.0778 3.84835,-0.15793 7.30593,-0.17815 3.45758,-0.0202 6.33128,-0.0815 6.38599,-0.13629 0.32923,-0.32917 -4.24255,-0.14432 -6.3635,-0.22519 -2.2194,-0.0846 -4.44427,-0.0861 -6.65749,-0.2721 -0.51565,-0.0433 -1.04052,-0.0608 -1.53993,-0.19633 -0.32742,-0.0889 -0.74897,-0.23692 -0.93619,-0.3993 -0.18722,-0.16238 1.04954,-1.32838 0.57094,-1.05929 -0.65082,0.3659 -1.47941,1.14323 -2.11851,1.55999 -0.69328,0.45209 -1.39459,0.8247 -2.22156,1.10904 -0.6362,0.21103 -1.25954,0.38368 -1.38519,0.38368 -0.12566,0 -0.33167,-0.1032 -0.4578,-0.22933 -0.12613,-0.12614 -0.90084,-0.4577 -1.72158,-0.7368 -0.82073,-0.27911 -2.01651,-0.57538 -2.65729,-0.65838 -0.64078,-0.083 -1.61662,-0.20824 -2.42147,-0.13286 -1.24205,0.11633 -2.28335,0.47582 -3.63376,0.89537 -0.42544,0.13218 -0.79265,-0.32876 -0.94845,-0.75561 -0.715,-1.95866 -0.29839,-2.62321 -0.33827,-2.89168 -0.0182,-0.12192 -0.55047,0.75009 -0.24638,2.48227 0.13116,0.74712 0.23489,1.60566 0.0197,2.3636 -0.18817,0.66277 -0.56678,1.27165 -1.10071,1.74942 -0.53394,0.47777 -1.94926,0.96746 -1.94926,0.96746 z m 10.10889,-2.35407 c -0.84102,0.0242 -2.40771,-0.0274 -3.48153,-0.1147 -1.07382,-0.0873 -2.01351,-0.19654 -2.08819,-0.2427 -0.0747,-0.0462 0.19788,-0.27448 0.6057,-0.50739 0.52032,-0.29717 1.09926,-0.47163 1.94102,-0.58492 0.65975,-0.0888 1.88834,-0.12701 2.73021,-0.0849 0.99625,0.0498 1.88659,0.19006 2.55009,0.40177 0.56068,0.17891 1.19964,0.39839 1.41991,0.48774 0.22027,0.0894 0.40049,0.20729 0.40049,0.26207 0,0.0548 -0.34406,0.13712 -0.76457,0.18298 -0.42051,0.0459 -0.99394,0.0997 -1.27428,0.1197 -0.28034,0.02 -1.19782,0.0562 -2.03885,0.0804 z"
           id="path234"
           sodipodi:nodetypes="sssssssscssssscaaassssssssassssassssssscscsccss"
           transform="translate(1.4552083,84.615569)"
           inkscape:original-d="m 134.79306,118.91948 c 0.20701,0.10449 -1.66165,-0.12234 -2.4861,-0.6817 -1.37658,-0.93394 -1.34632,-1.1736 -1.8516,-1.09 -0.30263,0.0501 -1.18014,0.0909 -2.42165,0.1621 -1.6604,0.0953 -2.85419,0.0765 -4.51459,-0.0709 -1.24151,-0.11022 -2.56807,-0.27282 -2.9479,-0.36133 -0.66388,-0.1547 -0.71165,0.0879 -1.23464,0.51903 -0.29923,0.24665 -1.49674,1.34142 -1.58995,1.34142 -0.0932,0 0.86371,-1.30709 0.81277,-1.51006 -0.0148,-0.0588 -0.70338,-0.80528 -1.9942,-1.18884 -0.54066,-0.16066 -1.17962,-0.32883 -1.41992,-0.37372 -0.24029,-0.0449 -0.7318,-0.11818 -1.09224,-0.16287 -0.36043,-0.0447 -1.11408,-0.14488 -1.67476,-0.22265 -0.56069,-0.0778 -3.84835,-0.15793 -7.30593,-0.17815 -3.45758,-0.0202 -6.331275,-0.0815 -6.385985,-0.13629 -0.329233,-0.32917 4.242545,-0.14432 6.363495,-0.22519 2.2194,-0.0846 4.44427,-0.0861 6.65749,-0.2721 0.51565,-0.0433 1.04052,-0.0608 1.53993,-0.19633 0.32742,-0.0889 0.74897,-0.23692 0.93619,-0.3993 0.18722,-0.16238 -1.04954,-1.32838 -0.57094,-1.05929 0.65082,0.3659 1.47941,1.14323 2.11851,1.55999 0.69328,0.45209 1.39459,0.8247 2.22156,1.10904 0.6362,0.21103 1.25954,0.38368 1.38519,0.38368 0.12566,0 0.33167,-0.1032 0.4578,-0.22933 0.12613,-0.12614 0.90084,-0.4577 1.72158,-0.7368 0.82073,-0.27911 2.01651,-0.57538 2.65729,-0.65838 0.64078,-0.083 1.61662,-0.20824 2.42147,-0.13286 1.24205,0.11633 2.28335,0.47582 3.63376,0.89537 0.42544,0.13218 0.79265,-0.32876 0.94845,-0.75561 0.715,-1.95866 0.29839,-2.62321 0.33827,-2.89168 0.0182,-0.12192 0.55047,0.75009 0.24638,2.48227 -0.13116,0.74712 -0.23489,1.60566 -0.0197,2.3636 0.18817,0.66277 0.56678,1.27165 1.10071,1.74942 0.53394,0.47777 1.94926,0.96746 1.94926,0.96746 z m -10.10889,-2.35407 c 0.84102,0.0242 2.40771,-0.0274 3.48153,-0.1147 1.07382,-0.0873 2.01351,-0.19654 2.08819,-0.2427 0.0747,-0.0462 -0.19788,-0.27448 -0.6057,-0.50739 -0.52032,-0.29717 -1.09926,-0.47163 -1.94102,-0.58492 -0.65975,-0.0888 -1.88834,-0.12701 -2.73021,-0.0849 -0.99625,0.0498 -1.88659,0.19006 -2.55009,0.40177 -0.56068,0.17891 -1.19964,0.39839 -1.41991,0.48774 -0.22027,0.0894 -0.40049,0.20729 -0.40049,0.26207 0,0.0548 0.34406,0.13712 0.76457,0.18298 0.42051,0.0459 0.99394,0.0997 1.27428,0.1197 0.28034,0.02 1.19782,0.0562 2.03885,0.0804 z"
           inkscape:path-effect="#path-effect236" /><path
           id="path235"
           style="fill:#4b4b4b;fill-opacity:1;stroke:none;stroke-width:0.3;stroke-opacity:1"
           d="m 137.18336,203.97644 c -4.86573,0.39591 -11.16177,3.73864 -11.84941,9.93194 -0.75977,6.84302 5.78218,7.76583 6.74429,6.7439 -3.28601,0.4829 -3.68251,-4.6876 0.0388,-3.34018 -0.0901,-0.42675 -0.17322,-0.87238 -0.0915,-1.18817 0.20613,-0.79621 2.81027,-2.87835 3.77135,-3.28818 -0.67887,0.41351 -2.74635,2.18385 -3.42563,3.17009 -0.1931,0.28036 -0.089,1.12027 0.29145,1.75448 0.81809,1.0592 2.52623,2.06548 4.52066,2.10867 1.33189,-0.0288 2.53556,-0.48711 3.43183,-1.10393 0.0272,-0.0187 0.0529,-0.0383 0.0796,-0.0573 l 0.12609,-0.0905 c 0.001,-8e-4 0.002,-0.002 0.003,-0.002 0.24346,-0.18426 0.46004,-0.38016 0.64596,-0.58061 0.53004,-0.68145 0.74599,-1.67379 0.52426,-1.99572 -0.67928,-0.98624 -2.79405,-2.78927 -3.47292,-3.20278 0.96108,0.40983 3.56573,2.49197 3.77186,3.28818 0.0829,0.32028 -0.003,0.77374 -0.094,1.20599 3.77407,-1.41122 3.38833,3.80738 0.0879,3.32236 0.96211,1.02193 7.50406,0.0991 6.74429,-6.7439 -0.68763,-6.1933 -6.98213,-9.53603 -11.84785,-9.93194 z m -3.78811,12.23224 c 0.57241,0.10275 1.94972,0.40328 2.36959,0.97488 0.27153,0.36968 0.37436,1.02718 0.0341,1.34368 -0.32611,0.30334 -0.99189,0.19606 -1.38183,-0.0327 -0.69205,-0.50465 -0.96955,-1.31365 -1.20147,-2.08223 -0.0408,-0.13525 0.0402,-0.22864 0.17961,-0.20363 z m 7.75427,0.20427 c -0.16483,0.55036 -0.54042,1.69368 -1.20147,2.08155 -0.38994,0.2288 -1.05572,0.33608 -1.38183,0.0327 -0.34025,-0.3165 -0.23742,-0.974 0.0341,-1.34368 0.42002,-0.57181 1.7982,-0.87233 2.37023,-0.97496 0.139,-0.0249 0.2196,0.0687 0.17897,0.20439 z"
           transform="matrix(0.56561378,0,0,0.60712434,62.565982,68.825912)"
           sodipodi:nodetypes="csccccsccsccccscsccscccssccsssss"
           inkscape:path-effect="#path-effect238"
           inkscape:original-d="m 137.18336,203.97644 c -4.86573,0.39591 -11.16177,3.73864 -11.84941,9.93194 -0.75977,6.84302 5.78218,7.76583 6.74429,6.7439 -3.28601,0.4829 -3.68251,-4.6876 0.0388,-3.34018 -0.0901,-0.42675 -0.17322,-0.87238 -0.0915,-1.18817 0.20613,-0.79621 2.81027,-2.87835 3.77135,-3.28818 -0.67887,0.41351 -2.74635,2.18385 -3.42563,3.17009 -0.1931,0.28036 -0.089,1.12027 0.29145,1.75448 0.81809,1.0592 2.52623,2.06548 4.52066,2.10867 1.33189,-0.0288 2.53556,-0.48711 3.43183,-1.10393 0.0272,-0.0187 0.0529,-0.0383 0.0796,-0.0573 l 0.12609,-0.0905 c 0.001,-8e-4 0.002,-0.002 0.003,-0.002 0.24346,-0.18426 0.46004,-0.38016 0.64596,-0.58061 0.53004,-0.68145 0.74599,-1.67379 0.52426,-1.99572 -0.67928,-0.98624 -2.79405,-2.78927 -3.47292,-3.20278 0.96108,0.40983 3.56573,2.49197 3.77186,3.28818 0.0829,0.32028 -0.003,0.77374 -0.094,1.20599 3.77407,-1.41122 3.38833,3.80738 0.0879,3.32236 0.96211,1.02193 7.50406,0.0991 6.74429,-6.7439 -0.68763,-6.1933 -6.98213,-9.53603 -11.84785,-9.93194 z m -4.0411,12.19082 c 0,0 2.08783,0.2883 2.62258,1.0163 0.27153,0.36968 0.37436,1.02718 0.0341,1.34368 -0.32611,0.30334 -0.99189,0.19606 -1.38183,-0.0327 -0.76614,-0.55868 -1.02422,-1.49037 -1.27485,-2.32728 z m 8.08064,0 c -0.10149,0.31701 -0.48376,1.86307 -1.27485,2.32724 -0.38994,0.2288 -1.05572,0.33608 -1.38183,0.0327 -0.34025,-0.3165 -0.23742,-0.974 0.0341,-1.34368 0.53475,-0.728 2.62258,-1.01626 2.62258,-1.01626 z" /></g><path
         style="fill:#4b4b4b;fill-opacity:1;stroke:none"
         d="m 134.79306,118.91948 c 0.20701,0.10449 -1.66165,-0.12234 -2.4861,-0.6817 -1.37658,-0.93394 -1.34632,-1.1736 -1.8516,-1.09 -0.30263,0.0501 -1.18014,0.0909 -2.42165,0.1621 -1.6604,0.0953 -2.85419,0.0765 -4.51459,-0.0709 -1.24151,-0.11022 -2.56807,-0.27282 -2.9479,-0.36133 -0.66388,-0.1547 -0.71165,0.0879 -1.23464,0.51903 -0.29923,0.24665 -1.49674,1.34142 -1.58995,1.34142 -0.0932,0 0.86371,-1.30709 0.81277,-1.51006 -0.0148,-0.0588 -0.70338,-0.80528 -1.9942,-1.18884 -0.54066,-0.16066 -1.17962,-0.32883 -1.41992,-0.37372 -0.24029,-0.0449 -0.7318,-0.11818 -1.09224,-0.16287 -0.36043,-0.0447 -1.11408,-0.14488 -1.67476,-0.22265 -0.56069,-0.0778 -3.84835,-0.15793 -7.30593,-0.17815 -3.45758,-0.0202 -6.331275,-0.0815 -6.385985,-0.13629 -0.329233,-0.32917 4.242545,-0.14432 6.363495,-0.22519 2.2194,-0.0846 4.44427,-0.0861 6.65749,-0.2721 0.51565,-0.0433 1.04052,-0.0608 1.53993,-0.19633 0.32742,-0.0889 0.74897,-0.23692 0.93619,-0.3993 0.18722,-0.16238 -1.04954,-1.32838 -0.57094,-1.05929 0.65082,0.3659 1.47941,1.14323 2.11851,1.55999 0.69328,0.45209 1.39459,0.8247 2.22156,1.10904 0.6362,0.21103 1.25954,0.38368 1.38519,0.38368 0.12566,0 0.33167,-0.1032 0.4578,-0.22933 0.12613,-0.12614 0.90084,-0.4577 1.72158,-0.7368 0.82073,-0.27911 2.01651,-0.57538 2.65729,-0.65838 0.64078,-0.083 1.61662,-0.20824 2.42147,-0.13286 1.24205,0.11633 2.28335,0.47582 3.63376,0.89537 0.42544,0.13218 0.79265,-0.32876 0.94845,-0.75561 0.715,-1.95866 0.29839,-2.62321 0.33827,-2.89168 0.0182,-0.12192 0.55047,0.75009 0.24638,2.48227 -0.13116,0.74712 -0.23489,1.60566 -0.0197,2.3636 0.18817,0.66277 0.56678,1.27165 1.10071,1.74942 0.53394,0.47777 1.94926,0.96746 1.94926,0.96746 z m -10.10889,-2.35407 c 0.84102,0.0242 2.40771,-0.0274 3.48153,-0.1147 1.07382,-0.0873 2.01351,-0.19654 2.08819,-0.2427 0.0747,-0.0462 -0.19788,-0.27448 -0.6057,-0.50739 -0.52032,-0.29717 -1.09926,-0.47163 -1.94102,-0.58492 -0.65975,-0.0888 -1.88834,-0.12701 -2.73021,-0.0849 -0.99625,0.0498 -1.88659,0.19006 -2.55009,0.40177 -0.56068,0.17891 -1.19964,0.39839 -1.41991,0.48774 -0.22027,0.0894 -0.40049,0.20729 -0.40049,0.26207 0,0.0548 0.34406,0.13712 0.76457,0.18298 0.42051,0.0459 0.99394,0.0997 1.27428,0.1197 0.28034,0.02 1.19782,0.0562 2.03885,0.0804 z m 17.92905,2.35407 c -0.20701,0.10449 1.66165,-0.12234 2.4861,-0.6817 1.37658,-0.93394 1.34632,-1.1736 1.8516,-1.09 0.30263,0.0501 1.18014,0.0909 2.42165,0.1621 1.6604,0.0953 2.85419,0.0765 4.51459,-0.0709 1.24151,-0.11022 2.56807,-0.27282 2.9479,-0.36133 0.66388,-0.1547 0.71165,0.0879 1.23464,0.51903 0.29923,0.24665 1.49674,1.34142 1.58995,1.34142 0.0932,0 -0.86371,-1.30709 -0.81277,-1.51006 0.0148,-0.0588 0.70338,-0.80528 1.9942,-1.18884 0.54066,-0.16066 1.17962,-0.32883 1.41992,-0.37372 0.24029,-0.0449 0.7318,-0.11818 1.09224,-0.16287 0.36043,-0.0447 1.11408,-0.14488 1.67476,-0.22265 0.56069,-0.0778 3.84835,-0.15793 7.30593,-0.17815 3.45758,-0.0202 6.33128,-0.0815 6.38599,-0.13629 0.32923,-0.32917 -4.24255,-0.14432 -6.3635,-0.22519 -2.2194,-0.0846 -4.44427,-0.0861 -6.65749,-0.2721 -0.51565,-0.0433 -1.04052,-0.0608 -1.53993,-0.19633 -0.32742,-0.0889 -0.74897,-0.23692 -0.93619,-0.3993 -0.18722,-0.16238 1.04954,-1.32838 0.57094,-1.05929 -0.65082,0.3659 -1.47941,1.14323 -2.11851,1.55999 -0.69328,0.45209 -1.39459,0.8247 -2.22156,1.10904 -0.6362,0.21103 -1.25954,0.38368 -1.38519,0.38368 -0.12566,0 -0.33167,-0.1032 -0.4578,-0.22933 -0.12613,-0.12614 -0.90084,-0.4577 -1.72158,-0.7368 -0.82073,-0.27911 -2.01651,-0.57538 -2.65729,-0.65838 -0.64078,-0.083 -1.61662,-0.20824 -2.42147,-0.13286 -1.24205,0.11633 -2.28335,0.47582 -3.63376,0.89537 -0.42544,0.13218 -0.79265,-0.32876 -0.94845,-0.75561 -0.715,-1.95866 -0.29839,-2.62321 -0.33827,-2.89168 -0.0182,-0.12192 -0.55047,0.75009 -0.24638,2.48227 0.13116,0.74712 0.23489,1.60566 0.0197,2.3636 -0.18817,0.66277 -0.56678,1.27165 -1.10071,1.74942 -0.53394,0.47777 -1.94926,0.96746 -1.94926,0.96746 z m 10.10889,-2.35407 c -0.84102,0.0242 -2.40771,-0.0274 -3.48153,-0.1147 -1.07382,-0.0873 -2.01351,-0.19654 -2.08819,-0.2427 -0.0747,-0.0462 0.19788,-0.27448 0.6057,-0.50739 0.52032,-0.29717 1.09926,-0.47163 1.94102,-0.58492 0.65975,-0.0888 1.88834,-0.12701 2.73021,-0.0849 0.99625,0.0498 1.88659,0.19006 2.55009,0.40177 0.56068,0.17891 1.19964,0.39839 1.41991,0.48774 0.22027,0.0894 0.40049,0.20729 0.40049,0.26207 0,0.0548 -0.34406,0.13712 -0.76457,0.18298 -0.42051,0.0459 -0.99394,0.0997 -1.27428,0.1197 -0.28034,0.02 -1.19782,0.0562 -2.03885,0.0804 z"
         id="path208"
         sodipodi:nodetypes="sssssssscssssscaaassssssssassssassssssscscsccss"
         transform="translate(1.4552083,83.160361)"
         inkscape:original-d="m 134.79306,118.91948 c 0.20701,0.10449 -1.66165,-0.12234 -2.4861,-0.6817 -1.37658,-0.93394 -1.34632,-1.1736 -1.8516,-1.09 -0.30263,0.0501 -1.18014,0.0909 -2.42165,0.1621 -1.6604,0.0953 -2.85419,0.0765 -4.51459,-0.0709 -1.24151,-0.11022 -2.56807,-0.27282 -2.9479,-0.36133 -0.66388,-0.1547 -0.71165,0.0879 -1.23464,0.51903 -0.29923,0.24665 -1.49674,1.34142 -1.58995,1.34142 -0.0932,0 0.86371,-1.30709 0.81277,-1.51006 -0.0148,-0.0588 -0.70338,-0.80528 -1.9942,-1.18884 -0.54066,-0.16066 -1.17962,-0.32883 -1.41992,-0.37372 -0.24029,-0.0449 -0.7318,-0.11818 -1.09224,-0.16287 -0.36043,-0.0447 -1.11408,-0.14488 -1.67476,-0.22265 -0.56069,-0.0778 -3.84835,-0.15793 -7.30593,-0.17815 -3.45758,-0.0202 -6.331275,-0.0815 -6.385985,-0.13629 -0.329233,-0.32917 4.242545,-0.14432 6.363495,-0.22519 2.2194,-0.0846 4.44427,-0.0861 6.65749,-0.2721 0.51565,-0.0433 1.04052,-0.0608 1.53993,-0.19633 0.32742,-0.0889 0.74897,-0.23692 0.93619,-0.3993 0.18722,-0.16238 -1.04954,-1.32838 -0.57094,-1.05929 0.65082,0.3659 1.47941,1.14323 2.11851,1.55999 0.69328,0.45209 1.39459,0.8247 2.22156,1.10904 0.6362,0.21103 1.25954,0.38368 1.38519,0.38368 0.12566,0 0.33167,-0.1032 0.4578,-0.22933 0.12613,-0.12614 0.90084,-0.4577 1.72158,-0.7368 0.82073,-0.27911 2.01651,-0.57538 2.65729,-0.65838 0.64078,-0.083 1.61662,-0.20824 2.42147,-0.13286 1.24205,0.11633 2.28335,0.47582 3.63376,0.89537 0.42544,0.13218 0.79265,-0.32876 0.94845,-0.75561 0.715,-1.95866 0.29839,-2.62321 0.33827,-2.89168 0.0182,-0.12192 0.55047,0.75009 0.24638,2.48227 -0.13116,0.74712 -0.23489,1.60566 -0.0197,2.3636 0.18817,0.66277 0.56678,1.27165 1.10071,1.74942 0.53394,0.47777 1.94926,0.96746 1.94926,0.96746 z m -10.10889,-2.35407 c 0.84102,0.0242 2.40771,-0.0274 3.48153,-0.1147 1.07382,-0.0873 2.01351,-0.19654 2.08819,-0.2427 0.0747,-0.0462 -0.19788,-0.27448 -0.6057,-0.50739 -0.52032,-0.29717 -1.09926,-0.47163 -1.94102,-0.58492 -0.65975,-0.0888 -1.88834,-0.12701 -2.73021,-0.0849 -0.99625,0.0498 -1.88659,0.19006 -2.55009,0.40177 -0.56068,0.17891 -1.19964,0.39839 -1.41991,0.48774 -0.22027,0.0894 -0.40049,0.20729 -0.40049,0.26207 0,0.0548 0.34406,0.13712 0.76457,0.18298 0.42051,0.0459 0.99394,0.0997 1.27428,0.1197 0.28034,0.02 1.19782,0.0562 2.03885,0.0804 z"
         inkscape:path-effect="#path-effect212" /><path
         id="path214"
         style="fill:#4b4b4b;fill-opacity:1;stroke:none;stroke-width:0.3;stroke-opacity:1"
         d="m 137.18336,203.97644 c -4.86573,0.39591 -11.16177,3.73864 -11.84941,9.93194 -0.75977,6.84302 5.78218,7.76583 6.74429,6.7439 -3.28601,0.4829 -3.68251,-4.6876 0.0388,-3.34018 -0.0901,-0.42675 -0.17322,-0.87238 -0.0915,-1.18817 0.20613,-0.79621 2.81027,-2.87835 3.77135,-3.28818 -0.67887,0.41351 -2.74635,2.18385 -3.42563,3.17009 -0.1931,0.28036 -0.089,1.12027 0.29145,1.75448 0.81809,1.0592 2.52623,2.06548 4.52066,2.10867 1.33189,-0.0288 2.53556,-0.48711 3.43183,-1.10393 0.0272,-0.0187 0.0529,-0.0383 0.0796,-0.0573 l 0.12609,-0.0905 c 0.001,-8e-4 0.002,-0.002 0.003,-0.002 0.24346,-0.18426 0.46004,-0.38016 0.64596,-0.58061 0.53004,-0.68145 0.74599,-1.67379 0.52426,-1.99572 -0.67928,-0.98624 -2.79405,-2.78927 -3.47292,-3.20278 0.96108,0.40983 3.56573,2.49197 3.77186,3.28818 0.0829,0.32028 -0.003,0.77374 -0.094,1.20599 3.77407,-1.41122 3.38833,3.80738 0.0879,3.32236 0.96211,1.02193 7.50406,0.0991 6.74429,-6.7439 -0.68763,-6.1933 -6.98213,-9.53603 -11.84785,-9.93194 z m -3.78811,12.23224 c 0.57241,0.10275 1.94972,0.40328 2.36959,0.97488 0.27153,0.36968 0.37436,1.02718 0.0341,1.34368 -0.32611,0.30334 -0.99189,0.19606 -1.38183,-0.0327 -0.69205,-0.50465 -0.96955,-1.31365 -1.20147,-2.08223 -0.0408,-0.13525 0.0402,-0.22864 0.17961,-0.20363 z m 7.75427,0.20427 c -0.16483,0.55036 -0.54042,1.69368 -1.20147,2.08155 -0.38994,0.2288 -1.05572,0.33608 -1.38183,0.0327 -0.34025,-0.3165 -0.23742,-0.974 0.0341,-1.34368 0.42002,-0.57181 1.7982,-0.87233 2.37023,-0.97496 0.139,-0.0249 0.2196,0.0687 0.17897,0.20439 z"
         transform="matrix(0.56561378,0,0,0.60712434,62.565982,67.370704)"
         sodipodi:nodetypes="csccccsccsccccscsccscccssccsssss"
         inkscape:path-effect="#path-effect223"
         inkscape:original-d="m 137.18336,203.97644 c -4.86573,0.39591 -11.16177,3.73864 -11.84941,9.93194 -0.75977,6.84302 5.78218,7.76583 6.74429,6.7439 -3.28601,0.4829 -3.68251,-4.6876 0.0388,-3.34018 -0.0901,-0.42675 -0.17322,-0.87238 -0.0915,-1.18817 0.20613,-0.79621 2.81027,-2.87835 3.77135,-3.28818 -0.67887,0.41351 -2.74635,2.18385 -3.42563,3.17009 -0.1931,0.28036 -0.089,1.12027 0.29145,1.75448 0.81809,1.0592 2.52623,2.06548 4.52066,2.10867 1.33189,-0.0288 2.53556,-0.48711 3.43183,-1.10393 0.0272,-0.0187 0.0529,-0.0383 0.0796,-0.0573 l 0.12609,-0.0905 c 0.001,-8e-4 0.002,-0.002 0.003,-0.002 0.24346,-0.18426 0.46004,-0.38016 0.64596,-0.58061 0.53004,-0.68145 0.74599,-1.67379 0.52426,-1.99572 -0.67928,-0.98624 -2.79405,-2.78927 -3.47292,-3.20278 0.96108,0.40983 3.56573,2.49197 3.77186,3.28818 0.0829,0.32028 -0.003,0.77374 -0.094,1.20599 3.77407,-1.41122 3.38833,3.80738 0.0879,3.32236 0.96211,1.02193 7.50406,0.0991 6.74429,-6.7439 -0.68763,-6.1933 -6.98213,-9.53603 -11.84785,-9.93194 z m -4.0411,12.19082 c 0,0 2.08783,0.2883 2.62258,1.0163 0.27153,0.36968 0.37436,1.02718 0.0341,1.34368 -0.32611,0.30334 -0.99189,0.19606 -1.38183,-0.0327 -0.76614,-0.55868 -1.02422,-1.49037 -1.27485,-2.32728 z m 8.08064,0 c -0.10149,0.31701 -0.48376,1.86307 -1.27485,2.32724 -0.38994,0.2288 -1.05572,0.33608 -1.38183,0.0327 -0.34025,-0.3165 -0.23742,-0.974 0.0341,-1.34368 0.53475,-0.728 2.62258,-1.01626 2.62258,-1.01626 z" /></g><g
       id="g26"
       inkscape:export-filename="midbarphantom.png"
       inkscape:export-xdpi="400"
       inkscape:export-ydpi="400"><g
         id="g22"
         style="opacity:0.5;filter:url(#filter24)"><path
           id="path21"
           style="fill:#4b4b4b;fill-opacity:1;stroke:none;stroke-width:0.25;stroke-linecap:square;stroke-dasharray:none;stroke-opacity:1"
           d="m 141.82752,205.32959 c 0.36205,1.47231 0.68481,3.64772 -0.21239,3.72432 -0.42119,0.036 -0.61422,-1.23742 -0.62322,-2.10789 -0.7686,0.88428 -0.78889,1.66437 -0.83199,2.24793 -0.0558,0.75683 -0.82137,-0.98752 -0.49391,-2.02689 -0.25029,0.23248 -0.37043,0.56433 -0.66944,1.95464 -0.34727,1.61469 0.12284,2.55443 -0.32235,2.74702 l -5.1e-4,5.2e-4 c -0.0645,0.0163 -0.52111,-0.53254 -0.7767,-1.68052 -0.25754,-1.15703 -0.1462,-2.02601 0.24495,-4.71599 -1.67315,3.55178 -1.0484,5.20496 -0.65216,7.41505 0.30122,1.68009 -1.76351,-1.71322 -1.3286,-5.67614 -0.0937,-0.16266 -1.05044,3.40611 -0.31109,5.78414 0.37758,1.21447 1.14049,2.98395 1.66653,3.72622 -0.0923,-0.24669 -0.4691,-1.2831 -0.49503,-1.48036 0.49331,0.0639 0.78534,0.13942 0.80357,-0.22324 0.0412,-0.81922 0.0311,-0.8225 0.24753,-1.33945 0.17234,0.45966 0.74221,1.18768 0.9555,1.22473 0.37978,0.066 0.98889,-1.39563 1.01027,-1.81591 0.16806,-0.0104 0.49983,1.54793 1.01338,2.04587 0.24601,0.23854 0.63282,-0.24735 0.98908,-0.27802 -0.11779,0.14794 -0.25889,0.5305 -0.23926,0.92139 0.006,0.12195 -0.0583,0.24171 -0.16743,0.27699 -0.2839,0.0918 -0.51807,0.23929 -0.67877,0.46049 -0.2079,0.28617 -0.32846,0.66616 -0.29515,1.01927 0.34219,-0.0175 0.73545,-0.0684 1.00082,-0.29288 0.21082,-0.17835 0.26082,-0.49917 0.36119,-0.74553 0.0515,-0.1265 0.14055,-0.25405 0.31729,-0.31326 0.14926,-0.05 0.37241,-0.1299 0.60108,-0.35093 0.0537,0.18909 -0.31597,0.7284 -0.33457,0.75712 0.29968,-0.34716 0.85036,-1.07002 1.14485,-1.62092 1.10765,-2.07209 1.51702,-4.5496 0.54976,-6.9826 0,0 0.15742,1.71211 -0.20619,2.48357 -0.091,0.19308 -0.4234,-1.79442 -0.4501,-1.15445 -0.0357,0.85467 -0.0391,1.56961 -0.31316,2.2133 -0.51303,1.20509 -0.91835,1.96298 -0.81132,1.10226 0.16978,-1.36539 0.21747,-0.59469 0.60565,-2.48667 0.36897,-1.79839 -0.64058,-4.02852 -1.29811,-4.81314 z m -3.70882,10.49496 c -0.0602,0.49898 0.0497,0.89989 0.32453,1.2175 0.27503,0.31786 0.72835,0.51796 1.1591,0.49653 0.0589,-0.23402 -0.12055,-0.91823 -0.41393,-1.24075 -0.26237,-0.28842 -1.0697,-0.47328 -1.0697,-0.47328 z"
           sodipodi:nodetypes="cscscsccccscsccscscscssacassccscsssssccsacas" /><path
           style="fill:#4b4b4b;fill-opacity:1;stroke:none"
           d="m 136.54251,118.9554 c -0.34452,0.0409 -1.8004,-0.20588 -2.68453,-0.66517 -1.57501,-0.81818 -2.89734,-1.22605 -3.40262,-1.14245 -0.30263,0.0501 -1.18014,0.0909 -2.42165,0.1621 -1.6604,0.0953 -2.85419,0.0765 -4.51459,-0.0709 -1.24151,-0.11022 -2.56807,-0.27282 -2.9479,-0.36133 -0.66388,-0.1547 -0.71165,0.0879 -1.23464,0.51903 -0.29923,0.24665 -1.49674,1.34142 -1.58995,1.34142 -0.0932,0 0.86371,-1.30709 0.81277,-1.51006 -0.0148,-0.0588 -0.70338,-0.80528 -1.9942,-1.18884 -0.54066,-0.16066 -1.17962,-0.32883 -1.41992,-0.37372 -0.24029,-0.0449 -0.7318,-0.11818 -1.09224,-0.16287 -0.36043,-0.0447 -1.11408,-0.14488 -1.67476,-0.22265 -0.56069,-0.0778 -3.84835,-0.15793 -7.30593,-0.17815 -3.45758,-0.0202 -6.331275,-0.0815 -6.385985,-0.13629 -0.329233,-0.32917 4.242545,-0.14432 6.363495,-0.22519 2.2194,-0.0846 4.44427,-0.0861 6.65749,-0.2721 0.51565,-0.0433 1.04052,-0.0608 1.53993,-0.19633 0.32742,-0.0889 0.74897,-0.23692 0.93619,-0.3993 0.18722,-0.16238 -1.04954,-1.32838 -0.57094,-1.05929 0.65082,0.3659 1.47941,1.14323 2.11851,1.55999 0.69328,0.45209 1.39459,0.8247 2.22156,1.10904 0.6362,0.21103 1.25954,0.38368 1.38519,0.38368 0.12566,0 0.33167,-0.1032 0.4578,-0.22933 0.12613,-0.12614 0.90084,-0.4577 1.72158,-0.7368 0.82073,-0.27911 2.01651,-0.57538 2.65729,-0.65838 0.64078,-0.083 1.61662,-0.20824 2.42147,-0.13286 1.24205,0.11633 2.28335,0.47582 3.63376,0.89537 0.42544,0.13218 1.48956,-0.1386 1.86876,-0.38896 2.10433,-1.38933 1.01044,-3.62413 1.13075,-3.83184 0.0618,-0.10667 1.24912,2.28866 0.11973,3.63673 -0.48715,0.58144 -0.9996,0.87624 -0.97759,1.46209 0.0339,0.90248 0.95774,1.67371 1.67069,2.13294 0.71294,0.45924 2.50048,0.94042 2.50048,0.94042 z m -11.85834,-2.38999 c 0.84102,0.0242 2.40771,-0.0274 3.48153,-0.1147 1.07382,-0.0873 2.01351,-0.19654 2.08819,-0.2427 0.0747,-0.0462 -0.19788,-0.27448 -0.6057,-0.50739 -0.52032,-0.29717 -1.09926,-0.47163 -1.94102,-0.58492 -0.65975,-0.0888 -1.88834,-0.12701 -2.73021,-0.0849 -0.99625,0.0498 -1.88659,0.19006 -2.55009,0.40177 -0.56068,0.17891 -1.19964,0.39839 -1.41991,0.48774 -0.22027,0.0894 -0.40049,0.20729 -0.40049,0.26207 0,0.0548 0.34406,0.13712 0.76457,0.18298 0.42051,0.0459 0.99394,0.0997 1.27428,0.1197 0.28034,0.02 1.19782,0.0562 2.03885,0.0804 z m 16.1796,2.38999 c 0.34452,0.0409 1.8004,-0.20588 2.68453,-0.66517 1.57501,-0.81818 2.89734,-1.22605 3.40262,-1.14245 0.30263,0.0501 1.18014,0.0909 2.42165,0.1621 1.6604,0.0953 2.85419,0.0765 4.51459,-0.0709 1.24151,-0.11022 2.56807,-0.27282 2.9479,-0.36133 0.66388,-0.1547 0.71165,0.0879 1.23464,0.51903 0.29923,0.24665 1.49674,1.34142 1.58995,1.34142 0.0932,0 -0.86371,-1.30709 -0.81277,-1.51006 0.0148,-0.0588 0.70338,-0.80528 1.9942,-1.18884 0.54066,-0.16066 1.17962,-0.32883 1.41992,-0.37372 0.24029,-0.0449 0.7318,-0.11818 1.09224,-0.16287 0.36043,-0.0447 1.11408,-0.14488 1.67476,-0.22265 0.56069,-0.0778 3.84835,-0.15793 7.30593,-0.17815 3.45758,-0.0202 6.33128,-0.0815 6.38599,-0.13629 0.32923,-0.32917 -4.24255,-0.14432 -6.3635,-0.22519 -2.2194,-0.0846 -4.44427,-0.0861 -6.65749,-0.2721 -0.51565,-0.0433 -1.04052,-0.0608 -1.53993,-0.19633 -0.32742,-0.0889 -0.74897,-0.23692 -0.93619,-0.3993 -0.18722,-0.16238 1.04954,-1.32838 0.57094,-1.05929 -0.65082,0.3659 -1.47941,1.14323 -2.11851,1.55999 -0.69328,0.45209 -1.39459,0.8247 -2.22156,1.10904 -0.6362,0.21103 -1.25954,0.38368 -1.38519,0.38368 -0.12566,0 -0.33167,-0.1032 -0.4578,-0.22933 -0.12613,-0.12614 -0.90084,-0.4577 -1.72158,-0.7368 -0.82073,-0.27911 -2.01651,-0.57538 -2.65729,-0.65838 -0.64078,-0.083 -1.61662,-0.20824 -2.42147,-0.13286 -1.24205,0.11633 -2.28335,0.47582 -3.63376,0.89537 -0.42544,0.13218 -1.48956,-0.1386 -1.86876,-0.38896 -2.10433,-1.38933 -1.01044,-3.62413 -1.13075,-3.83184 -0.0618,-0.10667 -1.24912,2.28866 -0.11973,3.63673 0.48715,0.58144 0.9996,0.87624 0.97759,1.46209 -0.0339,0.90248 -0.95774,1.67371 -1.67069,2.13294 -0.71294,0.45924 -2.50048,0.94042 -2.50048,0.94042 z m 11.85834,-2.38999 c -0.84102,0.0242 -2.40771,-0.0274 -3.48153,-0.1147 -1.07382,-0.0873 -2.01351,-0.19654 -2.08819,-0.2427 -0.0747,-0.0462 0.19788,-0.27448 0.6057,-0.50739 0.52032,-0.29717 1.09926,-0.47163 1.94102,-0.58492 0.65975,-0.0888 1.88834,-0.12701 2.73021,-0.0849 0.99625,0.0498 1.88659,0.19006 2.55009,0.40177 0.56068,0.17891 1.19964,0.39839 1.41991,0.48774 0.22027,0.0894 0.40049,0.20729 0.40049,0.26207 0,0.0548 -0.34406,0.13712 -0.76457,0.18298 -0.42051,0.0459 -0.99394,0.0997 -1.27428,0.1197 -0.28034,0.02 -1.19782,0.0562 -2.03885,0.0804 z"
           id="path22"
           sodipodi:nodetypes="sssssssscssssscaaassssssssassssazsssssscscsccss"
           transform="translate(1.4552083,99.167652)"
           inkscape:original-d="m 136.54251,118.9554 c -0.34452,0.0409 -1.8004,-0.20588 -2.68453,-0.66517 -1.57501,-0.81818 -2.89734,-1.22605 -3.40262,-1.14245 -0.30263,0.0501 -1.18014,0.0909 -2.42165,0.1621 -1.6604,0.0953 -2.85419,0.0765 -4.51459,-0.0709 -1.24151,-0.11022 -2.56807,-0.27282 -2.9479,-0.36133 -0.66388,-0.1547 -0.71165,0.0879 -1.23464,0.51903 -0.29923,0.24665 -1.49674,1.34142 -1.58995,1.34142 -0.0932,0 0.86371,-1.30709 0.81277,-1.51006 -0.0148,-0.0588 -0.70338,-0.80528 -1.9942,-1.18884 -0.54066,-0.16066 -1.17962,-0.32883 -1.41992,-0.37372 -0.24029,-0.0449 -0.7318,-0.11818 -1.09224,-0.16287 -0.36043,-0.0447 -1.11408,-0.14488 -1.67476,-0.22265 -0.56069,-0.0778 -3.84835,-0.15793 -7.30593,-0.17815 -3.45758,-0.0202 -6.331275,-0.0815 -6.385985,-0.13629 -0.329233,-0.32917 4.242545,-0.14432 6.363495,-0.22519 2.2194,-0.0846 4.44427,-0.0861 6.65749,-0.2721 0.51565,-0.0433 1.04052,-0.0608 1.53993,-0.19633 0.32742,-0.0889 0.74897,-0.23692 0.93619,-0.3993 0.18722,-0.16238 -1.04954,-1.32838 -0.57094,-1.05929 0.65082,0.3659 1.47941,1.14323 2.11851,1.55999 0.69328,0.45209 1.39459,0.8247 2.22156,1.10904 0.6362,0.21103 1.25954,0.38368 1.38519,0.38368 0.12566,0 0.33167,-0.1032 0.4578,-0.22933 0.12613,-0.12614 0.90084,-0.4577 1.72158,-0.7368 0.82073,-0.27911 2.01651,-0.57538 2.65729,-0.65838 0.64078,-0.083 1.61662,-0.20824 2.42147,-0.13286 1.24205,0.11633 2.28335,0.47582 3.63376,0.89537 0.42544,0.13218 1.48956,-0.1386 1.86876,-0.38896 2.10433,-1.38933 1.01044,-3.62413 1.13075,-3.83184 0.0618,-0.10667 1.24912,2.28866 0.11973,3.63673 -0.48715,0.58144 -0.9996,0.87624 -0.97759,1.46209 0.0339,0.90248 0.95774,1.67371 1.67069,2.13294 0.71294,0.45924 2.50048,0.94042 2.50048,0.94042 z m -11.85834,-2.38999 c 0.84102,0.0242 2.40771,-0.0274 3.48153,-0.1147 1.07382,-0.0873 2.01351,-0.19654 2.08819,-0.2427 0.0747,-0.0462 -0.19788,-0.27448 -0.6057,-0.50739 -0.52032,-0.29717 -1.09926,-0.47163 -1.94102,-0.58492 -0.65975,-0.0888 -1.88834,-0.12701 -2.73021,-0.0849 -0.99625,0.0498 -1.88659,0.19006 -2.55009,0.40177 -0.56068,0.17891 -1.19964,0.39839 -1.41991,0.48774 -0.22027,0.0894 -0.40049,0.20729 -0.40049,0.26207 0,0.0548 0.34406,0.13712 0.76457,0.18298 0.42051,0.0459 0.99394,0.0997 1.27428,0.1197 0.28034,0.02 1.19782,0.0562 2.03885,0.0804 z"
           inkscape:path-effect="#path-effect23" /></g><g
         id="g25"><g
           id="g21"><path
             id="path16"
             style="fill:#4b4b4b;fill-opacity:1;stroke:none;stroke-width:0.25;stroke-linecap:square;stroke-dasharray:none;stroke-opacity:1"
             d="m 141.82752,205.32959 c 0.36205,1.47231 0.68481,3.64772 -0.21239,3.72432 -0.42119,0.036 -0.61422,-1.23742 -0.62322,-2.10789 -0.7686,0.88428 -0.78889,1.66437 -0.83199,2.24793 -0.0558,0.75683 -0.82137,-0.98752 -0.49391,-2.02689 -0.25029,0.23248 -0.37043,0.56433 -0.66944,1.95464 -0.34727,1.61469 0.12284,2.55443 -0.32235,2.74702 l -5.1e-4,5.2e-4 c -0.0645,0.0163 -0.52111,-0.53254 -0.7767,-1.68052 -0.25754,-1.15703 -0.1462,-2.02601 0.24495,-4.71599 -1.67315,3.55178 -1.0484,5.20496 -0.65216,7.41505 0.30122,1.68009 -1.76351,-1.71322 -1.3286,-5.67614 -0.0937,-0.16266 -1.05044,3.40611 -0.31109,5.78414 0.37758,1.21447 1.14049,2.98395 1.66653,3.72622 -0.0923,-0.24669 -0.4691,-1.2831 -0.49503,-1.48036 0.49331,0.0639 0.78534,0.13942 0.80357,-0.22324 0.0412,-0.81922 0.0311,-0.8225 0.24753,-1.33945 0.17234,0.45966 0.74221,1.18768 0.9555,1.22473 0.37978,0.066 0.98889,-1.39563 1.01027,-1.81591 0.16806,-0.0104 0.49983,1.54793 1.01338,2.04587 0.24601,0.23854 0.63282,-0.24735 0.98908,-0.27802 -0.11779,0.14794 -0.25889,0.5305 -0.23926,0.92139 0.006,0.12195 -0.0583,0.24171 -0.16743,0.27699 -0.2839,0.0918 -0.51807,0.23929 -0.67877,0.46049 -0.2079,0.28617 -0.32846,0.66616 -0.29515,1.01927 0.34219,-0.0175 0.73545,-0.0684 1.00082,-0.29288 0.21082,-0.17835 0.26082,-0.49917 0.36119,-0.74553 0.0515,-0.1265 0.14055,-0.25405 0.31729,-0.31326 0.14926,-0.05 0.37241,-0.1299 0.60108,-0.35093 0.0537,0.18909 -0.31597,0.7284 -0.33457,0.75712 0.29968,-0.34716 0.85036,-1.07002 1.14485,-1.62092 1.10765,-2.07209 1.51702,-4.5496 0.54976,-6.9826 0,0 0.15742,1.71211 -0.20619,2.48357 -0.091,0.19308 -0.4234,-1.79442 -0.4501,-1.15445 -0.0357,0.85467 -0.0391,1.56961 -0.31316,2.2133 -0.51303,1.20509 -0.91835,1.96298 -0.81132,1.10226 0.16978,-1.36539 0.21747,-0.59469 0.60565,-2.48667 0.36897,-1.79839 -0.64058,-4.02852 -1.29811,-4.81314 z m -3.70882,10.49496 c -0.0602,0.49898 0.0497,0.89989 0.32453,1.2175 0.27503,0.31786 0.72835,0.51796 1.1591,0.49653 0.0589,-0.23402 -0.12055,-0.91823 -0.41393,-1.24075 -0.26237,-0.28842 -1.0697,-0.47328 -1.0697,-0.47328 z"
             sodipodi:nodetypes="cscscsccccscsccscscscssacassccscsssssccsacas" /><path
             style="fill:#4b4b4b;fill-opacity:1;stroke:none"
             d="m 136.54251,118.9554 c -0.34452,0.0409 -1.8004,-0.20588 -2.68453,-0.66517 -1.57501,-0.81818 -2.89734,-1.22605 -3.40262,-1.14245 -0.30263,0.0501 -1.18014,0.0909 -2.42165,0.1621 -1.6604,0.0953 -2.85419,0.0765 -4.51459,-0.0709 -1.24151,-0.11022 -2.56807,-0.27282 -2.9479,-0.36133 -0.66388,-0.1547 -0.71165,0.0879 -1.23464,0.51903 -0.29923,0.24665 -1.49674,1.34142 -1.58995,1.34142 -0.0932,0 0.86371,-1.30709 0.81277,-1.51006 -0.0148,-0.0588 -0.70338,-0.80528 -1.9942,-1.18884 -0.54066,-0.16066 -1.17962,-0.32883 -1.41992,-0.37372 -0.24029,-0.0449 -0.7318,-0.11818 -1.09224,-0.16287 -0.36043,-0.0447 -1.11408,-0.14488 -1.67476,-0.22265 -0.56069,-0.0778 -3.84835,-0.15793 -7.30593,-0.17815 -3.45758,-0.0202 -6.331275,-0.0815 -6.385985,-0.13629 -0.329233,-0.32917 4.242545,-0.14432 6.363495,-0.22519 2.2194,-0.0846 4.44427,-0.0861 6.65749,-0.2721 0.51565,-0.0433 1.04052,-0.0608 1.53993,-0.19633 0.32742,-0.0889 0.74897,-0.23692 0.93619,-0.3993 0.18722,-0.16238 -1.04954,-1.32838 -0.57094,-1.05929 0.65082,0.3659 1.47941,1.14323 2.11851,1.55999 0.69328,0.45209 1.39459,0.8247 2.22156,1.10904 0.6362,0.21103 1.25954,0.38368 1.38519,0.38368 0.12566,0 0.33167,-0.1032 0.4578,-0.22933 0.12613,-0.12614 0.90084,-0.4577 1.72158,-0.7368 0.82073,-0.27911 2.01651,-0.57538 2.65729,-0.65838 0.64078,-0.083 1.61662,-0.20824 2.42147,-0.13286 1.24205,0.11633 2.28335,0.47582 3.63376,0.89537 0.42544,0.13218 1.48956,-0.1386 1.86876,-0.38896 2.10433,-1.38933 1.01044,-3.62413 1.13075,-3.83184 0.0618,-0.10667 1.24912,2.28866 0.11973,3.63673 -0.48715,0.58144 -0.9996,0.87624 -0.97759,1.46209 0.0339,0.90248 0.95774,1.67371 1.67069,2.13294 0.71294,0.45924 2.50048,0.94042 2.50048,0.94042 z m -11.85834,-2.38999 c 0.84102,0.0242 2.40771,-0.0274 3.48153,-0.1147 1.07382,-0.0873 2.01351,-0.19654 2.08819,-0.2427 0.0747,-0.0462 -0.19788,-0.27448 -0.6057,-0.50739 -0.52032,-0.29717 -1.09926,-0.47163 -1.94102,-0.58492 -0.65975,-0.0888 -1.88834,-0.12701 -2.73021,-0.0849 -0.99625,0.0498 -1.88659,0.19006 -2.55009,0.40177 -0.56068,0.17891 -1.19964,0.39839 -1.41991,0.48774 -0.22027,0.0894 -0.40049,0.20729 -0.40049,0.26207 0,0.0548 0.34406,0.13712 0.76457,0.18298 0.42051,0.0459 0.99394,0.0997 1.27428,0.1197 0.28034,0.02 1.19782,0.0562 2.03885,0.0804 z m 16.1796,2.38999 c 0.34452,0.0409 1.8004,-0.20588 2.68453,-0.66517 1.57501,-0.81818 2.89734,-1.22605 3.40262,-1.14245 0.30263,0.0501 1.18014,0.0909 2.42165,0.1621 1.6604,0.0953 2.85419,0.0765 4.51459,-0.0709 1.24151,-0.11022 2.56807,-0.27282 2.9479,-0.36133 0.66388,-0.1547 0.71165,0.0879 1.23464,0.51903 0.29923,0.24665 1.49674,1.34142 1.58995,1.34142 0.0932,0 -0.86371,-1.30709 -0.81277,-1.51006 0.0148,-0.0588 0.70338,-0.80528 1.9942,-1.18884 0.54066,-0.16066 1.17962,-0.32883 1.41992,-0.37372 0.24029,-0.0449 0.7318,-0.11818 1.09224,-0.16287 0.36043,-0.0447 1.11408,-0.14488 1.67476,-0.22265 0.56069,-0.0778 3.84835,-0.15793 7.30593,-0.17815 3.45758,-0.0202 6.33128,-0.0815 6.38599,-0.13629 0.32923,-0.32917 -4.24255,-0.14432 -6.3635,-0.22519 -2.2194,-0.0846 -4.44427,-0.0861 -6.65749,-0.2721 -0.51565,-0.0433 -1.04052,-0.0608 -1.53993,-0.19633 -0.32742,-0.0889 -0.74897,-0.23692 -0.93619,-0.3993 -0.18722,-0.16238 1.04954,-1.32838 0.57094,-1.05929 -0.65082,0.3659 -1.47941,1.14323 -2.11851,1.55999 -0.69328,0.45209 -1.39459,0.8247 -2.22156,1.10904 -0.6362,0.21103 -1.25954,0.38368 -1.38519,0.38368 -0.12566,0 -0.33167,-0.1032 -0.4578,-0.22933 -0.12613,-0.12614 -0.90084,-0.4577 -1.72158,-0.7368 -0.82073,-0.27911 -2.01651,-0.57538 -2.65729,-0.65838 -0.64078,-0.083 -1.61662,-0.20824 -2.42147,-0.13286 -1.24205,0.11633 -2.28335,0.47582 -3.63376,0.89537 -0.42544,0.13218 -1.48956,-0.1386 -1.86876,-0.38896 -2.10433,-1.38933 -1.01044,-3.62413 -1.13075,-3.83184 -0.0618,-0.10667 -1.24912,2.28866 -0.11973,3.63673 0.48715,0.58144 0.9996,0.87624 0.97759,1.46209 -0.0339,0.90248 -0.95774,1.67371 -1.67069,2.13294 -0.71294,0.45924 -2.50048,0.94042 -2.50048,0.94042 z m 11.85834,-2.38999 c -0.84102,0.0242 -2.40771,-0.0274 -3.48153,-0.1147 -1.07382,-0.0873 -2.01351,-0.19654 -2.08819,-0.2427 -0.0747,-0.0462 0.19788,-0.27448 0.6057,-0.50739 0.52032,-0.29717 1.09926,-0.47163 1.94102,-0.58492 0.65975,-0.0888 1.88834,-0.12701 2.73021,-0.0849 0.99625,0.0498 1.88659,0.19006 2.55009,0.40177 0.56068,0.17891 1.19964,0.39839 1.41991,0.48774 0.22027,0.0894 0.40049,0.20729 0.40049,0.26207 0,0.0548 -0.34406,0.13712 -0.76457,0.18298 -0.42051,0.0459 -0.99394,0.0997 -1.27428,0.1197 -0.28034,0.02 -1.19782,0.0562 -2.03885,0.0804 z"
             id="path223"
             sodipodi:nodetypes="sssssssscssssscaaassssssssassssazsssssscscsccss"
             transform="translate(1.4552083,99.167652)"
             inkscape:original-d="m 136.54251,118.9554 c -0.34452,0.0409 -1.8004,-0.20588 -2.68453,-0.66517 -1.57501,-0.81818 -2.89734,-1.22605 -3.40262,-1.14245 -0.30263,0.0501 -1.18014,0.0909 -2.42165,0.1621 -1.6604,0.0953 -2.85419,0.0765 -4.51459,-0.0709 -1.24151,-0.11022 -2.56807,-0.27282 -2.9479,-0.36133 -0.66388,-0.1547 -0.71165,0.0879 -1.23464,0.51903 -0.29923,0.24665 -1.49674,1.34142 -1.58995,1.34142 -0.0932,0 0.86371,-1.30709 0.81277,-1.51006 -0.0148,-0.0588 -0.70338,-0.80528 -1.9942,-1.18884 -0.54066,-0.16066 -1.17962,-0.32883 -1.41992,-0.37372 -0.24029,-0.0449 -0.7318,-0.11818 -1.09224,-0.16287 -0.36043,-0.0447 -1.11408,-0.14488 -1.67476,-0.22265 -0.56069,-0.0778 -3.84835,-0.15793 -7.30593,-0.17815 -3.45758,-0.0202 -6.331275,-0.0815 -6.385985,-0.13629 -0.329233,-0.32917 4.242545,-0.14432 6.363495,-0.22519 2.2194,-0.0846 4.44427,-0.0861 6.65749,-0.2721 0.51565,-0.0433 1.04052,-0.0608 1.53993,-0.19633 0.32742,-0.0889 0.74897,-0.23692 0.93619,-0.3993 0.18722,-0.16238 -1.04954,-1.32838 -0.57094,-1.05929 0.65082,0.3659 1.47941,1.14323 2.11851,1.55999 0.69328,0.45209 1.39459,0.8247 2.22156,1.10904 0.6362,0.21103 1.25954,0.38368 1.38519,0.38368 0.12566,0 0.33167,-0.1032 0.4578,-0.22933 0.12613,-0.12614 0.90084,-0.4577 1.72158,-0.7368 0.82073,-0.27911 2.01651,-0.57538 2.65729,-0.65838 0.64078,-0.083 1.61662,-0.20824 2.42147,-0.13286 1.24205,0.11633 2.28335,0.47582 3.63376,0.89537 0.42544,0.13218 1.48956,-0.1386 1.86876,-0.38896 2.10433,-1.38933 1.01044,-3.62413 1.13075,-3.83184 0.0618,-0.10667 1.24912,2.28866 0.11973,3.63673 -0.48715,0.58144 -0.9996,0.87624 -0.97759,1.46209 0.0339,0.90248 0.95774,1.67371 1.67069,2.13294 0.71294,0.45924 2.50048,0.94042 2.50048,0.94042 z m -11.85834,-2.38999 c 0.84102,0.0242 2.40771,-0.0274 3.48153,-0.1147 1.07382,-0.0873 2.01351,-0.19654 2.08819,-0.2427 0.0747,-0.0462 -0.19788,-0.27448 -0.6057,-0.50739 -0.52032,-0.29717 -1.09926,-0.47163 -1.94102,-0.58492 -0.65975,-0.0888 -1.88834,-0.12701 -2.73021,-0.0849 -0.99625,0.0498 -1.88659,0.19006 -2.55009,0.40177 -0.56068,0.17891 -1.19964,0.39839 -1.41991,0.48774 -0.22027,0.0894 -0.40049,0.20729 -0.40049,0.26207 0,0.0548 0.34406,0.13712 0.76457,0.18298 0.42051,0.0459 0.99394,0.0997 1.27428,0.1197 0.28034,0.02 1.19782,0.0562 2.03885,0.0804 z"
             inkscape:path-effect="#path-effect225" /></g></g></g></g></svg>
