<?xml version="1.0" encoding="UTF-8" standalone="no"?>
<!-- Created with Inkscape (http://www.inkscape.org/) -->

<svg
   width="60.145988mm"
   height="10.048611mm"
   viewBox="0 0 60.145988 10.048611"
   version="1.1"
   id="svg1"
   xml:space="preserve"
   xmlns="http://www.w3.org/2000/svg"
   xmlns:svg="http://www.w3.org/2000/svg"><defs
     id="defs1" /><g
     id="layer1"
     transform="translate(-138.32952,-119.88963)"><g
       id="g109"
       transform="translate(21.918073,-134.0502)"
       style="fill:#f9f9f9"><path
         style="fill:#f9f9f9"
         d="m 149.30077,261.07579 c -0.0672,0 -0.12214,-0.0756 -0.12214,-0.16807 0,-0.0924 0.26214,-0.39245 0.58253,-0.66669 0.44061,-0.37715 0.58252,-0.60562 0.58252,-0.93781 0,-0.3167 -0.0812,-0.46042 -0.29126,-0.51535 -0.1602,-0.0419 -0.29126,-0.16161 -0.29126,-0.26605 0,-0.10445 0.18021,-0.22338 0.40048,-0.26431 0.22027,-0.0409 0.95753,-0.15112 1.63836,-0.24489 0.68083,-0.0938 1.95875,-0.30004 2.83983,-0.45839 0.88107,-0.15836 2.09657,-0.41182 2.70112,-0.56324 1.06863,-0.26766 1.12325,-0.26792 1.96603,-0.009 0.47677,0.14632 1.129,0.40349 1.44939,0.5715 0.32039,0.168 0.77913,0.34014 1.01942,0.38252 0.24029,0.0424 0.66583,0.14366 0.94565,0.22505 0.27981,0.0814 0.90962,0.14799 1.39959,0.14799 0.71697,0 0.99868,-0.0732 1.44338,-0.37497 l 0.55255,-0.37497 0.66924,0.36315 c 0.65864,0.3574 0.74128,0.36483 5.22023,0.46891 2.50305,0.0582 4.551,0.1562 4.551,0.21784 0,0.0616 -0.44235,0.13428 -0.98301,0.16142 -0.54066,0.0271 -3.24395,0.0699 -6.00732,0.0951 -2.76337,0.0252 -5.18814,0.0794 -5.38838,0.12056 -0.20025,0.0412 -0.52792,0.1297 -0.72816,0.19677 -0.20025,0.0671 -0.54249,0.16085 -0.76054,0.20838 -0.21805,0.0475 -0.52363,0.22292 -0.67906,0.38975 -0.19551,0.20986 -0.37694,0.27341 -0.58868,0.2062 -0.16833,-0.0534 -0.26962,-0.1561 -0.22508,-0.22817 0.0445,-0.0721 -0.0276,-0.29672 -0.16027,-0.49923 l -0.24125,-0.36819 h -3.12366 c -3.01714,0 -3.15065,0.0123 -3.91447,0.36172 -0.43494,0.19894 -1.03693,0.51701 -1.33776,0.70682 -0.30084,0.18981 -1.0982,0.51855 -1.77192,0.73052 -0.67372,0.21198 -1.27992,0.38542 -1.3471,0.38542 z m 8.50655,-2.77555 c 1.40179,0.005 2.2937,-0.0468 2.2937,-0.13373 0,-0.0783 -0.17485,-0.25684 -0.38855,-0.39687 -0.27504,-0.18021 -0.6473,-0.24823 -1.27428,-0.23285 -0.52905,0.013 -1.29624,0.16936 -1.90515,0.38832 l -1.01942,0.36658 z"
         id="path55" /><path
         style="fill:#f9f9f9"
         d="m 143.59961,261.07136 c -0.0954,-0.002 -0.27175,-0.0605 -0.39189,-0.12892 -0.12015,-0.0685 -0.44782,-0.17119 -0.72816,-0.22828 -0.28034,-0.0571 -0.90292,-0.275 -1.3835,-0.48427 -0.48059,-0.20926 -0.90802,-0.42832 -0.94985,-0.48678 -0.0418,-0.0585 -0.43504,-0.2734 -0.87379,-0.47763 -0.77623,-0.36131 -0.88153,-0.37136 -3.90548,-0.37275 -3.04561,-10e-4 -3.11321,0.005 -3.3811,0.32625 -0.15035,0.18022 -0.27554,0.44236 -0.2782,0.58253 -0.003,0.15615 -0.11765,0.25485 -0.29611,0.25485 -0.16019,0 -0.29126,-0.0639 -0.29126,-0.14189 0,-0.078 -0.18778,-0.23899 -0.41728,-0.35767 -0.2295,-0.11868 -0.57356,-0.24431 -0.76457,-0.27917 -0.19101,-0.0349 -0.60943,-0.13193 -0.92982,-0.21572 -0.33359,-0.0872 -2.76068,-0.17166 -5.67964,-0.19755 -2.80342,-0.0249 -5.50671,-0.0676 -6.00732,-0.0949 -0.50061,-0.0273 -0.9102,-0.0999 -0.9102,-0.16123 0,-0.0614 2.04795,-0.15851 4.551,-0.21588 3.14847,-0.0722 4.6632,-0.16018 4.91508,-0.2856 0.20024,-0.0997 0.49792,-0.26615 0.6615,-0.36985 0.25803,-0.16359 0.37162,-0.13821 0.8577,0.19165 0.44985,0.30528 0.73236,0.38022 1.43327,0.38022 0.48014,0 1.10996,-0.0617 1.39959,-0.13703 0.28963,-0.0754 0.8379,-0.21496 1.21836,-0.31019 0.38046,-0.0952 0.69175,-0.22526 0.69175,-0.28895 0,-0.0637 0.52458,-0.2856 1.16572,-0.49315 l 1.16573,-0.37737 1.49206,0.36216 c 0.82063,0.19918 1.78102,0.43216 2.1342,0.51772 0.35317,0.0856 1.30342,0.21854 2.11166,0.2955 0.80824,0.077 1.84635,0.21401 2.30691,0.30456 0.46056,0.0906 0.83738,0.21114 0.83738,0.26795 0,0.0568 -0.16384,0.17796 -0.36408,0.2692 -0.25271,0.11514 -0.36408,0.28192 -0.36408,0.54523 0,0.23997 0.18176,0.55585 0.49472,0.85978 0.27209,0.26424 0.5786,0.5084 0.68113,0.54257 0.10252,0.0342 0.13817,0.14019 0.0792,0.23558 -0.059,0.0954 -0.18524,0.17146 -0.28064,0.16902 z m -8.63223,-2.76718 c 1.27488,0.003 2.28492,-0.0284 2.24452,-0.0688 -0.0404,-0.0404 -0.52645,-0.22514 -1.0801,-0.41052 -0.55366,-0.18539 -1.17049,-0.32827 -1.37073,-0.31751 -0.20025,0.0108 -0.57342,0.0317 -0.82927,0.0464 -0.25597,0.0148 -0.64895,0.18855 -0.87379,0.38636 l -0.40861,0.35948 z"
         id="path54" /><path
         style="fill:#f9f9f9"
         d="m 146.12036,263.98843 c -0.0771,0 -0.17091,-0.14746 -0.20859,-0.32767 -0.0377,-0.18022 -0.10758,-0.58981 -0.15533,-0.9102 -0.0478,-0.32039 -0.19048,-1.593 -0.31717,-2.82801 -0.21242,-2.07061 -0.21188,-2.259 0.007,-2.41899 0.17376,-0.12706 0.23727,-0.40804 0.23727,-1.04981 0,-0.60128 -0.0686,-0.93321 -0.21845,-1.05761 -0.12014,-0.0997 -0.21844,-0.35971 -0.21844,-0.57779 0,-0.21807 0.11984,-0.50495 0.26632,-0.63751 0.14648,-0.13256 0.43122,-0.24102 0.63277,-0.24102 0.20155,0 0.47491,0.11985 0.60747,0.26633 0.13256,0.14647 0.24102,0.42827 0.24102,0.62621 0,0.19795 -0.0571,0.42216 -0.12693,0.49825 -0.0698,0.0761 -0.16511,0.57485 -0.21176,1.10835 -0.0694,0.79346 -0.0439,0.98571 0.13997,1.05627 0.18946,0.0727 0.20967,0.2865 0.12858,1.3601 -0.0529,0.70062 -0.19223,1.99473 -0.3096,2.8758 -0.11737,0.88108 -0.24503,1.74941 -0.28368,1.92963 -0.0387,0.18021 -0.13333,0.32767 -0.21037,0.32767 z"
         id="path53" /></g></g></svg>
