<?xml version="1.0" encoding="UTF-8" standalone="no"?>
<!-- Created with Inkscape (http://www.inkscape.org/) -->

<svg
   width="62.98764mm"
   height="13.793215mm"
   viewBox="0 0 62.98764 13.793215"
   version="1.1"
   id="svg1"
   xml:space="preserve"
   inkscape:version="1.4.3 (0d15f75042, 2025-12-25)"
   sodipodi:docname="skonguistuff.svg"
   inkscape:export-filename="..\Github\skonguistuff.png"
   inkscape:export-xdpi="400"
   inkscape:export-ydpi="400"
   xmlns:inkscape="http://www.inkscape.org/namespaces/inkscape"
   xmlns:sodipodi="http://sodipodi.sourceforge.net/DTD/sodipodi-0.dtd"
   xmlns="http://www.w3.org/2000/svg"
   xmlns:svg="http://www.w3.org/2000/svg"><sodipodi:namedview
     id="namedview1"
     pagecolor="#ffffff"
     bordercolor="#000000"
     borderopacity="0.25"
     inkscape:showpageshadow="2"
     inkscape:pageopacity="0.0"
     inkscape:pagecheckerboard="0"
     inkscape:deskcolor="#d1d1d1"
     inkscape:document-units="mm"
     inkscape:zoom="1"
     inkscape:cx="69"
     inkscape:cy="757"
     inkscape:window-width="1920"
     inkscape:window-height="1014"
     inkscape:window-x="0"
     inkscape:window-y="0"
     inkscape:window-maximized="1"
     inkscape:current-layer="layer1"
     showgrid="false"
     showguides="false"><inkscape:page
       x="0"
       y="0"
       width="62.98764"
       height="13.793215"
       id="page2"
       margin="0"
       bleed="0" /></sodipodi:namedview><defs
     id="defs1"><inkscape:path-effect
       effect="mirror_symmetry"
       start_point="146.22393,256.77224"
       end_point="146.22393,261.14156"
       center_point="146.22393,258.9569"
       id="path-effect53"
       is_visible="true"
       lpeversion="1.2"
       lpesatellites=""
       mode="free"
       discard_orig_path="false"
       fuse_paths="false"
       oposite_fuse="false"
       split_items="false"
       split_open="false"
       link_styles="false" /><inkscape:path-effect
       effect="mirror_symmetry"
       start_point="146.22393,256.77224"
       end_point="146.22393,261.14156"
       center_point="146.22393,258.9569"
       id="path-effect9"
       is_visible="true"
       lpeversion="1.2"
       lpesatellites=""
       mode="free"
       discard_orig_path="false"
       fuse_paths="false"
       oposite_fuse="false"
       split_items="false"
       split_open="false"
       link_styles="false" /><filter
       inkscape:collect="always"
       style="color-interpolation-filters:sRGB"
       id="filter196"
       x="-0.18205616"
       y="-0.21455832"
       width="1.3641123"
       height="1.4291166"><feGaussianBlur
         inkscape:collect="always"
         stdDeviation="0.90463119"
         id="feGaussianBlur196" /></filter><filter
       inkscape:collect="always"
       style="color-interpolation-filters:sRGB"
       id="filter53"
       x="-0.028198463"
       y="-0.16119311"
       width="1.0563969"
       height="1.3223862"><feGaussianBlur
         inkscape:collect="always"
         stdDeviation="0.7005553"
         id="feGaussianBlur53" /></filter></defs><g
     inkscape:label="Layer 1"
     inkscape:groupmode="layer"
     id="layer1"
     transform="translate(-20.241921,-192.43189)"><g
       id="g51"><path
         style="fill:#4b4b4b;fill-opacity:1;stroke:none;stroke-opacity:1"
         d="m 143.20772,260.94244 c -1.34676,-0.47808 -2.56206,-1.293 -3.9353,-1.67696 -1.1073,-0.3096 -2.26463,-0.48144 -3.41437,-0.48968 -1.03415,-0.007 -2.03751,0.19414 -3.07708,0.39641 -1.03957,0.20227 -1.07989,0.66031 -3.14572,0.82411 -0.0778,0.006 1.5949,-0.6185 1.3654,-0.73718 -1.07451,-0.55106 -2.79531,-0.35153 -7.67169,-0.39478 -2.80342,-0.0249 -5.50671,-0.0676 -6.00732,-0.0949 -0.50061,-0.0273 -0.9102,-0.0999 -0.9102,-0.16123 0,-0.0614 2.04795,-0.15851 4.551,-0.21588 3.14847,-0.0722 4.6632,-0.16018 4.91508,-0.2856 0.20024,-0.0997 -0.96371,-0.5117 -0.53119,-0.46339 0.30363,0.0339 1.36466,0.20812 2.05039,0.28519 0.94183,0.10585 1.89985,0.40533 2.83286,0.24319 4.88276,-0.84854 1.02547,-1.74714 1.32187,-1.72371 1.12761,0.0891 2.15639,0.13574 2.91969,0.25405 0.50576,0.0784 0.99531,0.23896 1.49206,0.36216 1.66197,0.41219 3.59785,1.15397 4.97968,1.26142 1.38184,0.10745 3.33436,-0.95693 3.37864,-0.92135 0.18709,0.15035 -0.92689,0.70523 -1.32765,0.88056 -0.40077,0.17532 -1.46783,0.71622 -1.46783,0.97953 0,0.23997 0.0846,0.42543 0.56787,0.80888 0.36892,0.2927 2.45756,1.34617 1.11381,0.86916 z m -8.21554,-2.79536 c 0.73978,-0.0326 2.26012,0.1287 2.21972,0.0883 -0.0404,-0.0404 -0.52645,-0.22514 -1.0801,-0.41052 -0.55366,-0.18539 -0.90175,-0.32249 -1.37073,-0.31751 -0.58569,0.006 -1.22562,0.0133 -1.76094,0.36661 l -0.99565,0.65714 c 0,0 1.98458,-0.33981 2.9877,-0.38402 z m 14.24796,2.79536 c 1.34676,-0.47808 2.56206,-1.293 3.9353,-1.67696 1.1073,-0.3096 2.26463,-0.48144 3.41437,-0.48968 1.03415,-0.007 2.03751,0.19414 3.07708,0.39641 1.03957,0.20227 1.07989,0.66031 3.14572,0.82411 0.0778,0.006 -1.5949,-0.6185 -1.3654,-0.73718 1.07451,-0.55106 2.79531,-0.35153 7.67169,-0.39478 2.80342,-0.0249 5.50671,-0.0676 6.00732,-0.0949 0.50061,-0.0273 0.9102,-0.0999 0.9102,-0.16123 0,-0.0614 -2.04795,-0.15851 -4.551,-0.21588 -3.14847,-0.0722 -4.6632,-0.16018 -4.91508,-0.2856 -0.20024,-0.0997 0.96371,-0.5117 0.53119,-0.46339 -0.30363,0.0339 -1.36466,0.20812 -2.05039,0.28519 -0.94183,0.10585 -1.89985,0.40533 -2.83286,0.24319 -4.88276,-0.84854 -1.02547,-1.74714 -1.32187,-1.72371 -1.12761,0.0891 -2.15639,0.13574 -2.91969,0.25405 -0.50576,0.0784 -0.99531,0.23896 -1.49206,0.36216 -1.66197,0.41219 -3.59785,1.15397 -4.97968,1.26142 -1.38184,0.10745 -3.33436,-0.95693 -3.37864,-0.92135 -0.18709,0.15035 0.92689,0.70523 1.32765,0.88056 0.40077,0.17532 1.46783,0.71622 1.46783,0.97953 0,0.23997 -0.0846,0.42543 -0.56787,0.80888 -0.36892,0.2927 -2.45756,1.34617 -1.11381,0.86916 z m 8.21554,-2.79536 c -0.73978,-0.0326 -2.26012,0.1287 -2.21972,0.0883 0.0404,-0.0404 0.52645,-0.22514 1.0801,-0.41052 0.55366,-0.18539 0.90175,-0.32249 1.37073,-0.31751 0.58569,0.006 1.22562,0.0133 1.76094,0.36661 l 0.99565,0.65714 c 0,0 -1.98458,-0.33981 -2.9877,-0.38402 z"
         id="path54"
         inkscape:original-d="m 143.20772,260.94244 c -1.34676,-0.47808 -2.56206,-1.293 -3.9353,-1.67696 -1.1073,-0.3096 -2.26463,-0.48144 -3.41437,-0.48968 -1.03415,-0.007 -2.03751,0.19414 -3.07708,0.39641 -1.03957,0.20227 -1.07989,0.66031 -3.14572,0.82411 -0.0778,0.006 1.5949,-0.6185 1.3654,-0.73718 -1.07451,-0.55106 -2.79531,-0.35153 -7.67169,-0.39478 -2.80342,-0.0249 -5.50671,-0.0676 -6.00732,-0.0949 -0.50061,-0.0273 -0.9102,-0.0999 -0.9102,-0.16123 0,-0.0614 2.04795,-0.15851 4.551,-0.21588 3.14847,-0.0722 4.6632,-0.16018 4.91508,-0.2856 0.20024,-0.0997 -0.96371,-0.5117 -0.53119,-0.46339 0.30363,0.0339 1.36466,0.20812 2.05039,0.28519 0.94183,0.10585 1.89985,0.40533 2.83286,0.24319 4.88276,-0.84854 1.02547,-1.74714 1.32187,-1.72371 1.12761,0.0891 2.15639,0.13574 2.91969,0.25405 0.50576,0.0784 0.99531,0.23896 1.49206,0.36216 1.66197,0.41219 3.59785,1.15397 4.97968,1.26142 1.38184,0.10745 3.33436,-0.95693 3.37864,-0.92135 0.18709,0.15035 -0.92689,0.70523 -1.32765,0.88056 -0.40077,0.17532 -1.46783,0.71622 -1.46783,0.97953 0,0.23997 0.0846,0.42543 0.56787,0.80888 0.36892,0.2927 2.45756,1.34617 1.11381,0.86916 z m -8.21554,-2.79536 c 0.73978,-0.0326 2.26012,0.1287 2.21972,0.0883 -0.0404,-0.0404 -0.52645,-0.22514 -1.0801,-0.41052 -0.55366,-0.18539 -0.90175,-0.32249 -1.37073,-0.31751 -0.58569,0.006 -1.22562,0.0133 -1.76094,0.36661 l -0.99565,0.65714 c 0,0 1.98458,-0.33981 2.9877,-0.38402 z"
         inkscape:path-effect="#path-effect9"
         transform="translate(-94.488187,-59.842569)"
         sodipodi:nodetypes="saacssssssssasssazscsssasassca" /><path
         id="path53"
         style="fill:#4b4b4b;fill-opacity:1;stroke:none;stroke-opacity:1"
         d="m 51.629023,194.11322 c -0.399467,0.0226 -0.787624,0.31359 -0.804602,0.77928 -0.0166,0.45519 0.122446,0.65439 0.402043,0.79685 0.08734,0.0445 0.142594,0.53777 0.144694,0.84594 0.0021,0.30816 0.03086,0.72185 -0.01757,0.86453 -3.26e-4,9.6e-4 -0.0016,0.003 -0.0021,0.004 l -0.0021,0.002 c -0.04974,0.055 -0.393375,0.42831 -0.503845,0.53131 -0.189464,0.17674 -0.107,0.0729 0.10542,2.14348 0.227994,2.22255 0.339773,3.10217 0.472839,3.73828 0.0361,0.17265 0.123868,0.67866 0.198954,0.72088 l 0.0021,0.002 h 0.0021 v 0.002 h 0.0021 0.0021 l 0.0021,-0.002 h 0.0016 c 0.07509,-0.0422 0.165439,-0.54978 0.201538,-0.72243 0.133066,-0.63611 0.244329,-1.51573 0.472323,-3.73828 0.21242,-2.07061 0.293333,-1.96622 0.103869,-2.14296 -0.11047,-0.10305 -0.450484,-0.47475 -0.500228,-0.52976 l -0.0021,-0.002 c -3.7e-4,-7e-4 -0.0026,-0.004 -0.0036,-0.005 v -5.1e-4 c -0.04843,-0.14268 -0.01965,-0.55637 -0.01757,-0.86453 0.0021,-0.30817 0.03636,-0.79852 0.09741,-0.84009 0.259366,-0.17664 0.465927,-0.34751 0.449332,-0.8027 -0.01698,-0.46569 -0.407202,-0.75667 -0.80667,-0.77928 z m -0.01033,0.4873 c 0.205168,0.008 0.373986,0.17258 0.366386,0.37776 -0.0092,0.24995 -0.231839,0.36053 -0.396358,0.34313 -0.144338,-0.0152 -0.32638,-0.13543 -0.327112,-0.34055 -5.66e-4,-0.155 0.12484,-0.38934 0.357084,-0.38034 z"
         transform="translate(0.10683675)"
         sodipodi:nodetypes="ssssscccsscccccccccssccccssscsccssc" /></g><path
       id="path25"
       style="opacity:0;fill:#4b4b4b;fill-opacity:1;stroke-width:5.08;stroke-linejoin:round;paint-order:stroke markers fill;filter:url(#filter196)"
       d="m 44.851367,222.36074 c 0.144435,0.35281 0.303926,0.45813 0.547148,0.535 0.816471,0.25804 1.697911,-0.5934 2.535223,-0.41418 0.351139,0.0752 0.688303,0.30284 0.898935,0.59367 0.235897,0.32571 0.04495,0.94383 0.317728,1.16391 -0.125016,0.23271 -0.201734,0.46079 -0.204599,0.65991 -0.01684,1.16966 1.050681,1.90277 1.484788,1.99197 -0.49265,0.24806 -1.440911,0.58898 -1.613024,1.24561 -0.318235,1.2141 1.766124,2.50138 2.756508,2.58981 1.03723,0.0926 2.028138,-0.63829 2.66819,-1.41545 0.562345,-0.6828 0.836748,-1.65704 0.771174,-2.53916 -0.0796,-1.07089 -0.724851,-2.28376 -1.381653,-2.91019 -0.161732,-0.15425 -0.340185,-0.30541 -0.52987,-0.4463 0.07425,-0.56736 0.103191,-0.8935 0.419066,-1.15341 0.58228,-0.47911 1.551727,-0.0299 2.235149,-0.34858 0.363699,-0.16957 0.769952,-0.43606 0.906769,-0.79187 0.05894,-0.1533 0.08897,-0.39195 -0.04233,-0.49061 -0.190234,-0.14296 -0.651431,0.74649 -1.087389,0.95093 -0.667317,0.31293 -1.587809,-0.0853 -2.183446,0.34883 -0.37159,0.27082 -0.628138,0.78155 -0.624239,1.2301 -0.544324,-0.33046 -1.153409,-0.5419 -1.744502,-0.46612 -0.457273,0.0586 -1.049465,0.5034 -1.477224,1.0248 -0.136951,-0.17188 -0.110124,-0.6384 -0.302902,-0.88244 -0.309746,-0.3921 -0.774034,-0.71807 -1.266674,-0.80171 -0.803295,-0.13637 -1.598616,0.77942 -2.381134,0.55238 -0.295869,-0.0858 -0.353708,-0.56953 -0.648717,-0.65828 -0.226981,-0.0683 -0.05297,0.43138 -0.05297,0.43138 z m 6.594518,1.71179 c 0.137964,-0.22032 0.556019,-0.11215 0.779574,0.0205 0.228135,0.13537 0.533065,0.45898 0.399589,0.68823 -0.136862,0.23506 -0.584249,0.13449 -0.815965,-0.008 -0.224143,-0.13779 -0.502839,-0.47781 -0.363198,-0.70081 z m -0.94839,0.18913 c 0.187013,0.17603 0.01038,0.50599 -0.150945,0.69146 -0.161321,0.18547 -0.492892,0.44504 -0.719556,0.26589 -0.213494,-0.16887 0.03869,-0.48474 0.196158,-0.66303 0.157464,-0.17829 0.48733,-0.47035 0.674343,-0.29432 z"
       sodipodi:nodetypes="caaacscssaascaassaacscaaascczaaaazszacs" /><g
       id="g52"
       style="opacity:0.5;filter:url(#filter53)"><path
         style="fill:#4b4b4b;fill-opacity:1;stroke:none;stroke-opacity:1"
         d="m 143.20772,260.94244 c -1.34676,-0.47808 -2.56206,-1.293 -3.9353,-1.67696 -1.1073,-0.3096 -2.26463,-0.48144 -3.41437,-0.48968 -1.03415,-0.007 -2.03751,0.19414 -3.07708,0.39641 -1.03957,0.20227 -1.07989,0.66031 -3.14572,0.82411 -0.0778,0.006 1.5949,-0.6185 1.3654,-0.73718 -1.07451,-0.55106 -2.79531,-0.35153 -7.67169,-0.39478 -2.80342,-0.0249 -5.50671,-0.0676 -6.00732,-0.0949 -0.50061,-0.0273 -0.9102,-0.0999 -0.9102,-0.16123 0,-0.0614 2.04795,-0.15851 4.551,-0.21588 3.14847,-0.0722 4.6632,-0.16018 4.91508,-0.2856 0.20024,-0.0997 -0.96371,-0.5117 -0.53119,-0.46339 0.30363,0.0339 1.36466,0.20812 2.05039,0.28519 0.94183,0.10585 1.89985,0.40533 2.83286,0.24319 4.88276,-0.84854 1.02547,-1.74714 1.32187,-1.72371 1.12761,0.0891 2.15639,0.13574 2.91969,0.25405 0.50576,0.0784 0.99531,0.23896 1.49206,0.36216 1.66197,0.41219 3.59785,1.15397 4.97968,1.26142 1.38184,0.10745 3.33436,-0.95693 3.37864,-0.92135 0.18709,0.15035 -0.92689,0.70523 -1.32765,0.88056 -0.40077,0.17532 -1.46783,0.71622 -1.46783,0.97953 0,0.23997 0.0846,0.42543 0.56787,0.80888 0.36892,0.2927 2.45756,1.34617 1.11381,0.86916 z m -8.21554,-2.79536 c 0.73978,-0.0326 2.26012,0.1287 2.21972,0.0883 -0.0404,-0.0404 -0.52645,-0.22514 -1.0801,-0.41052 -0.55366,-0.18539 -0.90175,-0.32249 -1.37073,-0.31751 -0.58569,0.006 -1.22562,0.0133 -1.76094,0.36661 l -0.99565,0.65714 c 0,0 1.98458,-0.33981 2.9877,-0.38402 z m 14.24796,2.79536 c 1.34676,-0.47808 2.56206,-1.293 3.9353,-1.67696 1.1073,-0.3096 2.26463,-0.48144 3.41437,-0.48968 1.03415,-0.007 2.03751,0.19414 3.07708,0.39641 1.03957,0.20227 1.07989,0.66031 3.14572,0.82411 0.0778,0.006 -1.5949,-0.6185 -1.3654,-0.73718 1.07451,-0.55106 2.79531,-0.35153 7.67169,-0.39478 2.80342,-0.0249 5.50671,-0.0676 6.00732,-0.0949 0.50061,-0.0273 0.9102,-0.0999 0.9102,-0.16123 0,-0.0614 -2.04795,-0.15851 -4.551,-0.21588 -3.14847,-0.0722 -4.6632,-0.16018 -4.91508,-0.2856 -0.20024,-0.0997 0.96371,-0.5117 0.53119,-0.46339 -0.30363,0.0339 -1.36466,0.20812 -2.05039,0.28519 -0.94183,0.10585 -1.89985,0.40533 -2.83286,0.24319 -4.88276,-0.84854 -1.02547,-1.74714 -1.32187,-1.72371 -1.12761,0.0891 -2.15639,0.13574 -2.91969,0.25405 -0.50576,0.0784 -0.99531,0.23896 -1.49206,0.36216 -1.66197,0.41219 -3.59785,1.15397 -4.97968,1.26142 -1.38184,0.10745 -3.33436,-0.95693 -3.37864,-0.92135 -0.18709,0.15035 0.92689,0.70523 1.32765,0.88056 0.40077,0.17532 1.46783,0.71622 1.46783,0.97953 0,0.23997 -0.0846,0.42543 -0.56787,0.80888 -0.36892,0.2927 -2.45756,1.34617 -1.11381,0.86916 z m 8.21554,-2.79536 c -0.73978,-0.0326 -2.26012,0.1287 -2.21972,0.0883 0.0404,-0.0404 0.52645,-0.22514 1.0801,-0.41052 0.55366,-0.18539 0.90175,-0.32249 1.37073,-0.31751 0.58569,0.006 1.22562,0.0133 1.76094,0.36661 l 0.99565,0.65714 c 0,0 -1.98458,-0.33981 -2.9877,-0.38402 z"
         id="path51"
         inkscape:original-d="m 143.20772,260.94244 c -1.34676,-0.47808 -2.56206,-1.293 -3.9353,-1.67696 -1.1073,-0.3096 -2.26463,-0.48144 -3.41437,-0.48968 -1.03415,-0.007 -2.03751,0.19414 -3.07708,0.39641 -1.03957,0.20227 -1.07989,0.66031 -3.14572,0.82411 -0.0778,0.006 1.5949,-0.6185 1.3654,-0.73718 -1.07451,-0.55106 -2.79531,-0.35153 -7.67169,-0.39478 -2.80342,-0.0249 -5.50671,-0.0676 -6.00732,-0.0949 -0.50061,-0.0273 -0.9102,-0.0999 -0.9102,-0.16123 0,-0.0614 2.04795,-0.15851 4.551,-0.21588 3.14847,-0.0722 4.6632,-0.16018 4.91508,-0.2856 0.20024,-0.0997 -0.96371,-0.5117 -0.53119,-0.46339 0.30363,0.0339 1.36466,0.20812 2.05039,0.28519 0.94183,0.10585 1.89985,0.40533 2.83286,0.24319 4.88276,-0.84854 1.02547,-1.74714 1.32187,-1.72371 1.12761,0.0891 2.15639,0.13574 2.91969,0.25405 0.50576,0.0784 0.99531,0.23896 1.49206,0.36216 1.66197,0.41219 3.59785,1.15397 4.97968,1.26142 1.38184,0.10745 3.33436,-0.95693 3.37864,-0.92135 0.18709,0.15035 -0.92689,0.70523 -1.32765,0.88056 -0.40077,0.17532 -1.46783,0.71622 -1.46783,0.97953 0,0.23997 0.0846,0.42543 0.56787,0.80888 0.36892,0.2927 2.45756,1.34617 1.11381,0.86916 z m -8.21554,-2.79536 c 0.73978,-0.0326 2.26012,0.1287 2.21972,0.0883 -0.0404,-0.0404 -0.52645,-0.22514 -1.0801,-0.41052 -0.55366,-0.18539 -0.90175,-0.32249 -1.37073,-0.31751 -0.58569,0.006 -1.22562,0.0133 -1.76094,0.36661 l -0.99565,0.65714 c 0,0 1.98458,-0.33981 2.9877,-0.38402 z"
         inkscape:path-effect="#path-effect53"
         transform="translate(-94.488187,-59.842569)"
         sodipodi:nodetypes="saacssssssssasssazscsssasassca" /><path
         id="path52"
         style="fill:#4b4b4b;fill-opacity:1;stroke:none;stroke-opacity:1"
         d="m 51.629023,194.11322 c -0.399467,0.0226 -0.787624,0.31359 -0.804602,0.77928 -0.0166,0.45519 0.122446,0.65439 0.402043,0.79685 0.08734,0.0445 0.142594,0.53777 0.144694,0.84594 0.0021,0.30816 0.03086,0.72185 -0.01757,0.86453 -3.26e-4,9.6e-4 -0.0016,0.003 -0.0021,0.004 l -0.0021,0.002 c -0.04974,0.055 -0.393375,0.42831 -0.503845,0.53131 -0.189464,0.17674 -0.107,0.0729 0.10542,2.14348 0.227994,2.22255 0.339773,3.10217 0.472839,3.73828 0.0361,0.17265 0.123868,0.67866 0.198954,0.72088 l 0.0021,0.002 h 0.0021 v 0.002 h 0.0021 0.0021 l 0.0021,-0.002 h 0.0016 c 0.07509,-0.0422 0.165439,-0.54978 0.201538,-0.72243 0.133066,-0.63611 0.244329,-1.51573 0.472323,-3.73828 0.21242,-2.07061 0.293333,-1.96622 0.103869,-2.14296 -0.11047,-0.10305 -0.450484,-0.47475 -0.500228,-0.52976 l -0.0021,-0.002 c -3.7e-4,-7e-4 -0.0026,-0.004 -0.0036,-0.005 v -5.1e-4 c -0.04843,-0.14268 -0.01965,-0.55637 -0.01757,-0.86453 0.0021,-0.30817 0.03636,-0.79852 0.09741,-0.84009 0.259366,-0.17664 0.465927,-0.34751 0.449332,-0.8027 -0.01698,-0.46569 -0.407202,-0.75667 -0.80667,-0.77928 z m -0.01033,0.4873 c 0.205168,0.008 0.373986,0.17258 0.366386,0.37776 -0.0092,0.24995 -0.231839,0.36053 -0.396358,0.34313 -0.144338,-0.0152 -0.32638,-0.13543 -0.327112,-0.34055 -5.66e-4,-0.155 0.12484,-0.38934 0.357084,-0.38034 z"
         transform="translate(0.10683675)"
         sodipodi:nodetypes="ssssscccsscccccccccssccccssscsccssc" /></g></g></svg>
