<?xml version="1.0" encoding="UTF-8" standalone="no"?>
<!-- Created with Inkscape (http://www.inkscape.org/) -->

<svg
   width="84.611115mm"
   height="17.939442mm"
   viewBox="0 0 84.611115 17.939442"
   version="1.1"
   id="svg1"
   xml:space="preserve"
   inkscape:version="1.4 (86a8ad7, 2024-10-11)"
   sodipodi:docname="skonguistuff.svg"
   inkscape:export-filename="..\Github\skonguistuff.png"
   inkscape:export-xdpi="400"
   inkscape:export-ydpi="400"
   xmlns:inkscape="http://www.inkscape.org/namespaces/inkscape"
   xmlns:sodipodi="http://sodipodi.sourceforge.net/DTD/sodipodi-0.dtd"
   xmlns="http://www.w3.org/2000/svg"
   xmlns:svg="http://www.w3.org/2000/svg"><sodipodi:namedview
     id="namedview1"
     pagecolor="#ffffff"
     bordercolor="#000000"
     borderopacity="0.25"
     inkscape:showpageshadow="2"
     inkscape:pageopacity="0.0"
     inkscape:pagecheckerboard="0"
     inkscape:deskcolor="#d1d1d1"
     inkscape:document-units="mm"
     inkscape:zoom="2.0000001"
     inkscape:cx="434.74999"
     inkscape:cy="555.49999"
     inkscape:window-width="1920"
     inkscape:window-height="1012"
     inkscape:window-x="0"
     inkscape:window-y="0"
     inkscape:window-maximized="1"
     inkscape:current-layer="layer1"
     showgrid="false"
     showguides="true"><inkscape:page
       x="0"
       y="0"
       width="84.611115"
       height="17.939442"
       id="page2"
       margin="0"
       bleed="0" /></sodipodi:namedview><defs
     id="defs1"><inkscape:path-effect
       effect="fillet_chamfer"
       id="path-effect83"
       is_visible="true"
       lpeversion="1"
       nodesatellites_param="F,0,1,1,0,2.8072494,0,1 @ F,0,0,1,0,0,0,1 @ F,0,0,1,0,0,0,1 @ F,0,0,1,0,0.39801897,0,1 @ F,0,0,1,0,0,0,1 @ F,0,0,1,0,0,0,1 @ F,0,0,1,0,0,0,1 @ F,0,0,1,0,0.39801897,0,1 @ F,0,0,1,0,0,0,1 @ F,0,0,1,0,0,0,1 | F,0,0,1,0,0,0,1 @ F,0,0,1,0,0,0,1 @ F,0,0,1,0,0,0,1 @ F,0,0,1,0,0,0,1 @ F,0,0,1,0,0,0,1 | F,0,0,1,0,0,0,1 @ F,0,0,1,0,0,0,1 @ F,0,0,1,0,0,0,1 @ F,0,0,1,0,0,0,1 | F,0,0,1,0,0,0,1 @ F,0,0,1,0,0,0,1 @ F,0,0,1,0,0,0,1 @ F,0,0,1,0,0,0,1 | F,0,0,1,0,0,0,1 @ F,0,0,1,0,0,0,1 @ F,0,0,1,0,0,0,1 @ F,0,0,1,0,0,0,1"
       radius="0"
       unit="px"
       method="auto"
       mode="F"
       chamfer_steps="1"
       flexible="false"
       use_knot_distance="true"
       apply_no_radius="true"
       apply_with_radius="true"
       only_selected="false"
       hide_knots="false" /><inkscape:path-effect
       effect="mirror_symmetry"
       start_point="138.70314,117.49312"
       end_point="138.70314,124.21256"
       center_point="138.70314,120.85284"
       id="path-effect81"
       is_visible="true"
       lpeversion="1.2"
       lpesatellites=""
       mode="free"
       discard_orig_path="false"
       fuse_paths="false"
       oposite_fuse="false"
       split_items="false"
       split_open="false"
       link_styles="false" /><inkscape:path-effect
       effect="fillet_chamfer"
       id="path-effect78"
       is_visible="true"
       lpeversion="1"
       nodesatellites_param="F,0,1,1,0,2.8072494,0,1 @ F,0,0,1,0,0,0,1 @ F,0,0,1,0,0,0,1 @ F,0,0,1,0,0.39801897,0,1 @ F,0,0,1,0,0,0,1 @ F,0,0,1,0,0,0,1 @ F,0,0,1,0,0,0,1 @ F,0,0,1,0,0.39801897,0,1 @ F,0,0,1,0,0,0,1 @ F,0,0,1,0,0,0,1 | F,0,0,1,0,0,0,1 @ F,0,0,1,0,0,0,1 @ F,0,0,1,0,0,0,1 @ F,0,0,1,0,0,0,1 @ F,0,0,1,0,0,0,1 | F,0,0,1,0,0,0,1 @ F,0,0,1,0,0,0,1 @ F,0,0,1,0,0,0,1 @ F,0,0,1,0,0,0,1 | F,0,0,1,0,0,0,1 @ F,0,0,1,0,0,0,1 @ F,0,0,1,0,0,0,1 @ F,0,0,1,0,0,0,1 | F,0,0,1,0,0,0,1 @ F,0,0,1,0,0,0,1 @ F,0,0,1,0,0,0,1 @ F,0,0,1,0,0,0,1"
       radius="0"
       unit="px"
       method="auto"
       mode="F"
       chamfer_steps="1"
       flexible="false"
       use_knot_distance="true"
       apply_no_radius="true"
       apply_with_radius="true"
       only_selected="false"
       hide_knots="false" /><inkscape:path-effect
       effect="mirror_symmetry"
       start_point="138.70314,117.49312"
       end_point="138.70314,124.21256"
       center_point="138.70314,120.85284"
       id="path-effect72"
       is_visible="true"
       lpeversion="1.2"
       lpesatellites=""
       mode="free"
       discard_orig_path="false"
       fuse_paths="false"
       oposite_fuse="false"
       split_items="false"
       split_open="false"
       link_styles="false" /><filter
       inkscape:collect="always"
       style="color-interpolation-filters:sRGB"
       id="filter83"
       x="-0.028028413"
       y="-0.16698421"
       width="1.0560568"
       height="1.3339684"><feGaussianBlur
         inkscape:collect="always"
         stdDeviation="0.93568014"
         id="feGaussianBlur83" /></filter></defs><g
     inkscape:label="Layer 1"
     inkscape:groupmode="layer"
     id="layer1"
     transform="translate(-97.85279,-157.70631)"><g
       id="g83"
       transform="translate(1.4552083,3.0427083)"
       inkscape:export-filename="Github/midcreige"
       inkscape:export-xdpi="400"
       inkscape:export-ydpi="400"><g
         id="g79"
         transform="translate(0,0.52916665)"><path
           style="fill:#4b4b4b;fill-opacity:1;stroke:none"
           d="m 137.27624,119.86659 c -0.26988,0.0502 -1.2029,-0.20065 -1.77808,-0.39504 -0.97239,-0.32863 -1.97036,-0.73324 -2.79481,-1.29258 -1.37658,-0.93394 -1.74271,-1.11479 -2.24799,-1.03119 -0.30263,0.0501 -1.18014,0.0909 -2.42165,0.1621 -1.6604,0.0953 -2.85419,0.0765 -4.51459,-0.0709 -1.24151,-0.11022 -2.56807,-0.27282 -2.9479,-0.36133 -0.66388,-0.1547 -0.71165,-0.14357 -1.23464,0.28752 -0.29923,0.24665 -0.62031,0.44845 -0.71352,0.44845 -0.0932,0 -0.21116,-0.16607 -0.2621,-0.36904 -0.0509,-0.20296 -0.25465,-0.44285 -0.45269,-0.53308 -0.19803,-0.0902 -0.36006,-0.21269 -0.36006,-0.27213 0,-0.0594 -0.44236,-0.23952 -0.98301,-0.40017 -0.54066,-0.16066 -1.17962,-0.32883 -1.41992,-0.37372 -0.24029,-0.0449 -0.7318,-0.11818 -1.09224,-0.16287 -0.36043,-0.0447 -1.11408,-0.14488 -1.67476,-0.22265 -0.56069,-0.0778 -3.84835,-0.15793 -7.30593,-0.17815 -3.45758,-0.0202 -6.331275,-0.0815 -6.385985,-0.13629 -0.05471,-0.0547 -0.05781,-0.16694 -0.0069,-0.24932 0.06098,-0.0987 2.234735,-0.15251 6.370395,-0.15777 3.45281,-0.004 6.44868,-0.045 6.65749,-0.0902 0.20882,-0.0452 0.5435,-0.13708 0.74374,-0.20416 0.20025,-0.0671 0.53222,-0.15826 0.73772,-0.20264 0.20549,-0.0444 0.52681,-0.21354 0.71403,-0.37592 0.18722,-0.16238 0.43754,-0.29523 0.55627,-0.29523 0.11873,0 0.35807,0.14745 0.53187,0.32767 0.17379,0.18022 0.50681,0.47513 0.74006,0.65535 0.23324,0.18022 0.53391,0.32767 0.66815,0.32767 0.13424,0 0.27841,0.0895 0.32037,0.19885 0.042,0.10936 0.59684,0.3715 1.23304,0.58252 0.6362,0.21103 1.25954,0.38368 1.38519,0.38368 0.12566,0 0.33167,-0.1032 0.4578,-0.22933 0.12613,-0.12614 0.90084,-0.4577 1.72158,-0.7368 0.82073,-0.27911 2.01651,-0.57538 2.65729,-0.65838 0.64078,-0.083 1.61662,-0.20824 2.42147,-0.13286 1.24205,0.11633 2.28335,0.47582 3.63376,0.89537 0.42544,0.13218 1.41517,-0.24924 1.76352,-0.54097 1.59854,-1.33875 1.66357,-2.2395 1.84403,-2.18312 0.11769,0.0367 0.235,0.92542 -0.89444,2.27349 -0.48715,0.58144 -1.46329,1.34931 -1.19975,1.64918 0.16393,0.18654 1.57175,1.41459 2.43973,2.01316 1.95268,1.34655 3.61448,1.55381 3.09343,1.65083 z m -12.59207,-3.30118 c 0.84102,0.0242 2.40771,-0.0274 3.48153,-0.1147 1.07382,-0.0873 2.01351,-0.19654 2.08819,-0.2427 0.0747,-0.0462 -0.19788,-0.27448 -0.6057,-0.50739 -0.52032,-0.29717 -1.09926,-0.47163 -1.94102,-0.58492 -0.65975,-0.0888 -1.88834,-0.12701 -2.73021,-0.0849 -0.99625,0.0498 -1.88659,0.19006 -2.55009,0.40177 -0.56068,0.17891 -1.19964,0.39839 -1.41991,0.48774 -0.22027,0.0894 -0.40049,0.20729 -0.40049,0.26207 0,0.0548 0.34406,0.13712 0.76457,0.18298 0.42051,0.0459 0.99394,0.0997 1.27428,0.1197 0.28034,0.02 1.19782,0.0562 2.03885,0.0804 z m 15.44587,3.30118 c 0.26988,0.0502 1.2029,-0.20065 1.77808,-0.39504 0.97239,-0.32863 1.97036,-0.73324 2.79481,-1.29258 1.37658,-0.93394 1.74271,-1.11479 2.24799,-1.03119 0.30263,0.0501 1.18014,0.0909 2.42165,0.1621 1.6604,0.0953 2.85419,0.0765 4.51459,-0.0709 1.24151,-0.11022 2.56807,-0.27282 2.9479,-0.36133 0.66388,-0.1547 0.71165,-0.14357 1.23464,0.28752 0.29923,0.24665 0.62031,0.44845 0.71352,0.44845 0.0932,0 0.21116,-0.16607 0.2621,-0.36904 0.0509,-0.20296 0.25465,-0.44285 0.45269,-0.53308 0.19803,-0.0902 0.36006,-0.21269 0.36006,-0.27213 0,-0.0594 0.44236,-0.23952 0.98301,-0.40017 0.54066,-0.16066 1.17962,-0.32883 1.41992,-0.37372 0.24029,-0.0449 0.7318,-0.11818 1.09224,-0.16287 0.36043,-0.0447 1.11408,-0.14488 1.67476,-0.22265 0.56069,-0.0778 3.84835,-0.15793 7.30593,-0.17815 3.45758,-0.0202 6.33128,-0.0815 6.38599,-0.13629 0.0547,-0.0547 0.0578,-0.16694 0.007,-0.24932 -0.061,-0.0987 -2.23473,-0.15251 -6.37039,-0.15777 -3.45281,-0.004 -6.44868,-0.045 -6.65749,-0.0902 -0.20882,-0.0452 -0.5435,-0.13708 -0.74374,-0.20416 -0.20025,-0.0671 -0.53222,-0.15826 -0.73772,-0.20264 -0.20549,-0.0444 -0.52681,-0.21354 -0.71403,-0.37592 -0.18722,-0.16238 -0.43754,-0.29523 -0.55627,-0.29523 -0.11873,0 -0.35807,0.14745 -0.53187,0.32767 -0.17379,0.18022 -0.50681,0.47513 -0.74006,0.65535 -0.23324,0.18022 -0.53391,0.32767 -0.66815,0.32767 -0.13424,0 -0.27841,0.0895 -0.32037,0.19885 -0.042,0.10936 -0.59684,0.3715 -1.23304,0.58252 -0.6362,0.21103 -1.25954,0.38368 -1.38519,0.38368 -0.12566,0 -0.33167,-0.1032 -0.4578,-0.22933 -0.12613,-0.12614 -0.90084,-0.4577 -1.72158,-0.7368 -0.82073,-0.27911 -2.01651,-0.57538 -2.65729,-0.65838 -0.64078,-0.083 -1.61662,-0.20824 -2.42147,-0.13286 -1.24205,0.11633 -2.28335,0.47582 -3.63376,0.89537 -0.42544,0.13218 -1.41517,-0.24924 -1.76352,-0.54097 -1.59854,-1.33875 -1.66357,-2.2395 -1.84403,-2.18312 -0.11769,0.0367 -0.235,0.92542 0.89444,2.27349 0.48715,0.58144 1.46329,1.34931 1.19975,1.64918 -0.16393,0.18654 -1.57175,1.41459 -2.43973,2.01316 -1.95268,1.34655 -3.61448,1.55381 -3.09343,1.65083 z m 12.59207,-3.30118 c -0.84102,0.0242 -2.40771,-0.0274 -3.48153,-0.1147 -1.07382,-0.0873 -2.01351,-0.19654 -2.08819,-0.2427 -0.0747,-0.0462 0.19788,-0.27448 0.6057,-0.50739 0.52032,-0.29717 1.09926,-0.47163 1.94102,-0.58492 0.65975,-0.0888 1.88834,-0.12701 2.73021,-0.0849 0.99625,0.0498 1.88659,0.19006 2.55009,0.40177 0.56068,0.17891 1.19964,0.39839 1.41991,0.48774 0.22027,0.0894 0.40049,0.20729 0.40049,0.26207 0,0.0548 -0.34406,0.13712 -0.76457,0.18298 -0.42051,0.0459 -0.99394,0.0997 -1.27428,0.1197 -0.28034,0.02 -1.19782,0.0562 -2.03885,0.0804 z"
           id="path67"
           sodipodi:nodetypes="cassssssscssssssscscsssssssscsssssassssssscsssssscscsccs"
           inkscape:path-effect="#path-effect72"
           inkscape:original-d="m 137.27624,119.86659 c -0.26988,0.0502 -1.2029,-0.20065 -1.77808,-0.39504 -0.97239,-0.32863 -1.97036,-0.73324 -2.79481,-1.29258 -1.37658,-0.93394 -1.74271,-1.11479 -2.24799,-1.03119 -0.30263,0.0501 -1.18014,0.0909 -2.42165,0.1621 -1.6604,0.0953 -2.85419,0.0765 -4.51459,-0.0709 -1.24151,-0.11022 -2.56807,-0.27282 -2.9479,-0.36133 -0.66388,-0.1547 -0.71165,-0.14357 -1.23464,0.28752 -0.29923,0.24665 -0.62031,0.44845 -0.71352,0.44845 -0.0932,0 -0.21116,-0.16607 -0.2621,-0.36904 -0.0509,-0.20296 -0.25465,-0.44285 -0.45269,-0.53308 -0.19803,-0.0902 -0.36006,-0.21269 -0.36006,-0.27213 0,-0.0594 -0.44236,-0.23952 -0.98301,-0.40017 -0.54066,-0.16066 -1.17962,-0.32883 -1.41992,-0.37372 -0.24029,-0.0449 -0.7318,-0.11818 -1.09224,-0.16287 -0.36043,-0.0447 -1.11408,-0.14488 -1.67476,-0.22265 -0.56069,-0.0778 -3.84835,-0.15793 -7.30593,-0.17815 -3.45758,-0.0202 -6.331275,-0.0815 -6.385985,-0.13629 -0.05471,-0.0547 -0.05781,-0.16694 -0.0069,-0.24932 0.06098,-0.0987 2.234735,-0.15251 6.370395,-0.15777 3.45281,-0.004 6.44868,-0.045 6.65749,-0.0902 0.20882,-0.0452 0.5435,-0.13708 0.74374,-0.20416 0.20025,-0.0671 0.53222,-0.15826 0.73772,-0.20264 0.20549,-0.0444 0.52681,-0.21354 0.71403,-0.37592 0.18722,-0.16238 0.43754,-0.29523 0.55627,-0.29523 0.11873,0 0.35807,0.14745 0.53187,0.32767 0.17379,0.18022 0.50681,0.47513 0.74006,0.65535 0.23324,0.18022 0.53391,0.32767 0.66815,0.32767 0.13424,0 0.27841,0.0895 0.32037,0.19885 0.042,0.10936 0.59684,0.3715 1.23304,0.58252 0.6362,0.21103 1.25954,0.38368 1.38519,0.38368 0.12566,0 0.33167,-0.1032 0.4578,-0.22933 0.12613,-0.12614 0.90084,-0.4577 1.72158,-0.7368 0.82073,-0.27911 2.01651,-0.57538 2.65729,-0.65838 0.64078,-0.083 1.61662,-0.20824 2.42147,-0.13286 1.24205,0.11633 2.28335,0.47582 3.63376,0.89537 0.42544,0.13218 1.41517,-0.24924 1.76352,-0.54097 1.59854,-1.33875 1.66357,-2.2395 1.84403,-2.18312 0.11769,0.0367 0.235,0.92542 -0.89444,2.27349 -0.48715,0.58144 -1.46329,1.34931 -1.19975,1.64918 0.16393,0.18654 1.57175,1.41459 2.43973,2.01316 1.95268,1.34655 3.61448,1.55381 3.09343,1.65083 z m -12.59207,-3.30118 c 0.84102,0.0242 2.40771,-0.0274 3.48153,-0.1147 1.07382,-0.0873 2.01351,-0.19654 2.08819,-0.2427 0.0747,-0.0462 -0.19788,-0.27448 -0.6057,-0.50739 -0.52032,-0.29717 -1.09926,-0.47163 -1.94102,-0.58492 -0.65975,-0.0888 -1.88834,-0.12701 -2.73021,-0.0849 -0.99625,0.0498 -1.88659,0.19006 -2.55009,0.40177 -0.56068,0.17891 -1.19964,0.39839 -1.41991,0.48774 -0.22027,0.0894 -0.40049,0.20729 -0.40049,0.26207 0,0.0548 0.34406,0.13712 0.76457,0.18298 0.42051,0.0459 0.99394,0.0997 1.27428,0.1197 0.28034,0.02 1.19782,0.0562 2.03885,0.0804 z"
           transform="translate(0,49.955152)" /><path
           id="path74"
           style="fill:#4b4b4b;fill-opacity:1;stroke-width:0.264583"
           d="m 134.82885,168.11294 c -0.30484,1.24062 -0.70797,2.8089 -1.16228,4.66433 -0.8618,3.51968 -1.57347,4.20172 -2.41951,4.09895 -0.48009,-0.0583 -0.3289,-1.01409 -0.20037,-1.56501 0.0498,-0.21347 -0.0528,-0.29333 -0.22714,-0.15968 -0.64092,0.49131 -2.03184,1.84097 -2.45458,4.53592 -0.48457,3.08906 2.76903,6.1252 7.04143,6.1252 4.27241,0 7.52548,-3.03614 7.04092,-6.1252 -0.42288,-2.69584 -1.81577,-4.0455 -2.45698,-4.5364 -0.1742,-0.13337 -0.26658,-0.0562 -0.20304,0.15425 0.16965,0.56181 0.39913,1.55818 -0.0853,1.61701 -0.84604,0.10277 -2.50837,-0.57757 -3.37017,-4.09725 -0.45053,-1.84002 -0.65626,-3.40905 -0.76129,-4.65643 -0.13003,-1.54427 -0.37191,-1.56044 -0.74165,-0.0557 z m -3.01808,14.30819 c 0.33054,0.002 0.69761,0.0824 0.95343,0.1664 0.55729,0.18298 1.35004,0.68848 1.19372,1.21853 -0.158,0.53573 -1.0706,0.3986 -1.63297,0.21135 -0.58782,-0.19572 -1.50053,-0.75913 -1.24851,-1.29036 0.10951,-0.23084 0.40378,-0.30775 0.73433,-0.30592 z m 7.34145,0.44953 c 0.25202,0.53123 -0.40725,0.95103 -0.99507,1.14675 -0.56237,0.18725 -1.47498,0.32438 -1.63298,-0.21135 -0.15632,-0.53005 0.63644,-0.94263 1.19373,-1.12561 0.49063,-0.1611 1.21236,-0.27768 1.43432,0.19021 z m -4.49615,1.50487 c 0.18397,0.002 0.36563,0.26442 0.32763,0.44442 -0.026,0.12298 -0.20485,0.21397 -0.32763,0.18707 -0.13101,-0.0287 -0.23609,-0.19354 -0.23409,-0.32763 0.002,-0.12783 0.10624,-0.30486 0.23409,-0.30386 z m 1.16995,0 c 0.12785,-0.001 0.23131,0.17603 0.23358,0.30386 0.002,0.13409 -0.10257,0.29892 -0.23358,0.32763 -0.12278,0.0269 -0.30162,-0.0641 -0.32762,-0.18707 -0.038,-0.18 0.14365,-0.44252 0.32762,-0.44442 z"
           transform="matrix(0.69208699,0,0,0.69208699,44.9903,40.803454)"
           sodipodi:nodetypes="csscssscsscssssssssssscssccccscc"
           inkscape:original-d="m 135.40641,165.36739 c -0.10663,1.06158 -0.81785,3.64438 -1.73984,7.40988 -0.8618,3.51968 -1.57347,4.20172 -2.41951,4.09895 -0.67693,-0.0822 -0.0988,-1.94869 -0.0988,-1.94869 0,0 -2.22773,1.21822 -2.78329,4.75992 -0.48457,3.08906 2.76903,6.1252 7.04143,6.1252 4.27241,0 7.52548,-3.03614 7.04092,-6.1252 -0.55556,-3.5417 -2.78536,-4.75992 -2.78536,-4.75992 0,0 0.71693,1.91258 0.04,1.99478 -0.84604,0.10277 -2.50837,-0.57757 -3.37017,-4.09725 -0.92199,-3.7655 -0.81874,-6.39609 -0.92538,-7.45767 z m -3.59564,17.05374 c 0.33054,0.002 0.69761,0.0824 0.95343,0.1664 0.55729,0.18298 1.35004,0.68848 1.19372,1.21853 -0.158,0.53573 -1.0706,0.3986 -1.63297,0.21135 -0.58782,-0.19572 -1.50053,-0.75913 -1.24851,-1.29036 0.10951,-0.23084 0.40378,-0.30775 0.73433,-0.30592 z m 7.34145,0.44953 c 0.25202,0.53123 -0.40725,0.95103 -0.99507,1.14675 -0.56237,0.18725 -1.47498,0.32438 -1.63298,-0.21135 -0.15632,-0.53005 0.63644,-0.94263 1.19373,-1.12561 0.49063,-0.1611 1.21236,-0.27768 1.43432,0.19021 z m -4.49615,1.50487 c 0.18397,0.002 0.36563,0.26442 0.32763,0.44442 -0.026,0.12298 -0.20485,0.21397 -0.32763,0.18707 -0.13101,-0.0287 -0.23609,-0.19354 -0.23409,-0.32763 0.002,-0.12783 0.10624,-0.30486 0.23409,-0.30386 z m 1.16995,0 c 0.12785,-0.001 0.23131,0.17603 0.23358,0.30386 0.002,0.13409 -0.10257,0.29892 -0.23358,0.32763 -0.12278,0.0269 -0.30162,-0.0641 -0.32762,-0.18707 -0.038,-0.18 0.14365,-0.44252 0.32762,-0.44442 z"
           inkscape:path-effect="#path-effect78" /></g><g
         id="g80"
         style="opacity:0.5;filter:url(#filter83)"
         transform="translate(0,0.52916665)"><path
           style="fill:#4b4b4b;fill-opacity:1;stroke:none"
           d="m 137.27624,119.86659 c -0.26988,0.0502 -1.2029,-0.20065 -1.77808,-0.39504 -0.97239,-0.32863 -1.97036,-0.73324 -2.79481,-1.29258 -1.37658,-0.93394 -1.74271,-1.11479 -2.24799,-1.03119 -0.30263,0.0501 -1.18014,0.0909 -2.42165,0.1621 -1.6604,0.0953 -2.85419,0.0765 -4.51459,-0.0709 -1.24151,-0.11022 -2.56807,-0.27282 -2.9479,-0.36133 -0.66388,-0.1547 -0.71165,-0.14357 -1.23464,0.28752 -0.29923,0.24665 -0.62031,0.44845 -0.71352,0.44845 -0.0932,0 -0.21116,-0.16607 -0.2621,-0.36904 -0.0509,-0.20296 -0.25465,-0.44285 -0.45269,-0.53308 -0.19803,-0.0902 -0.36006,-0.21269 -0.36006,-0.27213 0,-0.0594 -0.44236,-0.23952 -0.98301,-0.40017 -0.54066,-0.16066 -1.17962,-0.32883 -1.41992,-0.37372 -0.24029,-0.0449 -0.7318,-0.11818 -1.09224,-0.16287 -0.36043,-0.0447 -1.11408,-0.14488 -1.67476,-0.22265 -0.56069,-0.0778 -3.84835,-0.15793 -7.30593,-0.17815 -3.45758,-0.0202 -6.331275,-0.0815 -6.385985,-0.13629 -0.05471,-0.0547 -0.05781,-0.16694 -0.0069,-0.24932 0.06098,-0.0987 2.234735,-0.15251 6.370395,-0.15777 3.45281,-0.004 6.44868,-0.045 6.65749,-0.0902 0.20882,-0.0452 0.5435,-0.13708 0.74374,-0.20416 0.20025,-0.0671 0.53222,-0.15826 0.73772,-0.20264 0.20549,-0.0444 0.52681,-0.21354 0.71403,-0.37592 0.18722,-0.16238 0.43754,-0.29523 0.55627,-0.29523 0.11873,0 0.35807,0.14745 0.53187,0.32767 0.17379,0.18022 0.50681,0.47513 0.74006,0.65535 0.23324,0.18022 0.53391,0.32767 0.66815,0.32767 0.13424,0 0.27841,0.0895 0.32037,0.19885 0.042,0.10936 0.59684,0.3715 1.23304,0.58252 0.6362,0.21103 1.25954,0.38368 1.38519,0.38368 0.12566,0 0.33167,-0.1032 0.4578,-0.22933 0.12613,-0.12614 0.90084,-0.4577 1.72158,-0.7368 0.82073,-0.27911 2.01651,-0.57538 2.65729,-0.65838 0.64078,-0.083 1.61662,-0.20824 2.42147,-0.13286 1.24205,0.11633 2.28335,0.47582 3.63376,0.89537 0.42544,0.13218 1.41517,-0.24924 1.76352,-0.54097 1.59854,-1.33875 1.66357,-2.2395 1.84403,-2.18312 0.11769,0.0367 0.235,0.92542 -0.89444,2.27349 -0.48715,0.58144 -1.46329,1.34931 -1.19975,1.64918 0.16393,0.18654 1.57175,1.41459 2.43973,2.01316 1.95268,1.34655 3.61448,1.55381 3.09343,1.65083 z m -12.59207,-3.30118 c 0.84102,0.0242 2.40771,-0.0274 3.48153,-0.1147 1.07382,-0.0873 2.01351,-0.19654 2.08819,-0.2427 0.0747,-0.0462 -0.19788,-0.27448 -0.6057,-0.50739 -0.52032,-0.29717 -1.09926,-0.47163 -1.94102,-0.58492 -0.65975,-0.0888 -1.88834,-0.12701 -2.73021,-0.0849 -0.99625,0.0498 -1.88659,0.19006 -2.55009,0.40177 -0.56068,0.17891 -1.19964,0.39839 -1.41991,0.48774 -0.22027,0.0894 -0.40049,0.20729 -0.40049,0.26207 0,0.0548 0.34406,0.13712 0.76457,0.18298 0.42051,0.0459 0.99394,0.0997 1.27428,0.1197 0.28034,0.02 1.19782,0.0562 2.03885,0.0804 z m 15.44587,3.30118 c 0.26988,0.0502 1.2029,-0.20065 1.77808,-0.39504 0.97239,-0.32863 1.97036,-0.73324 2.79481,-1.29258 1.37658,-0.93394 1.74271,-1.11479 2.24799,-1.03119 0.30263,0.0501 1.18014,0.0909 2.42165,0.1621 1.6604,0.0953 2.85419,0.0765 4.51459,-0.0709 1.24151,-0.11022 2.56807,-0.27282 2.9479,-0.36133 0.66388,-0.1547 0.71165,-0.14357 1.23464,0.28752 0.29923,0.24665 0.62031,0.44845 0.71352,0.44845 0.0932,0 0.21116,-0.16607 0.2621,-0.36904 0.0509,-0.20296 0.25465,-0.44285 0.45269,-0.53308 0.19803,-0.0902 0.36006,-0.21269 0.36006,-0.27213 0,-0.0594 0.44236,-0.23952 0.98301,-0.40017 0.54066,-0.16066 1.17962,-0.32883 1.41992,-0.37372 0.24029,-0.0449 0.7318,-0.11818 1.09224,-0.16287 0.36043,-0.0447 1.11408,-0.14488 1.67476,-0.22265 0.56069,-0.0778 3.84835,-0.15793 7.30593,-0.17815 3.45758,-0.0202 6.33128,-0.0815 6.38599,-0.13629 0.0547,-0.0547 0.0578,-0.16694 0.007,-0.24932 -0.061,-0.0987 -2.23473,-0.15251 -6.37039,-0.15777 -3.45281,-0.004 -6.44868,-0.045 -6.65749,-0.0902 -0.20882,-0.0452 -0.5435,-0.13708 -0.74374,-0.20416 -0.20025,-0.0671 -0.53222,-0.15826 -0.73772,-0.20264 -0.20549,-0.0444 -0.52681,-0.21354 -0.71403,-0.37592 -0.18722,-0.16238 -0.43754,-0.29523 -0.55627,-0.29523 -0.11873,0 -0.35807,0.14745 -0.53187,0.32767 -0.17379,0.18022 -0.50681,0.47513 -0.74006,0.65535 -0.23324,0.18022 -0.53391,0.32767 -0.66815,0.32767 -0.13424,0 -0.27841,0.0895 -0.32037,0.19885 -0.042,0.10936 -0.59684,0.3715 -1.23304,0.58252 -0.6362,0.21103 -1.25954,0.38368 -1.38519,0.38368 -0.12566,0 -0.33167,-0.1032 -0.4578,-0.22933 -0.12613,-0.12614 -0.90084,-0.4577 -1.72158,-0.7368 -0.82073,-0.27911 -2.01651,-0.57538 -2.65729,-0.65838 -0.64078,-0.083 -1.61662,-0.20824 -2.42147,-0.13286 -1.24205,0.11633 -2.28335,0.47582 -3.63376,0.89537 -0.42544,0.13218 -1.41517,-0.24924 -1.76352,-0.54097 -1.59854,-1.33875 -1.66357,-2.2395 -1.84403,-2.18312 -0.11769,0.0367 -0.235,0.92542 0.89444,2.27349 0.48715,0.58144 1.46329,1.34931 1.19975,1.64918 -0.16393,0.18654 -1.57175,1.41459 -2.43973,2.01316 -1.95268,1.34655 -3.61448,1.55381 -3.09343,1.65083 z m 12.59207,-3.30118 c -0.84102,0.0242 -2.40771,-0.0274 -3.48153,-0.1147 -1.07382,-0.0873 -2.01351,-0.19654 -2.08819,-0.2427 -0.0747,-0.0462 0.19788,-0.27448 0.6057,-0.50739 0.52032,-0.29717 1.09926,-0.47163 1.94102,-0.58492 0.65975,-0.0888 1.88834,-0.12701 2.73021,-0.0849 0.99625,0.0498 1.88659,0.19006 2.55009,0.40177 0.56068,0.17891 1.19964,0.39839 1.41991,0.48774 0.22027,0.0894 0.40049,0.20729 0.40049,0.26207 0,0.0548 -0.34406,0.13712 -0.76457,0.18298 -0.42051,0.0459 -0.99394,0.0997 -1.27428,0.1197 -0.28034,0.02 -1.19782,0.0562 -2.03885,0.0804 z"
           id="path79"
           sodipodi:nodetypes="cassssssscssssssscscsssssssscsssssassssssscsssssscscsccs"
           inkscape:path-effect="#path-effect81"
           inkscape:original-d="m 137.27624,119.86659 c -0.26988,0.0502 -1.2029,-0.20065 -1.77808,-0.39504 -0.97239,-0.32863 -1.97036,-0.73324 -2.79481,-1.29258 -1.37658,-0.93394 -1.74271,-1.11479 -2.24799,-1.03119 -0.30263,0.0501 -1.18014,0.0909 -2.42165,0.1621 -1.6604,0.0953 -2.85419,0.0765 -4.51459,-0.0709 -1.24151,-0.11022 -2.56807,-0.27282 -2.9479,-0.36133 -0.66388,-0.1547 -0.71165,-0.14357 -1.23464,0.28752 -0.29923,0.24665 -0.62031,0.44845 -0.71352,0.44845 -0.0932,0 -0.21116,-0.16607 -0.2621,-0.36904 -0.0509,-0.20296 -0.25465,-0.44285 -0.45269,-0.53308 -0.19803,-0.0902 -0.36006,-0.21269 -0.36006,-0.27213 0,-0.0594 -0.44236,-0.23952 -0.98301,-0.40017 -0.54066,-0.16066 -1.17962,-0.32883 -1.41992,-0.37372 -0.24029,-0.0449 -0.7318,-0.11818 -1.09224,-0.16287 -0.36043,-0.0447 -1.11408,-0.14488 -1.67476,-0.22265 -0.56069,-0.0778 -3.84835,-0.15793 -7.30593,-0.17815 -3.45758,-0.0202 -6.331275,-0.0815 -6.385985,-0.13629 -0.05471,-0.0547 -0.05781,-0.16694 -0.0069,-0.24932 0.06098,-0.0987 2.234735,-0.15251 6.370395,-0.15777 3.45281,-0.004 6.44868,-0.045 6.65749,-0.0902 0.20882,-0.0452 0.5435,-0.13708 0.74374,-0.20416 0.20025,-0.0671 0.53222,-0.15826 0.73772,-0.20264 0.20549,-0.0444 0.52681,-0.21354 0.71403,-0.37592 0.18722,-0.16238 0.43754,-0.29523 0.55627,-0.29523 0.11873,0 0.35807,0.14745 0.53187,0.32767 0.17379,0.18022 0.50681,0.47513 0.74006,0.65535 0.23324,0.18022 0.53391,0.32767 0.66815,0.32767 0.13424,0 0.27841,0.0895 0.32037,0.19885 0.042,0.10936 0.59684,0.3715 1.23304,0.58252 0.6362,0.21103 1.25954,0.38368 1.38519,0.38368 0.12566,0 0.33167,-0.1032 0.4578,-0.22933 0.12613,-0.12614 0.90084,-0.4577 1.72158,-0.7368 0.82073,-0.27911 2.01651,-0.57538 2.65729,-0.65838 0.64078,-0.083 1.61662,-0.20824 2.42147,-0.13286 1.24205,0.11633 2.28335,0.47582 3.63376,0.89537 0.42544,0.13218 1.41517,-0.24924 1.76352,-0.54097 1.59854,-1.33875 1.66357,-2.2395 1.84403,-2.18312 0.11769,0.0367 0.235,0.92542 -0.89444,2.27349 -0.48715,0.58144 -1.46329,1.34931 -1.19975,1.64918 0.16393,0.18654 1.57175,1.41459 2.43973,2.01316 1.95268,1.34655 3.61448,1.55381 3.09343,1.65083 z m -12.59207,-3.30118 c 0.84102,0.0242 2.40771,-0.0274 3.48153,-0.1147 1.07382,-0.0873 2.01351,-0.19654 2.08819,-0.2427 0.0747,-0.0462 -0.19788,-0.27448 -0.6057,-0.50739 -0.52032,-0.29717 -1.09926,-0.47163 -1.94102,-0.58492 -0.65975,-0.0888 -1.88834,-0.12701 -2.73021,-0.0849 -0.99625,0.0498 -1.88659,0.19006 -2.55009,0.40177 -0.56068,0.17891 -1.19964,0.39839 -1.41991,0.48774 -0.22027,0.0894 -0.40049,0.20729 -0.40049,0.26207 0,0.0548 0.34406,0.13712 0.76457,0.18298 0.42051,0.0459 0.99394,0.0997 1.27428,0.1197 0.28034,0.02 1.19782,0.0562 2.03885,0.0804 z"
           transform="translate(0,49.955152)" /><path
           id="path80"
           style="fill:#4b4b4b;fill-opacity:1;stroke-width:0.264583"
           d="m 134.82885,168.11294 c -0.30484,1.24062 -0.70797,2.8089 -1.16228,4.66433 -0.8618,3.51968 -1.57347,4.20172 -2.41951,4.09895 -0.48009,-0.0583 -0.3289,-1.01409 -0.20037,-1.56501 0.0498,-0.21347 -0.0528,-0.29333 -0.22714,-0.15968 -0.64092,0.49131 -2.03184,1.84097 -2.45458,4.53592 -0.48457,3.08906 2.76903,6.1252 7.04143,6.1252 4.27241,0 7.52548,-3.03614 7.04092,-6.1252 -0.42288,-2.69584 -1.81577,-4.0455 -2.45698,-4.5364 -0.1742,-0.13337 -0.26658,-0.0562 -0.20304,0.15425 0.16965,0.56181 0.39913,1.55818 -0.0853,1.61701 -0.84604,0.10277 -2.50837,-0.57757 -3.37017,-4.09725 -0.45053,-1.84002 -0.65626,-3.40905 -0.76129,-4.65643 -0.13003,-1.54427 -0.37191,-1.56044 -0.74165,-0.0557 z m -3.01808,14.30819 c 0.33054,0.002 0.69761,0.0824 0.95343,0.1664 0.55729,0.18298 1.35004,0.68848 1.19372,1.21853 -0.158,0.53573 -1.0706,0.3986 -1.63297,0.21135 -0.58782,-0.19572 -1.50053,-0.75913 -1.24851,-1.29036 0.10951,-0.23084 0.40378,-0.30775 0.73433,-0.30592 z m 7.34145,0.44953 c 0.25202,0.53123 -0.40725,0.95103 -0.99507,1.14675 -0.56237,0.18725 -1.47498,0.32438 -1.63298,-0.21135 -0.15632,-0.53005 0.63644,-0.94263 1.19373,-1.12561 0.49063,-0.1611 1.21236,-0.27768 1.43432,0.19021 z m -4.49615,1.50487 c 0.18397,0.002 0.36563,0.26442 0.32763,0.44442 -0.026,0.12298 -0.20485,0.21397 -0.32763,0.18707 -0.13101,-0.0287 -0.23609,-0.19354 -0.23409,-0.32763 0.002,-0.12783 0.10624,-0.30486 0.23409,-0.30386 z m 1.16995,0 c 0.12785,-0.001 0.23131,0.17603 0.23358,0.30386 0.002,0.13409 -0.10257,0.29892 -0.23358,0.32763 -0.12278,0.0269 -0.30162,-0.0641 -0.32762,-0.18707 -0.038,-0.18 0.14365,-0.44252 0.32762,-0.44442 z"
           transform="matrix(0.69208699,0,0,0.69208699,44.9903,40.803454)"
           sodipodi:nodetypes="csscssscsscssssssssssscssccccscc"
           inkscape:original-d="m 135.40641,165.36739 c -0.10663,1.06158 -0.81785,3.64438 -1.73984,7.40988 -0.8618,3.51968 -1.57347,4.20172 -2.41951,4.09895 -0.67693,-0.0822 -0.0988,-1.94869 -0.0988,-1.94869 0,0 -2.22773,1.21822 -2.78329,4.75992 -0.48457,3.08906 2.76903,6.1252 7.04143,6.1252 4.27241,0 7.52548,-3.03614 7.04092,-6.1252 -0.55556,-3.5417 -2.78536,-4.75992 -2.78536,-4.75992 0,0 0.71693,1.91258 0.04,1.99478 -0.84604,0.10277 -2.50837,-0.57757 -3.37017,-4.09725 -0.92199,-3.7655 -0.81874,-6.39609 -0.92538,-7.45767 z m -3.59564,17.05374 c 0.33054,0.002 0.69761,0.0824 0.95343,0.1664 0.55729,0.18298 1.35004,0.68848 1.19372,1.21853 -0.158,0.53573 -1.0706,0.3986 -1.63297,0.21135 -0.58782,-0.19572 -1.50053,-0.75913 -1.24851,-1.29036 0.10951,-0.23084 0.40378,-0.30775 0.73433,-0.30592 z m 7.34145,0.44953 c 0.25202,0.53123 -0.40725,0.95103 -0.99507,1.14675 -0.56237,0.18725 -1.47498,0.32438 -1.63298,-0.21135 -0.15632,-0.53005 0.63644,-0.94263 1.19373,-1.12561 0.49063,-0.1611 1.21236,-0.27768 1.43432,0.19021 z m -4.49615,1.50487 c 0.18397,0.002 0.36563,0.26442 0.32763,0.44442 -0.026,0.12298 -0.20485,0.21397 -0.32763,0.18707 -0.13101,-0.0287 -0.23609,-0.19354 -0.23409,-0.32763 0.002,-0.12783 0.10624,-0.30486 0.23409,-0.30386 z m 1.16995,0 c 0.12785,-0.001 0.23131,0.17603 0.23358,0.30386 0.002,0.13409 -0.10257,0.29892 -0.23358,0.32763 -0.12278,0.0269 -0.30162,-0.0641 -0.32762,-0.18707 -0.038,-0.18 0.14365,-0.44252 0.32762,-0.44442 z"
           inkscape:path-effect="#path-effect83" /></g></g></g></svg>
