<?xml version="1.0" encoding="UTF-8" standalone="no"?>
<!-- Created with Inkscape (http://www.inkscape.org/) -->

<svg
   width="88.587952mm"
   height="13.874849mm"
   viewBox="0 0 88.587952 13.874849"
   version="1.1"
   id="svg1"
   xml:space="preserve"
   inkscape:version="1.4.3 (0d15f75042, 2025-12-25)"
   sodipodi:docname="skonguistuff.svg"
   inkscape:export-filename="..\Github\skonguistuff.png"
   inkscape:export-xdpi="400"
   inkscape:export-ydpi="400"
   xmlns:inkscape="http://www.inkscape.org/namespaces/inkscape"
   xmlns:sodipodi="http://sodipodi.sourceforge.net/DTD/sodipodi-0.dtd"
   xmlns="http://www.w3.org/2000/svg"
   xmlns:svg="http://www.w3.org/2000/svg"><sodipodi:namedview
     id="namedview1"
     pagecolor="#ffffff"
     bordercolor="#000000"
     borderopacity="0.25"
     inkscape:showpageshadow="2"
     inkscape:pageopacity="0.0"
     inkscape:pagecheckerboard="0"
     inkscape:deskcolor="#d1d1d1"
     inkscape:document-units="mm"
     inkscape:zoom="1"
     inkscape:cx="331.99999"
     inkscape:cy="741.99998"
     inkscape:window-width="1920"
     inkscape:window-height="1014"
     inkscape:window-x="0"
     inkscape:window-y="0"
     inkscape:window-maximized="1"
     inkscape:current-layer="layer1"
     showgrid="false"
     showguides="true"><inkscape:page
       x="0"
       y="-5.8194181e-22"
       width="88.587952"
       height="13.874848"
       id="page2"
       margin="0"
       bleed="0" /></sodipodi:namedview><defs
     id="defs1"><inkscape:path-effect
       effect="fillet_chamfer"
       id="path-effect99"
       is_visible="true"
       lpeversion="1"
       nodesatellites_param="F,0,0,1,0,0,0,1 @ F,0,0,1,0,0,0,1 @ F,0,0,1,0,0,0,1 @ F,0,0,1,0,0,0,1 @ F,0,0,1,0,0,0,1 @ F,0,0,1,0,0,0,1 @ F,0,0,1,0,0,0,1 @ F,0,0,1,0,0,0,1 @ F,0,0,1,0,0,0,1 @ F,0,0,1,0,0,0,1 @ F,0,0,1,0,0,0,1 @ F,0,0,1,0,0,0,1 @ F,0,0,1,0,0,0,1 @ F,0,0,1,0,0,0,1 @ F,0,0,1,0,0,0,1 @ F,0,0,1,0,0,0,1 @ F,0,0,1,0,0,0,1 @ F,0,0,1,0,0,0,1 @ F,0,0,1,0,0,0,1 @ F,0,0,1,0,0,0,1 @ F,0,0,1,0,0,0,1 @ F,0,0,1,0,0,0,1 | F,0,0,1,0,0,0,1 @ F,0,0,1,0,0,0,1 @ F,0,0,1,0,0,0,1 @ F,0,0,1,0,0,0,1"
       radius="0"
       unit="px"
       method="auto"
       mode="F"
       chamfer_steps="1"
       flexible="false"
       use_knot_distance="true"
       apply_no_radius="true"
       apply_with_radius="true"
       only_selected="false"
       hide_knots="false" /><filter
       inkscape:collect="always"
       style="color-interpolation-filters:sRGB"
       id="filter98"
       x="-0.026678918"
       y="-0.23901226"
       width="1.0533578"
       height="1.4780245"><feGaussianBlur
         inkscape:collect="always"
         stdDeviation="0.93487964"
         id="feGaussianBlur98" /></filter></defs><g
     inkscape:label="Layer 1"
     inkscape:groupmode="layer"
     id="layer1"
     transform="translate(-7.6216057,-175.95115)"><g
       id="g99"
       transform="translate(-28.524374,0.99024035)"
       inkscape:export-filename="middamsel.svg"
       inkscape:export-xdpi="400"
       inkscape:export-ydpi="400"><g
         id="g98"
         style="opacity:0.516908;mix-blend-mode:normal;fill:#4c4c4c;fill-opacity:1;stroke:none;filter:url(#filter98)"
         transform="translate(-84.402083,45.508333)"><g
           id="g97"
           style="fill:#4c4c4c;fill-opacity:1;stroke:none"><path
             style="fill:#4c4c4c;fill-opacity:1;stroke:none"
             d="m 170.06031,139.69463 c 0.4709,-0.18311 1.51077,-0.96555 1.61055,-1.16197 0.13361,-0.26298 0.13026,-0.35428 0.0149,-0.41262 -1.41692,-0.71655 -2.10391,-2.54844 -2.19051,-3.0846 -0.20155,-1.24785 0.87327,0.57402 1.3995,1.091 0.22154,0.21765 0.52286,0.46906 1.11921,0.58113 0.57667,0.10837 1.20954,0.1327 1.64176,0.0631 0.38685,-0.0623 0.87772,-0.18052 1.09083,-0.2628 0.21312,-0.0823 0.93637,-0.27994 1.60724,-0.43927 0.67087,-0.15933 1.77746,-0.33495 2.4591,-0.39025 0.7266,-0.059 1.75722,-0.0316 2.49115,0.066 0.68851,0.0916 1.73402,0.33003 2.32336,0.5298 0.58935,0.19976 1.41895,0.53835 1.84357,0.75241 l 0.77203,0.38921 1.23959,-0.40369 c 0.68178,-0.22203 1.2751,-0.49621 1.31849,-0.60928 0.0434,-0.11308 0.12873,-0.17479 0.18963,-0.13715 0.0609,0.0376 0.41603,-0.13377 0.78916,-0.38092 0.37313,-0.24714 0.74471,-0.57323 0.82573,-0.72462 0.081,-0.15139 0.2714,-0.27526 0.42305,-0.27526 0.15166,0 0.38025,0.10451 0.50798,0.23224 0.12774,0.12774 0.57478,0.37004 0.99342,0.53845 0.72369,0.29112 1.09233,0.31017 7.48474,0.38669 3.69796,0.0443 6.77262,0.12964 6.83257,0.18972 0.06,0.0601 0.0599,0.15837 -1.3e-4,0.21844 -0.06,0.0601 -2.97084,0.12809 -6.46849,0.15115 -5.43701,0.0358 -6.65506,0.0843 -8.3982,0.33405 -1.12137,0.16067 -2.47539,0.42137 -3.00895,0.57933 -0.57387,0.1699 -1.15382,0.45883 -1.41991,0.7074 -0.2474,0.2311 -0.44981,0.52496 -0.44981,0.65302 0,0.12806 -0.0834,0.23284 -0.18527,0.23284 -0.10189,0 -0.4302,-0.2019 -0.72957,-0.44866 -0.53273,-0.43913 -0.56052,-0.44507 -1.30746,-0.27945 -0.41974,0.0931 -1.74617,0.25684 -2.94764,0.36394 -1.62286,0.14467 -2.76481,0.1594 -4.44177,0.0573 -1.24151,-0.0756 -2.51943,-0.17125 -2.83982,-0.21257 -0.41683,-0.0538 -0.69085,-9.2e-4 -0.96331,0.18575 -0.20943,0.14349 -0.76647,0.52284 -1.23787,0.84301 -0.4714,0.32016 -0.86646,0.53605 -0.90652,0.57975 -0.0401,0.0437 -0.69793,0.40562 -1.16612,0.54429 -0.52093,0.1543 -0.30464,0.0424 -0.35029,-0.37705 -0.051,-0.46853 -0.17385,-0.58901 0.0341,-0.66986 z m 9.39589,-1.63277 c 0.72088,0.007 2.21554,-0.0425 3.32147,-0.10991 1.10593,-0.0674 2.05072,-0.16249 2.09953,-0.2113 0.0488,-0.0488 0.0481,-0.12935 -0.002,-0.17898 -0.0496,-0.0496 -0.66675,-0.28233 -1.37137,-0.51709 -0.97374,-0.32444 -1.66548,-0.44723 -2.88307,-0.5118 -0.8957,-0.0475 -2.1305,-0.0137 -2.80082,0.0767 -0.82242,0.11092 -1.38169,0.2771 -1.7811,0.52923 -0.32023,0.20215 -0.66217,0.36755 -0.75988,0.36755 -0.11418,0 -0.12743,0.0502 -0.0371,0.14058 0.0773,0.0773 0.76216,0.19948 1.52185,0.27146 0.7597,0.072 1.97108,0.13658 2.69196,0.14354 z"
             id="path44"
             sodipodi:nodetypes="ssssssssscssscssssssssssssssssssssssssssssssscsssssssss" /><path
             id="path47"
             style="fill:#4c4c4c;fill-opacity:1;stroke:none;stroke-width:6.35001;paint-order:stroke markers fill"
             d="m 165.16751,131.69633 c -0.54666,-0.007 -1.12321,0.51466 -1.12321,0.51466 0,0 -1.22758,-0.005 -1.98279,0.95315 -1.19951,1.52058 -2.23683,3.76487 -2.3855,5.49183 -0.0344,0.40031 0.69374,0.28145 0.66385,0.67947 -0.0381,0.50684 -0.0804,1.00982 -0.14708,1.50363 -0.0285,0.21167 0.0968,0.3032 0.28687,0.20552 l 3.25204,-1.67158 c 0,0 -0.54942,-0.54461 -0.68852,-1.25396 -0.0662,-0.3375 -0.2069,-1.15866 -0.2069,-1.15866 0,0 1.42898,-0.42015 1.78215,-0.90028 0.24356,-0.33113 0.4018,-0.81595 0.50456,-1.29604 0.0255,-0.11899 0.0567,-0.22472 0.0928,-0.31852 -0.0523,0.74418 -0.17699,1.54087 -0.46388,1.92613 -0.36209,0.48617 -1.63716,0.76468 -1.63716,0.76468 0.21033,0.78669 0.56335,2.3797 1.8924,2.45468 0.58331,0.0329 1.03563,-0.35488 1.38399,-0.79772 l 2.77981,2.09409 c 0.23794,0.17921 0.39567,0.0854 0.36096,-0.21038 -0.0588,-0.50131 -0.11217,-1.07708 -0.17908,-1.69 -0.0457,-0.41897 0.54736,-0.21028 0.48299,-0.65202 -0.3918,-2.69008 -1.88646,-6.22689 -4.55953,-6.62999 -0.0359,-0.006 -0.0725,-0.008 -0.10882,-0.008 z m 1.69962,4.21061 c -0.17072,0.23205 -0.45675,0.44992 -0.75281,0.47968 -0.27996,0.0281 -0.82547,-0.20547 -0.78789,-0.30286 0.0775,-0.20088 0.39609,-0.55691 0.7071,-0.58776 0.3695,-0.0367 0.63578,0.14402 0.8336,0.41094 z"
             sodipodi:nodetypes="ccccscccscsscccsccsscccccassc" /><path
             style="fill:#4c4c4c;fill-opacity:1;stroke:none"
             d="m 159.62377,139.69463 c -0.4709,-0.18311 -1.51077,-0.96555 -1.61055,-1.16197 -0.13361,-0.26298 -0.13026,-0.35428 -0.0149,-0.41262 1.41692,-0.71655 2.10391,-2.54844 2.19051,-3.0846 0.20155,-1.24785 -0.87327,0.57402 -1.3995,1.091 -0.22154,0.21765 -0.52286,0.46906 -1.11921,0.58113 -0.57667,0.10837 -1.20954,0.1327 -1.64176,0.0631 -0.38685,-0.0623 -0.87772,-0.18052 -1.09083,-0.2628 -0.21312,-0.0823 -0.93637,-0.27994 -1.60724,-0.43927 -0.67087,-0.15933 -1.77746,-0.33495 -2.4591,-0.39025 -0.7266,-0.059 -1.75722,-0.0316 -2.49115,0.066 -0.68851,0.0916 -1.73402,0.33003 -2.32336,0.5298 -0.58935,0.19976 -1.41895,0.53835 -1.84357,0.75241 l -0.77203,0.38921 -1.23959,-0.40369 c -0.68178,-0.22203 -1.2751,-0.49621 -1.31849,-0.60928 -0.0434,-0.11308 -0.12873,-0.17479 -0.18963,-0.13715 -0.0609,0.0376 -0.41603,-0.13377 -0.78916,-0.38092 -0.37313,-0.24714 -0.74471,-0.57323 -0.82573,-0.72462 -0.081,-0.15139 -0.2714,-0.27526 -0.42305,-0.27526 -0.15166,0 -0.38025,0.10451 -0.50798,0.23224 -0.12774,0.12774 -0.57478,0.37004 -0.99342,0.53845 -0.72369,0.29112 -1.09233,0.31017 -7.48474,0.38669 -3.69796,0.0443 -6.77262,0.12964 -6.83257,0.18972 -0.06,0.0601 -0.0599,0.15837 1.3e-4,0.21844 0.06,0.0601 2.97084,0.12809 6.46849,0.15115 5.43701,0.0358 6.65506,0.0843 8.3982,0.33405 1.12137,0.16067 2.47539,0.42137 3.00895,0.57933 0.57387,0.1699 1.15382,0.45883 1.41991,0.7074 0.2474,0.2311 0.44981,0.52496 0.44981,0.65302 0,0.12806 0.0834,0.23284 0.18527,0.23284 0.10189,0 0.4302,-0.2019 0.72957,-0.44866 0.53273,-0.43913 0.56052,-0.44507 1.30746,-0.27945 0.41974,0.0931 1.74617,0.25684 2.94764,0.36394 1.62286,0.14467 2.76481,0.1594 4.44177,0.0573 1.24151,-0.0756 2.51943,-0.17125 2.83982,-0.21257 0.41683,-0.0538 0.69085,-9.2e-4 0.96331,0.18575 0.20943,0.14349 0.76647,0.52284 1.23787,0.84301 0.4714,0.32016 0.86646,0.53605 0.90652,0.57975 0.0401,0.0437 0.69793,0.40562 1.16612,0.54429 0.52093,0.1543 0.30464,0.0424 0.35029,-0.37705 0.051,-0.46853 0.17385,-0.58901 -0.0341,-0.66986 z m -9.39589,-1.63277 c -0.72088,0.007 -2.21554,-0.0425 -3.32147,-0.10991 -1.10593,-0.0674 -2.05072,-0.16249 -2.09953,-0.2113 -0.0488,-0.0488 -0.0481,-0.12935 0.002,-0.17898 0.0496,-0.0496 0.66675,-0.28233 1.37137,-0.51709 0.97374,-0.32444 1.66548,-0.44723 2.88307,-0.5118 0.8957,-0.0475 2.1305,-0.0137 2.80082,0.0767 0.82242,0.11092 1.38169,0.2771 1.7811,0.52923 0.32023,0.20215 0.66217,0.36755 0.75988,0.36755 0.11418,0 0.12743,0.0502 0.0371,0.14058 -0.0773,0.0773 -0.76216,0.19948 -1.52185,0.27146 -0.7597,0.072 -1.97108,0.13658 -2.69196,0.14354 z"
             id="path96"
             sodipodi:nodetypes="ssssssssscssscssssssssssssssssssssssssssssssscsssssssss" /></g><path
           style="opacity:1;fill:#4c4c4c;fill-opacity:1;stroke:none;stroke-width:6.35;stroke-opacity:1;paint-order:stroke markers fill"
           d="m 165.88548,135.99583 c -0.0149,-0.11442 0.10807,-0.25749 0.22324,-0.26458 0.10122,-0.006 0.2174,0.10546 0.22324,0.2067 0.006,0.10147 -0.0976,0.21876 -0.19843,0.23151 -0.10013,0.0127 -0.23501,-0.0735 -0.24805,-0.17363 z"
           id="path97"
           sodipodi:nodetypes="sssss" /></g><g
         id="g42"
         transform="translate(-84.402083,45.508333)"><g
           id="g39"><path
             style="fill:#4b4b4b;fill-opacity:1;stroke:none"
             d="m 170.06031,139.69463 c 0.4709,-0.18311 1.51077,-0.96555 1.61055,-1.16197 0.13361,-0.26298 0.13026,-0.35428 0.0149,-0.41262 -1.41692,-0.71655 -2.10391,-2.54844 -2.19051,-3.0846 -0.20155,-1.24785 0.87327,0.57402 1.3995,1.091 0.22154,0.21765 0.52286,0.46906 1.11921,0.58113 0.57667,0.10837 1.20954,0.1327 1.64176,0.0631 0.38685,-0.0623 0.87772,-0.18052 1.09083,-0.2628 0.21312,-0.0823 0.93637,-0.27994 1.60724,-0.43927 0.67087,-0.15933 1.77746,-0.33495 2.4591,-0.39025 0.7266,-0.059 1.75722,-0.0316 2.49115,0.066 0.68851,0.0916 1.73402,0.33003 2.32336,0.5298 0.58935,0.19976 1.41895,0.53835 1.84357,0.75241 l 0.77203,0.38921 1.23959,-0.40369 c 0.68178,-0.22203 1.2751,-0.49621 1.31849,-0.60928 0.0434,-0.11308 0.12873,-0.17479 0.18963,-0.13715 0.0609,0.0376 0.41603,-0.13377 0.78916,-0.38092 0.37313,-0.24714 0.74471,-0.57323 0.82573,-0.72462 0.081,-0.15139 0.2714,-0.27526 0.42305,-0.27526 0.15166,0 0.38025,0.10451 0.50798,0.23224 0.12774,0.12774 0.57478,0.37004 0.99342,0.53845 0.72369,0.29112 1.09233,0.31017 7.48474,0.38669 3.69796,0.0443 6.77262,0.12964 6.83257,0.18972 0.06,0.0601 0.0599,0.15837 -1.3e-4,0.21844 -0.06,0.0601 -2.97084,0.12809 -6.46849,0.15115 -5.43701,0.0358 -6.65506,0.0843 -8.3982,0.33405 -1.12137,0.16067 -2.47539,0.42137 -3.00895,0.57933 -0.57387,0.1699 -1.15382,0.45883 -1.41991,0.7074 -0.2474,0.2311 -0.44981,0.52496 -0.44981,0.65302 0,0.12806 -0.0834,0.23284 -0.18527,0.23284 -0.10189,0 -0.4302,-0.2019 -0.72957,-0.44866 -0.53273,-0.43913 -0.56052,-0.44507 -1.30746,-0.27945 -0.41974,0.0931 -1.74617,0.25684 -2.94764,0.36394 -1.62286,0.14467 -2.76481,0.1594 -4.44177,0.0573 -1.24151,-0.0756 -2.51943,-0.17125 -2.83982,-0.21257 -0.41683,-0.0538 -0.69085,-9.2e-4 -0.96331,0.18575 -0.20943,0.14349 -0.76647,0.52284 -1.23787,0.84301 -0.4714,0.32016 -0.86646,0.53605 -0.90652,0.57975 -0.0401,0.0437 -0.69793,0.40562 -1.16612,0.54429 -0.52093,0.1543 -0.30464,0.0424 -0.35029,-0.37705 -0.051,-0.46853 -0.17385,-0.58901 0.0341,-0.66986 z m 9.39589,-1.63277 c 0.72088,0.007 2.21554,-0.0425 3.32147,-0.10991 1.10593,-0.0674 2.05072,-0.16249 2.09953,-0.2113 0.0488,-0.0488 0.0481,-0.12935 -0.002,-0.17898 -0.0496,-0.0496 -0.66675,-0.28233 -1.37137,-0.51709 -0.97374,-0.32444 -1.66548,-0.44723 -2.88307,-0.5118 -0.8957,-0.0475 -2.1305,-0.0137 -2.80082,0.0767 -0.82242,0.11092 -1.38169,0.2771 -1.7811,0.52923 -0.32023,0.20215 -0.66217,0.36755 -0.75988,0.36755 -0.11418,0 -0.12743,0.0502 -0.0371,0.14058 0.0773,0.0773 0.76216,0.19948 1.52185,0.27146 0.7597,0.072 1.97108,0.13658 2.69196,0.14354 z"
             id="path51-1"
             sodipodi:nodetypes="ssssssssscssscssssssssssssssssssssssssssssssscsssssssss" /><path
             id="path2"
             style="fill:#4c4c4c;fill-opacity:1;stroke:none;stroke-width:6.35001;paint-order:stroke markers fill"
             d="m 165.16751,131.69633 c -0.54666,-0.007 -1.12321,0.51466 -1.12321,0.51466 0,0 -1.22758,-0.005 -1.98279,0.95315 -1.19951,1.52058 -2.23683,3.76487 -2.3855,5.49183 -0.0344,0.40031 0.69374,0.28145 0.66385,0.67947 -0.0381,0.50684 -0.0804,1.00982 -0.14708,1.50363 -0.0285,0.21167 0.0968,0.3032 0.28687,0.20552 l 3.25204,-1.67158 c 0,0 -0.54942,-0.54461 -0.68852,-1.25396 -0.0662,-0.3375 -0.2069,-1.15866 -0.2069,-1.15866 0,0 1.42898,-0.42015 1.78215,-0.90028 0.39693,-0.53964 0.46775,-1.27779 0.59736,-1.61456 -0.0523,0.74418 -0.17699,1.54087 -0.46388,1.92613 -0.36209,0.48617 -1.63716,0.76468 -1.63716,0.76468 0.21033,0.78669 0.56335,2.3797 1.8924,2.45468 0.58331,0.0329 1.03563,-0.35488 1.38399,-0.79772 l 2.77981,2.09409 c 0.23794,0.17921 0.39567,0.0854 0.36096,-0.21038 -0.0588,-0.50131 -0.11217,-1.07708 -0.17908,-1.69 -0.0457,-0.41897 0.54736,-0.21028 0.48299,-0.65202 -0.3918,-2.69008 -1.88646,-6.22689 -4.55953,-6.62999 -0.0359,-0.006 -0.0725,-0.008 -0.10882,-0.008 z m 1.69962,4.21061 c -0.17072,0.23205 -0.45675,0.44992 -0.75281,0.47968 -0.27996,0.0281 -0.82547,-0.20547 -0.78789,-0.30286 0.0775,-0.20088 0.39609,-0.55691 0.7071,-0.58776 0.3695,-0.0367 0.63578,0.14402 0.8336,0.41094 z"
             sodipodi:nodetypes="ccccscccscscccsccsscccccassc"
             inkscape:path-effect="#path-effect99"
             inkscape:original-d="m 165.16751,131.69633 c -0.54666,-0.007 -1.12321,0.51466 -1.12321,0.51466 0,0 -1.22758,-0.005 -1.98279,0.95315 -1.19951,1.52058 -2.23683,3.76487 -2.3855,5.49183 -0.0344,0.40031 0.69374,0.28145 0.66385,0.67947 -0.0381,0.50684 -0.0804,1.00982 -0.14708,1.50363 -0.0285,0.21167 0.0968,0.3032 0.28687,0.20552 l 3.25204,-1.67158 c 0,0 -0.54942,-0.54461 -0.68852,-1.25396 -0.0662,-0.3375 -0.2069,-1.15866 -0.2069,-1.15866 0,0 1.42898,-0.42015 1.78215,-0.90028 0.39693,-0.53964 0.46775,-1.27779 0.59736,-1.61456 -0.0523,0.74418 -0.17699,1.54087 -0.46388,1.92613 -0.36209,0.48617 -1.63716,0.76468 -1.63716,0.76468 0.21033,0.78669 0.56335,2.3797 1.8924,2.45468 0.58331,0.0329 1.03563,-0.35488 1.38399,-0.79772 l 2.77981,2.09409 c 0.23794,0.17921 0.39567,0.0854 0.36096,-0.21038 -0.0588,-0.50131 -0.11217,-1.07708 -0.17908,-1.69 -0.0457,-0.41897 0.54736,-0.21028 0.48299,-0.65202 -0.3918,-2.69008 -1.88646,-6.22689 -4.55953,-6.62999 -0.0359,-0.006 -0.0725,-0.008 -0.10882,-0.008 z m 1.69962,4.21061 c -0.17072,0.23205 -0.45675,0.44992 -0.75281,0.47968 -0.27996,0.0281 -0.82547,-0.20547 -0.78789,-0.30286 0.0775,-0.20088 0.39609,-0.55691 0.7071,-0.58776 0.3695,-0.0367 0.63578,0.14402 0.8336,0.41094 z" /><path
             style="fill:#4b4b4b;fill-opacity:1;stroke:none"
             d="m 159.62377,139.69463 c -0.4709,-0.18311 -1.51077,-0.96555 -1.61055,-1.16197 -0.13361,-0.26298 -0.13026,-0.35428 -0.0149,-0.41262 1.41692,-0.71655 2.10391,-2.54844 2.19051,-3.0846 0.20155,-1.24785 -0.87327,0.57402 -1.3995,1.091 -0.22154,0.21765 -0.52286,0.46906 -1.11921,0.58113 -0.57667,0.10837 -1.20954,0.1327 -1.64176,0.0631 -0.38685,-0.0623 -0.87772,-0.18052 -1.09083,-0.2628 -0.21312,-0.0823 -0.93637,-0.27994 -1.60724,-0.43927 -0.67087,-0.15933 -1.77746,-0.33495 -2.4591,-0.39025 -0.7266,-0.059 -1.75722,-0.0316 -2.49115,0.066 -0.68851,0.0916 -1.73402,0.33003 -2.32336,0.5298 -0.58935,0.19976 -1.41895,0.53835 -1.84357,0.75241 l -0.77203,0.38921 -1.23959,-0.40369 c -0.68178,-0.22203 -1.2751,-0.49621 -1.31849,-0.60928 -0.0434,-0.11308 -0.12873,-0.17479 -0.18963,-0.13715 -0.0609,0.0376 -0.41603,-0.13377 -0.78916,-0.38092 -0.37313,-0.24714 -0.74471,-0.57323 -0.82573,-0.72462 -0.081,-0.15139 -0.2714,-0.27526 -0.42305,-0.27526 -0.15166,0 -0.38025,0.10451 -0.50798,0.23224 -0.12774,0.12774 -0.57478,0.37004 -0.99342,0.53845 -0.72369,0.29112 -1.09233,0.31017 -7.48474,0.38669 -3.69796,0.0443 -6.77262,0.12964 -6.83257,0.18972 -0.06,0.0601 -0.0599,0.15837 1.3e-4,0.21844 0.06,0.0601 2.97084,0.12809 6.46849,0.15115 5.43701,0.0358 6.65506,0.0843 8.3982,0.33405 1.12137,0.16067 2.47539,0.42137 3.00895,0.57933 0.57387,0.1699 1.15382,0.45883 1.41991,0.7074 0.2474,0.2311 0.44981,0.52496 0.44981,0.65302 0,0.12806 0.0834,0.23284 0.18527,0.23284 0.10189,0 0.4302,-0.2019 0.72957,-0.44866 0.53273,-0.43913 0.56052,-0.44507 1.30746,-0.27945 0.41974,0.0931 1.74617,0.25684 2.94764,0.36394 1.62286,0.14467 2.76481,0.1594 4.44177,0.0573 1.24151,-0.0756 2.51943,-0.17125 2.83982,-0.21257 0.41683,-0.0538 0.69085,-9.2e-4 0.96331,0.18575 0.20943,0.14349 0.76647,0.52284 1.23787,0.84301 0.4714,0.32016 0.86646,0.53605 0.90652,0.57975 0.0401,0.0437 0.69793,0.40562 1.16612,0.54429 0.52093,0.1543 0.30464,0.0424 0.35029,-0.37705 0.051,-0.46853 0.17385,-0.58901 -0.0341,-0.66986 z m -9.39589,-1.63277 c -0.72088,0.007 -2.21554,-0.0425 -3.32147,-0.10991 -1.10593,-0.0674 -2.05072,-0.16249 -2.09953,-0.2113 -0.0488,-0.0488 -0.0481,-0.12935 0.002,-0.17898 0.0496,-0.0496 0.66675,-0.28233 1.37137,-0.51709 0.97374,-0.32444 1.66548,-0.44723 2.88307,-0.5118 0.8957,-0.0475 2.1305,-0.0137 2.80082,0.0767 0.82242,0.11092 1.38169,0.2771 1.7811,0.52923 0.32023,0.20215 0.66217,0.36755 0.75988,0.36755 0.11418,0 0.12743,0.0502 0.0371,0.14058 -0.0773,0.0773 -0.76216,0.19948 -1.52185,0.27146 -0.7597,0.072 -1.97108,0.13658 -2.69196,0.14354 z"
             id="path39"
             sodipodi:nodetypes="ssssssssscssscssssssssssssssssssssssssssssssscsssssssss" /></g><path
           style="opacity:1;fill:#4c4c4c;fill-opacity:1;stroke:none;stroke-width:6.35;stroke-opacity:1;paint-order:stroke markers fill"
           d="m 165.88548,135.99583 c -0.0149,-0.11442 0.10807,-0.25749 0.22324,-0.26458 0.10122,-0.006 0.2174,0.10546 0.22324,0.2067 0.006,0.10147 -0.0976,0.21876 -0.19843,0.23151 -0.10013,0.0127 -0.23501,-0.0735 -0.24805,-0.17363 z"
           id="path42"
           sodipodi:nodetypes="sssss" /></g></g></g></svg>
