<?xml version="1.0" encoding="UTF-8" standalone="no"?>
<!-- Created with Inkscape (http://www.inkscape.org/) -->

<svg
   width="84.4151mm"
   height="13.659867mm"
   viewBox="0 0 84.4151 13.659867"
   version="1.1"
   id="svg1"
   xml:space="preserve"
   inkscape:version="1.4 (86a8ad7, 2024-10-11)"
   sodipodi:docname="skonguistuff.svg"
   inkscape:export-filename="..\Github\skonguistuff.png"
   inkscape:export-xdpi="400"
   inkscape:export-ydpi="400"
   xmlns:inkscape="http://www.inkscape.org/namespaces/inkscape"
   xmlns:sodipodi="http://sodipodi.sourceforge.net/DTD/sodipodi-0.dtd"
   xmlns="http://www.w3.org/2000/svg"
   xmlns:svg="http://www.w3.org/2000/svg"><sodipodi:namedview
     id="namedview1"
     pagecolor="#ffffff"
     bordercolor="#000000"
     borderopacity="0.25"
     inkscape:showpageshadow="2"
     inkscape:pageopacity="0.0"
     inkscape:pagecheckerboard="0"
     inkscape:deskcolor="#d1d1d1"
     inkscape:document-units="mm"
     inkscape:zoom="0.7071068"
     inkscape:cx="448.30569"
     inkscape:cy="263.04372"
     inkscape:window-width="1920"
     inkscape:window-height="1009"
     inkscape:window-x="-8"
     inkscape:window-y="-8"
     inkscape:window-maximized="1"
     inkscape:current-layer="layer1"
     showgrid="false"
     showguides="true"><inkscape:page
       x="0"
       y="5.6652714e-15"
       width="84.4151"
       height="13.659866"
       id="page2"
       margin="0"
       bleed="0" /></sodipodi:namedview><defs
     id="defs1"><inkscape:path-effect
       effect="mirror_symmetry"
       start_point="138.70314,117.49312"
       end_point="138.70314,124.21256"
       center_point="138.70314,120.85284"
       id="path-effect191"
       is_visible="true"
       lpeversion="1.2"
       lpesatellites=""
       mode="free"
       discard_orig_path="false"
       fuse_paths="false"
       oposite_fuse="false"
       split_items="false"
       split_open="false"
       link_styles="false" /><inkscape:path-effect
       effect="mirror_symmetry"
       start_point="138.70314,117.49312"
       end_point="138.70314,124.21256"
       center_point="138.70314,120.85284"
       id="path-effect7"
       is_visible="true"
       lpeversion="1.2"
       lpesatellites=""
       mode="free"
       discard_orig_path="false"
       fuse_paths="false"
       oposite_fuse="false"
       split_items="false"
       split_open="false"
       link_styles="false" /><filter
       inkscape:collect="always"
       style="color-interpolation-filters:sRGB"
       id="filter194"
       x="-0.026805179"
       y="-0.2293342"
       width="1.0536104"
       height="1.4586684"><feGaussianBlur
         inkscape:collect="always"
         stdDeviation="0.8948446"
         id="feGaussianBlur194" /></filter></defs><g
     inkscape:label="Layer 1"
     inkscape:groupmode="layer"
     id="layer1"
     transform="translate(-96.495589,-125.97445)"><g
       id="g181"><path
         style="fill:#4b4b4b;fill-opacity:1;stroke:none"
         d="m 137.27624,119.86659 c -0.26988,0.0502 -1.2029,-0.20065 -1.77808,-0.39504 -0.97239,-0.32863 -1.97036,-0.73324 -2.79481,-1.29258 -1.37658,-0.93394 -1.74271,-1.11479 -2.24799,-1.03119 -0.30263,0.0501 -1.18014,0.0909 -2.42165,0.1621 -1.6604,0.0953 -2.85419,0.0765 -4.51459,-0.0709 -1.24151,-0.11022 -2.56807,-0.27282 -2.9479,-0.36133 -0.66388,-0.1547 -0.71165,-0.14357 -1.23464,0.28752 -0.29923,0.24665 -0.62031,0.44845 -0.71352,0.44845 -0.0932,0 -0.21116,-0.16607 -0.2621,-0.36904 -0.0509,-0.20296 -0.25465,-0.44285 -0.45269,-0.53308 -0.19803,-0.0902 -0.36006,-0.21269 -0.36006,-0.27213 0,-0.0594 -0.44236,-0.23952 -0.98301,-0.40017 -0.54066,-0.16066 -1.17962,-0.32883 -1.41992,-0.37372 -0.24029,-0.0449 -0.7318,-0.11818 -1.09224,-0.16287 -0.36043,-0.0447 -1.11408,-0.14488 -1.67476,-0.22265 -0.56069,-0.0778 -3.84835,-0.15793 -7.30593,-0.17815 -3.45758,-0.0202 -6.331275,-0.0815 -6.385985,-0.13629 -0.05471,-0.0547 -0.05781,-0.16694 -0.0069,-0.24932 0.06098,-0.0987 2.234735,-0.15251 6.370395,-0.15777 3.45281,-0.004 6.44868,-0.045 6.65749,-0.0902 0.20882,-0.0452 0.5435,-0.13708 0.74374,-0.20416 0.20025,-0.0671 0.53222,-0.15826 0.73772,-0.20264 0.20549,-0.0444 0.52681,-0.21354 0.71403,-0.37592 0.18722,-0.16238 0.43754,-0.29523 0.55627,-0.29523 0.11873,0 0.35807,0.14745 0.53187,0.32767 0.17379,0.18022 0.50681,0.47513 0.74006,0.65535 0.23324,0.18022 0.53391,0.32767 0.66815,0.32767 0.13424,0 0.27841,0.0895 0.32037,0.19885 0.042,0.10936 0.59684,0.3715 1.23304,0.58252 0.6362,0.21103 1.25954,0.38368 1.38519,0.38368 0.12566,0 0.33167,-0.1032 0.4578,-0.22933 0.12613,-0.12614 0.90084,-0.4577 1.72158,-0.7368 0.82073,-0.27911 2.01651,-0.57538 2.65729,-0.65838 0.64078,-0.083 1.61662,-0.20824 2.42147,-0.13286 1.24205,0.11633 2.28335,0.47582 3.63376,0.89537 0.42544,0.13218 0.79032,-0.49571 1.05129,-0.86766 1.19758,-1.70686 1.02726,-2.59375 1.21617,-2.586 0.12318,0.005 0.4665,0.83306 -0.27554,2.42752 -0.32007,0.68771 -0.7421,1.92485 -0.47856,2.22472 0.16393,0.18654 1.57175,1.41459 2.43973,2.01316 1.95268,1.34655 3.61448,1.55381 3.09343,1.65083 z m -12.59207,-3.30118 c 0.84102,0.0242 2.40771,-0.0274 3.48153,-0.1147 1.07382,-0.0873 2.01351,-0.19654 2.08819,-0.2427 0.0747,-0.0462 -0.19788,-0.27448 -0.6057,-0.50739 -0.52032,-0.29717 -1.09926,-0.47163 -1.94102,-0.58492 -0.65975,-0.0888 -1.88834,-0.12701 -2.73021,-0.0849 -0.99625,0.0498 -1.88659,0.19006 -2.55009,0.40177 -0.56068,0.17891 -1.19964,0.39839 -1.41991,0.48774 -0.22027,0.0894 -0.40049,0.20729 -0.40049,0.26207 0,0.0548 0.34406,0.13712 0.76457,0.18298 0.42051,0.0459 0.99394,0.0997 1.27428,0.1197 0.28034,0.02 1.19782,0.0562 2.03885,0.0804 z m 15.44587,3.30118 c 0.26988,0.0502 1.2029,-0.20065 1.77808,-0.39504 0.97239,-0.32863 1.97036,-0.73324 2.79481,-1.29258 1.37658,-0.93394 1.74271,-1.11479 2.24799,-1.03119 0.30263,0.0501 1.18014,0.0909 2.42165,0.1621 1.6604,0.0953 2.85419,0.0765 4.51459,-0.0709 1.24151,-0.11022 2.56807,-0.27282 2.9479,-0.36133 0.66388,-0.1547 0.71165,-0.14357 1.23464,0.28752 0.29923,0.24665 0.62031,0.44845 0.71352,0.44845 0.0932,0 0.21116,-0.16607 0.2621,-0.36904 0.0509,-0.20296 0.25465,-0.44285 0.45269,-0.53308 0.19803,-0.0902 0.36006,-0.21269 0.36006,-0.27213 0,-0.0594 0.44236,-0.23952 0.98301,-0.40017 0.54066,-0.16066 1.17962,-0.32883 1.41992,-0.37372 0.24029,-0.0449 0.7318,-0.11818 1.09224,-0.16287 0.36043,-0.0447 1.11408,-0.14488 1.67476,-0.22265 0.56069,-0.0778 3.84835,-0.15793 7.30593,-0.17815 3.45758,-0.0202 6.33128,-0.0815 6.38599,-0.13629 0.0547,-0.0547 0.0578,-0.16694 0.007,-0.24932 -0.061,-0.0987 -2.23473,-0.15251 -6.37039,-0.15777 -3.45281,-0.004 -6.44868,-0.045 -6.65749,-0.0902 -0.20882,-0.0452 -0.5435,-0.13708 -0.74374,-0.20416 -0.20025,-0.0671 -0.53222,-0.15826 -0.73772,-0.20264 -0.20549,-0.0444 -0.52681,-0.21354 -0.71403,-0.37592 -0.18722,-0.16238 -0.43754,-0.29523 -0.55627,-0.29523 -0.11873,0 -0.35807,0.14745 -0.53187,0.32767 -0.17379,0.18022 -0.50681,0.47513 -0.74006,0.65535 -0.23324,0.18022 -0.53391,0.32767 -0.66815,0.32767 -0.13424,0 -0.27841,0.0895 -0.32037,0.19885 -0.042,0.10936 -0.59684,0.3715 -1.23304,0.58252 -0.6362,0.21103 -1.25954,0.38368 -1.38519,0.38368 -0.12566,0 -0.33167,-0.1032 -0.4578,-0.22933 -0.12613,-0.12614 -0.90084,-0.4577 -1.72158,-0.7368 -0.82073,-0.27911 -2.01651,-0.57538 -2.65729,-0.65838 -0.64078,-0.083 -1.61662,-0.20824 -2.42147,-0.13286 -1.24205,0.11633 -2.28335,0.47582 -3.63376,0.89537 -0.42544,0.13218 -0.79032,-0.49571 -1.05129,-0.86766 -1.19758,-1.70686 -1.02726,-2.59375 -1.21617,-2.586 -0.12318,0.005 -0.4665,0.83306 0.27554,2.42752 0.32007,0.68771 0.7421,1.92485 0.47856,2.22472 -0.16393,0.18654 -1.57175,1.41459 -2.43973,2.01316 -1.95268,1.34655 -3.61448,1.55381 -3.09343,1.65083 z m 12.59207,-3.30118 c -0.84102,0.0242 -2.40771,-0.0274 -3.48153,-0.1147 -1.07382,-0.0873 -2.01351,-0.19654 -2.08819,-0.2427 -0.0747,-0.0462 0.19788,-0.27448 0.6057,-0.50739 0.52032,-0.29717 1.09926,-0.47163 1.94102,-0.58492 0.65975,-0.0888 1.88834,-0.12701 2.73021,-0.0849 0.99625,0.0498 1.88659,0.19006 2.55009,0.40177 0.56068,0.17891 1.19964,0.39839 1.41991,0.48774 0.22027,0.0894 0.40049,0.20729 0.40049,0.26207 0,0.0548 -0.34406,0.13712 -0.76457,0.18298 -0.42051,0.0459 -0.99394,0.0997 -1.27428,0.1197 -0.28034,0.02 -1.19782,0.0562 -2.03885,0.0804 z"
         id="path5"
         sodipodi:nodetypes="cassssssscssssssscscsssssssscsssssassssssscsssssscscsccs"
         inkscape:path-effect="#path-effect7"
         inkscape:original-d="m 137.27624,119.86659 c -0.26988,0.0502 -1.2029,-0.20065 -1.77808,-0.39504 -0.97239,-0.32863 -1.97036,-0.73324 -2.79481,-1.29258 -1.37658,-0.93394 -1.74271,-1.11479 -2.24799,-1.03119 -0.30263,0.0501 -1.18014,0.0909 -2.42165,0.1621 -1.6604,0.0953 -2.85419,0.0765 -4.51459,-0.0709 -1.24151,-0.11022 -2.56807,-0.27282 -2.9479,-0.36133 -0.66388,-0.1547 -0.71165,-0.14357 -1.23464,0.28752 -0.29923,0.24665 -0.62031,0.44845 -0.71352,0.44845 -0.0932,0 -0.21116,-0.16607 -0.2621,-0.36904 -0.0509,-0.20296 -0.25465,-0.44285 -0.45269,-0.53308 -0.19803,-0.0902 -0.36006,-0.21269 -0.36006,-0.27213 0,-0.0594 -0.44236,-0.23952 -0.98301,-0.40017 -0.54066,-0.16066 -1.17962,-0.32883 -1.41992,-0.37372 -0.24029,-0.0449 -0.7318,-0.11818 -1.09224,-0.16287 -0.36043,-0.0447 -1.11408,-0.14488 -1.67476,-0.22265 -0.56069,-0.0778 -3.84835,-0.15793 -7.30593,-0.17815 -3.45758,-0.0202 -6.331275,-0.0815 -6.385985,-0.13629 -0.05471,-0.0547 -0.05781,-0.16694 -0.0069,-0.24932 0.06098,-0.0987 2.234735,-0.15251 6.370395,-0.15777 3.45281,-0.004 6.44868,-0.045 6.65749,-0.0902 0.20882,-0.0452 0.5435,-0.13708 0.74374,-0.20416 0.20025,-0.0671 0.53222,-0.15826 0.73772,-0.20264 0.20549,-0.0444 0.52681,-0.21354 0.71403,-0.37592 0.18722,-0.16238 0.43754,-0.29523 0.55627,-0.29523 0.11873,0 0.35807,0.14745 0.53187,0.32767 0.17379,0.18022 0.50681,0.47513 0.74006,0.65535 0.23324,0.18022 0.53391,0.32767 0.66815,0.32767 0.13424,0 0.27841,0.0895 0.32037,0.19885 0.042,0.10936 0.59684,0.3715 1.23304,0.58252 0.6362,0.21103 1.25954,0.38368 1.38519,0.38368 0.12566,0 0.33167,-0.1032 0.4578,-0.22933 0.12613,-0.12614 0.90084,-0.4577 1.72158,-0.7368 0.82073,-0.27911 2.01651,-0.57538 2.65729,-0.65838 0.64078,-0.083 1.61662,-0.20824 2.42147,-0.13286 1.24205,0.11633 2.28335,0.47582 3.63376,0.89537 0.42544,0.13218 0.79032,-0.49571 1.05129,-0.86766 1.19758,-1.70686 1.02726,-2.59375 1.21617,-2.586 0.12318,0.005 0.4665,0.83306 -0.27554,2.42752 -0.32007,0.68771 -0.7421,1.92485 -0.47856,2.22472 0.16393,0.18654 1.57175,1.41459 2.43973,2.01316 1.95268,1.34655 3.61448,1.55381 3.09343,1.65083 z m -12.59207,-3.30118 c 0.84102,0.0242 2.40771,-0.0274 3.48153,-0.1147 1.07382,-0.0873 2.01351,-0.19654 2.08819,-0.2427 0.0747,-0.0462 -0.19788,-0.27448 -0.6057,-0.50739 -0.52032,-0.29717 -1.09926,-0.47163 -1.94102,-0.58492 -0.65975,-0.0888 -1.88834,-0.12701 -2.73021,-0.0849 -0.99625,0.0498 -1.88659,0.19006 -2.55009,0.40177 -0.56068,0.17891 -1.19964,0.39839 -1.41991,0.48774 -0.22027,0.0894 -0.40049,0.20729 -0.40049,0.26207 0,0.0548 0.34406,0.13712 0.76457,0.18298 0.42051,0.0459 0.99394,0.0997 1.27428,0.1197 0.28034,0.02 1.19782,0.0562 2.03885,0.0804 z"
         transform="translate(0,17.613595)" /><path
         id="path9"
         style="fill:#4b4b4b;fill-opacity:1;stroke:none;stroke-width:0.747858;stroke-linejoin:bevel;paint-order:markers fill stroke"
         d="m 138.69256,128.12207 c -0.24457,0.002 -0.49596,0.0473 -0.71504,0.15157 -0.35024,0.16683 -0.6937,0.4172 -0.88407,0.75523 -0.10823,0.19246 -0.1745,0.48634 -0.21535,0.77794 -0.0126,0.0897 -0.085,0.19902 -0.16162,0.2481 -0.71167,0.45522 -1.25499,1.14922 -1.51919,1.96866 -0.26566,-0.19506 -0.55109,-0.36683 -0.8155,-0.44729 -0.60247,-0.18331 -1.58549,-0.3436 -1.90138,0.3263 -0.36942,0.78332 1.66725,1.77121 1.66725,1.77121 0,0 -0.92692,0.33682 -0.84651,0.8391 0.0692,0.4323 1.02471,0.48005 1.60611,0.31188 0.16188,-0.0468 0.3097,-0.0986 0.44771,-0.15115 0.50673,1.1021 1.54372,1.91602 2.79989,2.10101 0.1211,0.0178 0.22015,-0.0733 0.22015,-0.19568 v -2.66273 c 0,-0.12238 -0.098,-0.24154 -0.21184,-0.2861 -0.5472,-0.2142 -0.91918,-0.74433 -0.92078,-1.34665 1.1e-4,-0.80086 0.64931,-1.45006 1.45017,-1.45018 0.80104,-1.4e-4 1.45051,0.64914 1.45062,1.45018 -0.002,0.60287 -0.3742,1.13321 -0.9221,1.34708 -0.11388,0.0444 -0.21183,0.16374 -0.21183,0.28611 v 2.66229 c 0,0.12237 0.099,0.21348 0.22014,0.19568 1.25652,-0.1847 2.29346,-0.99871 2.80032,-2.10101 0.13813,0.0524 0.28613,0.10427 0.44815,0.15115 0.58141,0.16817 1.53686,0.12042 1.60612,-0.31188 0.0804,-0.50228 -0.84651,-0.8391 -0.84651,-0.8391 0,0 2.03667,-0.98789 1.66725,-1.77121 -0.31589,-0.6699 -1.29891,-0.50961 -1.90138,-0.3263 -0.26441,0.0805 -0.54984,0.25223 -0.8155,0.44729 -0.2642,-0.81944 -0.80751,-1.51345 -1.51919,-1.96866 -0.0768,-0.0491 -0.14898,-0.1592 -0.16162,-0.24941 -0.0408,-0.2913 -0.10725,-0.58438 -0.21535,-0.77663 -0.19037,-0.33803 -0.53602,-0.5884 -0.88627,-0.75523 -0.21906,-0.10434 -0.46827,-0.1489 -0.71285,-0.15157 z m -0.0157,0.9068 c 0.005,-1.3e-4 0.0104,7e-5 0.0157,0 0.005,7e-5 0.0104,-1.3e-4 0.0157,0 0.24755,0.007 0.52492,0.10898 0.67923,0.3027 0.0174,0.0218 0.0327,0.0478 0.0463,0.0769 0.0386,0.0822 -0.0195,0.13973 -0.10921,0.12406 -0.20528,-0.0359 -0.41642,-0.055 -0.63204,-0.055 -0.21562,1e-5 -0.42675,0.0192 -0.63205,0.055 -0.0897,0.0157 -0.14782,-0.0418 -0.1092,-0.12406 0.0136,-0.0289 0.0289,-0.055 0.0463,-0.0769 0.15428,-0.19372 0.43166,-0.29586 0.67921,-0.3027 z" /></g><g
       id="g186"
       style="opacity:0.5;filter:url(#filter194)"
       inkscape:export-filename="Github\midForgeDaughter.svg"
       inkscape:export-xdpi="250"
       inkscape:export-ydpi="250"><path
         style="fill:#4b4b4b;fill-opacity:1;stroke:none"
         d="m 137.27624,119.86659 c -0.26988,0.0502 -1.2029,-0.20065 -1.77808,-0.39504 -0.97239,-0.32863 -1.97036,-0.73324 -2.79481,-1.29258 -1.37658,-0.93394 -1.74271,-1.11479 -2.24799,-1.03119 -0.30263,0.0501 -1.18014,0.0909 -2.42165,0.1621 -1.6604,0.0953 -2.85419,0.0765 -4.51459,-0.0709 -1.24151,-0.11022 -2.56807,-0.27282 -2.9479,-0.36133 -0.66388,-0.1547 -0.71165,-0.14357 -1.23464,0.28752 -0.29923,0.24665 -0.62031,0.44845 -0.71352,0.44845 -0.0932,0 -0.21116,-0.16607 -0.2621,-0.36904 -0.0509,-0.20296 -0.25465,-0.44285 -0.45269,-0.53308 -0.19803,-0.0902 -0.36006,-0.21269 -0.36006,-0.27213 0,-0.0594 -0.44236,-0.23952 -0.98301,-0.40017 -0.54066,-0.16066 -1.17962,-0.32883 -1.41992,-0.37372 -0.24029,-0.0449 -0.7318,-0.11818 -1.09224,-0.16287 -0.36043,-0.0447 -1.11408,-0.14488 -1.67476,-0.22265 -0.56069,-0.0778 -3.84835,-0.15793 -7.30593,-0.17815 -3.45758,-0.0202 -6.331275,-0.0815 -6.385985,-0.13629 -0.05471,-0.0547 -0.05781,-0.16694 -0.0069,-0.24932 0.06098,-0.0987 2.234735,-0.15251 6.370395,-0.15777 3.45281,-0.004 6.44868,-0.045 6.65749,-0.0902 0.20882,-0.0452 0.5435,-0.13708 0.74374,-0.20416 0.20025,-0.0671 0.53222,-0.15826 0.73772,-0.20264 0.20549,-0.0444 0.52681,-0.21354 0.71403,-0.37592 0.18722,-0.16238 0.43754,-0.29523 0.55627,-0.29523 0.11873,0 0.35807,0.14745 0.53187,0.32767 0.17379,0.18022 0.50681,0.47513 0.74006,0.65535 0.23324,0.18022 0.53391,0.32767 0.66815,0.32767 0.13424,0 0.27841,0.0895 0.32037,0.19885 0.042,0.10936 0.59684,0.3715 1.23304,0.58252 0.6362,0.21103 1.25954,0.38368 1.38519,0.38368 0.12566,0 0.33167,-0.1032 0.4578,-0.22933 0.12613,-0.12614 0.90084,-0.4577 1.72158,-0.7368 0.82073,-0.27911 2.01651,-0.57538 2.65729,-0.65838 0.64078,-0.083 1.61662,-0.20824 2.42147,-0.13286 1.24205,0.11633 2.28335,0.47582 3.63376,0.89537 0.42544,0.13218 0.79032,-0.49571 1.05129,-0.86766 1.19758,-1.70686 1.02726,-2.59375 1.21617,-2.586 0.12318,0.005 0.4665,0.83306 -0.27554,2.42752 -0.32007,0.68771 -0.7421,1.92485 -0.47856,2.22472 0.16393,0.18654 1.57175,1.41459 2.43973,2.01316 1.95268,1.34655 3.61448,1.55381 3.09343,1.65083 z m -12.59207,-3.30118 c 0.84102,0.0242 2.40771,-0.0274 3.48153,-0.1147 1.07382,-0.0873 2.01351,-0.19654 2.08819,-0.2427 0.0747,-0.0462 -0.19788,-0.27448 -0.6057,-0.50739 -0.52032,-0.29717 -1.09926,-0.47163 -1.94102,-0.58492 -0.65975,-0.0888 -1.88834,-0.12701 -2.73021,-0.0849 -0.99625,0.0498 -1.88659,0.19006 -2.55009,0.40177 -0.56068,0.17891 -1.19964,0.39839 -1.41991,0.48774 -0.22027,0.0894 -0.40049,0.20729 -0.40049,0.26207 0,0.0548 0.34406,0.13712 0.76457,0.18298 0.42051,0.0459 0.99394,0.0997 1.27428,0.1197 0.28034,0.02 1.19782,0.0562 2.03885,0.0804 z m 15.44587,3.30118 c 0.26988,0.0502 1.2029,-0.20065 1.77808,-0.39504 0.97239,-0.32863 1.97036,-0.73324 2.79481,-1.29258 1.37658,-0.93394 1.74271,-1.11479 2.24799,-1.03119 0.30263,0.0501 1.18014,0.0909 2.42165,0.1621 1.6604,0.0953 2.85419,0.0765 4.51459,-0.0709 1.24151,-0.11022 2.56807,-0.27282 2.9479,-0.36133 0.66388,-0.1547 0.71165,-0.14357 1.23464,0.28752 0.29923,0.24665 0.62031,0.44845 0.71352,0.44845 0.0932,0 0.21116,-0.16607 0.2621,-0.36904 0.0509,-0.20296 0.25465,-0.44285 0.45269,-0.53308 0.19803,-0.0902 0.36006,-0.21269 0.36006,-0.27213 0,-0.0594 0.44236,-0.23952 0.98301,-0.40017 0.54066,-0.16066 1.17962,-0.32883 1.41992,-0.37372 0.24029,-0.0449 0.7318,-0.11818 1.09224,-0.16287 0.36043,-0.0447 1.11408,-0.14488 1.67476,-0.22265 0.56069,-0.0778 3.84835,-0.15793 7.30593,-0.17815 3.45758,-0.0202 6.33128,-0.0815 6.38599,-0.13629 0.0547,-0.0547 0.0578,-0.16694 0.007,-0.24932 -0.061,-0.0987 -2.23473,-0.15251 -6.37039,-0.15777 -3.45281,-0.004 -6.44868,-0.045 -6.65749,-0.0902 -0.20882,-0.0452 -0.5435,-0.13708 -0.74374,-0.20416 -0.20025,-0.0671 -0.53222,-0.15826 -0.73772,-0.20264 -0.20549,-0.0444 -0.52681,-0.21354 -0.71403,-0.37592 -0.18722,-0.16238 -0.43754,-0.29523 -0.55627,-0.29523 -0.11873,0 -0.35807,0.14745 -0.53187,0.32767 -0.17379,0.18022 -0.50681,0.47513 -0.74006,0.65535 -0.23324,0.18022 -0.53391,0.32767 -0.66815,0.32767 -0.13424,0 -0.27841,0.0895 -0.32037,0.19885 -0.042,0.10936 -0.59684,0.3715 -1.23304,0.58252 -0.6362,0.21103 -1.25954,0.38368 -1.38519,0.38368 -0.12566,0 -0.33167,-0.1032 -0.4578,-0.22933 -0.12613,-0.12614 -0.90084,-0.4577 -1.72158,-0.7368 -0.82073,-0.27911 -2.01651,-0.57538 -2.65729,-0.65838 -0.64078,-0.083 -1.61662,-0.20824 -2.42147,-0.13286 -1.24205,0.11633 -2.28335,0.47582 -3.63376,0.89537 -0.42544,0.13218 -0.79032,-0.49571 -1.05129,-0.86766 -1.19758,-1.70686 -1.02726,-2.59375 -1.21617,-2.586 -0.12318,0.005 -0.4665,0.83306 0.27554,2.42752 0.32007,0.68771 0.7421,1.92485 0.47856,2.22472 -0.16393,0.18654 -1.57175,1.41459 -2.43973,2.01316 -1.95268,1.34655 -3.61448,1.55381 -3.09343,1.65083 z m 12.59207,-3.30118 c -0.84102,0.0242 -2.40771,-0.0274 -3.48153,-0.1147 -1.07382,-0.0873 -2.01351,-0.19654 -2.08819,-0.2427 -0.0747,-0.0462 0.19788,-0.27448 0.6057,-0.50739 0.52032,-0.29717 1.09926,-0.47163 1.94102,-0.58492 0.65975,-0.0888 1.88834,-0.12701 2.73021,-0.0849 0.99625,0.0498 1.88659,0.19006 2.55009,0.40177 0.56068,0.17891 1.19964,0.39839 1.41991,0.48774 0.22027,0.0894 0.40049,0.20729 0.40049,0.26207 0,0.0548 -0.34406,0.13712 -0.76457,0.18298 -0.42051,0.0459 -0.99394,0.0997 -1.27428,0.1197 -0.28034,0.02 -1.19782,0.0562 -2.03885,0.0804 z"
         id="path185"
         sodipodi:nodetypes="cassssssscssssssscscsssssssscsssssassssssscsssssscscsccs"
         inkscape:path-effect="#path-effect191"
         inkscape:original-d="m 137.27624,119.86659 c -0.26988,0.0502 -1.2029,-0.20065 -1.77808,-0.39504 -0.97239,-0.32863 -1.97036,-0.73324 -2.79481,-1.29258 -1.37658,-0.93394 -1.74271,-1.11479 -2.24799,-1.03119 -0.30263,0.0501 -1.18014,0.0909 -2.42165,0.1621 -1.6604,0.0953 -2.85419,0.0765 -4.51459,-0.0709 -1.24151,-0.11022 -2.56807,-0.27282 -2.9479,-0.36133 -0.66388,-0.1547 -0.71165,-0.14357 -1.23464,0.28752 -0.29923,0.24665 -0.62031,0.44845 -0.71352,0.44845 -0.0932,0 -0.21116,-0.16607 -0.2621,-0.36904 -0.0509,-0.20296 -0.25465,-0.44285 -0.45269,-0.53308 -0.19803,-0.0902 -0.36006,-0.21269 -0.36006,-0.27213 0,-0.0594 -0.44236,-0.23952 -0.98301,-0.40017 -0.54066,-0.16066 -1.17962,-0.32883 -1.41992,-0.37372 -0.24029,-0.0449 -0.7318,-0.11818 -1.09224,-0.16287 -0.36043,-0.0447 -1.11408,-0.14488 -1.67476,-0.22265 -0.56069,-0.0778 -3.84835,-0.15793 -7.30593,-0.17815 -3.45758,-0.0202 -6.331275,-0.0815 -6.385985,-0.13629 -0.05471,-0.0547 -0.05781,-0.16694 -0.0069,-0.24932 0.06098,-0.0987 2.234735,-0.15251 6.370395,-0.15777 3.45281,-0.004 6.44868,-0.045 6.65749,-0.0902 0.20882,-0.0452 0.5435,-0.13708 0.74374,-0.20416 0.20025,-0.0671 0.53222,-0.15826 0.73772,-0.20264 0.20549,-0.0444 0.52681,-0.21354 0.71403,-0.37592 0.18722,-0.16238 0.43754,-0.29523 0.55627,-0.29523 0.11873,0 0.35807,0.14745 0.53187,0.32767 0.17379,0.18022 0.50681,0.47513 0.74006,0.65535 0.23324,0.18022 0.53391,0.32767 0.66815,0.32767 0.13424,0 0.27841,0.0895 0.32037,0.19885 0.042,0.10936 0.59684,0.3715 1.23304,0.58252 0.6362,0.21103 1.25954,0.38368 1.38519,0.38368 0.12566,0 0.33167,-0.1032 0.4578,-0.22933 0.12613,-0.12614 0.90084,-0.4577 1.72158,-0.7368 0.82073,-0.27911 2.01651,-0.57538 2.65729,-0.65838 0.64078,-0.083 1.61662,-0.20824 2.42147,-0.13286 1.24205,0.11633 2.28335,0.47582 3.63376,0.89537 0.42544,0.13218 0.79032,-0.49571 1.05129,-0.86766 1.19758,-1.70686 1.02726,-2.59375 1.21617,-2.586 0.12318,0.005 0.4665,0.83306 -0.27554,2.42752 -0.32007,0.68771 -0.7421,1.92485 -0.47856,2.22472 0.16393,0.18654 1.57175,1.41459 2.43973,2.01316 1.95268,1.34655 3.61448,1.55381 3.09343,1.65083 z m -12.59207,-3.30118 c 0.84102,0.0242 2.40771,-0.0274 3.48153,-0.1147 1.07382,-0.0873 2.01351,-0.19654 2.08819,-0.2427 0.0747,-0.0462 -0.19788,-0.27448 -0.6057,-0.50739 -0.52032,-0.29717 -1.09926,-0.47163 -1.94102,-0.58492 -0.65975,-0.0888 -1.88834,-0.12701 -2.73021,-0.0849 -0.99625,0.0498 -1.88659,0.19006 -2.55009,0.40177 -0.56068,0.17891 -1.19964,0.39839 -1.41991,0.48774 -0.22027,0.0894 -0.40049,0.20729 -0.40049,0.26207 0,0.0548 0.34406,0.13712 0.76457,0.18298 0.42051,0.0459 0.99394,0.0997 1.27428,0.1197 0.28034,0.02 1.19782,0.0562 2.03885,0.0804 z"
         transform="translate(0,17.613595)" /><path
         id="path186"
         style="fill:#4b4b4b;fill-opacity:1;stroke:none;stroke-width:0.747858;stroke-linejoin:bevel;paint-order:markers fill stroke"
         d="m 138.69256,128.12207 c -0.24457,0.002 -0.49596,0.0473 -0.71504,0.15157 -0.35024,0.16683 -0.6937,0.4172 -0.88407,0.75523 -0.10823,0.19246 -0.1745,0.48634 -0.21535,0.77794 -0.0126,0.0897 -0.085,0.19902 -0.16162,0.2481 -0.71167,0.45522 -1.25499,1.14922 -1.51919,1.96866 -0.26566,-0.19506 -0.55109,-0.36683 -0.8155,-0.44729 -0.60247,-0.18331 -1.58549,-0.3436 -1.90138,0.3263 -0.36942,0.78332 1.66725,1.77121 1.66725,1.77121 0,0 -0.92692,0.33682 -0.84651,0.8391 0.0692,0.4323 1.02471,0.48005 1.60611,0.31188 0.16188,-0.0468 0.3097,-0.0986 0.44771,-0.15115 0.50673,1.1021 1.54372,1.91602 2.79989,2.10101 0.1211,0.0178 0.22015,-0.0733 0.22015,-0.19568 v -2.66273 c 0,-0.12238 -0.098,-0.24154 -0.21184,-0.2861 -0.5472,-0.2142 -0.91918,-0.74433 -0.92078,-1.34665 1.1e-4,-0.80086 0.64931,-1.45006 1.45017,-1.45018 0.80104,-1.4e-4 1.45051,0.64914 1.45062,1.45018 -0.002,0.60287 -0.3742,1.13321 -0.9221,1.34708 -0.11388,0.0444 -0.21183,0.16374 -0.21183,0.28611 v 2.66229 c 0,0.12237 0.099,0.21348 0.22014,0.19568 1.25652,-0.1847 2.29346,-0.99871 2.80032,-2.10101 0.13813,0.0524 0.28613,0.10427 0.44815,0.15115 0.58141,0.16817 1.53686,0.12042 1.60612,-0.31188 0.0804,-0.50228 -0.84651,-0.8391 -0.84651,-0.8391 0,0 2.03667,-0.98789 1.66725,-1.77121 -0.31589,-0.6699 -1.29891,-0.50961 -1.90138,-0.3263 -0.26441,0.0805 -0.54984,0.25223 -0.8155,0.44729 -0.2642,-0.81944 -0.80751,-1.51345 -1.51919,-1.96866 -0.0768,-0.0491 -0.14898,-0.1592 -0.16162,-0.24941 -0.0408,-0.2913 -0.10725,-0.58438 -0.21535,-0.77663 -0.19037,-0.33803 -0.53602,-0.5884 -0.88627,-0.75523 -0.21906,-0.10434 -0.46827,-0.1489 -0.71285,-0.15157 z m -0.0157,0.9068 c 0.005,-1.3e-4 0.0104,7e-5 0.0157,0 0.005,7e-5 0.0104,-1.3e-4 0.0157,0 0.24755,0.007 0.52492,0.10898 0.67923,0.3027 0.0174,0.0218 0.0327,0.0478 0.0463,0.0769 0.0386,0.0822 -0.0195,0.13973 -0.10921,0.12406 -0.20528,-0.0359 -0.41642,-0.055 -0.63204,-0.055 -0.21562,1e-5 -0.42675,0.0192 -0.63205,0.055 -0.0897,0.0157 -0.14782,-0.0418 -0.1092,-0.12406 0.0136,-0.0289 0.0289,-0.055 0.0463,-0.0769 0.15428,-0.19372 0.43166,-0.29586 0.67921,-0.3027 z" /></g></g></svg>
