<?xml version="1.0" encoding="UTF-8" standalone="no"?>
<!-- Created with Inkscape (http://www.inkscape.org/) -->

<svg
   width="79.909271mm"
   height="9.6117115mm"
   viewBox="0 0 79.909271 9.6117115"
   version="1.1"
   id="svg1"
   xml:space="preserve"
   xmlns="http://www.w3.org/2000/svg"
   xmlns:svg="http://www.w3.org/2000/svg"><defs
     id="defs1" /><g
     id="layer1"
     transform="translate(-39.641917,-121.16486)"><g
       id="g110"
       transform="translate(-14.174947,-137.14392)"
       style="fill:#f9f9f9;fill-opacity:1;stroke:none"><path
         style="fill:#f9f9f9;fill-opacity:1;stroke:none"
         d="m 93.830595,267.6286 c -0.04439,3.4e-4 -0.378436,-0.18819 -0.742321,-0.41895 -0.363885,-0.23077 -0.801791,-0.61645 -0.973124,-0.85707 -0.171333,-0.24061 -0.453092,-0.7563 -0.62613,-1.14596 -0.253694,-0.57129 -0.314914,-0.99048 -0.316157,-2.1648 -0.0012,-1.1092 0.07643,-1.70246 0.325577,-2.48896 0.179916,-0.56795 0.470825,-1.28883 0.646466,-1.60195 0.175642,-0.31312 0.407175,-0.56931 0.514519,-0.56931 0.152176,0 0.199279,0.41707 0.213815,1.89321 0.01503,1.52603 0.06969,1.98673 0.281826,2.37539 0.208992,0.38289 0.340964,0.47285 0.640941,0.4369 0.208789,-0.025 0.514482,-0.2297 0.683425,-0.45757 0.27615,-0.37248 0.304736,-0.601 0.296036,-2.36652 -0.0064,-1.30325 0.04255,-1.95423 0.147009,-1.95423 0.08615,0 0.251826,0.14745 0.368166,0.32767 0.11634,0.18022 0.355503,0.63258 0.531475,1.00525 0.175971,0.37267 0.400312,1.06078 0.498535,1.52913 0.09822,0.46836 0.179365,1.281 0.180316,1.80586 9.51e-4,0.52486 -0.07913,1.29135 -0.17796,1.70332 -0.09883,0.41196 -0.397134,1.05487 -0.6629,1.42867 -0.265765,0.37381 -0.767968,0.86857 -1.116006,1.09947 -0.348038,0.23091 -0.669117,0.42011 -0.713508,0.42045 z m -0.762471,-1.16443 c 0.137074,0 0.165529,-0.11662 0.09772,-0.40049 -0.05262,-0.22027 -0.160194,-0.4824 -0.239055,-0.58253 -0.07886,-0.10012 -0.297572,-0.18204 -0.486026,-0.18204 -0.312726,0 -0.32967,0.035 -0.194059,0.40049 0.08172,0.22027 0.256462,0.48241 0.38831,0.58253 0.131849,0.10012 0.32675,0.18204 0.433113,0.18204 z m 1.571342,0 c 0.120147,0 0.349517,-0.13107 0.509712,-0.29126 0.160195,-0.1602 0.291264,-0.42234 0.291264,-0.58253 0,-0.21249 -0.09709,-0.29127 -0.358956,-0.29127 -0.205841,0 -0.423262,0.12016 -0.509712,0.28169 -0.08291,0.15493 -0.150755,0.41707 -0.150755,0.58253 0,0.17033 0.09477,0.30084 0.218447,0.30084 z"
         id="path52" /><path
         style="fill:#f9f9f9;fill-opacity:1;stroke:none"
         d="m 95.123236,267.92049 c -0.06583,0 -0.11969,-0.0581 -0.11969,-0.12904 0,-0.071 0.445845,-0.3939 0.990767,-0.71763 0.544921,-0.32374 1.291856,-0.87186 1.659854,-1.21806 0.367998,-0.34621 0.75073,-0.79016 0.850516,-0.98658 0.133603,-0.26298 0.137534,-0.37175 0.01491,-0.41262 -0.09158,-0.0305 -0.166515,-0.14835 -0.166515,-0.26182 0,-0.11347 -0.05898,-0.20631 -0.131069,-0.20631 -0.07209,0 -0.366992,-0.23593 -0.655344,-0.52428 -0.288351,-0.28835 -0.524275,-0.53454 -0.524275,-0.54708 0,-0.0125 -0.06096,-0.23536 -0.135466,-0.49515 -0.120397,-0.4198 -0.103241,-0.47234 0.154227,-0.47234 0.159331,0 0.255078,0.056 0.212771,0.12446 -0.04231,0.0685 0.08336,0.27504 0.279261,0.45908 0.226348,0.21265 0.698252,0.3989 1.294601,0.51097 0.576674,0.10837 1.209546,0.1327 1.641766,0.0631 0.38685,-0.0623 0.87772,-0.18052 1.09083,-0.2628 0.21312,-0.0823 0.93637,-0.27994 1.60724,-0.43927 0.67087,-0.15933 1.77746,-0.33495 2.4591,-0.39025 0.7266,-0.059 1.75722,-0.0316 2.49115,0.066 0.68851,0.0916 1.73402,0.33003 2.32336,0.5298 0.58935,0.19976 1.41895,0.53835 1.84357,0.75241 l 0.77203,0.38921 1.23959,-0.40369 c 0.68178,-0.22203 1.2751,-0.49621 1.31849,-0.60928 0.0434,-0.11308 0.12873,-0.17479 0.18963,-0.13715 0.0609,0.0376 0.41603,-0.13377 0.78916,-0.38092 0.37313,-0.24714 0.74471,-0.57323 0.82573,-0.72462 0.081,-0.15139 0.2714,-0.27526 0.42305,-0.27526 0.15166,0 0.38025,0.10451 0.50798,0.23224 0.12774,0.12774 0.57478,0.37004 0.99342,0.53845 0.72369,0.29112 1.09233,0.31017 7.48474,0.38669 3.69796,0.0443 6.77262,0.12964 6.83257,0.18972 0.06,0.0601 0.0599,0.15837 -1.3e-4,0.21844 -0.06,0.0601 -2.97084,0.12809 -6.46849,0.15115 -5.43701,0.0358 -6.65506,0.0843 -8.3982,0.33405 -1.12137,0.16067 -2.47539,0.42137 -3.00895,0.57933 -0.57387,0.1699 -1.15382,0.45883 -1.41991,0.7074 -0.2474,0.2311 -0.44981,0.52496 -0.44981,0.65302 0,0.12806 -0.0834,0.23284 -0.18527,0.23284 -0.10189,0 -0.4302,-0.2019 -0.72957,-0.44866 -0.53273,-0.43913 -0.56052,-0.44507 -1.30746,-0.27945 -0.41974,0.0931 -1.74617,0.25684 -2.94764,0.36394 -1.62286,0.14467 -2.76481,0.1594 -4.44177,0.0573 -1.24151,-0.0756 -2.51943,-0.17125 -2.83982,-0.21257 -0.41683,-0.0538 -0.69085,-9.2e-4 -0.96331,0.18575 -0.20943,0.14349 -0.766474,0.52284 -1.237874,0.84301 -0.471401,0.32016 -0.889859,0.61788 -0.929908,0.6616 -0.04005,0.0437 -0.433255,0.25182 -0.873792,0.46244 -0.440536,0.21062 -1.123938,0.48632 -1.51867,0.61267 -0.394732,0.12635 -0.771554,0.22973 -0.837383,0.22973 z m 11.166784,-3.52211 c 0.72088,0.007 2.21554,-0.0425 3.32147,-0.10991 1.10593,-0.0674 2.05072,-0.16249 2.09953,-0.2113 0.0488,-0.0488 0.0481,-0.12935 -0.002,-0.17898 -0.0496,-0.0496 -0.66675,-0.28233 -1.37137,-0.51709 -0.97374,-0.32444 -1.66548,-0.44723 -2.88307,-0.5118 -0.8957,-0.0475 -2.1305,-0.0137 -2.80082,0.0767 -0.82242,0.11092 -1.38169,0.2771 -1.7811,0.52923 -0.32023,0.20215 -0.66217,0.36755 -0.75988,0.36755 -0.11418,0 -0.12743,0.0502 -0.0371,0.14058 0.0773,0.0773 0.76216,0.19948 1.52185,0.27146 0.7597,0.072 1.97108,0.13658 2.69196,0.14354 z"
         id="path51" /><path
         style="fill:#f9f9f9;fill-opacity:1;stroke:none"
         d="m 92.418579,267.91368 c -0.14017,-0.004 -0.562818,-0.12722 -0.939216,-0.27439 -0.376398,-0.14716 -0.720453,-0.23147 -0.764567,-0.18736 -0.04411,0.0441 -0.08021,0.0169 -0.08021,-0.0604 0,-0.0774 -0.241089,-0.22783 -0.535753,-0.33438 -0.294664,-0.10655 -1.210299,-0.65138 -2.034746,-1.21072 -1.37658,-0.93394 -1.543926,-1.00956 -2.049214,-0.92596 -0.302621,0.0501 -1.566004,0.14933 -2.807516,0.22057 -1.660401,0.0953 -2.854189,0.0765 -4.51459,-0.0709 -1.241512,-0.11022 -2.568067,-0.27282 -2.947898,-0.36133 -0.663886,-0.1547 -0.711651,-0.14357 -1.234645,0.28752 -0.299223,0.24665 -0.620307,0.44845 -0.713521,0.44845 -0.09321,0 -0.211158,-0.16607 -0.2621,-0.36904 -0.05094,-0.20296 -0.254649,-0.44285 -0.452683,-0.53308 -0.198034,-0.0902 -0.360062,-0.21269 -0.360062,-0.27213 0,-0.0594 -0.442357,-0.23952 -0.983016,-0.40017 -0.540659,-0.16066 -1.179619,-0.32883 -1.419911,-0.37372 -0.240293,-0.0449 -0.731801,-0.11818 -1.09224,-0.16287 -0.360439,-0.0447 -1.114084,-0.14488 -1.674767,-0.22265 -0.560683,-0.0778 -3.848352,-0.15793 -7.305932,-0.17815 -3.457579,-0.0202 -6.33127,-0.0815 -6.38598,-0.13629 -0.05471,-0.0547 -0.05781,-0.16694 -0.0069,-0.24932 0.06098,-0.0987 2.234734,-0.15251 6.370399,-0.15777 3.452804,-0.004 6.448673,-0.045 6.657487,-0.0902 0.208814,-0.0452 0.543498,-0.13708 0.743742,-0.20416 0.200244,-0.0671 0.532214,-0.15826 0.737712,-0.20264 0.205497,-0.0444 0.526813,-0.21354 0.714035,-0.37592 0.187221,-0.16238 0.437545,-0.29523 0.556275,-0.29523 0.11873,0 0.358067,0.14745 0.53186,0.32767 0.173792,0.18022 0.50682,0.47513 0.740063,0.65535 0.233242,0.18022 0.533909,0.32767 0.668148,0.32767 0.134239,0 0.278409,0.0895 0.320377,0.19885 0.04197,0.10936 0.596833,0.3715 1.233034,0.58252 0.636201,0.21103 1.259538,0.38368 1.385193,0.38368 0.125655,0 0.331665,-0.1032 0.457799,-0.22933 0.126135,-0.12614 0.900845,-0.4577 1.721578,-0.7368 0.820733,-0.27911 2.016516,-0.57538 2.657297,-0.65838 0.64078,-0.083 1.709394,-0.11121 2.374698,-0.0627 0.665303,0.0485 1.78645,0.21669 2.491439,0.37372 0.704989,0.15704 1.471337,0.3586 1.702997,0.44792 0.231659,0.0893 0.748871,0.21521 1.149359,0.27974 0.439826,0.0709 1.068071,0.0542 1.586576,-0.0421 0.639148,-0.11872 0.988446,-0.28208 1.367466,-0.63954 0.279978,-0.26406 0.560843,-0.4801 0.624145,-0.4801 0.0633,0 0.05468,0.21299 -0.01915,0.4733 -0.07383,0.26032 -0.468268,0.79654 -0.876519,1.19161 -0.656277,0.63509 -0.732016,0.7696 -0.653725,1.16106 0.0487,0.24351 0.300258,0.66264 0.559013,0.93141 0.258755,0.26877 0.86005,0.72931 1.336212,1.02343 0.476162,0.29411 0.918519,0.51837 0.983016,0.49835 0.0645,-0.02 0.117266,0.0247 0.117266,0.0994 0,0.0747 0.131069,0.17742 0.291264,0.22826 0.160195,0.0508 0.291264,0.15356 0.291264,0.22826 0,0.0747 -0.114685,0.13275 -0.254856,0.12901 z m -12.560754,-3.51711 c 0.841024,0.0242 2.407715,-0.0274 3.481534,-0.1147 1.07382,-0.0873 2.013504,-0.19654 2.088187,-0.2427 0.07468,-0.0462 -0.197879,-0.27448 -0.605694,-0.50739 -0.520322,-0.29717 -1.099267,-0.47163 -1.941026,-0.58492 -0.659749,-0.0888 -1.888343,-0.12701 -2.730208,-0.0849 -0.996248,0.0498 -1.886587,0.19006 -2.550088,0.40177 -0.560683,0.17891 -1.199644,0.39839 -1.419912,0.48774 -0.220268,0.0894 -0.400488,0.20729 -0.400488,0.26207 0,0.0548 0.344056,0.13712 0.764568,0.18298 0.420512,0.0459 0.993938,0.0997 1.274279,0.1197 0.280342,0.02 1.197823,0.0562 2.038848,0.0804 z"
         id="path50" /></g></g></svg>
