<?xml version="1.0" encoding="UTF-8" standalone="no"?>
<!-- Created with Inkscape (http://www.inkscape.org/) -->

<svg
   width="84.318405mm"
   height="15.40087mm"
   viewBox="0 0 84.318405 15.40087"
   version="1.1"
   id="svg1"
   xml:space="preserve"
   inkscape:version="1.4.3 (0d15f75042, 2025-12-25)"
   sodipodi:docname="skonguistuff.svg"
   inkscape:export-filename="..\Github\skonguistuff.png"
   inkscape:export-xdpi="400"
   inkscape:export-ydpi="400"
   xmlns:inkscape="http://www.inkscape.org/namespaces/inkscape"
   xmlns:sodipodi="http://sodipodi.sourceforge.net/DTD/sodipodi-0.dtd"
   xmlns="http://www.w3.org/2000/svg"
   xmlns:svg="http://www.w3.org/2000/svg"><sodipodi:namedview
     id="namedview1"
     pagecolor="#ffffff"
     bordercolor="#000000"
     borderopacity="0.25"
     inkscape:showpageshadow="2"
     inkscape:pageopacity="0.0"
     inkscape:pagecheckerboard="0"
     inkscape:deskcolor="#d1d1d1"
     inkscape:document-units="mm"
     inkscape:zoom="4.0000001"
     inkscape:cx="192"
     inkscape:cy="819.49998"
     inkscape:window-width="1920"
     inkscape:window-height="1014"
     inkscape:window-x="0"
     inkscape:window-y="0"
     inkscape:window-maximized="1"
     inkscape:current-layer="layer1"
     showgrid="false"
     showguides="true"><inkscape:page
       x="0"
       y="-6.6172864e-22"
       width="84.318405"
       height="15.400869"
       id="page2"
       margin="0"
       bleed="0" /></sodipodi:namedview><defs
     id="defs1"><inkscape:path-effect
       effect="fillet_chamfer"
       id="path-effect226"
       is_visible="true"
       lpeversion="1"
       nodesatellites_param="F,0,0,1,0,0,0,1 @ F,0,0,1,0,0,0,1 @ F,0,0,1,0,0,0,1 @ F,0,0,1,0,0.25675435,0,1 @ F,0,0,1,0,0,0,1 @ F,0,0,1,0,0.12916448,0,1 @ F,0,0,1,0,0,0,1 @ F,0,0,1,0,0,0,1 @ F,0,0,1,0,0,0,1 @ F,0,0,1,0,0,0,1 @ F,0,0,1,0,0,0,1 @ F,0,0,1,0,0,0,1 @ F,0,0,1,0,0,0,1 @ F,0,0,1,0,0,0,1 @ F,0,0,1,0,0.16982615,0,1 @ F,0,0,1,0,0,0,1 @ F,0,0,1,0,0,0,1 @ F,0,0,1,0,0,0,1 @ F,0,0,1,0,0,0,1 @ F,0,0,1,0,0,0,1 @ F,0,0,1,0,0.12205049,0,1 @ F,0,0,1,0,0,0,1 @ F,0,0,1,0,0.12591064,0,1 @ F,0,0,1,0,0,0,1 @ F,0,0,1,0,0,0,1 @ F,0,0,1,0,0.22409526,0,1 @ F,0,0,1,0,0,0,1 @ F,0,0,1,0,0,0,1 @ F,0,0,1,0,0,0,1 @ F,0,0,1,0,0,0,1 @ F,0,0,1,0,0,0,1 | F,0,0,1,0,0,0,1 @ F,0,0,1,0,0,0,1 @ F,0,0,1,0,0,0,1 @ F,0,0,1,0,0,0,1 @ F,0,0,1,0,0,0,1 @ F,0,0,1,0,0,0,1 | F,0,0,1,0,0,0,1 @ F,0,0,1,0,0,0,1 @ F,0,0,1,0,0,0,1 @ F,0,0,1,0,0,0,1 @ F,0,0,1,0,0,0,1 @ F,0,0,1,0,0,0,1 | F,0,0,1,0,0,0,1 @ F,0,0,1,0,0,0,1 @ F,0,0,1,0,0,0,1 @ F,0,0,1,0,0,0,1 @ F,0,0,1,0,0,0,1 @ F,0,0,1,0,0,0,1 | F,0,0,1,0,0,0,1 @ F,0,0,1,0,0,0,1 @ F,0,0,1,0,0,0,1 @ F,0,0,1,0,0,0,1 @ F,0,0,1,0,0,0,1"
       radius="0"
       unit="px"
       method="auto"
       mode="F"
       chamfer_steps="1"
       flexible="false"
       use_knot_distance="true"
       apply_no_radius="true"
       apply_with_radius="true"
       only_selected="false"
       hide_knots="false" /><inkscape:path-effect
       effect="fillet_chamfer"
       id="path-effect196"
       is_visible="true"
       lpeversion="1"
       nodesatellites_param="F,0,0,1,0,0,0,1 @ F,0,0,1,0,0,0,1 @ F,0,0,1,0,0,0,1 @ F,0,0,1,0,0.25675435,0,1 @ F,0,0,1,0,0,0,1 @ F,0,0,1,0,0.12916448,0,1 @ F,0,0,1,0,0,0,1 @ F,0,0,1,0,0,0,1 @ F,0,0,1,0,0,0,1 @ F,0,0,1,0,0,0,1 @ F,0,0,1,0,0,0,1 @ F,0,0,1,0,0,0,1 @ F,0,0,1,0,0,0,1 @ F,0,0,1,0,0,0,1 @ F,0,0,1,0,0.16982615,0,1 @ F,0,0,1,0,0,0,1 @ F,0,0,1,0,0,0,1 @ F,0,0,1,0,0,0,1 @ F,0,0,1,0,0,0,1 @ F,0,0,1,0,0,0,1 @ F,0,0,1,0,0.12205049,0,1 @ F,0,0,1,0,0,0,1 @ F,0,0,1,0,0.12591064,0,1 @ F,0,0,1,0,0,0,1 @ F,0,0,1,0,0,0,1 @ F,0,0,1,0,0.22409526,0,1 @ F,0,0,1,0,0,0,1 @ F,0,0,1,0,0,0,1 @ F,0,0,1,0,0,0,1 @ F,0,0,1,0,0,0,1 @ F,0,0,1,0,0,0,1 | F,0,0,1,0,0,0,1 @ F,0,0,1,0,0,0,1 @ F,0,0,1,0,0,0,1 @ F,0,0,1,0,0,0,1 @ F,0,0,1,0,0,0,1 @ F,0,0,1,0,0,0,1 | F,0,0,1,0,0,0,1 @ F,0,0,1,0,0,0,1 @ F,0,0,1,0,0,0,1 @ F,0,0,1,0,0,0,1 @ F,0,0,1,0,0,0,1 @ F,0,0,1,0,0,0,1 | F,0,0,1,0,0,0,1 @ F,0,0,1,0,0,0,1 @ F,0,0,1,0,0,0,1 @ F,0,0,1,0,0,0,1 @ F,0,0,1,0,0,0,1 @ F,0,0,1,0,0,0,1 | F,0,0,1,0,0,0,1 @ F,0,0,1,0,0,0,1 @ F,0,0,1,0,0,0,1 @ F,0,0,1,0,0,0,1 @ F,0,0,1,0,0,0,1"
       radius="0"
       unit="px"
       method="auto"
       mode="F"
       chamfer_steps="1"
       flexible="false"
       use_knot_distance="true"
       apply_no_radius="true"
       apply_with_radius="true"
       only_selected="false"
       hide_knots="false" /><filter
       inkscape:collect="always"
       style="color-interpolation-filters:sRGB"
       id="filter196"
       x="-1.7898971"
       y="-1.8111255"
       width="4.5797941"
       height="4.6222509"><feGaussianBlur
         inkscape:collect="always"
         stdDeviation="0.90463119"
         id="feGaussianBlur196" /></filter><filter
       inkscape:collect="always"
       style="color-interpolation-filters:sRGB"
       id="filter226"
       x="-0.027147006"
       y="-0.20703183"
       width="1.054294"
       height="1.4685844"><feGaussianBlur
         inkscape:collect="always"
         stdDeviation="0.90463085"
         id="feGaussianBlur226" /></filter></defs><g
     inkscape:label="Layer 1"
     inkscape:groupmode="layer"
     id="layer1"
     transform="translate(-9.6629518,-218.44435)"><path
       id="path25"
       style="opacity:0;fill:#4b4b4b;fill-opacity:1;stroke-width:5.08;stroke-linejoin:round;paint-order:stroke markers fill;filter:url(#filter196)"
       d="m 44.851367,222.36074 c 0.144435,0.35281 0.303926,0.45813 0.547148,0.535 0.816471,0.25804 1.697911,-0.5934 2.535223,-0.41418 0.351139,0.0752 0.688303,0.30284 0.898935,0.59367 0.235897,0.32571 0.04495,0.94383 0.317728,1.16391 -0.125016,0.23271 -0.201734,0.46079 -0.204599,0.65991 -0.01684,1.16966 1.050681,1.90277 1.484788,1.99197 -0.49265,0.24806 -1.440911,0.58898 -1.613024,1.24561 -0.318235,1.2141 1.766124,2.50138 2.756508,2.58981 1.03723,0.0926 2.028138,-0.63829 2.66819,-1.41545 0.562345,-0.6828 0.836748,-1.65704 0.771174,-2.53916 -0.0796,-1.07089 -0.724851,-2.28376 -1.381653,-2.91019 -0.161732,-0.15425 -0.340185,-0.30541 -0.52987,-0.4463 0.07425,-0.56736 0.103191,-0.8935 0.419066,-1.15341 0.58228,-0.47911 1.551727,-0.0299 2.235149,-0.34858 0.363699,-0.16957 0.769952,-0.43606 0.906769,-0.79187 0.05894,-0.1533 0.08897,-0.39195 -0.04233,-0.49061 -0.190234,-0.14296 -0.651431,0.74649 -1.087389,0.95093 -0.667317,0.31293 -1.587809,-0.0853 -2.183446,0.34883 -0.37159,0.27082 -0.628138,0.78155 -0.624239,1.2301 -0.544324,-0.33046 -1.153409,-0.5419 -1.744502,-0.46612 -0.457273,0.0586 -1.049465,0.5034 -1.477224,1.0248 -0.136951,-0.17188 -0.110124,-0.6384 -0.302902,-0.88244 -0.309746,-0.3921 -0.774034,-0.71807 -1.266674,-0.80171 -0.803295,-0.13637 -1.598616,0.77942 -2.381134,0.55238 -0.295869,-0.0858 -0.353708,-0.56953 -0.648717,-0.65828 -0.226981,-0.0683 -0.05297,0.43138 -0.05297,0.43138 z m 6.594518,1.71179 c 0.137964,-0.22032 0.556019,-0.11215 0.779574,0.0205 0.228135,0.13537 0.533065,0.45898 0.399589,0.68823 -0.136862,0.23506 -0.584249,0.13449 -0.815965,-0.008 -0.224143,-0.13779 -0.502839,-0.47781 -0.363198,-0.70081 z m -0.94839,0.18913 c 0.187013,0.17603 0.01038,0.50599 -0.150945,0.69146 -0.161321,0.18547 -0.492892,0.44504 -0.719556,0.26589 -0.213494,-0.16887 0.03869,-0.48474 0.196158,-0.66303 0.157464,-0.17829 0.48733,-0.47035 0.674343,-0.29432 z"
       sodipodi:nodetypes="caaacscssaascaassaacscaaascczaaaazszacs" /><path
       style="opacity:0;fill:#4b4b4b;fill-opacity:1;stroke:none;filter:url(#filter196)"
       d="m 50.435779,231.09887 c -0.14017,-0.004 -0.562818,-0.12722 -0.939216,-0.27439 -0.376398,-0.14716 -0.720453,-0.23147 -0.764567,-0.18736 -0.04411,0.0441 -0.08021,0.0169 -0.08021,-0.0604 0,-0.0774 -0.241089,-0.22783 -0.535753,-0.33438 -0.294664,-0.10655 -1.210299,-0.65138 -2.034746,-1.21072 -1.37658,-0.93394 -1.543926,-1.00956 -2.049214,-0.92596 -0.302621,0.0501 -1.566004,0.14933 -2.807516,0.22057 -1.660401,0.0953 -2.854189,0.0765 -4.51459,-0.0709 -1.241512,-0.11022 -2.568067,-0.27282 -2.947898,-0.36133 -0.663886,-0.1547 -0.711651,-0.14357 -1.234645,0.28752 -0.299223,0.24665 -0.620307,0.44845 -0.713521,0.44845 -0.09321,0 -0.211158,-0.16607 -0.2621,-0.36904 -0.05094,-0.20296 -0.254649,-0.44285 -0.452683,-0.53308 -0.198034,-0.0902 -0.360062,-0.21269 -0.360062,-0.27213 0,-0.0594 -0.442357,-0.23952 -0.983016,-0.40017 -0.540659,-0.16066 -1.179619,-0.32883 -1.419911,-0.37372 -0.240293,-0.0449 -0.731801,-0.11818 -1.09224,-0.16287 -0.360439,-0.0447 -1.114084,-0.14488 -1.674767,-0.22265 -0.560683,-0.0778 -3.848352,-0.15793 -7.305932,-0.17815 -3.457579,-0.0202 -6.33127,-0.0815 -6.38598,-0.13629 -0.05471,-0.0547 -0.05781,-0.16694 -0.0069,-0.24932 0.06098,-0.0987 2.234734,-0.15251 6.370399,-0.15777 3.452804,-0.004 6.448673,-0.045 6.657487,-0.0902 0.208814,-0.0452 0.543498,-0.13708 0.743742,-0.20416 0.200244,-0.0671 0.532214,-0.15826 0.737712,-0.20264 0.205497,-0.0444 0.526813,-0.21354 0.714035,-0.37592 0.187221,-0.16238 0.437545,-0.29523 0.556275,-0.29523 0.11873,0 0.358067,0.14745 0.53186,0.32767 0.173792,0.18022 0.50682,0.47513 0.740063,0.65535 0.233242,0.18022 0.533909,0.32767 0.668148,0.32767 0.134239,0 0.278409,0.0895 0.320377,0.19885 0.04197,0.10936 0.596833,0.3715 1.233034,0.58252 0.636201,0.21103 1.259538,0.38368 1.385193,0.38368 0.125655,0 0.331665,-0.1032 0.457799,-0.22933 0.126135,-0.12614 0.900845,-0.4577 1.721578,-0.7368 0.820733,-0.27911 2.016516,-0.57538 2.657297,-0.65838 0.64078,-0.083 1.709394,-0.11121 2.374698,-0.0627 0.665303,0.0485 1.78645,0.21669 2.491439,0.37372 0.704989,0.15704 1.471337,0.3586 1.702997,0.44792 0.231659,0.0893 0.748871,0.21521 1.149359,0.27974 0.439826,0.0709 1.068071,0.0542 1.586576,-0.0421 0.639148,-0.11872 0.988446,-0.28208 1.367466,-0.63954 0.279978,-0.26406 0.560843,-0.4801 0.624145,-0.4801 0.0633,0 0.05468,0.21299 -0.01915,0.4733 -0.07383,0.26032 -0.468268,0.79654 -0.876519,1.19161 -0.656277,0.63509 -0.732016,0.7696 -0.653725,1.16106 0.0487,0.24351 0.300258,0.66264 0.559013,0.93141 0.258755,0.26877 0.86005,0.72931 1.336212,1.02343 0.476162,0.29411 0.918519,0.51837 0.983016,0.49835 0.0645,-0.02 0.117266,0.0247 0.117266,0.0994 0,0.0747 0.131069,0.17742 0.291264,0.22826 0.160195,0.0508 0.291264,0.15356 0.291264,0.22826 0,0.0747 -0.114685,0.13275 -0.254856,0.12901 z m -12.560754,-3.51711 c 0.841024,0.0242 2.407715,-0.0274 3.481534,-0.1147 1.07382,-0.0873 2.013504,-0.19654 2.088187,-0.2427 0.07468,-0.0462 -0.197879,-0.27448 -0.605694,-0.50739 -0.520322,-0.29717 -1.099267,-0.47163 -1.941026,-0.58492 -0.659749,-0.0888 -1.888343,-0.12701 -2.730208,-0.0849 -0.996248,0.0498 -1.886587,0.19006 -2.550088,0.40177 -0.560683,0.17891 -1.199644,0.39839 -1.419912,0.48774 -0.220268,0.0894 -0.400488,0.20729 -0.400488,0.26207 0,0.0548 0.344056,0.13712 0.764568,0.18298 0.420512,0.0459 0.993938,0.0997 1.274279,0.1197 0.280342,0.02 1.197823,0.0562 2.038848,0.0804 z"
       id="path26" /><path
       style="opacity:0;fill:#4b4b4b;fill-opacity:1;stroke:none;filter:url(#filter196)"
       d="m 53.208546,231.10214 c 0.14017,-0.004 0.56282,-0.12722 0.93921,-0.27439 0.3764,-0.14716 0.72046,-0.23147 0.76457,-0.18736 0.0441,0.0441 0.0802,0.0169 0.0802,-0.0604 0,-0.0774 0.24109,-0.22783 0.53575,-0.33438 0.29467,-0.10655 1.2103,-0.65138 2.03475,-1.21072 1.37658,-0.93394 1.54393,-1.00956 2.04921,-0.92596 0.30262,0.0501 1.56601,0.14933 2.80752,0.22057 1.6604,0.0953 2.85419,0.0765 4.51459,-0.0709 1.241515,-0.11022 2.568075,-0.27282 2.947905,-0.36133 0.66388,-0.1547 0.71165,-0.14357 1.234637,0.28752 0.29923,0.24665 0.62031,0.44845 0.71352,0.44845 0.0932,0 0.21116,-0.16607 0.2621,-0.36904 0.0509,-0.20296 0.25465,-0.44285 0.45269,-0.53308 0.19803,-0.0902 0.36006,-0.21269 0.36006,-0.27213 0,-0.0594 0.44236,-0.23952 0.98301,-0.40017 0.54066,-0.16066 1.17962,-0.32883 1.41991,-0.37372 0.2403,-0.0449 0.73181,-0.11818 1.09224,-0.16287 0.36044,-0.0447 1.11409,-0.14488 1.67477,-0.22265 0.56068,-0.0778 3.84835,-0.15793 7.30593,-0.17815 3.45758,-0.0202 6.33127,-0.0815 6.38598,-0.13629 0.0547,-0.0547 0.0578,-0.16694 0.007,-0.24932 -0.061,-0.0987 -2.23473,-0.15251 -6.3704,-0.15777 -3.4528,-0.004 -6.44867,-0.045 -6.65748,-0.0902 -0.20882,-0.0452 -0.5435,-0.13708 -0.74374,-0.20416 -0.20025,-0.0671 -0.53222,-0.15826 -0.73772,-0.20264 -0.20549,-0.0444 -0.52681,-0.21354 -0.71403,-0.37592 -0.18722,-0.16238 -0.43755,-0.29523 -0.55628,-0.29523 -0.11873,0 -0.35806,0.14745 -0.53186,0.32767 -0.17379,0.18022 -0.50682,0.47513 -0.74006,0.65535 -0.23324,0.18022 -0.53391,0.32767 -0.66815,0.32767 -0.13424,0 -0.27841,0.0895 -0.32037,0.19885 -0.042,0.10936 -0.59684,0.3715 -1.23304,0.58252 -0.6362,0.21103 -1.25954,0.38368 -1.38519,0.38368 -0.12566,0 -0.331667,-0.1032 -0.457797,-0.22933 -0.12613,-0.12614 -0.90084,-0.4577 -1.72158,-0.7368 -0.82073,-0.27911 -2.016515,-0.57538 -2.657295,-0.65838 -0.64078,-0.083 -1.7094,-0.11121 -2.3747,-0.0627 -0.66531,0.0485 -1.78645,0.21669 -2.49144,0.37372 -0.70499,0.15704 -1.47134,0.3586 -1.703,0.44792 -0.23166,0.0893 -0.74887,0.21521 -1.14936,0.27974 -0.43982,0.0709 -1.06807,0.0542 -1.58657,-0.0421 -0.63915,-0.11872 -0.98845,-0.28208 -1.36747,-0.63954 -0.27998,-0.26406 -0.56084,-0.4801 -0.62414,-0.4801 -0.0633,0 -0.0547,0.21299 0.0192,0.4733 0.0738,0.26032 0.46826,0.79654 0.87651,1.19161 0.65628,0.63509 0.73202,0.7696 0.65373,1.16106 -0.0487,0.24351 -0.30026,0.66264 -0.55901,0.93141 -0.25876,0.26877 -0.86005,0.72931 -1.33622,1.02343 -0.47616,0.29411 -0.91851,0.51837 -0.98301,0.49835 -0.0645,-0.02 -0.11727,0.0247 -0.11727,0.0994 0,0.0747 -0.13107,0.17742 -0.29126,0.22826 -0.1602,0.0508 -0.29127,0.15356 -0.29127,0.22826 0,0.0747 0.11469,0.13275 0.25486,0.12901 z m 12.56075,-3.51711 c -0.84102,0.0242 -2.40771,-0.0274 -3.48153,-0.1147 -1.07382,-0.0873 -2.01351,-0.19654 -2.08819,-0.2427 -0.0747,-0.0462 0.19788,-0.27448 0.60569,-0.50739 0.52033,-0.29717 1.09927,-0.47163 1.94103,-0.58492 0.65975,-0.0888 1.88834,-0.12701 2.73021,-0.0849 0.99625,0.0498 1.88659,0.19006 2.550095,0.40177 0.56068,0.17891 1.19964,0.39839 1.41991,0.48774 0.22027,0.0894 0.40049,0.20729 0.40049,0.26207 0,0.0548 -0.34406,0.13712 -0.76457,0.18298 -0.42051,0.0459 -0.99394,0.0997 -1.274285,0.1197 -0.28034,0.02 -1.19782,0.0562 -2.03885,0.0804 z"
       id="path27" /><g
       id="g197"><g
         id="g196"><path
           id="path15"
           style="fill:#4b4b4b;fill-opacity:1;stroke-width:5.08;stroke-linejoin:round;paint-order:stroke markers fill"
           d="m 56.571224,220.61547 c -0.212736,0.007 -0.636281,0.77789 -1.03818,0.96635 -0.667317,0.31293 -1.587692,-0.0853 -2.183329,0.34882 -0.302356,0.22036 -0.528552,0.59943 -0.600246,0.97468 -0.02657,0.13906 -0.12188,0.19468 -0.247302,0.12857 -0.484818,-0.25556 -1.009829,-0.40504 -1.521299,-0.33947 -0.428194,0.0549 -0.974421,0.44834 -1.393393,0.92628 -0.047,0.0536 -0.118722,0.0511 -0.142389,-0.0158 -0.07555,-0.21372 -0.08538,-0.56642 -0.244472,-0.76782 -0.309746,-0.3921 -0.773949,-0.71837 -1.266589,-0.80201 -0.803295,-0.13637 -1.598215,0.77946 -2.380733,0.55242 -0.295869,-0.0858 -0.354047,-0.56909 -0.649056,-0.65784 -0.226981,-0.0683 -0.05271,0.43098 -0.05271,0.43098 0.144435,0.35281 0.303515,0.4585 0.546737,0.53537 0.816471,0.25804 1.697933,-0.59367 2.535245,-0.41445 0.351139,0.0752 0.688538,0.30293 0.89917,0.59376 0.197697,0.27297 0.09566,0.7512 0.217986,1.02847 0.03748,0.085 0.06303,0.20198 0.02476,0.28758 -0.08008,0.17914 -0.127334,0.35219 -0.12957,0.50761 -0.01684,1.16966 1.050557,1.90293 1.484664,1.99213 -0.49265,0.24806 -1.440709,0.58877 -1.612822,1.2454 -0.318235,1.2141 1.766037,2.5016 2.756421,2.59003 1.03723,0.0926 2.028002,-0.63826 2.668054,-1.41542 0.143288,-0.17398 0.268099,-0.367 0.373202,-0.57252 0.03069,-0.06 0.02452,-0.15659 0.0024,-0.22013 -0.04626,-0.13273 -0.06436,-0.32021 -0.01384,-0.58401 0.0486,-0.25378 0.155924,-0.36889 0.267525,-0.41559 0.06401,-0.0268 0.12981,-0.0832 0.136136,-0.15246 0.01827,-0.19995 0.02063,-0.39961 0.0061,-0.59467 -0.0796,-1.07089 -0.725026,-2.28347 -1.381828,-2.9099 -0.110374,-0.10527 -0.228688,-0.20918 -0.35299,-0.30935 -0.09636,-0.0776 -0.164669,-0.23669 -0.148099,-0.35934 0.05866,-0.43418 0.117833,-0.70728 0.389985,-0.93121 0.58228,-0.47911 1.552101,-0.0296 2.235523,-0.3483 0.363699,-0.16957 0.769587,-0.43639 0.906404,-0.7922 0.05894,-0.1533 0.08893,-0.39175 -0.04237,-0.49041 -0.01486,-0.0112 -0.03106,-0.0161 -0.04909,-0.0155 z m -4.822961,3.33107 c 0.164364,0.005 0.351223,0.0716 0.476973,0.14624 0.228135,0.13537 0.533452,0.45908 0.399976,0.68833 -0.136862,0.23506 -0.584255,0.13474 -0.815971,-0.008 -0.224143,-0.13779 -0.502927,-0.47773 -0.363286,-0.70073 0.06036,-0.0964 0.174468,-0.12999 0.302308,-0.12609 z m -1.390613,0.26096 c 0.05128,-2e-4 0.09913,0.0158 0.140043,0.0543 0.187013,0.17603 0.01043,0.50596 -0.150895,0.69143 -0.161321,0.18547 -0.493189,0.44477 -0.719853,0.26562 -0.213494,-0.16887 0.0389,-0.48472 0.19637,-0.66301 0.123019,-0.13929 0.35119,-0.34758 0.534335,-0.3483 z m 3.976501,1.95699 c 0.202863,0.001 0.307543,0.37349 0.327629,0.57102 0.02217,0.21798 0.03264,0.59932 -0.231511,0.62632 -0.23005,0.0236 -0.338036,-0.27401 -0.376204,-0.47129 -0.04719,-0.24391 -0.02463,-0.62698 0.21394,-0.71365 0.02311,-0.008 0.04516,-0.0125 0.06615,-0.0124 z m -0.395325,2.13992 c 0.09874,9.9e-4 0.195799,0.0322 0.282154,0.108 0.285516,0.25055 -0.02703,0.67484 -0.218591,0.83871 -0.191569,0.16387 -0.549433,0.41547 -0.7891,0.10387 -0.208764,-0.27135 -0.01042,-0.59139 0.148312,-0.76222 0.134918,-0.1452 0.359997,-0.29054 0.577225,-0.28836 z"
           inkscape:path-effect="#path-effect196"
           inkscape:original-d="m 56.571224,220.61547 c -0.212736,0.007 -0.636281,0.77789 -1.03818,0.96635 -0.667317,0.31293 -1.587692,-0.0853 -2.183329,0.34882 -0.37159,0.27082 -0.62815,0.78135 -0.624251,1.2299 -0.544324,-0.33046 -1.153503,-0.5419 -1.744596,-0.46612 -0.457273,0.0586 -1.049154,0.50334 -1.476913,1.02474 -0.136951,-0.17188 -0.110563,-0.63808 -0.303341,-0.88212 -0.309746,-0.3921 -0.773949,-0.71837 -1.266589,-0.80201 -0.803295,-0.13637 -1.598215,0.77946 -2.380733,0.55242 -0.295869,-0.0858 -0.354047,-0.56909 -0.649056,-0.65784 -0.226981,-0.0683 -0.05271,0.43098 -0.05271,0.43098 0.144435,0.35281 0.303515,0.4585 0.546737,0.53537 0.816471,0.25804 1.697933,-0.59367 2.535245,-0.41445 0.351139,0.0752 0.688538,0.30293 0.89917,0.59376 0.235897,0.32571 0.04503,0.94368 0.31781,1.16376 -0.125016,0.23271 -0.201773,0.46078 -0.204638,0.6599 -0.01684,1.16966 1.050557,1.90293 1.484664,1.99213 -0.49265,0.24806 -1.440709,0.58877 -1.612822,1.2454 -0.318235,1.2141 1.766037,2.5016 2.756421,2.59003 1.03723,0.0926 2.028002,-0.63826 2.668054,-1.41542 0.168501,-0.2046 0.311452,-0.43552 0.426847,-0.68213 -0.07913,-0.13192 -0.13166,-0.347 -0.06511,-0.69453 0.06654,-0.34749 0.243192,-0.43499 0.390157,-0.44287 0.03005,-0.2416 0.03716,-0.48409 0.01964,-0.71985 -0.0796,-1.07089 -0.725026,-2.28347 -1.381828,-2.9099 -0.161732,-0.15425 -0.340515,-0.3056 -0.5302,-0.44649 0.07425,-0.56736 0.103221,-0.8935 0.419096,-1.15341 0.58228,-0.47911 1.552101,-0.0296 2.235523,-0.3483 0.363699,-0.16957 0.769587,-0.43639 0.906404,-0.7922 0.05894,-0.1533 0.08893,-0.39175 -0.04237,-0.49041 -0.01486,-0.0112 -0.03106,-0.0161 -0.04909,-0.0155 z m -4.822961,3.33107 c 0.164364,0.005 0.351223,0.0716 0.476973,0.14624 0.228135,0.13537 0.533452,0.45908 0.399976,0.68833 -0.136862,0.23506 -0.584255,0.13474 -0.815971,-0.008 -0.224143,-0.13779 -0.502927,-0.47773 -0.363286,-0.70073 0.06036,-0.0964 0.174468,-0.12999 0.302308,-0.12609 z m -1.390613,0.26096 c 0.05128,-2e-4 0.09913,0.0158 0.140043,0.0543 0.187013,0.17603 0.01043,0.50596 -0.150895,0.69143 -0.161321,0.18547 -0.493189,0.44477 -0.719853,0.26562 -0.213494,-0.16887 0.0389,-0.48472 0.19637,-0.66301 0.123019,-0.13929 0.35119,-0.34758 0.534335,-0.3483 z m 3.976501,1.95699 c 0.202863,0.001 0.307543,0.37349 0.327629,0.57102 0.02217,0.21798 0.03264,0.59932 -0.231511,0.62632 -0.23005,0.0236 -0.338036,-0.27401 -0.376204,-0.47129 -0.04719,-0.24391 -0.02463,-0.62698 0.21394,-0.71365 0.02311,-0.008 0.04516,-0.0125 0.06615,-0.0124 z m -0.395325,2.13992 c 0.09874,9.9e-4 0.195799,0.0322 0.282154,0.108 0.285516,0.25055 -0.02703,0.67484 -0.218591,0.83871 -0.191569,0.16387 -0.549433,0.41547 -0.7891,0.10387 -0.208764,-0.27135 -0.01042,-0.59139 0.148312,-0.76222 0.134918,-0.1452 0.359997,-0.29054 0.577225,-0.28836 z" /></g><path
         style="fill:#4b4b4b;fill-opacity:1;stroke:none"
         d="m 50.435779,231.09887 c -0.14017,-0.004 -0.562818,-0.12722 -0.939216,-0.27439 -0.376398,-0.14716 -0.720453,-0.23147 -0.764567,-0.18736 -0.04411,0.0441 -0.08021,0.0169 -0.08021,-0.0604 0,-0.0774 -0.241089,-0.22783 -0.535753,-0.33438 -0.294664,-0.10655 -1.210299,-0.65138 -2.034746,-1.21072 -1.37658,-0.93394 -1.543926,-1.00956 -2.049214,-0.92596 -0.302621,0.0501 -1.566004,0.14933 -2.807516,0.22057 -1.660401,0.0953 -2.854189,0.0765 -4.51459,-0.0709 -1.241512,-0.11022 -2.568067,-0.27282 -2.947898,-0.36133 -0.663886,-0.1547 -0.711651,-0.14357 -1.234645,0.28752 -0.299223,0.24665 -0.620307,0.44845 -0.713521,0.44845 -0.09321,0 -0.211158,-0.16607 -0.2621,-0.36904 -0.05094,-0.20296 -0.254649,-0.44285 -0.452683,-0.53308 -0.198034,-0.0902 -0.360062,-0.21269 -0.360062,-0.27213 0,-0.0594 -0.442357,-0.23952 -0.983016,-0.40017 -0.540659,-0.16066 -1.179619,-0.32883 -1.419911,-0.37372 -0.240293,-0.0449 -0.731801,-0.11818 -1.09224,-0.16287 -0.360439,-0.0447 -1.114084,-0.14488 -1.674767,-0.22265 -0.560683,-0.0778 -3.848352,-0.15793 -7.305932,-0.17815 -3.457579,-0.0202 -6.33127,-0.0815 -6.38598,-0.13629 -0.05471,-0.0547 -0.05781,-0.16694 -0.0069,-0.24932 0.06098,-0.0987 2.234734,-0.15251 6.370399,-0.15777 3.452804,-0.004 6.448673,-0.045 6.657487,-0.0902 0.208814,-0.0452 0.543498,-0.13708 0.743742,-0.20416 0.200244,-0.0671 0.532214,-0.15826 0.737712,-0.20264 0.205497,-0.0444 0.526813,-0.21354 0.714035,-0.37592 0.187221,-0.16238 0.437545,-0.29523 0.556275,-0.29523 0.11873,0 0.358067,0.14745 0.53186,0.32767 0.173792,0.18022 0.50682,0.47513 0.740063,0.65535 0.233242,0.18022 0.533909,0.32767 0.668148,0.32767 0.134239,0 0.278409,0.0895 0.320377,0.19885 0.04197,0.10936 0.596833,0.3715 1.233034,0.58252 0.636201,0.21103 1.259538,0.38368 1.385193,0.38368 0.125655,0 0.331665,-0.1032 0.457799,-0.22933 0.126135,-0.12614 0.900845,-0.4577 1.721578,-0.7368 0.820733,-0.27911 2.016516,-0.57538 2.657297,-0.65838 0.64078,-0.083 1.709394,-0.11121 2.374698,-0.0627 0.665303,0.0485 1.78645,0.21669 2.491439,0.37372 0.704989,0.15704 1.471337,0.3586 1.702997,0.44792 0.231659,0.0893 0.748871,0.21521 1.149359,0.27974 0.439826,0.0709 1.068071,0.0542 1.586576,-0.0421 0.639148,-0.11872 0.988446,-0.28208 1.367466,-0.63954 0.279978,-0.26406 0.560843,-0.4801 0.624145,-0.4801 0.0633,0 0.05468,0.21299 -0.01915,0.4733 -0.07383,0.26032 -0.468268,0.79654 -0.876519,1.19161 -0.656277,0.63509 -0.732016,0.7696 -0.653725,1.16106 0.0487,0.24351 0.300258,0.66264 0.559013,0.93141 0.258755,0.26877 0.86005,0.72931 1.336212,1.02343 0.476162,0.29411 0.918519,0.51837 0.983016,0.49835 0.0645,-0.02 0.117266,0.0247 0.117266,0.0994 0,0.0747 0.131069,0.17742 0.291264,0.22826 0.160195,0.0508 0.291264,0.15356 0.291264,0.22826 0,0.0747 -0.114685,0.13275 -0.254856,0.12901 z m -12.560754,-3.51711 c 0.841024,0.0242 2.407715,-0.0274 3.481534,-0.1147 1.07382,-0.0873 2.013504,-0.19654 2.088187,-0.2427 0.07468,-0.0462 -0.197879,-0.27448 -0.605694,-0.50739 -0.520322,-0.29717 -1.099267,-0.47163 -1.941026,-0.58492 -0.659749,-0.0888 -1.888343,-0.12701 -2.730208,-0.0849 -0.996248,0.0498 -1.886587,0.19006 -2.550088,0.40177 -0.560683,0.17891 -1.199644,0.39839 -1.419912,0.48774 -0.220268,0.0894 -0.400488,0.20729 -0.400488,0.26207 0,0.0548 0.344056,0.13712 0.764568,0.18298 0.420512,0.0459 0.993938,0.0997 1.274279,0.1197 0.280342,0.02 1.197823,0.0562 2.038848,0.0804 z"
         id="path1" /><path
         style="fill:#4b4b4b;fill-opacity:1;stroke:none"
         d="m 53.208546,231.10214 c 0.14017,-0.004 0.56282,-0.12722 0.93921,-0.27439 0.3764,-0.14716 0.72046,-0.23147 0.76457,-0.18736 0.0441,0.0441 0.0802,0.0169 0.0802,-0.0604 0,-0.0774 0.24109,-0.22783 0.53575,-0.33438 0.29467,-0.10655 1.2103,-0.65138 2.03475,-1.21072 1.37658,-0.93394 1.54393,-1.00956 2.04921,-0.92596 0.30262,0.0501 1.56601,0.14933 2.80752,0.22057 1.6604,0.0953 2.85419,0.0765 4.51459,-0.0709 1.241515,-0.11022 2.568075,-0.27282 2.947905,-0.36133 0.66388,-0.1547 0.71165,-0.14357 1.234637,0.28752 0.29923,0.24665 0.62031,0.44845 0.71352,0.44845 0.0932,0 0.21116,-0.16607 0.2621,-0.36904 0.0509,-0.20296 0.25465,-0.44285 0.45269,-0.53308 0.19803,-0.0902 0.36006,-0.21269 0.36006,-0.27213 0,-0.0594 0.44236,-0.23952 0.98301,-0.40017 0.54066,-0.16066 1.17962,-0.32883 1.41991,-0.37372 0.2403,-0.0449 0.73181,-0.11818 1.09224,-0.16287 0.36044,-0.0447 1.11409,-0.14488 1.67477,-0.22265 0.56068,-0.0778 3.84835,-0.15793 7.30593,-0.17815 3.45758,-0.0202 6.33127,-0.0815 6.38598,-0.13629 0.0547,-0.0547 0.0578,-0.16694 0.007,-0.24932 -0.061,-0.0987 -2.23473,-0.15251 -6.3704,-0.15777 -3.4528,-0.004 -6.44867,-0.045 -6.65748,-0.0902 -0.20882,-0.0452 -0.5435,-0.13708 -0.74374,-0.20416 -0.20025,-0.0671 -0.53222,-0.15826 -0.73772,-0.20264 -0.20549,-0.0444 -0.52681,-0.21354 -0.71403,-0.37592 -0.18722,-0.16238 -0.43755,-0.29523 -0.55628,-0.29523 -0.11873,0 -0.35806,0.14745 -0.53186,0.32767 -0.17379,0.18022 -0.50682,0.47513 -0.74006,0.65535 -0.23324,0.18022 -0.53391,0.32767 -0.66815,0.32767 -0.13424,0 -0.27841,0.0895 -0.32037,0.19885 -0.042,0.10936 -0.59684,0.3715 -1.23304,0.58252 -0.6362,0.21103 -1.25954,0.38368 -1.38519,0.38368 -0.12566,0 -0.331667,-0.1032 -0.457797,-0.22933 -0.12613,-0.12614 -0.90084,-0.4577 -1.72158,-0.7368 -0.82073,-0.27911 -2.016515,-0.57538 -2.657295,-0.65838 -0.64078,-0.083 -1.7094,-0.11121 -2.3747,-0.0627 -0.66531,0.0485 -1.78645,0.21669 -2.49144,0.37372 -0.70499,0.15704 -1.47134,0.3586 -1.703,0.44792 -0.23166,0.0893 -0.74887,0.21521 -1.14936,0.27974 -0.43982,0.0709 -1.06807,0.0542 -1.58657,-0.0421 -0.63915,-0.11872 -0.98845,-0.28208 -1.36747,-0.63954 -0.27998,-0.26406 -0.56084,-0.4801 -0.62414,-0.4801 -0.0633,0 -0.0547,0.21299 0.0192,0.4733 0.0738,0.26032 0.46826,0.79654 0.87651,1.19161 0.65628,0.63509 0.73202,0.7696 0.65373,1.16106 -0.0487,0.24351 -0.30026,0.66264 -0.55901,0.93141 -0.25876,0.26877 -0.86005,0.72931 -1.33622,1.02343 -0.47616,0.29411 -0.91851,0.51837 -0.98301,0.49835 -0.0645,-0.02 -0.11727,0.0247 -0.11727,0.0994 0,0.0747 -0.13107,0.17742 -0.29126,0.22826 -0.1602,0.0508 -0.29127,0.15356 -0.29127,0.22826 0,0.0747 0.11469,0.13275 0.25486,0.12901 z m 12.56075,-3.51711 c -0.84102,0.0242 -2.40771,-0.0274 -3.48153,-0.1147 -1.07382,-0.0873 -2.01351,-0.19654 -2.08819,-0.2427 -0.0747,-0.0462 0.19788,-0.27448 0.60569,-0.50739 0.52033,-0.29717 1.09927,-0.47163 1.94103,-0.58492 0.65975,-0.0888 1.88834,-0.12701 2.73021,-0.0849 0.99625,0.0498 1.88659,0.19006 2.550095,0.40177 0.56068,0.17891 1.19964,0.39839 1.41991,0.48774 0.22027,0.0894 0.40049,0.20729 0.40049,0.26207 0,0.0548 -0.34406,0.13712 -0.76457,0.18298 -0.42051,0.0459 -0.99394,0.0997 -1.274285,0.1197 -0.28034,0.02 -1.19782,0.0562 -2.03885,0.0804 z"
         id="path17" /><path
         style="opacity:0;fill:#ffffff;fill-opacity:1;stroke:none;stroke-width:1;stroke-linecap:round;stroke-opacity:0.419609;filter:url(#filter196)"
         d="m 53.361816,228.59253 c 0.196245,-0.2112 0.583021,-0.42257 0.859355,-0.18008 0.285516,0.25055 -0.027,0.67469 -0.218565,0.83856 -0.191569,0.16387 -0.54966,0.41541 -0.789327,0.10381 -0.208764,-0.27135 -0.01019,-0.59146 0.148537,-0.76229 z"
         id="path196"
         sodipodi:nodetypes="asssa" /></g><g
       id="g221"
       style="opacity:0.5;mix-blend-mode:normal;filter:url(#filter226)"
       inkscape:export-filename="midjubilana.png"
       inkscape:export-xdpi="400"
       inkscape:export-ydpi="400"><g
         id="g198"><path
           id="path197"
           style="fill:#4b4b4b;fill-opacity:1;stroke-width:5.08;stroke-linejoin:round;paint-order:stroke markers fill"
           d="m 56.571224,220.61547 c -0.212736,0.007 -0.636281,0.77789 -1.03818,0.96635 -0.667317,0.31293 -1.587692,-0.0853 -2.183329,0.34882 -0.302356,0.22036 -0.528552,0.59943 -0.600246,0.97468 -0.02657,0.13906 -0.12188,0.19468 -0.247302,0.12857 -0.484818,-0.25556 -1.009829,-0.40504 -1.521299,-0.33947 -0.428194,0.0549 -0.974421,0.44834 -1.393393,0.92628 -0.047,0.0536 -0.118722,0.0511 -0.142389,-0.0158 -0.07555,-0.21372 -0.08538,-0.56642 -0.244472,-0.76782 -0.309746,-0.3921 -0.773949,-0.71837 -1.266589,-0.80201 -0.803295,-0.13637 -1.598215,0.77946 -2.380733,0.55242 -0.295869,-0.0858 -0.354047,-0.56909 -0.649056,-0.65784 -0.226981,-0.0683 -0.05271,0.43098 -0.05271,0.43098 0.144435,0.35281 0.303515,0.4585 0.546737,0.53537 0.816471,0.25804 1.697933,-0.59367 2.535245,-0.41445 0.351139,0.0752 0.688538,0.30293 0.89917,0.59376 0.197697,0.27297 0.09566,0.7512 0.217986,1.02847 0.03748,0.085 0.06303,0.20198 0.02476,0.28758 -0.08008,0.17914 -0.127334,0.35219 -0.12957,0.50761 -0.01684,1.16966 1.050557,1.90293 1.484664,1.99213 -0.49265,0.24806 -1.440709,0.58877 -1.612822,1.2454 -0.318235,1.2141 1.766037,2.5016 2.756421,2.59003 1.03723,0.0926 2.028002,-0.63826 2.668054,-1.41542 0.143288,-0.17398 0.268099,-0.367 0.373202,-0.57252 0.03069,-0.06 0.02452,-0.15659 0.0024,-0.22013 -0.04626,-0.13273 -0.06436,-0.32021 -0.01384,-0.58401 0.0486,-0.25378 0.155924,-0.36889 0.267525,-0.41559 0.06401,-0.0268 0.12981,-0.0832 0.136136,-0.15246 0.01827,-0.19995 0.02063,-0.39961 0.0061,-0.59467 -0.0796,-1.07089 -0.725026,-2.28347 -1.381828,-2.9099 -0.110374,-0.10527 -0.228688,-0.20918 -0.35299,-0.30935 -0.09636,-0.0776 -0.164669,-0.23669 -0.148099,-0.35934 0.05866,-0.43418 0.117833,-0.70728 0.389985,-0.93121 0.58228,-0.47911 1.552101,-0.0296 2.235523,-0.3483 0.363699,-0.16957 0.769587,-0.43639 0.906404,-0.7922 0.05894,-0.1533 0.08893,-0.39175 -0.04237,-0.49041 -0.01486,-0.0112 -0.03106,-0.0161 -0.04909,-0.0155 z m -4.822961,3.33107 c 0.164364,0.005 0.351223,0.0716 0.476973,0.14624 0.228135,0.13537 0.533452,0.45908 0.399976,0.68833 -0.136862,0.23506 -0.584255,0.13474 -0.815971,-0.008 -0.224143,-0.13779 -0.502927,-0.47773 -0.363286,-0.70073 0.06036,-0.0964 0.174468,-0.12999 0.302308,-0.12609 z m -1.390613,0.26096 c 0.05128,-2e-4 0.09913,0.0158 0.140043,0.0543 0.187013,0.17603 0.01043,0.50596 -0.150895,0.69143 -0.161321,0.18547 -0.493189,0.44477 -0.719853,0.26562 -0.213494,-0.16887 0.0389,-0.48472 0.19637,-0.66301 0.123019,-0.13929 0.35119,-0.34758 0.534335,-0.3483 z m 3.976501,1.95699 c 0.202863,0.001 0.307543,0.37349 0.327629,0.57102 0.02217,0.21798 0.03264,0.59932 -0.231511,0.62632 -0.23005,0.0236 -0.338036,-0.27401 -0.376204,-0.47129 -0.04719,-0.24391 -0.02463,-0.62698 0.21394,-0.71365 0.02311,-0.008 0.04516,-0.0125 0.06615,-0.0124 z m -0.395325,2.13992 c 0.09874,9.9e-4 0.195799,0.0322 0.282154,0.108 0.285516,0.25055 -0.02703,0.67484 -0.218591,0.83871 -0.191569,0.16387 -0.549433,0.41547 -0.7891,0.10387 -0.208764,-0.27135 -0.01042,-0.59139 0.148312,-0.76222 0.134918,-0.1452 0.359997,-0.29054 0.577225,-0.28836 z"
           inkscape:path-effect="#path-effect226"
           inkscape:original-d="m 56.571224,220.61547 c -0.212736,0.007 -0.636281,0.77789 -1.03818,0.96635 -0.667317,0.31293 -1.587692,-0.0853 -2.183329,0.34882 -0.37159,0.27082 -0.62815,0.78135 -0.624251,1.2299 -0.544324,-0.33046 -1.153503,-0.5419 -1.744596,-0.46612 -0.457273,0.0586 -1.049154,0.50334 -1.476913,1.02474 -0.136951,-0.17188 -0.110563,-0.63808 -0.303341,-0.88212 -0.309746,-0.3921 -0.773949,-0.71837 -1.266589,-0.80201 -0.803295,-0.13637 -1.598215,0.77946 -2.380733,0.55242 -0.295869,-0.0858 -0.354047,-0.56909 -0.649056,-0.65784 -0.226981,-0.0683 -0.05271,0.43098 -0.05271,0.43098 0.144435,0.35281 0.303515,0.4585 0.546737,0.53537 0.816471,0.25804 1.697933,-0.59367 2.535245,-0.41445 0.351139,0.0752 0.688538,0.30293 0.89917,0.59376 0.235897,0.32571 0.04503,0.94368 0.31781,1.16376 -0.125016,0.23271 -0.201773,0.46078 -0.204638,0.6599 -0.01684,1.16966 1.050557,1.90293 1.484664,1.99213 -0.49265,0.24806 -1.440709,0.58877 -1.612822,1.2454 -0.318235,1.2141 1.766037,2.5016 2.756421,2.59003 1.03723,0.0926 2.028002,-0.63826 2.668054,-1.41542 0.168501,-0.2046 0.311452,-0.43552 0.426847,-0.68213 -0.07913,-0.13192 -0.13166,-0.347 -0.06511,-0.69453 0.06654,-0.34749 0.243192,-0.43499 0.390157,-0.44287 0.03005,-0.2416 0.03716,-0.48409 0.01964,-0.71985 -0.0796,-1.07089 -0.725026,-2.28347 -1.381828,-2.9099 -0.161732,-0.15425 -0.340515,-0.3056 -0.5302,-0.44649 0.07425,-0.56736 0.103221,-0.8935 0.419096,-1.15341 0.58228,-0.47911 1.552101,-0.0296 2.235523,-0.3483 0.363699,-0.16957 0.769587,-0.43639 0.906404,-0.7922 0.05894,-0.1533 0.08893,-0.39175 -0.04237,-0.49041 -0.01486,-0.0112 -0.03106,-0.0161 -0.04909,-0.0155 z m -4.822961,3.33107 c 0.164364,0.005 0.351223,0.0716 0.476973,0.14624 0.228135,0.13537 0.533452,0.45908 0.399976,0.68833 -0.136862,0.23506 -0.584255,0.13474 -0.815971,-0.008 -0.224143,-0.13779 -0.502927,-0.47773 -0.363286,-0.70073 0.06036,-0.0964 0.174468,-0.12999 0.302308,-0.12609 z m -1.390613,0.26096 c 0.05128,-2e-4 0.09913,0.0158 0.140043,0.0543 0.187013,0.17603 0.01043,0.50596 -0.150895,0.69143 -0.161321,0.18547 -0.493189,0.44477 -0.719853,0.26562 -0.213494,-0.16887 0.0389,-0.48472 0.19637,-0.66301 0.123019,-0.13929 0.35119,-0.34758 0.534335,-0.3483 z m 3.976501,1.95699 c 0.202863,0.001 0.307543,0.37349 0.327629,0.57102 0.02217,0.21798 0.03264,0.59932 -0.231511,0.62632 -0.23005,0.0236 -0.338036,-0.27401 -0.376204,-0.47129 -0.04719,-0.24391 -0.02463,-0.62698 0.21394,-0.71365 0.02311,-0.008 0.04516,-0.0125 0.06615,-0.0124 z m -0.395325,2.13992 c 0.09874,9.9e-4 0.195799,0.0322 0.282154,0.108 0.285516,0.25055 -0.02703,0.67484 -0.218591,0.83871 -0.191569,0.16387 -0.549433,0.41547 -0.7891,0.10387 -0.208764,-0.27135 -0.01042,-0.59139 0.148312,-0.76222 0.134918,-0.1452 0.359997,-0.29054 0.577225,-0.28836 z" /></g><path
         style="fill:#4b4b4b;fill-opacity:1;stroke:none"
         d="m 50.435779,231.09887 c -0.14017,-0.004 -0.562818,-0.12722 -0.939216,-0.27439 -0.376398,-0.14716 -0.720453,-0.23147 -0.764567,-0.18736 -0.04411,0.0441 -0.08021,0.0169 -0.08021,-0.0604 0,-0.0774 -0.241089,-0.22783 -0.535753,-0.33438 -0.294664,-0.10655 -1.210299,-0.65138 -2.034746,-1.21072 -1.37658,-0.93394 -1.543926,-1.00956 -2.049214,-0.92596 -0.302621,0.0501 -1.566004,0.14933 -2.807516,0.22057 -1.660401,0.0953 -2.854189,0.0765 -4.51459,-0.0709 -1.241512,-0.11022 -2.568067,-0.27282 -2.947898,-0.36133 -0.663886,-0.1547 -0.711651,-0.14357 -1.234645,0.28752 -0.299223,0.24665 -0.620307,0.44845 -0.713521,0.44845 -0.09321,0 -0.211158,-0.16607 -0.2621,-0.36904 -0.05094,-0.20296 -0.254649,-0.44285 -0.452683,-0.53308 -0.198034,-0.0902 -0.360062,-0.21269 -0.360062,-0.27213 0,-0.0594 -0.442357,-0.23952 -0.983016,-0.40017 -0.540659,-0.16066 -1.179619,-0.32883 -1.419911,-0.37372 -0.240293,-0.0449 -0.731801,-0.11818 -1.09224,-0.16287 -0.360439,-0.0447 -1.114084,-0.14488 -1.674767,-0.22265 -0.560683,-0.0778 -3.848352,-0.15793 -7.305932,-0.17815 -3.457579,-0.0202 -6.33127,-0.0815 -6.38598,-0.13629 -0.05471,-0.0547 -0.05781,-0.16694 -0.0069,-0.24932 0.06098,-0.0987 2.234734,-0.15251 6.370399,-0.15777 3.452804,-0.004 6.448673,-0.045 6.657487,-0.0902 0.208814,-0.0452 0.543498,-0.13708 0.743742,-0.20416 0.200244,-0.0671 0.532214,-0.15826 0.737712,-0.20264 0.205497,-0.0444 0.526813,-0.21354 0.714035,-0.37592 0.187221,-0.16238 0.437545,-0.29523 0.556275,-0.29523 0.11873,0 0.358067,0.14745 0.53186,0.32767 0.173792,0.18022 0.50682,0.47513 0.740063,0.65535 0.233242,0.18022 0.533909,0.32767 0.668148,0.32767 0.134239,0 0.278409,0.0895 0.320377,0.19885 0.04197,0.10936 0.596833,0.3715 1.233034,0.58252 0.636201,0.21103 1.259538,0.38368 1.385193,0.38368 0.125655,0 0.331665,-0.1032 0.457799,-0.22933 0.126135,-0.12614 0.900845,-0.4577 1.721578,-0.7368 0.820733,-0.27911 2.016516,-0.57538 2.657297,-0.65838 0.64078,-0.083 1.709394,-0.11121 2.374698,-0.0627 0.665303,0.0485 1.78645,0.21669 2.491439,0.37372 0.704989,0.15704 1.471337,0.3586 1.702997,0.44792 0.231659,0.0893 0.748871,0.21521 1.149359,0.27974 0.439826,0.0709 1.068071,0.0542 1.586576,-0.0421 0.639148,-0.11872 0.988446,-0.28208 1.367466,-0.63954 0.279978,-0.26406 0.560843,-0.4801 0.624145,-0.4801 0.0633,0 0.05468,0.21299 -0.01915,0.4733 -0.07383,0.26032 -0.468268,0.79654 -0.876519,1.19161 -0.656277,0.63509 -0.732016,0.7696 -0.653725,1.16106 0.0487,0.24351 0.300258,0.66264 0.559013,0.93141 0.258755,0.26877 0.86005,0.72931 1.336212,1.02343 0.476162,0.29411 0.918519,0.51837 0.983016,0.49835 0.0645,-0.02 0.117266,0.0247 0.117266,0.0994 0,0.0747 0.131069,0.17742 0.291264,0.22826 0.160195,0.0508 0.291264,0.15356 0.291264,0.22826 0,0.0747 -0.114685,0.13275 -0.254856,0.12901 z m -12.560754,-3.51711 c 0.841024,0.0242 2.407715,-0.0274 3.481534,-0.1147 1.07382,-0.0873 2.013504,-0.19654 2.088187,-0.2427 0.07468,-0.0462 -0.197879,-0.27448 -0.605694,-0.50739 -0.520322,-0.29717 -1.099267,-0.47163 -1.941026,-0.58492 -0.659749,-0.0888 -1.888343,-0.12701 -2.730208,-0.0849 -0.996248,0.0498 -1.886587,0.19006 -2.550088,0.40177 -0.560683,0.17891 -1.199644,0.39839 -1.419912,0.48774 -0.220268,0.0894 -0.400488,0.20729 -0.400488,0.26207 0,0.0548 0.344056,0.13712 0.764568,0.18298 0.420512,0.0459 0.993938,0.0997 1.274279,0.1197 0.280342,0.02 1.197823,0.0562 2.038848,0.0804 z"
         id="path199" /><path
         style="fill:#4b4b4b;fill-opacity:1;stroke:none"
         d="m 53.208546,231.10214 c 0.14017,-0.004 0.56282,-0.12722 0.93921,-0.27439 0.3764,-0.14716 0.72046,-0.23147 0.76457,-0.18736 0.0441,0.0441 0.0802,0.0169 0.0802,-0.0604 0,-0.0774 0.24109,-0.22783 0.53575,-0.33438 0.29467,-0.10655 1.2103,-0.65138 2.03475,-1.21072 1.37658,-0.93394 1.54393,-1.00956 2.04921,-0.92596 0.30262,0.0501 1.56601,0.14933 2.80752,0.22057 1.6604,0.0953 2.85419,0.0765 4.51459,-0.0709 1.241515,-0.11022 2.568075,-0.27282 2.947905,-0.36133 0.66388,-0.1547 0.71165,-0.14357 1.234637,0.28752 0.29923,0.24665 0.62031,0.44845 0.71352,0.44845 0.0932,0 0.21116,-0.16607 0.2621,-0.36904 0.0509,-0.20296 0.25465,-0.44285 0.45269,-0.53308 0.19803,-0.0902 0.36006,-0.21269 0.36006,-0.27213 0,-0.0594 0.44236,-0.23952 0.98301,-0.40017 0.54066,-0.16066 1.17962,-0.32883 1.41991,-0.37372 0.2403,-0.0449 0.73181,-0.11818 1.09224,-0.16287 0.36044,-0.0447 1.11409,-0.14488 1.67477,-0.22265 0.56068,-0.0778 3.84835,-0.15793 7.30593,-0.17815 3.45758,-0.0202 6.33127,-0.0815 6.38598,-0.13629 0.0547,-0.0547 0.0578,-0.16694 0.007,-0.24932 -0.061,-0.0987 -2.23473,-0.15251 -6.3704,-0.15777 -3.4528,-0.004 -6.44867,-0.045 -6.65748,-0.0902 -0.20882,-0.0452 -0.5435,-0.13708 -0.74374,-0.20416 -0.20025,-0.0671 -0.53222,-0.15826 -0.73772,-0.20264 -0.20549,-0.0444 -0.52681,-0.21354 -0.71403,-0.37592 -0.18722,-0.16238 -0.43755,-0.29523 -0.55628,-0.29523 -0.11873,0 -0.35806,0.14745 -0.53186,0.32767 -0.17379,0.18022 -0.50682,0.47513 -0.74006,0.65535 -0.23324,0.18022 -0.53391,0.32767 -0.66815,0.32767 -0.13424,0 -0.27841,0.0895 -0.32037,0.19885 -0.042,0.10936 -0.59684,0.3715 -1.23304,0.58252 -0.6362,0.21103 -1.25954,0.38368 -1.38519,0.38368 -0.12566,0 -0.331667,-0.1032 -0.457797,-0.22933 -0.12613,-0.12614 -0.90084,-0.4577 -1.72158,-0.7368 -0.82073,-0.27911 -2.016515,-0.57538 -2.657295,-0.65838 -0.64078,-0.083 -1.7094,-0.11121 -2.3747,-0.0627 -0.66531,0.0485 -1.78645,0.21669 -2.49144,0.37372 -0.70499,0.15704 -1.47134,0.3586 -1.703,0.44792 -0.23166,0.0893 -0.74887,0.21521 -1.14936,0.27974 -0.43982,0.0709 -1.06807,0.0542 -1.58657,-0.0421 -0.63915,-0.11872 -0.98845,-0.28208 -1.36747,-0.63954 -0.27998,-0.26406 -0.56084,-0.4801 -0.62414,-0.4801 -0.0633,0 -0.0547,0.21299 0.0192,0.4733 0.0738,0.26032 0.46826,0.79654 0.87651,1.19161 0.65628,0.63509 0.73202,0.7696 0.65373,1.16106 -0.0487,0.24351 -0.30026,0.66264 -0.55901,0.93141 -0.25876,0.26877 -0.86005,0.72931 -1.33622,1.02343 -0.47616,0.29411 -0.91851,0.51837 -0.98301,0.49835 -0.0645,-0.02 -0.11727,0.0247 -0.11727,0.0994 0,0.0747 -0.13107,0.17742 -0.29126,0.22826 -0.1602,0.0508 -0.29127,0.15356 -0.29127,0.22826 0,0.0747 0.11469,0.13275 0.25486,0.12901 z m 12.56075,-3.51711 c -0.84102,0.0242 -2.40771,-0.0274 -3.48153,-0.1147 -1.07382,-0.0873 -2.01351,-0.19654 -2.08819,-0.2427 -0.0747,-0.0462 0.19788,-0.27448 0.60569,-0.50739 0.52033,-0.29717 1.09927,-0.47163 1.94103,-0.58492 0.65975,-0.0888 1.88834,-0.12701 2.73021,-0.0849 0.99625,0.0498 1.88659,0.19006 2.550095,0.40177 0.56068,0.17891 1.19964,0.39839 1.41991,0.48774 0.22027,0.0894 0.40049,0.20729 0.40049,0.26207 0,0.0548 -0.34406,0.13712 -0.76457,0.18298 -0.42051,0.0459 -0.99394,0.0997 -1.274285,0.1197 -0.28034,0.02 -1.19782,0.0562 -2.03885,0.0804 z"
         id="path206" /><path
         style="opacity:0;fill:#ffffff;fill-opacity:1;stroke:none;stroke-width:1;stroke-linecap:round;stroke-opacity:0.419609;filter:url(#filter196)"
         d="m 53.361816,228.59253 c 0.196245,-0.2112 0.583021,-0.42257 0.859355,-0.18008 0.285516,0.25055 -0.027,0.67469 -0.218565,0.83856 -0.191569,0.16387 -0.54966,0.41541 -0.789327,0.10381 -0.208764,-0.27135 -0.01019,-0.59146 0.148537,-0.76229 z"
         id="path221"
         sodipodi:nodetypes="asssa" /></g></g></svg>
