<?xml version="1.0" encoding="UTF-8" standalone="no"?>
<!-- Created with Inkscape (http://www.inkscape.org/) -->

<svg
   width="84.396606mm"
   height="16.536234mm"
   viewBox="0 0 84.396606 16.536234"
   version="1.1"
   id="svg1"
   xml:space="preserve"
   xmlns="http://www.w3.org/2000/svg"
   xmlns:svg="http://www.w3.org/2000/svg"><defs
     id="defs1"><filter
       style="color-interpolation-filters:sRGB"
       id="filter202"
       x="-0.02777105"
       y="-0.23088132"
       width="1.0555421"
       height="1.4617626"><feGaussianBlur
         stdDeviation="0.92465181"
         id="feGaussianBlur202" /></filter><filter
       style="color-interpolation-filters:sRGB"
       id="filter56"
       x="-0.027635829"
       y="-0.1824233"
       width="1.0552717"
       height="1.3648466"><feGaussianBlur
         stdDeviation="0.92092007"
         id="feGaussianBlur56" /></filter></defs><g
     id="layer1"
     transform="translate(-38.809689,-123.90757)"><g
       id="g202"
       transform="translate(-12.86238,-145.30311)"
       style="opacity:0.5;fill:#4b4b4b;fill-opacity:1;stroke:none;filter:url(#filter202)"><path
         style="fill:#4b4b4b;fill-opacity:1;stroke:none"
         d="m 93.830595,267.6286 c -0.04439,3.4e-4 -0.378436,-0.18819 -0.742321,-0.41895 -0.363885,-0.23077 -0.801791,-0.61645 -0.973124,-0.85707 -0.171333,-0.24061 -0.453092,-0.7563 -0.62613,-1.14596 -0.253694,-0.57129 -0.314914,-0.99048 -0.316157,-2.1648 -0.0012,-1.1092 0.07643,-1.70246 0.325577,-2.48896 0.179916,-0.56795 0.470825,-1.28883 0.646466,-1.60195 0.175642,-0.31312 0.407175,-0.56931 0.514519,-0.56931 0.152176,0 0.199279,0.41707 0.213815,1.89321 0.01503,1.52603 0.06969,1.98673 0.281826,2.37539 0.208992,0.38289 0.340964,0.47285 0.640941,0.4369 0.208789,-0.025 0.514482,-0.2297 0.683425,-0.45757 0.27615,-0.37248 0.304736,-0.601 0.296036,-2.36652 -0.0064,-1.30325 0.04255,-1.95423 0.147009,-1.95423 0.08615,0 0.251826,0.14745 0.368166,0.32767 0.11634,0.18022 0.355503,0.63258 0.531475,1.00525 0.175971,0.37267 0.400312,1.06078 0.498535,1.52913 0.09822,0.46836 0.179365,1.281 0.180316,1.80586 9.51e-4,0.52486 -0.07913,1.29135 -0.17796,1.70332 -0.09883,0.41196 -0.397134,1.05487 -0.6629,1.42867 -0.265765,0.37381 -0.767968,0.86857 -1.116006,1.09947 -0.348038,0.23091 -0.669117,0.42011 -0.713508,0.42045 z m -0.762471,-1.16443 c 0.137074,0 0.165529,-0.11662 0.09772,-0.40049 -0.05262,-0.22027 -0.160194,-0.4824 -0.239055,-0.58253 -0.07886,-0.10012 -0.297572,-0.18204 -0.486026,-0.18204 -0.312726,0 -0.32967,0.035 -0.194059,0.40049 0.08172,0.22027 0.256462,0.48241 0.38831,0.58253 0.131849,0.10012 0.32675,0.18204 0.433113,0.18204 z m 1.571342,0 c 0.120147,0 0.349517,-0.13107 0.509712,-0.29126 0.160195,-0.1602 0.291264,-0.42234 0.291264,-0.58253 0,-0.21249 -0.09709,-0.29127 -0.358956,-0.29127 -0.205841,0 -0.423262,0.12016 -0.509712,0.28169 -0.08291,0.15493 -0.150755,0.41707 -0.150755,0.58253 0,0.17033 0.09477,0.30084 0.218447,0.30084 z"
         id="path200" /><path
         style="fill:#4b4b4b;fill-opacity:1;stroke:none"
         d="m 95.123236,267.92049 c -0.06583,0 -0.11969,-0.0581 -0.11969,-0.12904 0,-0.071 0.445845,-0.3939 0.990767,-0.71763 0.544921,-0.32374 1.291856,-0.87186 1.659854,-1.21806 0.367998,-0.34621 0.75073,-0.79016 0.850516,-0.98658 0.133603,-0.26298 0.137534,-0.37175 0.01491,-0.41262 -0.09158,-0.0305 -0.166515,-0.14835 -0.166515,-0.26182 0,-0.11347 -0.05898,-0.20631 -0.131069,-0.20631 -0.07209,0 -0.366992,-0.23593 -0.655344,-0.52428 -0.288351,-0.28835 -0.524275,-0.53454 -0.524275,-0.54708 0,-0.0125 -0.06096,-0.23536 -0.135466,-0.49515 -0.120397,-0.4198 -0.103241,-0.47234 0.154227,-0.47234 0.159331,0 0.255078,0.056 0.212771,0.12446 -0.04231,0.0685 0.08336,0.27504 0.279261,0.45908 0.226348,0.21265 0.698252,0.3989 1.294601,0.51097 0.576674,0.10837 1.209546,0.1327 1.641766,0.0631 0.38685,-0.0623 0.87772,-0.18052 1.09083,-0.2628 0.21312,-0.0823 0.93637,-0.27994 1.60724,-0.43927 0.67087,-0.15933 1.77746,-0.33495 2.4591,-0.39025 0.7266,-0.059 1.75722,-0.0316 2.49115,0.066 0.68851,0.0916 1.73402,0.33003 2.32336,0.5298 0.58935,0.19976 1.41895,0.53835 1.84357,0.75241 l 0.77203,0.38921 1.23959,-0.40369 c 0.68178,-0.22203 1.2751,-0.49621 1.31849,-0.60928 0.0434,-0.11308 0.12873,-0.17479 0.18963,-0.13715 0.0609,0.0376 0.41603,-0.13377 0.78916,-0.38092 0.37313,-0.24714 0.74471,-0.57323 0.82573,-0.72462 0.081,-0.15139 0.2714,-0.27526 0.42305,-0.27526 0.15166,0 0.38025,0.10451 0.50798,0.23224 0.12774,0.12774 0.57478,0.37004 0.99342,0.53845 0.72369,0.29112 1.09233,0.31017 7.48474,0.38669 3.69796,0.0443 6.77262,0.12964 6.83257,0.18972 0.06,0.0601 0.0599,0.15837 -1.3e-4,0.21844 -0.06,0.0601 -2.97084,0.12809 -6.46849,0.15115 -5.43701,0.0358 -6.65506,0.0843 -8.3982,0.33405 -1.12137,0.16067 -2.47539,0.42137 -3.00895,0.57933 -0.57387,0.1699 -1.15382,0.45883 -1.41991,0.7074 -0.2474,0.2311 -0.44981,0.52496 -0.44981,0.65302 0,0.12806 -0.0834,0.23284 -0.18527,0.23284 -0.10189,0 -0.4302,-0.2019 -0.72957,-0.44866 -0.53273,-0.43913 -0.56052,-0.44507 -1.30746,-0.27945 -0.41974,0.0931 -1.74617,0.25684 -2.94764,0.36394 -1.62286,0.14467 -2.76481,0.1594 -4.44177,0.0573 -1.24151,-0.0756 -2.51943,-0.17125 -2.83982,-0.21257 -0.41683,-0.0538 -0.69085,-9.2e-4 -0.96331,0.18575 -0.20943,0.14349 -0.766474,0.52284 -1.237874,0.84301 -0.471401,0.32016 -0.889859,0.61788 -0.929908,0.6616 -0.04005,0.0437 -0.433255,0.25182 -0.873792,0.46244 -0.440536,0.21062 -1.123938,0.48632 -1.51867,0.61267 -0.394732,0.12635 -0.771554,0.22973 -0.837383,0.22973 z m 11.166784,-3.52211 c 0.72088,0.007 2.21554,-0.0425 3.32147,-0.10991 1.10593,-0.0674 2.05072,-0.16249 2.09953,-0.2113 0.0488,-0.0488 0.0481,-0.12935 -0.002,-0.17898 -0.0496,-0.0496 -0.66675,-0.28233 -1.37137,-0.51709 -0.97374,-0.32444 -1.66548,-0.44723 -2.88307,-0.5118 -0.8957,-0.0475 -2.1305,-0.0137 -2.80082,0.0767 -0.82242,0.11092 -1.38169,0.2771 -1.7811,0.52923 -0.32023,0.20215 -0.66217,0.36755 -0.75988,0.36755 -0.11418,0 -0.12743,0.0502 -0.0371,0.14058 0.0773,0.0773 0.76216,0.19948 1.52185,0.27146 0.7597,0.072 1.97108,0.13658 2.69196,0.14354 z"
         id="path201" /><path
         style="fill:#4b4b4b;fill-opacity:1;stroke:none"
         d="m 92.418579,267.91368 c -0.14017,-0.004 -0.562818,-0.12722 -0.939216,-0.27439 -0.376398,-0.14716 -0.720453,-0.23147 -0.764567,-0.18736 -0.04411,0.0441 -0.08021,0.0169 -0.08021,-0.0604 0,-0.0774 -0.241089,-0.22783 -0.535753,-0.33438 -0.294664,-0.10655 -1.210299,-0.65138 -2.034746,-1.21072 -1.37658,-0.93394 -1.543926,-1.00956 -2.049214,-0.92596 -0.302621,0.0501 -1.566004,0.14933 -2.807516,0.22057 -1.660401,0.0953 -2.854189,0.0765 -4.51459,-0.0709 -1.241512,-0.11022 -2.568067,-0.27282 -2.947898,-0.36133 -0.663886,-0.1547 -0.711651,-0.14357 -1.234645,0.28752 -0.299223,0.24665 -0.620307,0.44845 -0.713521,0.44845 -0.09321,0 -0.211158,-0.16607 -0.2621,-0.36904 -0.05094,-0.20296 -0.254649,-0.44285 -0.452683,-0.53308 -0.198034,-0.0902 -0.360062,-0.21269 -0.360062,-0.27213 0,-0.0594 -0.442357,-0.23952 -0.983016,-0.40017 -0.540659,-0.16066 -1.179619,-0.32883 -1.419911,-0.37372 -0.240293,-0.0449 -0.731801,-0.11818 -1.09224,-0.16287 -0.360439,-0.0447 -1.114084,-0.14488 -1.674767,-0.22265 -0.560683,-0.0778 -3.848352,-0.15793 -7.305932,-0.17815 -3.457579,-0.0202 -6.33127,-0.0815 -6.38598,-0.13629 -0.05471,-0.0547 -0.05781,-0.16694 -0.0069,-0.24932 0.06098,-0.0987 2.234734,-0.15251 6.370399,-0.15777 3.452804,-0.004 6.448673,-0.045 6.657487,-0.0902 0.208814,-0.0452 0.543498,-0.13708 0.743742,-0.20416 0.200244,-0.0671 0.532214,-0.15826 0.737712,-0.20264 0.205497,-0.0444 0.526813,-0.21354 0.714035,-0.37592 0.187221,-0.16238 0.437545,-0.29523 0.556275,-0.29523 0.11873,0 0.358067,0.14745 0.53186,0.32767 0.173792,0.18022 0.50682,0.47513 0.740063,0.65535 0.233242,0.18022 0.533909,0.32767 0.668148,0.32767 0.134239,0 0.278409,0.0895 0.320377,0.19885 0.04197,0.10936 0.596833,0.3715 1.233034,0.58252 0.636201,0.21103 1.259538,0.38368 1.385193,0.38368 0.125655,0 0.331665,-0.1032 0.457799,-0.22933 0.126135,-0.12614 0.900845,-0.4577 1.721578,-0.7368 0.820733,-0.27911 2.016516,-0.57538 2.657297,-0.65838 0.64078,-0.083 1.709394,-0.11121 2.374698,-0.0627 0.665303,0.0485 1.78645,0.21669 2.491439,0.37372 0.704989,0.15704 1.471337,0.3586 1.702997,0.44792 0.231659,0.0893 0.748871,0.21521 1.149359,0.27974 0.439826,0.0709 1.068071,0.0542 1.586576,-0.0421 0.639148,-0.11872 0.988446,-0.28208 1.367466,-0.63954 0.279978,-0.26406 0.560843,-0.4801 0.624145,-0.4801 0.0633,0 0.05468,0.21299 -0.01915,0.4733 -0.07383,0.26032 -0.468268,0.79654 -0.876519,1.19161 -0.656277,0.63509 -0.732016,0.7696 -0.653725,1.16106 0.0487,0.24351 0.300258,0.66264 0.559013,0.93141 0.258755,0.26877 0.86005,0.72931 1.336212,1.02343 0.476162,0.29411 0.918519,0.51837 0.983016,0.49835 0.0645,-0.02 0.117266,0.0247 0.117266,0.0994 0,0.0747 0.131069,0.17742 0.291264,0.22826 0.160195,0.0508 0.291264,0.15356 0.291264,0.22826 0,0.0747 -0.114685,0.13275 -0.254856,0.12901 z m -12.560754,-3.51711 c 0.841024,0.0242 2.407715,-0.0274 3.481534,-0.1147 1.07382,-0.0873 2.013504,-0.19654 2.088187,-0.2427 0.07468,-0.0462 -0.197879,-0.27448 -0.605694,-0.50739 -0.520322,-0.29717 -1.099267,-0.47163 -1.941026,-0.58492 -0.659749,-0.0888 -1.888343,-0.12701 -2.730208,-0.0849 -0.996248,0.0498 -1.886587,0.19006 -2.550088,0.40177 -0.560683,0.17891 -1.199644,0.39839 -1.419912,0.48774 -0.220268,0.0894 -0.400488,0.20729 -0.400488,0.26207 0,0.0548 0.344056,0.13712 0.764568,0.18298 0.420512,0.0459 0.993938,0.0997 1.274279,0.1197 0.280342,0.02 1.197823,0.0562 2.038848,0.0804 z"
         id="path202" /></g><g
       id="g67"><g
         id="g46"><path
           style="fill:#4b4b4b;fill-opacity:1;stroke:none"
           d="m 79.621611,138.23012 c -0.14017,-0.004 -0.562818,-0.12722 -0.939216,-0.27439 -0.376398,-0.14716 -0.720453,-0.23147 -0.764567,-0.18736 -0.04411,0.0441 -0.08021,0.0169 -0.08021,-0.0604 0,-0.0774 -0.241089,-0.22783 -0.535753,-0.33438 -0.294664,-0.10655 -1.210299,-0.65138 -2.034746,-1.21072 -1.37658,-0.93394 -1.543926,-1.00956 -2.049214,-0.92596 -0.302621,0.0501 -1.566004,0.14933 -2.807516,0.22057 -1.660401,0.0953 -2.854189,0.0765 -4.51459,-0.0709 -1.241512,-0.11022 -2.568067,-0.27282 -2.947898,-0.36133 -0.663886,-0.1547 -0.711651,-0.14357 -1.234645,0.28752 -0.299223,0.24665 -0.620307,0.44845 -0.713521,0.44845 -0.09321,0 -0.211158,-0.16607 -0.2621,-0.36904 -0.05094,-0.20296 -0.254649,-0.44285 -0.452683,-0.53308 -0.198034,-0.0902 -0.360062,-0.21269 -0.360062,-0.27213 0,-0.0594 -0.442357,-0.23952 -0.983016,-0.40017 -0.540659,-0.16066 -1.179619,-0.32883 -1.419911,-0.37372 -0.240293,-0.0449 -0.731801,-0.11818 -1.09224,-0.16287 -0.360439,-0.0447 -1.114084,-0.14488 -1.674767,-0.22265 -0.560683,-0.0778 -3.848352,-0.15793 -7.305932,-0.17815 -3.457579,-0.0202 -6.33127,-0.0815 -6.38598,-0.13629 -0.05471,-0.0547 -0.05781,-0.16694 -0.0069,-0.24932 0.06098,-0.0987 2.234734,-0.15251 6.370399,-0.15777 3.452804,-0.004 6.448673,-0.045 6.657487,-0.0902 0.208814,-0.0452 0.543498,-0.13708 0.743742,-0.20416 0.200244,-0.0671 0.532214,-0.15826 0.737712,-0.20264 0.205497,-0.0444 0.526813,-0.21354 0.714035,-0.37592 0.187221,-0.16238 0.437545,-0.29523 0.556275,-0.29523 0.11873,0 0.358067,0.14745 0.53186,0.32767 0.173792,0.18022 0.50682,0.47513 0.740063,0.65535 0.233242,0.18022 0.533909,0.32767 0.668148,0.32767 0.134239,0 0.278409,0.0895 0.320377,0.19885 0.04197,0.10936 0.596833,0.3715 1.233034,0.58252 0.636201,0.21103 1.259538,0.38368 1.385193,0.38368 0.125655,0 0.331665,-0.1032 0.457799,-0.22933 0.126135,-0.12614 0.900845,-0.4577 1.721578,-0.7368 0.820733,-0.27911 2.016516,-0.57538 2.657297,-0.65838 0.64078,-0.083 1.709394,-0.11121 2.374698,-0.0627 0.665303,0.0485 1.78645,0.21669 2.491439,0.37372 0.704989,0.15704 1.471337,0.3586 1.702997,0.44792 0.231659,0.0893 0.748871,0.21521 1.149359,0.27974 0.439826,0.0709 1.068071,0.0542 1.586576,-0.0421 0.639148,-0.11872 0.988446,-0.28208 1.367466,-0.63954 0.279978,-0.26406 0.560843,-0.4801 0.624145,-0.4801 0.0633,0 0.05468,0.21299 -0.01915,0.4733 -0.07383,0.26032 -0.468268,0.79654 -0.876519,1.19161 -0.656277,0.63509 -0.732016,0.7696 -0.653725,1.16106 0.0487,0.24351 0.300258,0.66264 0.559013,0.93141 0.258755,0.26877 0.86005,0.72931 1.336212,1.02343 0.476162,0.29411 0.918519,0.51837 0.983016,0.49835 0.0645,-0.02 0.117266,0.0247 0.117266,0.0994 0,0.0747 0.131069,0.17742 0.291264,0.22826 0.160195,0.0508 0.291264,0.15356 0.291264,0.22826 0,0.0747 -0.114685,0.13275 -0.254856,0.12901 z m -12.560754,-3.51711 c 0.841024,0.0242 2.407715,-0.0274 3.481534,-0.1147 1.07382,-0.0873 2.013504,-0.19654 2.088187,-0.2427 0.07468,-0.0462 -0.197879,-0.27448 -0.605694,-0.50739 -0.520322,-0.29717 -1.099267,-0.47163 -1.941026,-0.58492 -0.659749,-0.0888 -1.888343,-0.12701 -2.730208,-0.0849 -0.996248,0.0498 -1.886587,0.19006 -2.550088,0.40177 -0.560683,0.17891 -1.199644,0.39839 -1.419912,0.48774 -0.220268,0.0894 -0.400488,0.20729 -0.400488,0.26207 0,0.0548 0.344056,0.13712 0.764568,0.18298 0.420512,0.0459 0.993938,0.0997 1.274279,0.1197 0.280342,0.02 1.197823,0.0562 2.038848,0.0804 z"
           id="path4" /><path
           id="path30"
           style="fill:#4b4b4b;fill-opacity:1;stroke-width:5.08;stroke-linejoin:round;paint-order:stroke markers fill"
           d="m 78.410429,126.11779 c -0.07189,9.6e-4 -0.139974,0.019 -0.199558,0.058 -0.137409,0.0899 -0.1231,0.33022 -0.0742,0.487 0.113496,0.36393 0.668403,0.46924 0.78418,0.83245 0.102775,0.32243 -0.04757,0.67985 -0.140123,1.00535 -0.18055,0.63495 -0.797996,1.15175 -0.799668,1.81187 -9.07e-4,0.35886 0.08239,0.83785 0.355168,1.05793 -0.125016,0.23271 -0.201734,0.46079 -0.204599,0.65991 -0.01684,1.16966 1.050681,1.90277 1.484788,1.99197 -0.49265,0.24806 -1.440911,0.58898 -1.613024,1.24561 -0.318235,1.2141 1.766124,2.50138 2.756508,2.58981 1.03723,0.0926 2.028138,-0.63829 2.66819,-1.41545 0.562345,-0.6828 0.836748,-1.65704 0.771174,-2.53916 -0.0796,-1.07089 -0.724851,-2.28376 -1.381653,-2.91019 -0.161732,-0.15425 -0.340185,-0.30541 -0.52987,-0.4463 0.07425,-0.56736 -0.253101,-1.17547 -0.224052,-1.76144 0.01676,-0.33798 -0.01095,-0.72501 0.189832,-0.99742 0.226178,-0.30687 0.785784,-0.22879 1.010031,-0.53707 0.09661,-0.13282 0.18738,-0.35557 0.08609,-0.48485 -0.175677,-0.22424 -0.59014,-0.16633 -0.85298,-0.0565 -0.301106,0.12583 -0.507424,0.44261 -0.640455,0.7406 -0.200512,0.44915 -0.18257,0.97167 -0.186229,1.46353 -0.0034,0.45888 0.237442,0.92999 0.241341,1.37854 -0.544324,-0.33046 -1.153409,-0.5419 -1.744502,-0.46612 -0.457273,0.0586 -1.049465,0.5034 -1.477224,1.0248 -0.136951,-0.17188 -0.308795,-0.3453 -0.30834,-0.54176 0.0013,-0.57431 0.551035,-1.01475 0.731227,-1.56008 0.154327,-0.46703 0.339036,-0.95651 0.293212,-1.44624 -0.0304,-0.32492 -0.12439,-0.69088 -0.369216,-0.90665 -0.160287,-0.14125 -0.410372,-0.28226 -0.626047,-0.27808 z m 3.044862,4.83979 c 0.03382,-7.1e-4 0.06743,9.6e-4 0.1005,0.009 0.29741,0.0621 0.463583,0.50793 0.420365,0.80867 -0.05316,0.36988 -0.223455,0.6106 -0.59327,0.55707 -0.34841,-0.0504 -0.557564,-0.45622 -0.485203,-0.80075 0.06713,-0.31961 0.230681,-0.56403 0.557608,-0.57364 z m -2.144695,0.10914 c 0.02614,-7e-4 0.05224,9.6e-4 0.0778,0.007 0.229904,0.0486 0.293625,0.49411 0.260215,0.72921 -0.04109,0.28914 -0.249542,0.57695 -0.535416,0.53513 -0.269327,-0.0395 -0.333875,-0.46406 -0.277937,-0.7334 0.05189,-0.24985 0.222613,-0.53026 0.475333,-0.53779 z" /><path
           style="fill:#4b4b4b;fill-opacity:1;stroke:none"
           d="m 82.394378,138.23339 c 0.14017,-0.004 0.56282,-0.12722 0.93921,-0.27439 0.3764,-0.14716 0.72046,-0.23147 0.76457,-0.18736 0.0441,0.0441 0.0802,0.0169 0.0802,-0.0604 0,-0.0774 0.24109,-0.22783 0.53575,-0.33438 0.29467,-0.10655 1.2103,-0.65138 2.03475,-1.21072 1.37658,-0.93394 1.54393,-1.00956 2.04921,-0.92596 0.30262,0.0501 1.56601,0.14933 2.80752,0.22057 1.6604,0.0953 2.85419,0.0765 4.51459,-0.0709 1.241515,-0.11022 2.568075,-0.27282 2.947905,-0.36133 0.66388,-0.1547 0.71165,-0.14357 1.234637,0.28752 0.29923,0.24665 0.62031,0.44845 0.71352,0.44845 0.0932,0 0.21116,-0.16607 0.2621,-0.36904 0.0509,-0.20296 0.25465,-0.44285 0.45269,-0.53308 0.19803,-0.0902 0.36006,-0.21269 0.36006,-0.27213 0,-0.0594 0.44236,-0.23952 0.98301,-0.40017 0.54066,-0.16066 1.17962,-0.32883 1.41991,-0.37372 0.2403,-0.0449 0.73181,-0.11818 1.09224,-0.16287 0.36044,-0.0447 1.11409,-0.14488 1.67477,-0.22265 0.56068,-0.0778 3.84835,-0.15793 7.30593,-0.17815 3.45758,-0.0202 6.33127,-0.0815 6.38598,-0.13629 0.0547,-0.0547 0.0578,-0.16694 0.007,-0.24932 -0.061,-0.0987 -2.23473,-0.15251 -6.3704,-0.15777 -3.4528,-0.004 -6.44867,-0.045 -6.65748,-0.0902 -0.20882,-0.0452 -0.5435,-0.13708 -0.74374,-0.20416 -0.20025,-0.0671 -0.53222,-0.15826 -0.73772,-0.20264 -0.20549,-0.0444 -0.52681,-0.21354 -0.71403,-0.37592 -0.18722,-0.16238 -0.43755,-0.29523 -0.55628,-0.29523 -0.11873,0 -0.35806,0.14745 -0.53186,0.32767 -0.17379,0.18022 -0.50682,0.47513 -0.74006,0.65535 -0.23324,0.18022 -0.53391,0.32767 -0.66815,0.32767 -0.13424,0 -0.27841,0.0895 -0.32037,0.19885 -0.042,0.10936 -0.59684,0.3715 -1.23304,0.58252 -0.6362,0.21103 -1.25954,0.38368 -1.38519,0.38368 -0.12566,0 -0.331667,-0.1032 -0.457797,-0.22933 -0.12613,-0.12614 -0.90084,-0.4577 -1.72158,-0.7368 -0.82073,-0.27911 -2.016515,-0.57538 -2.657295,-0.65838 -0.64078,-0.083 -1.7094,-0.11121 -2.3747,-0.0627 -0.66531,0.0485 -1.78645,0.21669 -2.49144,0.37372 -0.70499,0.15704 -1.47134,0.3586 -1.703,0.44792 -0.23166,0.0893 -0.74887,0.21521 -1.14936,0.27974 -0.43982,0.0709 -1.06807,0.0542 -1.58657,-0.0421 -0.63915,-0.11872 -0.98845,-0.28208 -1.36747,-0.63954 -0.27998,-0.26406 -0.56084,-0.4801 -0.62414,-0.4801 -0.0633,0 -0.0547,0.21299 0.0192,0.4733 0.0738,0.26032 0.46826,0.79654 0.87651,1.19161 0.65628,0.63509 0.73202,0.7696 0.65373,1.16106 -0.0487,0.24351 -0.30026,0.66264 -0.55901,0.93141 -0.25876,0.26877 -0.86005,0.72931 -1.33622,1.02343 -0.47616,0.29411 -0.91851,0.51837 -0.98301,0.49835 -0.0645,-0.02 -0.11727,0.0247 -0.11727,0.0994 0,0.0747 -0.13107,0.17742 -0.29126,0.22826 -0.1602,0.0508 -0.29127,0.15356 -0.29127,0.22826 0,0.0747 0.11469,0.13275 0.25486,0.12901 z m 12.56075,-3.51711 c -0.84102,0.0242 -2.40771,-0.0274 -3.48153,-0.1147 -1.07382,-0.0873 -2.01351,-0.19654 -2.08819,-0.2427 -0.0747,-0.0462 0.19788,-0.27448 0.60569,-0.50739 0.52033,-0.29717 1.09927,-0.47163 1.94103,-0.58492 0.65975,-0.0888 1.88834,-0.12701 2.73021,-0.0849 0.99625,0.0498 1.88659,0.19006 2.550095,0.40177 0.56068,0.17891 1.19964,0.39839 1.41991,0.48774 0.22027,0.0894 0.40049,0.20729 0.40049,0.26207 0,0.0548 -0.34406,0.13712 -0.76457,0.18298 -0.42051,0.0459 -0.99394,0.0997 -1.274285,0.1197 -0.28034,0.02 -1.19782,0.0562 -2.03885,0.0804 z"
           id="path45-1-4-8" /></g><g
         id="g56"
         style="opacity:0.5;filter:url(#filter56)"><path
           style="fill:#4b4b4b;fill-opacity:1;stroke:none"
           d="m 79.621611,138.23012 c -0.14017,-0.004 -0.562818,-0.12722 -0.939216,-0.27439 -0.376398,-0.14716 -0.720453,-0.23147 -0.764567,-0.18736 -0.04411,0.0441 -0.08021,0.0169 -0.08021,-0.0604 0,-0.0774 -0.241089,-0.22783 -0.535753,-0.33438 -0.294664,-0.10655 -1.210299,-0.65138 -2.034746,-1.21072 -1.37658,-0.93394 -1.543926,-1.00956 -2.049214,-0.92596 -0.302621,0.0501 -1.566004,0.14933 -2.807516,0.22057 -1.660401,0.0953 -2.854189,0.0765 -4.51459,-0.0709 -1.241512,-0.11022 -2.568067,-0.27282 -2.947898,-0.36133 -0.663886,-0.1547 -0.711651,-0.14357 -1.234645,0.28752 -0.299223,0.24665 -0.620307,0.44845 -0.713521,0.44845 -0.09321,0 -0.211158,-0.16607 -0.2621,-0.36904 -0.05094,-0.20296 -0.254649,-0.44285 -0.452683,-0.53308 -0.198034,-0.0902 -0.360062,-0.21269 -0.360062,-0.27213 0,-0.0594 -0.442357,-0.23952 -0.983016,-0.40017 -0.540659,-0.16066 -1.179619,-0.32883 -1.419911,-0.37372 -0.240293,-0.0449 -0.731801,-0.11818 -1.09224,-0.16287 -0.360439,-0.0447 -1.114084,-0.14488 -1.674767,-0.22265 -0.560683,-0.0778 -3.848352,-0.15793 -7.305932,-0.17815 -3.457579,-0.0202 -6.33127,-0.0815 -6.38598,-0.13629 -0.05471,-0.0547 -0.05781,-0.16694 -0.0069,-0.24932 0.06098,-0.0987 2.234734,-0.15251 6.370399,-0.15777 3.452804,-0.004 6.448673,-0.045 6.657487,-0.0902 0.208814,-0.0452 0.543498,-0.13708 0.743742,-0.20416 0.200244,-0.0671 0.532214,-0.15826 0.737712,-0.20264 0.205497,-0.0444 0.526813,-0.21354 0.714035,-0.37592 0.187221,-0.16238 0.437545,-0.29523 0.556275,-0.29523 0.11873,0 0.358067,0.14745 0.53186,0.32767 0.173792,0.18022 0.50682,0.47513 0.740063,0.65535 0.233242,0.18022 0.533909,0.32767 0.668148,0.32767 0.134239,0 0.278409,0.0895 0.320377,0.19885 0.04197,0.10936 0.596833,0.3715 1.233034,0.58252 0.636201,0.21103 1.259538,0.38368 1.385193,0.38368 0.125655,0 0.331665,-0.1032 0.457799,-0.22933 0.126135,-0.12614 0.900845,-0.4577 1.721578,-0.7368 0.820733,-0.27911 2.016516,-0.57538 2.657297,-0.65838 0.64078,-0.083 1.709394,-0.11121 2.374698,-0.0627 0.665303,0.0485 1.78645,0.21669 2.491439,0.37372 0.704989,0.15704 1.471337,0.3586 1.702997,0.44792 0.231659,0.0893 0.748871,0.21521 1.149359,0.27974 0.439826,0.0709 1.068071,0.0542 1.586576,-0.0421 0.639148,-0.11872 0.988446,-0.28208 1.367466,-0.63954 0.279978,-0.26406 0.560843,-0.4801 0.624145,-0.4801 0.0633,0 0.05468,0.21299 -0.01915,0.4733 -0.07383,0.26032 -0.468268,0.79654 -0.876519,1.19161 -0.656277,0.63509 -0.732016,0.7696 -0.653725,1.16106 0.0487,0.24351 0.300258,0.66264 0.559013,0.93141 0.258755,0.26877 0.86005,0.72931 1.336212,1.02343 0.476162,0.29411 0.918519,0.51837 0.983016,0.49835 0.0645,-0.02 0.117266,0.0247 0.117266,0.0994 0,0.0747 0.131069,0.17742 0.291264,0.22826 0.160195,0.0508 0.291264,0.15356 0.291264,0.22826 0,0.0747 -0.114685,0.13275 -0.254856,0.12901 z m -12.560754,-3.51711 c 0.841024,0.0242 2.407715,-0.0274 3.481534,-0.1147 1.07382,-0.0873 2.013504,-0.19654 2.088187,-0.2427 0.07468,-0.0462 -0.197879,-0.27448 -0.605694,-0.50739 -0.520322,-0.29717 -1.099267,-0.47163 -1.941026,-0.58492 -0.659749,-0.0888 -1.888343,-0.12701 -2.730208,-0.0849 -0.996248,0.0498 -1.886587,0.19006 -2.550088,0.40177 -0.560683,0.17891 -1.199644,0.39839 -1.419912,0.48774 -0.220268,0.0894 -0.400488,0.20729 -0.400488,0.26207 0,0.0548 0.344056,0.13712 0.764568,0.18298 0.420512,0.0459 0.993938,0.0997 1.274279,0.1197 0.280342,0.02 1.197823,0.0562 2.038848,0.0804 z"
           id="path48" /><path
           id="path49"
           style="fill:#4b4b4b;fill-opacity:1;stroke-width:5.08;stroke-linejoin:round;paint-order:stroke markers fill"
           d="m 78.410429,126.11779 c -0.07189,9.6e-4 -0.139974,0.019 -0.199558,0.058 -0.137409,0.0899 -0.1231,0.33022 -0.0742,0.487 0.113496,0.36393 0.668403,0.46924 0.78418,0.83245 0.102775,0.32243 -0.04757,0.67985 -0.140123,1.00535 -0.18055,0.63495 -0.797996,1.15175 -0.799668,1.81187 -9.07e-4,0.35886 0.08239,0.83785 0.355168,1.05793 -0.125016,0.23271 -0.201734,0.46079 -0.204599,0.65991 -0.01684,1.16966 1.050681,1.90277 1.484788,1.99197 -0.49265,0.24806 -1.440911,0.58898 -1.613024,1.24561 -0.318235,1.2141 1.766124,2.50138 2.756508,2.58981 1.03723,0.0926 2.028138,-0.63829 2.66819,-1.41545 0.562345,-0.6828 0.836748,-1.65704 0.771174,-2.53916 -0.0796,-1.07089 -0.724851,-2.28376 -1.381653,-2.91019 -0.161732,-0.15425 -0.340185,-0.30541 -0.52987,-0.4463 0.07425,-0.56736 -0.253101,-1.17547 -0.224052,-1.76144 0.01676,-0.33798 -0.01095,-0.72501 0.189832,-0.99742 0.226178,-0.30687 0.785784,-0.22879 1.010031,-0.53707 0.09661,-0.13282 0.18738,-0.35557 0.08609,-0.48485 -0.175677,-0.22424 -0.59014,-0.16633 -0.85298,-0.0565 -0.301106,0.12583 -0.507424,0.44261 -0.640455,0.7406 -0.200512,0.44915 -0.18257,0.97167 -0.186229,1.46353 -0.0034,0.45888 0.237442,0.92999 0.241341,1.37854 -0.544324,-0.33046 -1.153409,-0.5419 -1.744502,-0.46612 -0.457273,0.0586 -1.049465,0.5034 -1.477224,1.0248 -0.136951,-0.17188 -0.308795,-0.3453 -0.30834,-0.54176 0.0013,-0.57431 0.551035,-1.01475 0.731227,-1.56008 0.154327,-0.46703 0.339036,-0.95651 0.293212,-1.44624 -0.0304,-0.32492 -0.12439,-0.69088 -0.369216,-0.90665 -0.160287,-0.14125 -0.410372,-0.28226 -0.626047,-0.27808 z m 3.044862,4.83979 c 0.03382,-7.1e-4 0.06743,9.6e-4 0.1005,0.009 0.29741,0.0621 0.463583,0.50793 0.420365,0.80867 -0.05316,0.36988 -0.223455,0.6106 -0.59327,0.55707 -0.34841,-0.0504 -0.557564,-0.45622 -0.485203,-0.80075 0.06713,-0.31961 0.230681,-0.56403 0.557608,-0.57364 z m -2.144695,0.10914 c 0.02614,-7e-4 0.05224,9.6e-4 0.0778,0.007 0.229904,0.0486 0.293625,0.49411 0.260215,0.72921 -0.04109,0.28914 -0.249542,0.57695 -0.535416,0.53513 -0.269327,-0.0395 -0.333875,-0.46406 -0.277937,-0.7334 0.05189,-0.24985 0.222613,-0.53026 0.475333,-0.53779 z" /><path
           style="fill:#4b4b4b;fill-opacity:1;stroke:none"
           d="m 82.394378,138.23339 c 0.14017,-0.004 0.56282,-0.12722 0.93921,-0.27439 0.3764,-0.14716 0.72046,-0.23147 0.76457,-0.18736 0.0441,0.0441 0.0802,0.0169 0.0802,-0.0604 0,-0.0774 0.24109,-0.22783 0.53575,-0.33438 0.29467,-0.10655 1.2103,-0.65138 2.03475,-1.21072 1.37658,-0.93394 1.54393,-1.00956 2.04921,-0.92596 0.30262,0.0501 1.56601,0.14933 2.80752,0.22057 1.6604,0.0953 2.85419,0.0765 4.51459,-0.0709 1.241515,-0.11022 2.568075,-0.27282 2.947905,-0.36133 0.66388,-0.1547 0.71165,-0.14357 1.234637,0.28752 0.29923,0.24665 0.62031,0.44845 0.71352,0.44845 0.0932,0 0.21116,-0.16607 0.2621,-0.36904 0.0509,-0.20296 0.25465,-0.44285 0.45269,-0.53308 0.19803,-0.0902 0.36006,-0.21269 0.36006,-0.27213 0,-0.0594 0.44236,-0.23952 0.98301,-0.40017 0.54066,-0.16066 1.17962,-0.32883 1.41991,-0.37372 0.2403,-0.0449 0.73181,-0.11818 1.09224,-0.16287 0.36044,-0.0447 1.11409,-0.14488 1.67477,-0.22265 0.56068,-0.0778 3.84835,-0.15793 7.30593,-0.17815 3.45758,-0.0202 6.33127,-0.0815 6.38598,-0.13629 0.0547,-0.0547 0.0578,-0.16694 0.007,-0.24932 -0.061,-0.0987 -2.23473,-0.15251 -6.3704,-0.15777 -3.4528,-0.004 -6.44867,-0.045 -6.65748,-0.0902 -0.20882,-0.0452 -0.5435,-0.13708 -0.74374,-0.20416 -0.20025,-0.0671 -0.53222,-0.15826 -0.73772,-0.20264 -0.20549,-0.0444 -0.52681,-0.21354 -0.71403,-0.37592 -0.18722,-0.16238 -0.43755,-0.29523 -0.55628,-0.29523 -0.11873,0 -0.35806,0.14745 -0.53186,0.32767 -0.17379,0.18022 -0.50682,0.47513 -0.74006,0.65535 -0.23324,0.18022 -0.53391,0.32767 -0.66815,0.32767 -0.13424,0 -0.27841,0.0895 -0.32037,0.19885 -0.042,0.10936 -0.59684,0.3715 -1.23304,0.58252 -0.6362,0.21103 -1.25954,0.38368 -1.38519,0.38368 -0.12566,0 -0.331667,-0.1032 -0.457797,-0.22933 -0.12613,-0.12614 -0.90084,-0.4577 -1.72158,-0.7368 -0.82073,-0.27911 -2.016515,-0.57538 -2.657295,-0.65838 -0.64078,-0.083 -1.7094,-0.11121 -2.3747,-0.0627 -0.66531,0.0485 -1.78645,0.21669 -2.49144,0.37372 -0.70499,0.15704 -1.47134,0.3586 -1.703,0.44792 -0.23166,0.0893 -0.74887,0.21521 -1.14936,0.27974 -0.43982,0.0709 -1.06807,0.0542 -1.58657,-0.0421 -0.63915,-0.11872 -0.98845,-0.28208 -1.36747,-0.63954 -0.27998,-0.26406 -0.56084,-0.4801 -0.62414,-0.4801 -0.0633,0 -0.0547,0.21299 0.0192,0.4733 0.0738,0.26032 0.46826,0.79654 0.87651,1.19161 0.65628,0.63509 0.73202,0.7696 0.65373,1.16106 -0.0487,0.24351 -0.30026,0.66264 -0.55901,0.93141 -0.25876,0.26877 -0.86005,0.72931 -1.33622,1.02343 -0.47616,0.29411 -0.91851,0.51837 -0.98301,0.49835 -0.0645,-0.02 -0.11727,0.0247 -0.11727,0.0994 0,0.0747 -0.13107,0.17742 -0.29126,0.22826 -0.1602,0.0508 -0.29127,0.15356 -0.29127,0.22826 0,0.0747 0.11469,0.13275 0.25486,0.12901 z m 12.56075,-3.51711 c -0.84102,0.0242 -2.40771,-0.0274 -3.48153,-0.1147 -1.07382,-0.0873 -2.01351,-0.19654 -2.08819,-0.2427 -0.0747,-0.0462 0.19788,-0.27448 0.60569,-0.50739 0.52033,-0.29717 1.09927,-0.47163 1.94103,-0.58492 0.65975,-0.0888 1.88834,-0.12701 2.73021,-0.0849 0.99625,0.0498 1.88659,0.19006 2.550095,0.40177 0.56068,0.17891 1.19964,0.39839 1.41991,0.48774 0.22027,0.0894 0.40049,0.20729 0.40049,0.26207 0,0.0548 -0.34406,0.13712 -0.76457,0.18298 -0.42051,0.0459 -0.99394,0.0997 -1.274285,0.1197 -0.28034,0.02 -1.19782,0.0562 -2.03885,0.0804 z"
           id="path56" /></g></g></g></svg>
