<?xml version="1.0" encoding="UTF-8" standalone="no"?>
<!-- Created with Inkscape (http://www.inkscape.org/) -->

<svg
   width="84.380989mm"
   height="12.91541mm"
   viewBox="0 0 84.380989 12.91541"
   version="1.1"
   id="svg1"
   xml:space="preserve"
   inkscape:version="1.4 (86a8ad7, 2024-10-11)"
   sodipodi:docname="skonguistuff.svg"
   inkscape:export-filename="..\Github\skonguistuff.png"
   inkscape:export-xdpi="400"
   inkscape:export-ydpi="400"
   xmlns:inkscape="http://www.inkscape.org/namespaces/inkscape"
   xmlns:sodipodi="http://sodipodi.sourceforge.net/DTD/sodipodi-0.dtd"
   xmlns="http://www.w3.org/2000/svg"
   xmlns:svg="http://www.w3.org/2000/svg"><sodipodi:namedview
     id="namedview1"
     pagecolor="#ffffff"
     bordercolor="#000000"
     borderopacity="0.25"
     inkscape:showpageshadow="2"
     inkscape:pageopacity="0.0"
     inkscape:pagecheckerboard="0"
     inkscape:deskcolor="#d1d1d1"
     inkscape:document-units="mm"
     inkscape:zoom="0.7071068"
     inkscape:cx="448.30569"
     inkscape:cy="263.04372"
     inkscape:window-width="1920"
     inkscape:window-height="1009"
     inkscape:window-x="-8"
     inkscape:window-y="-8"
     inkscape:window-maximized="1"
     inkscape:current-layer="layer1"
     showgrid="false"
     showguides="true"><inkscape:page
       x="-6.5628731e-13"
       y="0"
       width="84.380997"
       height="12.91541"
       id="page2"
       margin="0"
       bleed="0" /></sodipodi:namedview><defs
     id="defs1"><inkscape:path-effect
       effect="mirror_symmetry"
       start_point="138.70314,117.49312"
       end_point="138.70314,124.21256"
       center_point="138.70314,120.85284"
       id="path-effect193"
       is_visible="true"
       lpeversion="1.2"
       lpesatellites=""
       mode="free"
       discard_orig_path="false"
       fuse_paths="false"
       oposite_fuse="false"
       split_items="false"
       split_open="false"
       link_styles="false" /><inkscape:path-effect
       effect="mirror_symmetry"
       start_point="138.70314,117.49312"
       end_point="138.70314,124.21256"
       center_point="138.70314,120.85284"
       id="path-effect180"
       is_visible="true"
       lpeversion="1.2"
       lpesatellites=""
       mode="free"
       discard_orig_path="false"
       fuse_paths="false"
       oposite_fuse="false"
       split_items="false"
       split_open="false"
       link_styles="false" /><filter
       inkscape:collect="always"
       style="color-interpolation-filters:sRGB"
       id="filter195"
       x="-0.026592391"
       y="-0.2461884"
       width="1.0531848"
       height="1.4923768"><feGaussianBlur
         inkscape:collect="always"
         stdDeviation="0.88774103"
         id="feGaussianBlur195" /></filter></defs><g
     inkscape:label="Layer 1"
     inkscape:groupmode="layer"
     id="layer1"
     transform="translate(-96.512637,-144.7559)"><g
       id="g180"><path
         id="path175"
         style="fill:#4b4b4b;fill-opacity:1;stroke:none;stroke-width:0.362306;stroke-linejoin:bevel;stroke-dasharray:none;stroke-opacity:1;paint-order:markers fill stroke"
         d="m 138.68016,146.88673 c -0.0186,-4.6e-4 -0.0374,-2.6e-4 -0.0559,4.8e-4 -0.58268,0.0235 -1.17194,0.66258 -1.23146,1.24269 -0.0148,0.1449 0.0577,0.31459 0.16176,0.4778 -2.40189,0.63708 -6.49242,2.62684 -4.98596,3.32564 0.46658,0.21645 1.51686,0.54437 2.79168,0.81008 0.25274,1.50793 1.67262,2.62183 3.34311,2.62267 1.67049,-9.7e-4 3.09027,-1.11497 3.34287,-2.62292 1.27469,-0.26571 2.32488,-0.59341 2.79143,-0.80983 1.50707,-0.69908 -2.58747,-2.69016 -4.98897,-3.32639 0.0983,-0.19484 0.1644,-0.39684 0.13106,-0.55619 -0.11814,-0.56468 -0.72105,-1.14985 -1.2996,-1.16405 z m -0.014,0.77237 c 0.21315,-0.009 0.4421,0.2081 0.48578,0.41689 0.0219,0.1049 -0.075,0.26045 -0.14579,0.35723 -0.11035,-0.0141 -0.21365,-0.0236 -0.30305,-0.0247 -0.0869,9.6e-4 -0.18712,0.0108 -0.29383,0.0237 -0.0814,-0.0852 -0.19489,-0.22402 -0.18423,-0.32802 0.0213,-0.20781 0.23239,-0.43668 0.44112,-0.4451 z m 0.037,2.86582 c 0.51534,0.008 1.17862,0.13627 1.537,0.27161 0.45038,0.35987 0.58299,0.81875 0.70198,1.36625 0.30199,1.38959 -1.1329,2.57518 -2.23898,2.48986 -1.10609,0.0853 -2.54098,-1.10027 -2.23899,-2.48986 0.11899,-0.5475 0.2516,-1.00638 0.70198,-1.36625 0.35839,-0.13534 1.02168,-0.26373 1.53701,-0.27161 z m 0.91035,1.01705 c -0.013,4.7e-4 -0.0262,0.001 -0.0397,0.003 -0.29985,0.0349 -0.33341,0.49108 -0.30381,0.7579 0.032,0.28818 0.25504,0.70284 0.61286,0.63258 0.23295,-0.0457 0.2681,-0.37161 0.28259,-0.58266 0.0219,-0.31895 -0.15008,-0.82499 -0.55194,-0.81082 z m -1.70501,0.0111 c -0.32019,-0.002 -0.55538,0.45853 -0.62009,0.7539 -0.0454,0.20756 -0.02,0.55232 0.21069,0.60636 0.30321,0.0711 0.59559,-0.30498 0.68551,-0.57116 0.0867,-0.25684 0.0841,-0.72283 -0.21095,-0.78236 -0.0221,-0.004 -0.0438,-0.006 -0.0651,-0.006 z"
         sodipodi:nodetypes="scccscccscssscccccscccscsccscssssccccccc" /><path
         style="fill:#4b4b4b;fill-opacity:1;stroke:none"
         d="m 137.27624,119.86659 c -0.26988,0.0502 -1.2029,-0.20065 -1.77808,-0.39504 -0.97239,-0.32863 -1.97036,-0.73324 -2.79481,-1.29258 -1.37658,-0.93394 -1.74271,-1.11479 -2.24799,-1.03119 -0.30263,0.0501 -1.18014,0.0909 -2.42165,0.1621 -1.6604,0.0953 -2.85419,0.0765 -4.51459,-0.0709 -1.24151,-0.11022 -2.56807,-0.27282 -2.9479,-0.36133 -0.66388,-0.1547 -0.71165,-0.14357 -1.23464,0.28752 -0.29923,0.24665 -0.62031,0.44845 -0.71352,0.44845 -0.0932,0 -0.21116,-0.16607 -0.2621,-0.36904 -0.0509,-0.20296 -0.25465,-0.44285 -0.45269,-0.53308 -0.19803,-0.0902 -0.36006,-0.21269 -0.36006,-0.27213 0,-0.0594 -0.44236,-0.23952 -0.98301,-0.40017 -0.54066,-0.16066 -1.17962,-0.32883 -1.41992,-0.37372 -0.24029,-0.0449 -0.7318,-0.11818 -1.09224,-0.16287 -0.36043,-0.0447 -1.11408,-0.14488 -1.67476,-0.22265 -0.56069,-0.0778 -3.84835,-0.15793 -7.30593,-0.17815 -3.45758,-0.0202 -6.331275,-0.0815 -6.385985,-0.13629 -0.05471,-0.0547 -0.05781,-0.16694 -0.0069,-0.24932 0.06098,-0.0987 2.234735,-0.15251 6.370395,-0.15777 3.45281,-0.004 6.44868,-0.045 6.65749,-0.0902 0.20882,-0.0452 0.5435,-0.13708 0.74374,-0.20416 0.20025,-0.0671 0.53222,-0.15826 0.73772,-0.20264 0.20549,-0.0444 0.52681,-0.21354 0.71403,-0.37592 0.18722,-0.16238 0.43754,-0.29523 0.55627,-0.29523 0.11873,0 0.35807,0.14745 0.53187,0.32767 0.17379,0.18022 0.50681,0.47513 0.74006,0.65535 0.23324,0.18022 0.53391,0.32767 0.66815,0.32767 0.13424,0 0.27841,0.0895 0.32037,0.19885 0.042,0.10936 0.59684,0.3715 1.23304,0.58252 0.6362,0.21103 1.25954,0.38368 1.38519,0.38368 0.12566,0 0.33167,-0.1032 0.4578,-0.22933 0.12613,-0.12614 0.90084,-0.4577 1.72158,-0.7368 0.82073,-0.27911 2.01651,-0.57538 2.65729,-0.65838 0.64078,-0.083 1.61662,-0.20824 2.42147,-0.13286 1.24205,0.11633 2.28335,0.47582 3.63376,0.89537 0.42544,0.13218 1.41517,-0.24924 1.76352,-0.54097 1.59854,-1.33875 1.66357,-2.2395 1.84403,-2.18312 0.11769,0.0367 0.235,0.92542 -0.89444,2.27349 -0.48715,0.58144 -1.46329,1.34931 -1.19975,1.64918 0.16393,0.18654 1.57175,1.41459 2.43973,2.01316 1.95268,1.34655 3.61448,1.55381 3.09343,1.65083 z m -12.59207,-3.30118 c 0.84102,0.0242 2.40771,-0.0274 3.48153,-0.1147 1.07382,-0.0873 2.01351,-0.19654 2.08819,-0.2427 0.0747,-0.0462 -0.19788,-0.27448 -0.6057,-0.50739 -0.52032,-0.29717 -1.09926,-0.47163 -1.94102,-0.58492 -0.65975,-0.0888 -1.88834,-0.12701 -2.73021,-0.0849 -0.99625,0.0498 -1.88659,0.19006 -2.55009,0.40177 -0.56068,0.17891 -1.19964,0.39839 -1.41991,0.48774 -0.22027,0.0894 -0.40049,0.20729 -0.40049,0.26207 0,0.0548 0.34406,0.13712 0.76457,0.18298 0.42051,0.0459 0.99394,0.0997 1.27428,0.1197 0.28034,0.02 1.19782,0.0562 2.03885,0.0804 z m 15.44587,3.30118 c 0.26988,0.0502 1.2029,-0.20065 1.77808,-0.39504 0.97239,-0.32863 1.97036,-0.73324 2.79481,-1.29258 1.37658,-0.93394 1.74271,-1.11479 2.24799,-1.03119 0.30263,0.0501 1.18014,0.0909 2.42165,0.1621 1.6604,0.0953 2.85419,0.0765 4.51459,-0.0709 1.24151,-0.11022 2.56807,-0.27282 2.9479,-0.36133 0.66388,-0.1547 0.71165,-0.14357 1.23464,0.28752 0.29923,0.24665 0.62031,0.44845 0.71352,0.44845 0.0932,0 0.21116,-0.16607 0.2621,-0.36904 0.0509,-0.20296 0.25465,-0.44285 0.45269,-0.53308 0.19803,-0.0902 0.36006,-0.21269 0.36006,-0.27213 0,-0.0594 0.44236,-0.23952 0.98301,-0.40017 0.54066,-0.16066 1.17962,-0.32883 1.41992,-0.37372 0.24029,-0.0449 0.7318,-0.11818 1.09224,-0.16287 0.36043,-0.0447 1.11408,-0.14488 1.67476,-0.22265 0.56069,-0.0778 3.84835,-0.15793 7.30593,-0.17815 3.45758,-0.0202 6.33128,-0.0815 6.38599,-0.13629 0.0547,-0.0547 0.0578,-0.16694 0.007,-0.24932 -0.061,-0.0987 -2.23473,-0.15251 -6.37039,-0.15777 -3.45281,-0.004 -6.44868,-0.045 -6.65749,-0.0902 -0.20882,-0.0452 -0.5435,-0.13708 -0.74374,-0.20416 -0.20025,-0.0671 -0.53222,-0.15826 -0.73772,-0.20264 -0.20549,-0.0444 -0.52681,-0.21354 -0.71403,-0.37592 -0.18722,-0.16238 -0.43754,-0.29523 -0.55627,-0.29523 -0.11873,0 -0.35807,0.14745 -0.53187,0.32767 -0.17379,0.18022 -0.50681,0.47513 -0.74006,0.65535 -0.23324,0.18022 -0.53391,0.32767 -0.66815,0.32767 -0.13424,0 -0.27841,0.0895 -0.32037,0.19885 -0.042,0.10936 -0.59684,0.3715 -1.23304,0.58252 -0.6362,0.21103 -1.25954,0.38368 -1.38519,0.38368 -0.12566,0 -0.33167,-0.1032 -0.4578,-0.22933 -0.12613,-0.12614 -0.90084,-0.4577 -1.72158,-0.7368 -0.82073,-0.27911 -2.01651,-0.57538 -2.65729,-0.65838 -0.64078,-0.083 -1.61662,-0.20824 -2.42147,-0.13286 -1.24205,0.11633 -2.28335,0.47582 -3.63376,0.89537 -0.42544,0.13218 -1.41517,-0.24924 -1.76352,-0.54097 -1.59854,-1.33875 -1.66357,-2.2395 -1.84403,-2.18312 -0.11769,0.0367 -0.235,0.92542 0.89444,2.27349 0.48715,0.58144 1.46329,1.34931 1.19975,1.64918 -0.16393,0.18654 -1.57175,1.41459 -2.43973,2.01316 -1.95268,1.34655 -3.61448,1.55381 -3.09343,1.65083 z m 12.59207,-3.30118 c -0.84102,0.0242 -2.40771,-0.0274 -3.48153,-0.1147 -1.07382,-0.0873 -2.01351,-0.19654 -2.08819,-0.2427 -0.0747,-0.0462 0.19788,-0.27448 0.6057,-0.50739 0.52032,-0.29717 1.09926,-0.47163 1.94102,-0.58492 0.65975,-0.0888 1.88834,-0.12701 2.73021,-0.0849 0.99625,0.0498 1.88659,0.19006 2.55009,0.40177 0.56068,0.17891 1.19964,0.39839 1.41991,0.48774 0.22027,0.0894 0.40049,0.20729 0.40049,0.26207 0,0.0548 -0.34406,0.13712 -0.76457,0.18298 -0.42051,0.0459 -0.99394,0.0997 -1.27428,0.1197 -0.28034,0.02 -1.19782,0.0562 -2.03885,0.0804 z"
         id="path179"
         sodipodi:nodetypes="cassssssscssssssscscsssssssscsssssassssssscsssssscscsccs"
         inkscape:path-effect="#path-effect180"
         inkscape:original-d="m 137.27624,119.86659 c -0.26988,0.0502 -1.2029,-0.20065 -1.77808,-0.39504 -0.97239,-0.32863 -1.97036,-0.73324 -2.79481,-1.29258 -1.37658,-0.93394 -1.74271,-1.11479 -2.24799,-1.03119 -0.30263,0.0501 -1.18014,0.0909 -2.42165,0.1621 -1.6604,0.0953 -2.85419,0.0765 -4.51459,-0.0709 -1.24151,-0.11022 -2.56807,-0.27282 -2.9479,-0.36133 -0.66388,-0.1547 -0.71165,-0.14357 -1.23464,0.28752 -0.29923,0.24665 -0.62031,0.44845 -0.71352,0.44845 -0.0932,0 -0.21116,-0.16607 -0.2621,-0.36904 -0.0509,-0.20296 -0.25465,-0.44285 -0.45269,-0.53308 -0.19803,-0.0902 -0.36006,-0.21269 -0.36006,-0.27213 0,-0.0594 -0.44236,-0.23952 -0.98301,-0.40017 -0.54066,-0.16066 -1.17962,-0.32883 -1.41992,-0.37372 -0.24029,-0.0449 -0.7318,-0.11818 -1.09224,-0.16287 -0.36043,-0.0447 -1.11408,-0.14488 -1.67476,-0.22265 -0.56069,-0.0778 -3.84835,-0.15793 -7.30593,-0.17815 -3.45758,-0.0202 -6.331275,-0.0815 -6.385985,-0.13629 -0.05471,-0.0547 -0.05781,-0.16694 -0.0069,-0.24932 0.06098,-0.0987 2.234735,-0.15251 6.370395,-0.15777 3.45281,-0.004 6.44868,-0.045 6.65749,-0.0902 0.20882,-0.0452 0.5435,-0.13708 0.74374,-0.20416 0.20025,-0.0671 0.53222,-0.15826 0.73772,-0.20264 0.20549,-0.0444 0.52681,-0.21354 0.71403,-0.37592 0.18722,-0.16238 0.43754,-0.29523 0.55627,-0.29523 0.11873,0 0.35807,0.14745 0.53187,0.32767 0.17379,0.18022 0.50681,0.47513 0.74006,0.65535 0.23324,0.18022 0.53391,0.32767 0.66815,0.32767 0.13424,0 0.27841,0.0895 0.32037,0.19885 0.042,0.10936 0.59684,0.3715 1.23304,0.58252 0.6362,0.21103 1.25954,0.38368 1.38519,0.38368 0.12566,0 0.33167,-0.1032 0.4578,-0.22933 0.12613,-0.12614 0.90084,-0.4577 1.72158,-0.7368 0.82073,-0.27911 2.01651,-0.57538 2.65729,-0.65838 0.64078,-0.083 1.61662,-0.20824 2.42147,-0.13286 1.24205,0.11633 2.28335,0.47582 3.63376,0.89537 0.42544,0.13218 1.41517,-0.24924 1.76352,-0.54097 1.59854,-1.33875 1.66357,-2.2395 1.84403,-2.18312 0.11769,0.0367 0.235,0.92542 -0.89444,2.27349 -0.48715,0.58144 -1.46329,1.34931 -1.19975,1.64918 0.16393,0.18654 1.57175,1.41459 2.43973,2.01316 1.95268,1.34655 3.61448,1.55381 3.09343,1.65083 z m -12.59207,-3.30118 c 0.84102,0.0242 2.40771,-0.0274 3.48153,-0.1147 1.07382,-0.0873 2.01351,-0.19654 2.08819,-0.2427 0.0747,-0.0462 -0.19788,-0.27448 -0.6057,-0.50739 -0.52032,-0.29717 -1.09926,-0.47163 -1.94102,-0.58492 -0.65975,-0.0888 -1.88834,-0.12701 -2.73021,-0.0849 -0.99625,0.0498 -1.88659,0.19006 -2.55009,0.40177 -0.56068,0.17891 -1.19964,0.39839 -1.41991,0.48774 -0.22027,0.0894 -0.40049,0.20729 -0.40049,0.26207 0,0.0548 0.34406,0.13712 0.76457,0.18298 0.42051,0.0459 0.99394,0.0997 1.27428,0.1197 0.28034,0.02 1.19782,0.0562 2.03885,0.0804 z"
         transform="translate(0,35.667652)" /></g><g
       id="g188"
       style="opacity:0.5;filter:url(#filter195)"
       transform="matrix(-1,0,0,1,277.40628,0)"
       inkscape:export-filename="..\Github\FicAssets\midsherma.svg"
       inkscape:export-xdpi="250"
       inkscape:export-ydpi="250"><path
         id="path187"
         style="fill:#4b4b4b;fill-opacity:1;stroke:none;stroke-width:0.362306;stroke-linejoin:bevel;stroke-dasharray:none;stroke-opacity:1;paint-order:markers fill stroke"
         d="m 138.68016,146.88673 c -0.0186,-4.6e-4 -0.0374,-2.6e-4 -0.0559,4.8e-4 -0.58268,0.0235 -1.17194,0.66258 -1.23146,1.24269 -0.0148,0.1449 0.0577,0.31459 0.16176,0.4778 -2.40189,0.63708 -6.49242,2.62684 -4.98596,3.32564 0.46658,0.21645 1.51686,0.54437 2.79168,0.81008 0.25274,1.50793 1.67262,2.62183 3.34311,2.62267 1.67049,-9.7e-4 3.09027,-1.11497 3.34287,-2.62292 1.27469,-0.26571 2.32488,-0.59341 2.79143,-0.80983 1.50707,-0.69908 -2.58747,-2.69016 -4.98897,-3.32639 0.0983,-0.19484 0.1644,-0.39684 0.13106,-0.55619 -0.11814,-0.56468 -0.72105,-1.14985 -1.2996,-1.16405 z m -0.014,0.77237 c 0.21315,-0.009 0.4421,0.2081 0.48578,0.41689 0.0219,0.1049 -0.075,0.26045 -0.14579,0.35723 -0.11035,-0.0141 -0.21365,-0.0236 -0.30305,-0.0247 -0.0869,9.6e-4 -0.18712,0.0108 -0.29383,0.0237 -0.0814,-0.0852 -0.19489,-0.22402 -0.18423,-0.32802 0.0213,-0.20781 0.23239,-0.43668 0.44112,-0.4451 z m 0.037,2.86582 c 0.51534,0.008 1.17862,0.13627 1.537,0.27161 0.45038,0.35987 0.58299,0.81875 0.70198,1.36625 0.30199,1.38959 -1.1329,2.57518 -2.23898,2.48986 -1.10609,0.0853 -2.54098,-1.10027 -2.23899,-2.48986 0.11899,-0.5475 0.2516,-1.00638 0.70198,-1.36625 0.35839,-0.13534 1.02168,-0.26373 1.53701,-0.27161 z m 0.91035,1.01705 c -0.013,4.7e-4 -0.0262,0.001 -0.0397,0.003 -0.29985,0.0349 -0.33341,0.49108 -0.30381,0.7579 0.032,0.28818 0.25504,0.70284 0.61286,0.63258 0.23295,-0.0457 0.2681,-0.37161 0.28259,-0.58266 0.0219,-0.31895 -0.15008,-0.82499 -0.55194,-0.81082 z m -1.70501,0.0111 c -0.32019,-0.002 -0.55538,0.45853 -0.62009,0.7539 -0.0454,0.20756 -0.02,0.55232 0.21069,0.60636 0.30321,0.0711 0.59559,-0.30498 0.68551,-0.57116 0.0867,-0.25684 0.0841,-0.72283 -0.21095,-0.78236 -0.0221,-0.004 -0.0438,-0.006 -0.0651,-0.006 z"
         sodipodi:nodetypes="scccscccscssscccccscccscsccscssssccccccc" /><path
         style="fill:#4b4b4b;fill-opacity:1;stroke:none"
         d="m 137.27624,119.86659 c -0.26988,0.0502 -1.2029,-0.20065 -1.77808,-0.39504 -0.97239,-0.32863 -1.97036,-0.73324 -2.79481,-1.29258 -1.37658,-0.93394 -1.74271,-1.11479 -2.24799,-1.03119 -0.30263,0.0501 -1.18014,0.0909 -2.42165,0.1621 -1.6604,0.0953 -2.85419,0.0765 -4.51459,-0.0709 -1.24151,-0.11022 -2.56807,-0.27282 -2.9479,-0.36133 -0.66388,-0.1547 -0.71165,-0.14357 -1.23464,0.28752 -0.29923,0.24665 -0.62031,0.44845 -0.71352,0.44845 -0.0932,0 -0.21116,-0.16607 -0.2621,-0.36904 -0.0509,-0.20296 -0.25465,-0.44285 -0.45269,-0.53308 -0.19803,-0.0902 -0.36006,-0.21269 -0.36006,-0.27213 0,-0.0594 -0.44236,-0.23952 -0.98301,-0.40017 -0.54066,-0.16066 -1.17962,-0.32883 -1.41992,-0.37372 -0.24029,-0.0449 -0.7318,-0.11818 -1.09224,-0.16287 -0.36043,-0.0447 -1.11408,-0.14488 -1.67476,-0.22265 -0.56069,-0.0778 -3.84835,-0.15793 -7.30593,-0.17815 -3.45758,-0.0202 -6.331275,-0.0815 -6.385985,-0.13629 -0.05471,-0.0547 -0.05781,-0.16694 -0.0069,-0.24932 0.06098,-0.0987 2.234735,-0.15251 6.370395,-0.15777 3.45281,-0.004 6.44868,-0.045 6.65749,-0.0902 0.20882,-0.0452 0.5435,-0.13708 0.74374,-0.20416 0.20025,-0.0671 0.53222,-0.15826 0.73772,-0.20264 0.20549,-0.0444 0.52681,-0.21354 0.71403,-0.37592 0.18722,-0.16238 0.43754,-0.29523 0.55627,-0.29523 0.11873,0 0.35807,0.14745 0.53187,0.32767 0.17379,0.18022 0.50681,0.47513 0.74006,0.65535 0.23324,0.18022 0.53391,0.32767 0.66815,0.32767 0.13424,0 0.27841,0.0895 0.32037,0.19885 0.042,0.10936 0.59684,0.3715 1.23304,0.58252 0.6362,0.21103 1.25954,0.38368 1.38519,0.38368 0.12566,0 0.33167,-0.1032 0.4578,-0.22933 0.12613,-0.12614 0.90084,-0.4577 1.72158,-0.7368 0.82073,-0.27911 2.01651,-0.57538 2.65729,-0.65838 0.64078,-0.083 1.61662,-0.20824 2.42147,-0.13286 1.24205,0.11633 2.28335,0.47582 3.63376,0.89537 0.42544,0.13218 1.41517,-0.24924 1.76352,-0.54097 1.59854,-1.33875 1.66357,-2.2395 1.84403,-2.18312 0.11769,0.0367 0.235,0.92542 -0.89444,2.27349 -0.48715,0.58144 -1.46329,1.34931 -1.19975,1.64918 0.16393,0.18654 1.57175,1.41459 2.43973,2.01316 1.95268,1.34655 3.61448,1.55381 3.09343,1.65083 z m -12.59207,-3.30118 c 0.84102,0.0242 2.40771,-0.0274 3.48153,-0.1147 1.07382,-0.0873 2.01351,-0.19654 2.08819,-0.2427 0.0747,-0.0462 -0.19788,-0.27448 -0.6057,-0.50739 -0.52032,-0.29717 -1.09926,-0.47163 -1.94102,-0.58492 -0.65975,-0.0888 -1.88834,-0.12701 -2.73021,-0.0849 -0.99625,0.0498 -1.88659,0.19006 -2.55009,0.40177 -0.56068,0.17891 -1.19964,0.39839 -1.41991,0.48774 -0.22027,0.0894 -0.40049,0.20729 -0.40049,0.26207 0,0.0548 0.34406,0.13712 0.76457,0.18298 0.42051,0.0459 0.99394,0.0997 1.27428,0.1197 0.28034,0.02 1.19782,0.0562 2.03885,0.0804 z m 15.44587,3.30118 c 0.26988,0.0502 1.2029,-0.20065 1.77808,-0.39504 0.97239,-0.32863 1.97036,-0.73324 2.79481,-1.29258 1.37658,-0.93394 1.74271,-1.11479 2.24799,-1.03119 0.30263,0.0501 1.18014,0.0909 2.42165,0.1621 1.6604,0.0953 2.85419,0.0765 4.51459,-0.0709 1.24151,-0.11022 2.56807,-0.27282 2.9479,-0.36133 0.66388,-0.1547 0.71165,-0.14357 1.23464,0.28752 0.29923,0.24665 0.62031,0.44845 0.71352,0.44845 0.0932,0 0.21116,-0.16607 0.2621,-0.36904 0.0509,-0.20296 0.25465,-0.44285 0.45269,-0.53308 0.19803,-0.0902 0.36006,-0.21269 0.36006,-0.27213 0,-0.0594 0.44236,-0.23952 0.98301,-0.40017 0.54066,-0.16066 1.17962,-0.32883 1.41992,-0.37372 0.24029,-0.0449 0.7318,-0.11818 1.09224,-0.16287 0.36043,-0.0447 1.11408,-0.14488 1.67476,-0.22265 0.56069,-0.0778 3.84835,-0.15793 7.30593,-0.17815 3.45758,-0.0202 6.33128,-0.0815 6.38599,-0.13629 0.0547,-0.0547 0.0578,-0.16694 0.007,-0.24932 -0.061,-0.0987 -2.23473,-0.15251 -6.37039,-0.15777 -3.45281,-0.004 -6.44868,-0.045 -6.65749,-0.0902 -0.20882,-0.0452 -0.5435,-0.13708 -0.74374,-0.20416 -0.20025,-0.0671 -0.53222,-0.15826 -0.73772,-0.20264 -0.20549,-0.0444 -0.52681,-0.21354 -0.71403,-0.37592 -0.18722,-0.16238 -0.43754,-0.29523 -0.55627,-0.29523 -0.11873,0 -0.35807,0.14745 -0.53187,0.32767 -0.17379,0.18022 -0.50681,0.47513 -0.74006,0.65535 -0.23324,0.18022 -0.53391,0.32767 -0.66815,0.32767 -0.13424,0 -0.27841,0.0895 -0.32037,0.19885 -0.042,0.10936 -0.59684,0.3715 -1.23304,0.58252 -0.6362,0.21103 -1.25954,0.38368 -1.38519,0.38368 -0.12566,0 -0.33167,-0.1032 -0.4578,-0.22933 -0.12613,-0.12614 -0.90084,-0.4577 -1.72158,-0.7368 -0.82073,-0.27911 -2.01651,-0.57538 -2.65729,-0.65838 -0.64078,-0.083 -1.61662,-0.20824 -2.42147,-0.13286 -1.24205,0.11633 -2.28335,0.47582 -3.63376,0.89537 -0.42544,0.13218 -1.41517,-0.24924 -1.76352,-0.54097 -1.59854,-1.33875 -1.66357,-2.2395 -1.84403,-2.18312 -0.11769,0.0367 -0.235,0.92542 0.89444,2.27349 0.48715,0.58144 1.46329,1.34931 1.19975,1.64918 -0.16393,0.18654 -1.57175,1.41459 -2.43973,2.01316 -1.95268,1.34655 -3.61448,1.55381 -3.09343,1.65083 z m 12.59207,-3.30118 c -0.84102,0.0242 -2.40771,-0.0274 -3.48153,-0.1147 -1.07382,-0.0873 -2.01351,-0.19654 -2.08819,-0.2427 -0.0747,-0.0462 0.19788,-0.27448 0.6057,-0.50739 0.52032,-0.29717 1.09926,-0.47163 1.94102,-0.58492 0.65975,-0.0888 1.88834,-0.12701 2.73021,-0.0849 0.99625,0.0498 1.88659,0.19006 2.55009,0.40177 0.56068,0.17891 1.19964,0.39839 1.41991,0.48774 0.22027,0.0894 0.40049,0.20729 0.40049,0.26207 0,0.0548 -0.34406,0.13712 -0.76457,0.18298 -0.42051,0.0459 -0.99394,0.0997 -1.27428,0.1197 -0.28034,0.02 -1.19782,0.0562 -2.03885,0.0804 z"
         id="path188"
         sodipodi:nodetypes="cassssssscssssssscscsssssssscsssssassssssscsssssscscsccs"
         inkscape:path-effect="#path-effect193"
         inkscape:original-d="m 137.27624,119.86659 c -0.26988,0.0502 -1.2029,-0.20065 -1.77808,-0.39504 -0.97239,-0.32863 -1.97036,-0.73324 -2.79481,-1.29258 -1.37658,-0.93394 -1.74271,-1.11479 -2.24799,-1.03119 -0.30263,0.0501 -1.18014,0.0909 -2.42165,0.1621 -1.6604,0.0953 -2.85419,0.0765 -4.51459,-0.0709 -1.24151,-0.11022 -2.56807,-0.27282 -2.9479,-0.36133 -0.66388,-0.1547 -0.71165,-0.14357 -1.23464,0.28752 -0.29923,0.24665 -0.62031,0.44845 -0.71352,0.44845 -0.0932,0 -0.21116,-0.16607 -0.2621,-0.36904 -0.0509,-0.20296 -0.25465,-0.44285 -0.45269,-0.53308 -0.19803,-0.0902 -0.36006,-0.21269 -0.36006,-0.27213 0,-0.0594 -0.44236,-0.23952 -0.98301,-0.40017 -0.54066,-0.16066 -1.17962,-0.32883 -1.41992,-0.37372 -0.24029,-0.0449 -0.7318,-0.11818 -1.09224,-0.16287 -0.36043,-0.0447 -1.11408,-0.14488 -1.67476,-0.22265 -0.56069,-0.0778 -3.84835,-0.15793 -7.30593,-0.17815 -3.45758,-0.0202 -6.331275,-0.0815 -6.385985,-0.13629 -0.05471,-0.0547 -0.05781,-0.16694 -0.0069,-0.24932 0.06098,-0.0987 2.234735,-0.15251 6.370395,-0.15777 3.45281,-0.004 6.44868,-0.045 6.65749,-0.0902 0.20882,-0.0452 0.5435,-0.13708 0.74374,-0.20416 0.20025,-0.0671 0.53222,-0.15826 0.73772,-0.20264 0.20549,-0.0444 0.52681,-0.21354 0.71403,-0.37592 0.18722,-0.16238 0.43754,-0.29523 0.55627,-0.29523 0.11873,0 0.35807,0.14745 0.53187,0.32767 0.17379,0.18022 0.50681,0.47513 0.74006,0.65535 0.23324,0.18022 0.53391,0.32767 0.66815,0.32767 0.13424,0 0.27841,0.0895 0.32037,0.19885 0.042,0.10936 0.59684,0.3715 1.23304,0.58252 0.6362,0.21103 1.25954,0.38368 1.38519,0.38368 0.12566,0 0.33167,-0.1032 0.4578,-0.22933 0.12613,-0.12614 0.90084,-0.4577 1.72158,-0.7368 0.82073,-0.27911 2.01651,-0.57538 2.65729,-0.65838 0.64078,-0.083 1.61662,-0.20824 2.42147,-0.13286 1.24205,0.11633 2.28335,0.47582 3.63376,0.89537 0.42544,0.13218 1.41517,-0.24924 1.76352,-0.54097 1.59854,-1.33875 1.66357,-2.2395 1.84403,-2.18312 0.11769,0.0367 0.235,0.92542 -0.89444,2.27349 -0.48715,0.58144 -1.46329,1.34931 -1.19975,1.64918 0.16393,0.18654 1.57175,1.41459 2.43973,2.01316 1.95268,1.34655 3.61448,1.55381 3.09343,1.65083 z m -12.59207,-3.30118 c 0.84102,0.0242 2.40771,-0.0274 3.48153,-0.1147 1.07382,-0.0873 2.01351,-0.19654 2.08819,-0.2427 0.0747,-0.0462 -0.19788,-0.27448 -0.6057,-0.50739 -0.52032,-0.29717 -1.09926,-0.47163 -1.94102,-0.58492 -0.65975,-0.0888 -1.88834,-0.12701 -2.73021,-0.0849 -0.99625,0.0498 -1.88659,0.19006 -2.55009,0.40177 -0.56068,0.17891 -1.19964,0.39839 -1.41991,0.48774 -0.22027,0.0894 -0.40049,0.20729 -0.40049,0.26207 0,0.0548 0.34406,0.13712 0.76457,0.18298 0.42051,0.0459 0.99394,0.0997 1.27428,0.1197 0.28034,0.02 1.19782,0.0562 2.03885,0.0804 z"
         transform="translate(0,35.667652)" /></g></g></svg>
