<?xml version="1.0" encoding="UTF-8" standalone="no"?>
<!-- Created with Inkscape (http://www.inkscape.org/) -->

<svg
   width="84.500725mm"
   height="15.529342mm"
   viewBox="0 0 84.500725 15.529342"
   version="1.1"
   id="svg1"
   xml:space="preserve"
   inkscape:version="1.4 (86a8ad7, 2024-10-11)"
   sodipodi:docname="skonguistuff.svg"
   inkscape:export-filename="..\Github\skonguistuff.png"
   inkscape:export-xdpi="400"
   inkscape:export-ydpi="400"
   xmlns:inkscape="http://www.inkscape.org/namespaces/inkscape"
   xmlns:sodipodi="http://sodipodi.sourceforge.net/DTD/sodipodi-0.dtd"
   xmlns="http://www.w3.org/2000/svg"
   xmlns:svg="http://www.w3.org/2000/svg"><sodipodi:namedview
     id="namedview1"
     pagecolor="#ffffff"
     bordercolor="#000000"
     borderopacity="0.25"
     inkscape:showpageshadow="2"
     inkscape:pageopacity="0.0"
     inkscape:pagecheckerboard="0"
     inkscape:deskcolor="#d1d1d1"
     inkscape:document-units="mm"
     inkscape:zoom="0.7071068"
     inkscape:cx="448.30569"
     inkscape:cy="263.04372"
     inkscape:window-width="1920"
     inkscape:window-height="1009"
     inkscape:window-x="-8"
     inkscape:window-y="-8"
     inkscape:window-maximized="1"
     inkscape:current-layer="layer1"
     showgrid="false"
     showguides="true"><inkscape:page
       x="0"
       y="0"
       width="84.500725"
       height="15.529342"
       id="page2"
       margin="0"
       bleed="0" /></sodipodi:namedview><defs
     id="defs1"><inkscape:path-effect
       effect="mirror_symmetry"
       start_point="138.70314,117.49312"
       end_point="138.70314,124.21256"
       center_point="138.70314,120.85284"
       id="path-effect189"
       is_visible="true"
       lpeversion="1.2"
       lpesatellites=""
       mode="free"
       discard_orig_path="false"
       fuse_paths="false"
       oposite_fuse="false"
       split_items="false"
       split_open="false"
       link_styles="false" /><inkscape:path-effect
       effect="mirror_symmetry"
       start_point="138.70314,117.49312"
       end_point="138.70314,124.21256"
       center_point="138.70314,120.85284"
       id="path-effect102"
       is_visible="true"
       lpeversion="1.2"
       lpesatellites=""
       mode="free"
       discard_orig_path="false"
       fuse_paths="false"
       oposite_fuse="false"
       split_items="false"
       split_open="false"
       link_styles="false" /><filter
       inkscape:collect="always"
       style="color-interpolation-filters:sRGB"
       id="filter193"
       x="-0.027339531"
       y="-0.19647913"
       width="1.0546791"
       height="1.3929583"><feGaussianBlur
         inkscape:collect="always"
         stdDeviation="0.912683"
         id="feGaussianBlur193" /></filter></defs><g
     inkscape:label="Layer 1"
     inkscape:groupmode="layer"
     id="layer1"
     transform="translate(-96.452778,-107.10433)"><g
       id="g183"><path
         style="fill:#4b4b4b;fill-opacity:1;stroke:none"
         d="m 137.31933,120.08598 c 0.10008,0.0982 -0.63723,-0.13068 -1.01362,-0.27785 -0.3764,-0.14716 -0.72046,-0.23147 -0.76457,-0.18736 -0.0441,0.0441 -0.0802,0.0169 -0.0802,-0.0604 0,-0.0774 -0.24109,-0.22783 -0.53575,-0.33438 -0.29467,-0.10655 -1.2103,-0.65138 -2.03475,-1.21072 -1.37658,-0.93394 -1.54393,-1.00956 -2.04921,-0.92596 -0.30263,0.0501 -1.56601,0.14933 -2.80752,0.22057 -1.6604,0.0953 -2.85419,0.0765 -4.51459,-0.0709 -1.24151,-0.11022 -2.56807,-0.27282 -2.9479,-0.36133 -0.66388,-0.1547 -0.71165,-0.14357 -1.23464,0.28752 -0.29923,0.24665 -0.62031,0.44845 -0.71352,0.44845 -0.0932,0 -0.21116,-0.16607 -0.2621,-0.36904 -0.0509,-0.20296 -0.25465,-0.44285 -0.45269,-0.53308 -0.19803,-0.0902 -0.36006,-0.21269 -0.36006,-0.27213 0,-0.0594 -0.44236,-0.23952 -0.98301,-0.40017 -0.54066,-0.16066 -1.17962,-0.32883 -1.41992,-0.37372 -0.24029,-0.0449 -0.7318,-0.11818 -1.09224,-0.16287 -0.36043,-0.0447 -1.11408,-0.14488 -1.67476,-0.22265 -0.56069,-0.0778 -3.84835,-0.15793 -7.30593,-0.17815 -3.45758,-0.0202 -6.331275,-0.0815 -6.385985,-0.13629 -0.05471,-0.0547 -0.05781,-0.16694 -0.0069,-0.24932 0.06098,-0.0987 2.234735,-0.15251 6.370395,-0.15777 3.45281,-0.004 6.44868,-0.045 6.65749,-0.0902 0.20882,-0.0452 0.5435,-0.13708 0.74374,-0.20416 0.20025,-0.0671 0.53222,-0.15826 0.73772,-0.20264 0.20549,-0.0444 0.52681,-0.21354 0.71403,-0.37592 0.18722,-0.16238 0.43754,-0.29523 0.55627,-0.29523 0.11873,0 0.35807,0.14745 0.53187,0.32767 0.17379,0.18022 0.50681,0.47513 0.74006,0.65535 0.23324,0.18022 0.53391,0.32767 0.66815,0.32767 0.13424,0 0.27841,0.0895 0.32037,0.19885 0.042,0.10936 0.59684,0.3715 1.23304,0.58252 0.6362,0.21103 1.25954,0.38368 1.38519,0.38368 0.12566,0 0.33167,-0.1032 0.4578,-0.22933 0.12613,-0.12614 0.90084,-0.4577 1.72158,-0.7368 0.82073,-0.27911 2.01651,-0.57538 2.65729,-0.65838 0.64078,-0.083 1.7094,-0.11121 2.3747,-0.0627 0.66531,0.0485 1.78645,0.21669 2.49144,0.37372 0.70499,0.15704 1.47134,0.3586 1.703,0.44792 0.23166,0.0893 0.74887,0.21521 1.14936,0.27974 0.43982,0.0709 1.06807,0.0542 1.58657,-0.0421 0.63915,-0.11872 0.98845,-0.28208 1.36747,-0.63954 0.27998,-0.26406 0.56084,-0.4801 0.62414,-0.4801 0.0633,0 0.0547,0.21299 -0.0191,0.4733 -0.0738,0.26032 -0.46826,0.79654 -0.87652,1.19161 -0.65627,0.63509 -0.73201,0.7696 -0.65372,1.16106 0.0487,0.24351 0.30026,0.66264 0.55901,0.93141 0.25876,0.26877 0.83497,0.73931 1.2866,1.06477 0.33635,0.24238 0.60064,0.43755 1.05539,0.65805 z m -12.63516,-3.52057 c 0.84102,0.0242 2.40771,-0.0274 3.48153,-0.1147 1.07382,-0.0873 2.01351,-0.19654 2.08819,-0.2427 0.0747,-0.0462 -0.19788,-0.27448 -0.6057,-0.50739 -0.52032,-0.29717 -1.09926,-0.47163 -1.94102,-0.58492 -0.65975,-0.0888 -1.88834,-0.12701 -2.73021,-0.0849 -0.99625,0.0498 -1.88659,0.19006 -2.55009,0.40177 -0.56068,0.17891 -1.19964,0.39839 -1.41991,0.48774 -0.22027,0.0894 -0.40049,0.20729 -0.40049,0.26207 0,0.0548 0.34406,0.13712 0.76457,0.18298 0.42051,0.0459 0.99394,0.0997 1.27428,0.1197 0.28034,0.02 1.19782,0.0562 2.03885,0.0804 z m 15.40278,3.52057 c -0.10008,0.0982 0.63723,-0.13068 1.01362,-0.27785 0.3764,-0.14716 0.72046,-0.23147 0.76457,-0.18736 0.0441,0.0441 0.0802,0.0169 0.0802,-0.0604 0,-0.0774 0.24109,-0.22783 0.53575,-0.33438 0.29467,-0.10655 1.2103,-0.65138 2.03475,-1.21072 1.37658,-0.93394 1.54393,-1.00956 2.04921,-0.92596 0.30263,0.0501 1.56601,0.14933 2.80752,0.22057 1.6604,0.0953 2.85419,0.0765 4.51459,-0.0709 1.24151,-0.11022 2.56807,-0.27282 2.9479,-0.36133 0.66388,-0.1547 0.71165,-0.14357 1.23464,0.28752 0.29923,0.24665 0.62031,0.44845 0.71352,0.44845 0.0932,0 0.21116,-0.16607 0.2621,-0.36904 0.0509,-0.20296 0.25465,-0.44285 0.45269,-0.53308 0.19803,-0.0902 0.36006,-0.21269 0.36006,-0.27213 0,-0.0594 0.44236,-0.23952 0.98301,-0.40017 0.54066,-0.16066 1.17962,-0.32883 1.41992,-0.37372 0.24029,-0.0449 0.7318,-0.11818 1.09224,-0.16287 0.36043,-0.0447 1.11408,-0.14488 1.67476,-0.22265 0.56069,-0.0778 3.84835,-0.15793 7.30593,-0.17815 3.45758,-0.0202 6.33128,-0.0815 6.38599,-0.13629 0.0547,-0.0547 0.0578,-0.16694 0.007,-0.24932 -0.061,-0.0987 -2.23473,-0.15251 -6.37039,-0.15777 -3.45281,-0.004 -6.44868,-0.045 -6.65749,-0.0902 -0.20882,-0.0452 -0.5435,-0.13708 -0.74374,-0.20416 -0.20025,-0.0671 -0.53222,-0.15826 -0.73772,-0.20264 -0.20549,-0.0444 -0.52681,-0.21354 -0.71403,-0.37592 -0.18722,-0.16238 -0.43754,-0.29523 -0.55627,-0.29523 -0.11873,0 -0.35807,0.14745 -0.53187,0.32767 -0.17379,0.18022 -0.50681,0.47513 -0.74006,0.65535 -0.23324,0.18022 -0.53391,0.32767 -0.66815,0.32767 -0.13424,0 -0.27841,0.0895 -0.32037,0.19885 -0.042,0.10936 -0.59684,0.3715 -1.23304,0.58252 -0.6362,0.21103 -1.25954,0.38368 -1.38519,0.38368 -0.12566,0 -0.33167,-0.1032 -0.4578,-0.22933 -0.12613,-0.12614 -0.90084,-0.4577 -1.72158,-0.7368 -0.82073,-0.27911 -2.01651,-0.57538 -2.65729,-0.65838 -0.64078,-0.083 -1.7094,-0.11121 -2.3747,-0.0627 -0.66531,0.0485 -1.78645,0.21669 -2.49144,0.37372 -0.70499,0.15704 -1.47134,0.3586 -1.703,0.44792 -0.23166,0.0893 -0.74887,0.21521 -1.14936,0.27974 -0.43982,0.0709 -1.06807,0.0542 -1.58657,-0.0421 -0.63915,-0.11872 -0.98845,-0.28208 -1.36747,-0.63954 -0.27998,-0.26406 -0.56084,-0.4801 -0.62414,-0.4801 -0.0633,0 -0.0547,0.21299 0.0191,0.4733 0.0738,0.26032 0.46826,0.79654 0.87652,1.19161 0.65627,0.63509 0.73201,0.7696 0.65372,1.16106 -0.0487,0.24351 -0.30026,0.66264 -0.55901,0.93141 -0.25876,0.26877 -0.83497,0.73931 -1.2866,1.06477 -0.33635,0.24238 -0.60064,0.43755 -1.05539,0.65805 z m 12.63516,-3.52057 c -0.84102,0.0242 -2.40771,-0.0274 -3.48153,-0.1147 -1.07382,-0.0873 -2.01351,-0.19654 -2.08819,-0.2427 -0.0747,-0.0462 0.19788,-0.27448 0.6057,-0.50739 0.52032,-0.29717 1.09926,-0.47163 1.94102,-0.58492 0.65975,-0.0888 1.88834,-0.12701 2.73021,-0.0849 0.99625,0.0498 1.88659,0.19006 2.55009,0.40177 0.56068,0.17891 1.19964,0.39839 1.41991,0.48774 0.22027,0.0894 0.40049,0.20729 0.40049,0.26207 0,0.0548 -0.34406,0.13712 -0.76457,0.18298 -0.42051,0.0459 -0.99394,0.0997 -1.27428,0.1197 -0.28034,0.02 -1.19782,0.0562 -2.03885,0.0804 z"
         id="path12"
         sodipodi:nodetypes="sssssssssssscssssssscscsssssssscssssssssssssssssacscsssssscscscc"
         inkscape:path-effect="#path-effect102"
         inkscape:original-d="m 137.31933,120.08598 c 0.10008,0.0982 -0.63723,-0.13068 -1.01362,-0.27785 -0.3764,-0.14716 -0.72046,-0.23147 -0.76457,-0.18736 -0.0441,0.0441 -0.0802,0.0169 -0.0802,-0.0604 0,-0.0774 -0.24109,-0.22783 -0.53575,-0.33438 -0.29467,-0.10655 -1.2103,-0.65138 -2.03475,-1.21072 -1.37658,-0.93394 -1.54393,-1.00956 -2.04921,-0.92596 -0.30263,0.0501 -1.56601,0.14933 -2.80752,0.22057 -1.6604,0.0953 -2.85419,0.0765 -4.51459,-0.0709 -1.24151,-0.11022 -2.56807,-0.27282 -2.9479,-0.36133 -0.66388,-0.1547 -0.71165,-0.14357 -1.23464,0.28752 -0.29923,0.24665 -0.62031,0.44845 -0.71352,0.44845 -0.0932,0 -0.21116,-0.16607 -0.2621,-0.36904 -0.0509,-0.20296 -0.25465,-0.44285 -0.45269,-0.53308 -0.19803,-0.0902 -0.36006,-0.21269 -0.36006,-0.27213 0,-0.0594 -0.44236,-0.23952 -0.98301,-0.40017 -0.54066,-0.16066 -1.17962,-0.32883 -1.41992,-0.37372 -0.24029,-0.0449 -0.7318,-0.11818 -1.09224,-0.16287 -0.36043,-0.0447 -1.11408,-0.14488 -1.67476,-0.22265 -0.56069,-0.0778 -3.84835,-0.15793 -7.30593,-0.17815 -3.45758,-0.0202 -6.331275,-0.0815 -6.385985,-0.13629 -0.05471,-0.0547 -0.05781,-0.16694 -0.0069,-0.24932 0.06098,-0.0987 2.234735,-0.15251 6.370395,-0.15777 3.45281,-0.004 6.44868,-0.045 6.65749,-0.0902 0.20882,-0.0452 0.5435,-0.13708 0.74374,-0.20416 0.20025,-0.0671 0.53222,-0.15826 0.73772,-0.20264 0.20549,-0.0444 0.52681,-0.21354 0.71403,-0.37592 0.18722,-0.16238 0.43754,-0.29523 0.55627,-0.29523 0.11873,0 0.35807,0.14745 0.53187,0.32767 0.17379,0.18022 0.50681,0.47513 0.74006,0.65535 0.23324,0.18022 0.53391,0.32767 0.66815,0.32767 0.13424,0 0.27841,0.0895 0.32037,0.19885 0.042,0.10936 0.59684,0.3715 1.23304,0.58252 0.6362,0.21103 1.25954,0.38368 1.38519,0.38368 0.12566,0 0.33167,-0.1032 0.4578,-0.22933 0.12613,-0.12614 0.90084,-0.4577 1.72158,-0.7368 0.82073,-0.27911 2.01651,-0.57538 2.65729,-0.65838 0.64078,-0.083 1.7094,-0.11121 2.3747,-0.0627 0.66531,0.0485 1.78645,0.21669 2.49144,0.37372 0.70499,0.15704 1.47134,0.3586 1.703,0.44792 0.23166,0.0893 0.74887,0.21521 1.14936,0.27974 0.43982,0.0709 1.06807,0.0542 1.58657,-0.0421 0.63915,-0.11872 0.98845,-0.28208 1.36747,-0.63954 0.27998,-0.26406 0.56084,-0.4801 0.62414,-0.4801 0.0633,0 0.0547,0.21299 -0.0191,0.4733 -0.0738,0.26032 -0.46826,0.79654 -0.87652,1.19161 -0.65627,0.63509 -0.73201,0.7696 -0.65372,1.16106 0.0487,0.24351 0.30026,0.66264 0.55901,0.93141 0.25876,0.26877 0.83497,0.73931 1.2866,1.06477 0.33635,0.24238 0.60064,0.43755 1.05539,0.65805 z m -12.63516,-3.52057 c 0.84102,0.0242 2.40771,-0.0274 3.48153,-0.1147 1.07382,-0.0873 2.01351,-0.19654 2.08819,-0.2427 0.0747,-0.0462 -0.19788,-0.27448 -0.6057,-0.50739 -0.52032,-0.29717 -1.09926,-0.47163 -1.94102,-0.58492 -0.65975,-0.0888 -1.88834,-0.12701 -2.73021,-0.0849 -0.99625,0.0498 -1.88659,0.19006 -2.55009,0.40177 -0.56068,0.17891 -1.19964,0.39839 -1.41991,0.48774 -0.22027,0.0894 -0.40049,0.20729 -0.40049,0.26207 0,0.0548 0.34406,0.13712 0.76457,0.18298 0.42051,0.0459 0.99394,0.0997 1.27428,0.1197 0.28034,0.02 1.19782,0.0562 2.03885,0.0804 z" /><g
         id="g182"><path
           id="path101"
           style="fill:#4b4b4b;fill-opacity:1;stroke:none;stroke-width:1.091;stroke-linejoin:bevel;paint-order:markers fill stroke"
           d="m 138.68042,109.12167 c -0.0353,1.3e-4 -0.0706,0.0754 -0.0961,0.22612 -0.26894,1.59141 -0.48112,3.18769 -1.19159,4.47276 -0.49982,0.77952 -1.21368,1.44027 -1.94711,1.63087 -0.0728,0.0189 -0.13698,0.09 -0.13708,0.16514 -8e-4,0.62376 0.18005,3.25993 3.16083,5.08905 0.12774,0.0784 0.33916,0.0775 0.46681,-0.002 2.9736,-1.84185 3.14366,-4.47922 3.14032,-5.102 -4e-4,-0.0748 -0.0643,-0.14548 -0.13708,-0.16406 -0.73437,-0.18759 -1.45213,-0.84581 -1.95521,-1.62332 -0.71579,-1.2822 -0.93223,-2.87707 -1.20723,-4.46736 -0.026,-0.15053 -0.0613,-0.2257 -0.0966,-0.22558 z m -2.07016,8.70752 c 0.0181,0.001 0.0442,0.0179 0.0755,0.054 1.16406,1.37043 1.54525,1.20039 1.50891,1.44846 -0.0189,0.12921 -0.25671,0.24616 -0.56395,0.10092 -0.42707,-0.2019 -0.86054,-1.05597 -1.03077,-1.49164 -0.0281,-0.0721 -0.02,-0.11374 0.0103,-0.11171 z m 4.16514,0 c 0.0302,-0.002 0.0379,0.0397 0.01,0.11171 -0.17023,0.43567 -0.60316,1.28974 -1.03023,1.49164 -0.30723,0.14524 -0.48459,-0.0149 -0.50351,-0.14409 -0.0363,-0.24807 0.28441,-0.0349 1.44847,-1.40529 0.0313,-0.036 0.0574,-0.0528 0.0755,-0.054 z"
           transform="matrix(0.95756249,0,0,0.95756249,5.885774,4.8043185)"
           sodipodi:nodetypes="sscssscsccssscssssscsscs" /></g></g><g
       id="g185"
       style="opacity:0.5;filter:url(#filter193)"
       inkscape:export-filename="Github\midshakra.svg"
       inkscape:export-xdpi="250"
       inkscape:export-ydpi="250"><path
         style="fill:#4b4b4b;fill-opacity:1;stroke:none"
         d="m 137.31933,120.08598 c 0.10008,0.0982 -0.63723,-0.13068 -1.01362,-0.27785 -0.3764,-0.14716 -0.72046,-0.23147 -0.76457,-0.18736 -0.0441,0.0441 -0.0802,0.0169 -0.0802,-0.0604 0,-0.0774 -0.24109,-0.22783 -0.53575,-0.33438 -0.29467,-0.10655 -1.2103,-0.65138 -2.03475,-1.21072 -1.37658,-0.93394 -1.54393,-1.00956 -2.04921,-0.92596 -0.30263,0.0501 -1.56601,0.14933 -2.80752,0.22057 -1.6604,0.0953 -2.85419,0.0765 -4.51459,-0.0709 -1.24151,-0.11022 -2.56807,-0.27282 -2.9479,-0.36133 -0.66388,-0.1547 -0.71165,-0.14357 -1.23464,0.28752 -0.29923,0.24665 -0.62031,0.44845 -0.71352,0.44845 -0.0932,0 -0.21116,-0.16607 -0.2621,-0.36904 -0.0509,-0.20296 -0.25465,-0.44285 -0.45269,-0.53308 -0.19803,-0.0902 -0.36006,-0.21269 -0.36006,-0.27213 0,-0.0594 -0.44236,-0.23952 -0.98301,-0.40017 -0.54066,-0.16066 -1.17962,-0.32883 -1.41992,-0.37372 -0.24029,-0.0449 -0.7318,-0.11818 -1.09224,-0.16287 -0.36043,-0.0447 -1.11408,-0.14488 -1.67476,-0.22265 -0.56069,-0.0778 -3.84835,-0.15793 -7.30593,-0.17815 -3.45758,-0.0202 -6.331275,-0.0815 -6.385985,-0.13629 -0.05471,-0.0547 -0.05781,-0.16694 -0.0069,-0.24932 0.06098,-0.0987 2.234735,-0.15251 6.370395,-0.15777 3.45281,-0.004 6.44868,-0.045 6.65749,-0.0902 0.20882,-0.0452 0.5435,-0.13708 0.74374,-0.20416 0.20025,-0.0671 0.53222,-0.15826 0.73772,-0.20264 0.20549,-0.0444 0.52681,-0.21354 0.71403,-0.37592 0.18722,-0.16238 0.43754,-0.29523 0.55627,-0.29523 0.11873,0 0.35807,0.14745 0.53187,0.32767 0.17379,0.18022 0.50681,0.47513 0.74006,0.65535 0.23324,0.18022 0.53391,0.32767 0.66815,0.32767 0.13424,0 0.27841,0.0895 0.32037,0.19885 0.042,0.10936 0.59684,0.3715 1.23304,0.58252 0.6362,0.21103 1.25954,0.38368 1.38519,0.38368 0.12566,0 0.33167,-0.1032 0.4578,-0.22933 0.12613,-0.12614 0.90084,-0.4577 1.72158,-0.7368 0.82073,-0.27911 2.01651,-0.57538 2.65729,-0.65838 0.64078,-0.083 1.7094,-0.11121 2.3747,-0.0627 0.66531,0.0485 1.78645,0.21669 2.49144,0.37372 0.70499,0.15704 1.47134,0.3586 1.703,0.44792 0.23166,0.0893 0.74887,0.21521 1.14936,0.27974 0.43982,0.0709 1.06807,0.0542 1.58657,-0.0421 0.63915,-0.11872 0.98845,-0.28208 1.36747,-0.63954 0.27998,-0.26406 0.56084,-0.4801 0.62414,-0.4801 0.0633,0 0.0547,0.21299 -0.0191,0.4733 -0.0738,0.26032 -0.46826,0.79654 -0.87652,1.19161 -0.65627,0.63509 -0.73201,0.7696 -0.65372,1.16106 0.0487,0.24351 0.30026,0.66264 0.55901,0.93141 0.25876,0.26877 0.83497,0.73931 1.2866,1.06477 0.33635,0.24238 0.60064,0.43755 1.05539,0.65805 z m -12.63516,-3.52057 c 0.84102,0.0242 2.40771,-0.0274 3.48153,-0.1147 1.07382,-0.0873 2.01351,-0.19654 2.08819,-0.2427 0.0747,-0.0462 -0.19788,-0.27448 -0.6057,-0.50739 -0.52032,-0.29717 -1.09926,-0.47163 -1.94102,-0.58492 -0.65975,-0.0888 -1.88834,-0.12701 -2.73021,-0.0849 -0.99625,0.0498 -1.88659,0.19006 -2.55009,0.40177 -0.56068,0.17891 -1.19964,0.39839 -1.41991,0.48774 -0.22027,0.0894 -0.40049,0.20729 -0.40049,0.26207 0,0.0548 0.34406,0.13712 0.76457,0.18298 0.42051,0.0459 0.99394,0.0997 1.27428,0.1197 0.28034,0.02 1.19782,0.0562 2.03885,0.0804 z m 15.40278,3.52057 c -0.10008,0.0982 0.63723,-0.13068 1.01362,-0.27785 0.3764,-0.14716 0.72046,-0.23147 0.76457,-0.18736 0.0441,0.0441 0.0802,0.0169 0.0802,-0.0604 0,-0.0774 0.24109,-0.22783 0.53575,-0.33438 0.29467,-0.10655 1.2103,-0.65138 2.03475,-1.21072 1.37658,-0.93394 1.54393,-1.00956 2.04921,-0.92596 0.30263,0.0501 1.56601,0.14933 2.80752,0.22057 1.6604,0.0953 2.85419,0.0765 4.51459,-0.0709 1.24151,-0.11022 2.56807,-0.27282 2.9479,-0.36133 0.66388,-0.1547 0.71165,-0.14357 1.23464,0.28752 0.29923,0.24665 0.62031,0.44845 0.71352,0.44845 0.0932,0 0.21116,-0.16607 0.2621,-0.36904 0.0509,-0.20296 0.25465,-0.44285 0.45269,-0.53308 0.19803,-0.0902 0.36006,-0.21269 0.36006,-0.27213 0,-0.0594 0.44236,-0.23952 0.98301,-0.40017 0.54066,-0.16066 1.17962,-0.32883 1.41992,-0.37372 0.24029,-0.0449 0.7318,-0.11818 1.09224,-0.16287 0.36043,-0.0447 1.11408,-0.14488 1.67476,-0.22265 0.56069,-0.0778 3.84835,-0.15793 7.30593,-0.17815 3.45758,-0.0202 6.33128,-0.0815 6.38599,-0.13629 0.0547,-0.0547 0.0578,-0.16694 0.007,-0.24932 -0.061,-0.0987 -2.23473,-0.15251 -6.37039,-0.15777 -3.45281,-0.004 -6.44868,-0.045 -6.65749,-0.0902 -0.20882,-0.0452 -0.5435,-0.13708 -0.74374,-0.20416 -0.20025,-0.0671 -0.53222,-0.15826 -0.73772,-0.20264 -0.20549,-0.0444 -0.52681,-0.21354 -0.71403,-0.37592 -0.18722,-0.16238 -0.43754,-0.29523 -0.55627,-0.29523 -0.11873,0 -0.35807,0.14745 -0.53187,0.32767 -0.17379,0.18022 -0.50681,0.47513 -0.74006,0.65535 -0.23324,0.18022 -0.53391,0.32767 -0.66815,0.32767 -0.13424,0 -0.27841,0.0895 -0.32037,0.19885 -0.042,0.10936 -0.59684,0.3715 -1.23304,0.58252 -0.6362,0.21103 -1.25954,0.38368 -1.38519,0.38368 -0.12566,0 -0.33167,-0.1032 -0.4578,-0.22933 -0.12613,-0.12614 -0.90084,-0.4577 -1.72158,-0.7368 -0.82073,-0.27911 -2.01651,-0.57538 -2.65729,-0.65838 -0.64078,-0.083 -1.7094,-0.11121 -2.3747,-0.0627 -0.66531,0.0485 -1.78645,0.21669 -2.49144,0.37372 -0.70499,0.15704 -1.47134,0.3586 -1.703,0.44792 -0.23166,0.0893 -0.74887,0.21521 -1.14936,0.27974 -0.43982,0.0709 -1.06807,0.0542 -1.58657,-0.0421 -0.63915,-0.11872 -0.98845,-0.28208 -1.36747,-0.63954 -0.27998,-0.26406 -0.56084,-0.4801 -0.62414,-0.4801 -0.0633,0 -0.0547,0.21299 0.0191,0.4733 0.0738,0.26032 0.46826,0.79654 0.87652,1.19161 0.65627,0.63509 0.73201,0.7696 0.65372,1.16106 -0.0487,0.24351 -0.30026,0.66264 -0.55901,0.93141 -0.25876,0.26877 -0.83497,0.73931 -1.2866,1.06477 -0.33635,0.24238 -0.60064,0.43755 -1.05539,0.65805 z m 12.63516,-3.52057 c -0.84102,0.0242 -2.40771,-0.0274 -3.48153,-0.1147 -1.07382,-0.0873 -2.01351,-0.19654 -2.08819,-0.2427 -0.0747,-0.0462 0.19788,-0.27448 0.6057,-0.50739 0.52032,-0.29717 1.09926,-0.47163 1.94102,-0.58492 0.65975,-0.0888 1.88834,-0.12701 2.73021,-0.0849 0.99625,0.0498 1.88659,0.19006 2.55009,0.40177 0.56068,0.17891 1.19964,0.39839 1.41991,0.48774 0.22027,0.0894 0.40049,0.20729 0.40049,0.26207 0,0.0548 -0.34406,0.13712 -0.76457,0.18298 -0.42051,0.0459 -0.99394,0.0997 -1.27428,0.1197 -0.28034,0.02 -1.19782,0.0562 -2.03885,0.0804 z"
         id="path183"
         sodipodi:nodetypes="sssssssssssscssssssscscsssssssscssssssssssssssssacscsssssscscscc"
         inkscape:path-effect="#path-effect189"
         inkscape:original-d="m 137.31933,120.08598 c 0.10008,0.0982 -0.63723,-0.13068 -1.01362,-0.27785 -0.3764,-0.14716 -0.72046,-0.23147 -0.76457,-0.18736 -0.0441,0.0441 -0.0802,0.0169 -0.0802,-0.0604 0,-0.0774 -0.24109,-0.22783 -0.53575,-0.33438 -0.29467,-0.10655 -1.2103,-0.65138 -2.03475,-1.21072 -1.37658,-0.93394 -1.54393,-1.00956 -2.04921,-0.92596 -0.30263,0.0501 -1.56601,0.14933 -2.80752,0.22057 -1.6604,0.0953 -2.85419,0.0765 -4.51459,-0.0709 -1.24151,-0.11022 -2.56807,-0.27282 -2.9479,-0.36133 -0.66388,-0.1547 -0.71165,-0.14357 -1.23464,0.28752 -0.29923,0.24665 -0.62031,0.44845 -0.71352,0.44845 -0.0932,0 -0.21116,-0.16607 -0.2621,-0.36904 -0.0509,-0.20296 -0.25465,-0.44285 -0.45269,-0.53308 -0.19803,-0.0902 -0.36006,-0.21269 -0.36006,-0.27213 0,-0.0594 -0.44236,-0.23952 -0.98301,-0.40017 -0.54066,-0.16066 -1.17962,-0.32883 -1.41992,-0.37372 -0.24029,-0.0449 -0.7318,-0.11818 -1.09224,-0.16287 -0.36043,-0.0447 -1.11408,-0.14488 -1.67476,-0.22265 -0.56069,-0.0778 -3.84835,-0.15793 -7.30593,-0.17815 -3.45758,-0.0202 -6.331275,-0.0815 -6.385985,-0.13629 -0.05471,-0.0547 -0.05781,-0.16694 -0.0069,-0.24932 0.06098,-0.0987 2.234735,-0.15251 6.370395,-0.15777 3.45281,-0.004 6.44868,-0.045 6.65749,-0.0902 0.20882,-0.0452 0.5435,-0.13708 0.74374,-0.20416 0.20025,-0.0671 0.53222,-0.15826 0.73772,-0.20264 0.20549,-0.0444 0.52681,-0.21354 0.71403,-0.37592 0.18722,-0.16238 0.43754,-0.29523 0.55627,-0.29523 0.11873,0 0.35807,0.14745 0.53187,0.32767 0.17379,0.18022 0.50681,0.47513 0.74006,0.65535 0.23324,0.18022 0.53391,0.32767 0.66815,0.32767 0.13424,0 0.27841,0.0895 0.32037,0.19885 0.042,0.10936 0.59684,0.3715 1.23304,0.58252 0.6362,0.21103 1.25954,0.38368 1.38519,0.38368 0.12566,0 0.33167,-0.1032 0.4578,-0.22933 0.12613,-0.12614 0.90084,-0.4577 1.72158,-0.7368 0.82073,-0.27911 2.01651,-0.57538 2.65729,-0.65838 0.64078,-0.083 1.7094,-0.11121 2.3747,-0.0627 0.66531,0.0485 1.78645,0.21669 2.49144,0.37372 0.70499,0.15704 1.47134,0.3586 1.703,0.44792 0.23166,0.0893 0.74887,0.21521 1.14936,0.27974 0.43982,0.0709 1.06807,0.0542 1.58657,-0.0421 0.63915,-0.11872 0.98845,-0.28208 1.36747,-0.63954 0.27998,-0.26406 0.56084,-0.4801 0.62414,-0.4801 0.0633,0 0.0547,0.21299 -0.0191,0.4733 -0.0738,0.26032 -0.46826,0.79654 -0.87652,1.19161 -0.65627,0.63509 -0.73201,0.7696 -0.65372,1.16106 0.0487,0.24351 0.30026,0.66264 0.55901,0.93141 0.25876,0.26877 0.83497,0.73931 1.2866,1.06477 0.33635,0.24238 0.60064,0.43755 1.05539,0.65805 z m -12.63516,-3.52057 c 0.84102,0.0242 2.40771,-0.0274 3.48153,-0.1147 1.07382,-0.0873 2.01351,-0.19654 2.08819,-0.2427 0.0747,-0.0462 -0.19788,-0.27448 -0.6057,-0.50739 -0.52032,-0.29717 -1.09926,-0.47163 -1.94102,-0.58492 -0.65975,-0.0888 -1.88834,-0.12701 -2.73021,-0.0849 -0.99625,0.0498 -1.88659,0.19006 -2.55009,0.40177 -0.56068,0.17891 -1.19964,0.39839 -1.41991,0.48774 -0.22027,0.0894 -0.40049,0.20729 -0.40049,0.26207 0,0.0548 0.34406,0.13712 0.76457,0.18298 0.42051,0.0459 0.99394,0.0997 1.27428,0.1197 0.28034,0.02 1.19782,0.0562 2.03885,0.0804 z" /><g
         id="g184"><path
           id="path184"
           style="fill:#4b4b4b;fill-opacity:1;stroke:none;stroke-width:1.091;stroke-linejoin:bevel;paint-order:markers fill stroke"
           d="m 138.68042,109.12167 c -0.0353,1.3e-4 -0.0706,0.0754 -0.0961,0.22612 -0.26894,1.59141 -0.48112,3.18769 -1.19159,4.47276 -0.49982,0.77952 -1.21368,1.44027 -1.94711,1.63087 -0.0728,0.0189 -0.13698,0.09 -0.13708,0.16514 -8e-4,0.62376 0.18005,3.25993 3.16083,5.08905 0.12774,0.0784 0.33916,0.0775 0.46681,-0.002 2.9736,-1.84185 3.14366,-4.47922 3.14032,-5.102 -4e-4,-0.0748 -0.0643,-0.14548 -0.13708,-0.16406 -0.73437,-0.18759 -1.45213,-0.84581 -1.95521,-1.62332 -0.71579,-1.2822 -0.93223,-2.87707 -1.20723,-4.46736 -0.026,-0.15053 -0.0613,-0.2257 -0.0966,-0.22558 z m -2.07016,8.70752 c 0.0181,0.001 0.0442,0.0179 0.0755,0.054 1.16406,1.37043 1.54525,1.20039 1.50891,1.44846 -0.0189,0.12921 -0.25671,0.24616 -0.56395,0.10092 -0.42707,-0.2019 -0.86054,-1.05597 -1.03077,-1.49164 -0.0281,-0.0721 -0.02,-0.11374 0.0103,-0.11171 z m 4.16514,0 c 0.0302,-0.002 0.0379,0.0397 0.01,0.11171 -0.17023,0.43567 -0.60316,1.28974 -1.03023,1.49164 -0.30723,0.14524 -0.48459,-0.0149 -0.50351,-0.14409 -0.0363,-0.24807 0.28441,-0.0349 1.44847,-1.40529 0.0313,-0.036 0.0574,-0.0528 0.0755,-0.054 z"
           transform="matrix(0.95756249,0,0,0.95756249,5.885774,4.8043185)"
           sodipodi:nodetypes="sscssscsccssscssssscsscs" /></g></g></g></svg>
