<?xml version="1.0" encoding="UTF-8" standalone="no"?>
<!-- Created with Inkscape (http://www.inkscape.org/) -->

<svg
   width="84.350822mm"
   height="12.256568mm"
   viewBox="0 0 84.350822 12.256568"
   version="1.1"
   id="svg1"
   xml:space="preserve"
   inkscape:version="1.4.2 (ebf0e940d0, 2025-05-08)"
   sodipodi:docname="skonguistuff.svg"
   inkscape:export-filename="..\Github\skonguistuff.png"
   inkscape:export-xdpi="400"
   inkscape:export-ydpi="400"
   xmlns:inkscape="http://www.inkscape.org/namespaces/inkscape"
   xmlns:sodipodi="http://sodipodi.sourceforge.net/DTD/sodipodi-0.dtd"
   xmlns="http://www.w3.org/2000/svg"
   xmlns:svg="http://www.w3.org/2000/svg"><sodipodi:namedview
     id="namedview1"
     pagecolor="#ffffff"
     bordercolor="#000000"
     borderopacity="0.25"
     inkscape:showpageshadow="2"
     inkscape:pageopacity="0.0"
     inkscape:pagecheckerboard="0"
     inkscape:deskcolor="#d1d1d1"
     inkscape:document-units="mm"
     inkscape:zoom="2"
     inkscape:cx="332"
     inkscape:cy="608.5"
     inkscape:window-width="2560"
     inkscape:window-height="1372"
     inkscape:window-x="0"
     inkscape:window-y="0"
     inkscape:window-maximized="1"
     inkscape:current-layer="layer1"
     showgrid="false"
     showguides="true"><inkscape:page
       x="0"
       y="0"
       width="84.350822"
       height="12.256568"
       id="page2"
       margin="0"
       bleed="0" /></sodipodi:namedview><defs
     id="defs1"><inkscape:path-effect
       effect="fillet_chamfer"
       id="path-effect238"
       is_visible="true"
       lpeversion="1"
       nodesatellites_param="F,0,0,1,0,0,0,1 @ F,0,0,1,0,0,0,1 @ F,0,0,1,0,0,0,1 @ F,0,0,1,0,0,0,1 @ F,0,0,1,0,0,0,1 @ F,0,0,1,0,0,0,1 @ F,0,0,1,0,0,0,1 @ F,0,0,1,0,0,0,1 @ F,0,0,1,0,0,0,1 @ F,0,0,1,0,0,0,1 @ F,0,0,1,0,0,0,1 @ F,0,0,1,0,0,0,1 @ F,0,0,1,0,0,0,1 @ F,0,0,1,0,0,0,1 @ F,0,0,1,0,0,0,1 @ F,0,0,1,0,0,0,1 @ F,0,0,1,0,0,0,1 @ F,0,0,1,0,0,0,1 @ F,0,0,1,0,0,0,1 @ F,0,0,1,0,0,0,1 @ F,0,0,1,0,0,0,1 | F,0,1,1,0,0.25637275,0,1 @ F,0,0,1,0,0,0,1 @ F,0,0,1,0,0,0,1 @ F,0,0,1,0,0,0,1 | F,0,0,1,0,0.25637275,0,1 @ F,0,0,1,0,0,0,1 @ F,0,0,1,0,0,0,1 @ F,0,0,1,0,0,0,1"
       radius="0"
       unit="px"
       method="auto"
       mode="F"
       chamfer_steps="1"
       flexible="false"
       use_knot_distance="true"
       apply_no_radius="true"
       apply_with_radius="true"
       only_selected="false"
       hide_knots="false" /><inkscape:path-effect
       effect="mirror_symmetry"
       start_point="138.70314,117.49312"
       end_point="138.70314,124.21256"
       center_point="138.70314,120.85284"
       id="path-effect236"
       is_visible="true"
       lpeversion="1.2"
       lpesatellites=""
       mode="free"
       discard_orig_path="false"
       fuse_paths="false"
       oposite_fuse="false"
       split_items="false"
       split_open="false"
       link_styles="false" /><inkscape:path-effect
       effect="fillet_chamfer"
       id="path-effect234"
       is_visible="true"
       lpeversion="1"
       nodesatellites_param="F,0,1,1,0,0.44286102,0,1 @ F,0,0,1,0,0,0,1 @ F,0,0,1,0,0,0,1 @ F,0,0,1,0,0,0,1 @ F,0,0,1,0,0,0,1 @ F,0,1,1,0,0.44286102,0,1 @ F,0,0,1,0,0,0,1 @ F,0,0,1,0,0,0,1 @ F,0,0,1,0,0,0,1 @ F,0,0,1,0,0.44286102,0,1 @ F,0,0,1,0,0,0,1 @ F,0,1,1,0,0.44286102,0,1 @ F,0,0,1,0,0,0,1 @ F,0,0,1,0,0,0,1 @ F,0,0,1,0,0,0,1 @ F,0,1,1,0,0.44286102,0,1 @ F,0,0,1,0,0,0,1 @ F,0,1,1,0,0.44286102,0,1 @ F,0,0,1,0,0,0,1 @ F,0,0,1,0,0,0,1 @ F,0,0,1,0,0,0,1 @ F,0,1,1,0,0.44286102,0,1 @ F,0,0,1,0,0,0,1 @ F,0,0,1,0,0,0,1 @ F,0,1,1,0,0.44286102,0,1 @ F,0,0,1,0,0,0,1 @ F,0,0,1,0,0,0,1 @ F,0,1,1,0,0.44286102,0,1 @ F,0,1,1,0,0.44286102,0,1 @ F,0,0,1,0,0,0,1 @ F,0,1,1,0,0.44286102,0,1 @ F,0,0,1,0,0,0,1 @ F,0,0,1,0,0,0,1 | F,0,0,1,0,0,0,1 @ F,0,0,1,0,0,0,1 @ F,0,0,1,0,0,0,1 @ F,0,0,1,0,0,0,1 @ F,0,0,1,0,0,0,1 @ F,0,0,1,0,0,0,1 @ F,0,0,1,0,0,0,1 | F,0,0,1,0,0,0,1 @ F,0,0,1,0,0,0,1 @ F,0,0,1,0,0,0,1 @ F,0,0,1,0,0,0,1 @ F,0,0,1,0,0,0,1 @ F,0,0,1,0,0,0,1 @ F,0,0,1,0,0,0,1"
       radius="0"
       unit="px"
       method="auto"
       mode="F"
       chamfer_steps="1"
       flexible="false"
       use_knot_distance="true"
       apply_no_radius="true"
       apply_with_radius="true"
       only_selected="false"
       hide_knots="false" /><inkscape:path-effect
       effect="mirror_symmetry"
       start_point="138.70314,117.49312"
       end_point="138.70314,124.21256"
       center_point="138.70314,120.85284"
       id="path-effect232"
       is_visible="true"
       lpeversion="1.2"
       lpesatellites=""
       mode="free"
       discard_orig_path="false"
       fuse_paths="false"
       oposite_fuse="false"
       split_items="false"
       split_open="false"
       link_styles="false" /><inkscape:path-effect
       effect="fillet_chamfer"
       id="path-effect223"
       is_visible="true"
       lpeversion="1"
       nodesatellites_param="F,0,0,1,0,0,0,1 @ F,0,0,1,0,0,0,1 @ F,0,0,1,0,0,0,1 @ F,0,0,1,0,0,0,1 @ F,0,0,1,0,0,0,1 @ F,0,0,1,0,0,0,1 @ F,0,0,1,0,0,0,1 @ F,0,0,1,0,0,0,1 @ F,0,0,1,0,0,0,1 @ F,0,0,1,0,0,0,1 @ F,0,0,1,0,0,0,1 @ F,0,0,1,0,0,0,1 @ F,0,0,1,0,0,0,1 @ F,0,0,1,0,0,0,1 @ F,0,0,1,0,0,0,1 @ F,0,0,1,0,0,0,1 @ F,0,0,1,0,0,0,1 @ F,0,0,1,0,0,0,1 @ F,0,0,1,0,0,0,1 @ F,0,0,1,0,0,0,1 @ F,0,0,1,0,0,0,1 | F,0,1,1,0,0.25637275,0,1 @ F,0,0,1,0,0,0,1 @ F,0,0,1,0,0,0,1 @ F,0,0,1,0,0,0,1 | F,0,0,1,0,0.25637275,0,1 @ F,0,0,1,0,0,0,1 @ F,0,0,1,0,0,0,1 @ F,0,0,1,0,0,0,1"
       radius="0"
       unit="px"
       method="auto"
       mode="F"
       chamfer_steps="1"
       flexible="false"
       use_knot_distance="true"
       apply_no_radius="true"
       apply_with_radius="true"
       only_selected="false"
       hide_knots="false" /><inkscape:path-effect
       effect="mirror_symmetry"
       start_point="138.70314,117.49312"
       end_point="138.70314,124.21256"
       center_point="138.70314,120.85284"
       id="path-effect212"
       is_visible="true"
       lpeversion="1.2"
       lpesatellites=""
       mode="free"
       discard_orig_path="false"
       fuse_paths="false"
       oposite_fuse="false"
       split_items="false"
       split_open="false"
       link_styles="false" /><inkscape:path-effect
       effect="fillet_chamfer"
       id="path-effect182"
       is_visible="true"
       lpeversion="1"
       nodesatellites_param="F,0,1,1,0,0.44286102,0,1 @ F,0,0,1,0,0,0,1 @ F,0,0,1,0,0,0,1 @ F,0,0,1,0,0,0,1 @ F,0,0,1,0,0,0,1 @ F,0,1,1,0,0.44286102,0,1 @ F,0,0,1,0,0,0,1 @ F,0,0,1,0,0,0,1 @ F,0,0,1,0,0,0,1 @ F,0,0,1,0,0.44286102,0,1 @ F,0,0,1,0,0,0,1 @ F,0,1,1,0,0.44286102,0,1 @ F,0,0,1,0,0,0,1 @ F,0,0,1,0,0,0,1 @ F,0,0,1,0,0,0,1 @ F,0,1,1,0,0.44286102,0,1 @ F,0,0,1,0,0,0,1 @ F,0,1,1,0,0.44286102,0,1 @ F,0,0,1,0,0,0,1 @ F,0,0,1,0,0,0,1 @ F,0,0,1,0,0,0,1 @ F,0,1,1,0,0.44286102,0,1 @ F,0,0,1,0,0,0,1 @ F,0,0,1,0,0,0,1 @ F,0,1,1,0,0.44286102,0,1 @ F,0,0,1,0,0,0,1 @ F,0,0,1,0,0,0,1 @ F,0,1,1,0,0.44286102,0,1 @ F,0,1,1,0,0.44286102,0,1 @ F,0,0,1,0,0,0,1 @ F,0,1,1,0,0.44286102,0,1 @ F,0,0,1,0,0,0,1 @ F,0,0,1,0,0,0,1 | F,0,0,1,0,0,0,1 @ F,0,0,1,0,0,0,1 @ F,0,0,1,0,0,0,1 @ F,0,0,1,0,0,0,1 @ F,0,0,1,0,0,0,1 @ F,0,0,1,0,0,0,1 @ F,0,0,1,0,0,0,1 | F,0,0,1,0,0,0,1 @ F,0,0,1,0,0,0,1 @ F,0,0,1,0,0,0,1 @ F,0,0,1,0,0,0,1 @ F,0,0,1,0,0,0,1 @ F,0,0,1,0,0,0,1 @ F,0,0,1,0,0,0,1"
       radius="0"
       unit="px"
       method="auto"
       mode="F"
       chamfer_steps="1"
       flexible="false"
       use_knot_distance="true"
       apply_no_radius="true"
       apply_with_radius="true"
       only_selected="false"
       hide_knots="false" /><inkscape:path-effect
       effect="mirror_symmetry"
       start_point="138.70314,117.49312"
       end_point="138.70314,124.21256"
       center_point="138.70314,120.85284"
       id="path-effect76"
       is_visible="true"
       lpeversion="1.2"
       lpesatellites=""
       mode="free"
       discard_orig_path="false"
       fuse_paths="false"
       oposite_fuse="false"
       split_items="false"
       split_open="false"
       link_styles="false" /><filter
       inkscape:collect="always"
       style="color-interpolation-filters:sRGB"
       id="filter238"
       x="-0.026404072"
       y="-0.26359483"
       width="1.0528081"
       height="1.5271897"><feGaussianBlur
         inkscape:collect="always"
         stdDeviation="0.88145436"
         id="feGaussianBlur238" /></filter><filter
       inkscape:collect="always"
       style="color-interpolation-filters:sRGB"
       id="filter239"
       x="-0.027265686"
       y="-0.20037935"
       width="1.0545314"
       height="1.4007587"><feGaussianBlur
         inkscape:collect="always"
         stdDeviation="0.9096209"
         id="feGaussianBlur239" /></filter></defs><g
     inkscape:label="Layer 1"
     inkscape:groupmode="layer"
     id="layer1"
     transform="translate(-97.982937,-176.92077)"><g
       id="g239"><g
         id="g231"
         style="opacity:0.5;filter:url(#filter238)"
         transform="translate(0,-2.245064)"><path
           style="fill:#4b4b4b;fill-opacity:1;stroke:none"
           d="m 134.60949,119.0506 c -0.14298,0.18256 -1.36232,-0.055 -2.18677,-0.61438 -1.37658,-0.93394 -1.46208,-1.37204 -1.96736,-1.28844 -0.30263,0.0501 -1.18014,0.0909 -2.42165,0.1621 -1.6604,0.0953 -2.85419,0.0765 -4.51459,-0.0709 -1.24151,-0.11022 -2.56807,-0.27282 -2.9479,-0.36133 -0.66388,-0.1547 -0.71165,-0.14357 -1.23464,0.28752 -0.29923,0.24665 -0.62031,0.44845 -0.71352,0.44845 -0.0932,0 -0.21116,-0.16607 -0.2621,-0.36904 -0.0509,-0.20296 -0.25465,-0.44285 -0.45269,-0.53308 -0.19803,-0.0902 -0.36006,-0.21269 -0.36006,-0.27213 0,-0.0594 -0.44236,-0.23952 -0.98301,-0.40017 -0.54066,-0.16066 -1.17962,-0.32883 -1.41992,-0.37372 -0.24029,-0.0449 -0.7318,-0.11818 -1.09224,-0.16287 -0.36043,-0.0447 -1.11408,-0.14488 -1.67476,-0.22265 -0.56069,-0.0778 -3.84835,-0.15793 -7.30593,-0.17815 -3.45758,-0.0202 -6.331275,-0.0815 -6.385985,-0.13629 -0.05471,-0.0547 -0.05781,-0.16694 -0.0069,-0.24932 0.06098,-0.0987 2.234735,-0.15251 6.370395,-0.15777 3.45281,-0.004 6.44868,-0.045 6.65749,-0.0902 0.20882,-0.0452 0.5435,-0.13708 0.74374,-0.20416 0.20025,-0.0671 0.53222,-0.15826 0.73772,-0.20264 0.20549,-0.0444 0.52681,-0.21354 0.71403,-0.37592 0.18722,-0.16238 0.43754,-0.29523 0.55627,-0.29523 0.11873,0 0.35807,0.14745 0.53187,0.32767 0.17379,0.18022 0.50681,0.47513 0.74006,0.65535 0.23324,0.18022 0.53391,0.32767 0.66815,0.32767 0.13424,0 0.27841,0.0895 0.32037,0.19885 0.042,0.10936 0.59684,0.3715 1.23304,0.58252 0.6362,0.21103 1.25954,0.38368 1.38519,0.38368 0.12566,0 0.33167,-0.1032 0.4578,-0.22933 0.12613,-0.12614 0.90084,-0.4577 1.72158,-0.7368 0.82073,-0.27911 2.01651,-0.57538 2.65729,-0.65838 0.64078,-0.083 1.61662,-0.20824 2.42147,-0.13286 1.24205,0.11633 2.28335,0.47582 3.63376,0.89537 0.42544,0.13218 1.41517,-0.24924 1.76352,-0.54097 1.59854,-1.33875 1.66357,-2.2395 1.84403,-2.18312 0.11769,0.0367 0.235,0.92542 -0.89444,2.27349 -0.48715,0.58144 -1.22493,1.25076 -1.19975,1.64918 0.0236,0.37363 0.0318,1.32611 0.9781,1.791 1.78898,0.87883 2.09184,0.79716 1.88834,1.057 z m -9.92532,-2.48519 c 0.84102,0.0242 2.40771,-0.0274 3.48153,-0.1147 1.07382,-0.0873 2.01351,-0.19654 2.08819,-0.2427 0.0747,-0.0462 -0.19788,-0.27448 -0.6057,-0.50739 -0.52032,-0.29717 -1.09926,-0.47163 -1.94102,-0.58492 -0.65975,-0.0888 -1.88834,-0.12701 -2.73021,-0.0849 -0.99625,0.0498 -1.88659,0.19006 -2.55009,0.40177 -0.56068,0.17891 -1.19964,0.39839 -1.41991,0.48774 -0.22027,0.0894 -0.40049,0.20729 -0.40049,0.26207 0,0.0548 0.34406,0.13712 0.76457,0.18298 0.42051,0.0459 0.99394,0.0997 1.27428,0.1197 0.28034,0.02 1.19782,0.0562 2.03885,0.0804 z m 18.11262,2.48519 c 0.14298,0.18256 1.36232,-0.055 2.18677,-0.61438 1.37658,-0.93394 1.46208,-1.37204 1.96736,-1.28844 0.30263,0.0501 1.18014,0.0909 2.42165,0.1621 1.6604,0.0953 2.85419,0.0765 4.51459,-0.0709 1.24151,-0.11022 2.56807,-0.27282 2.9479,-0.36133 0.66388,-0.1547 0.71165,-0.14357 1.23464,0.28752 0.29923,0.24665 0.62031,0.44845 0.71352,0.44845 0.0932,0 0.21116,-0.16607 0.2621,-0.36904 0.0509,-0.20296 0.25465,-0.44285 0.45269,-0.53308 0.19803,-0.0902 0.36006,-0.21269 0.36006,-0.27213 0,-0.0594 0.44236,-0.23952 0.98301,-0.40017 0.54066,-0.16066 1.17962,-0.32883 1.41992,-0.37372 0.24029,-0.0449 0.7318,-0.11818 1.09224,-0.16287 0.36043,-0.0447 1.11408,-0.14488 1.67476,-0.22265 0.56069,-0.0778 3.84835,-0.15793 7.30593,-0.17815 3.45758,-0.0202 6.33128,-0.0815 6.38599,-0.13629 0.0547,-0.0547 0.0578,-0.16694 0.007,-0.24932 -0.061,-0.0987 -2.23474,-0.15251 -6.3704,-0.15777 -3.45281,-0.004 -6.44868,-0.045 -6.65749,-0.0902 -0.20882,-0.0452 -0.5435,-0.13708 -0.74374,-0.20416 -0.20025,-0.0671 -0.53222,-0.15826 -0.73772,-0.20264 -0.20549,-0.0444 -0.52681,-0.21354 -0.71403,-0.37592 -0.18722,-0.16238 -0.43754,-0.29523 -0.55627,-0.29523 -0.11873,0 -0.35807,0.14745 -0.53187,0.32767 -0.17379,0.18022 -0.50681,0.47513 -0.74006,0.65535 -0.23324,0.18022 -0.53391,0.32767 -0.66815,0.32767 -0.13424,0 -0.27841,0.0895 -0.32037,0.19885 -0.042,0.10936 -0.59684,0.3715 -1.23304,0.58252 -0.6362,0.21103 -1.25954,0.38368 -1.38519,0.38368 -0.12566,0 -0.33167,-0.1032 -0.4578,-0.22933 -0.12613,-0.12614 -0.90084,-0.4577 -1.72158,-0.7368 -0.82073,-0.27911 -2.01651,-0.57538 -2.65729,-0.65838 -0.64078,-0.083 -1.61662,-0.20824 -2.42147,-0.13286 -1.24205,0.11633 -2.28335,0.47582 -3.63376,0.89537 -0.42544,0.13218 -1.41517,-0.24924 -1.76352,-0.54097 -1.59854,-1.33875 -1.66357,-2.2395 -1.84403,-2.18312 -0.11769,0.0367 -0.235,0.92542 0.89444,2.27349 0.48715,0.58144 1.22493,1.25076 1.19975,1.64918 -0.0236,0.37363 -0.0318,1.32611 -0.9781,1.791 -1.78898,0.87883 -2.09184,0.79716 -1.88834,1.057 z m 9.92532,-2.48519 c -0.84102,0.0242 -2.40771,-0.0274 -3.48153,-0.1147 -1.07382,-0.0873 -2.01351,-0.19654 -2.08819,-0.2427 -0.0747,-0.0462 0.19788,-0.27448 0.6057,-0.50739 0.52032,-0.29717 1.09926,-0.47163 1.94102,-0.58492 0.65975,-0.0888 1.88834,-0.12701 2.73021,-0.0849 0.99625,0.0498 1.88659,0.19006 2.55009,0.40177 0.56068,0.17891 1.19964,0.39839 1.41991,0.48774 0.22027,0.0894 0.40049,0.20729 0.40049,0.26207 0,0.0548 -0.34406,0.13712 -0.76457,0.18298 -0.42051,0.0459 -0.99394,0.0997 -1.27428,0.1197 -0.28034,0.02 -1.19782,0.0562 -2.03885,0.0804 z"
           id="path227"
           sodipodi:nodetypes="sssssssscssssssscscsssssssscsssssassssssssssssscscsccs"
           inkscape:path-effect="#path-effect232"
           inkscape:original-d="m 134.60949,119.0506 c -0.14298,0.18256 -1.36232,-0.055 -2.18677,-0.61438 -1.37658,-0.93394 -1.46208,-1.37204 -1.96736,-1.28844 -0.30263,0.0501 -1.18014,0.0909 -2.42165,0.1621 -1.6604,0.0953 -2.85419,0.0765 -4.51459,-0.0709 -1.24151,-0.11022 -2.56807,-0.27282 -2.9479,-0.36133 -0.66388,-0.1547 -0.71165,-0.14357 -1.23464,0.28752 -0.29923,0.24665 -0.62031,0.44845 -0.71352,0.44845 -0.0932,0 -0.21116,-0.16607 -0.2621,-0.36904 -0.0509,-0.20296 -0.25465,-0.44285 -0.45269,-0.53308 -0.19803,-0.0902 -0.36006,-0.21269 -0.36006,-0.27213 0,-0.0594 -0.44236,-0.23952 -0.98301,-0.40017 -0.54066,-0.16066 -1.17962,-0.32883 -1.41992,-0.37372 -0.24029,-0.0449 -0.7318,-0.11818 -1.09224,-0.16287 -0.36043,-0.0447 -1.11408,-0.14488 -1.67476,-0.22265 -0.56069,-0.0778 -3.84835,-0.15793 -7.30593,-0.17815 -3.45758,-0.0202 -6.331275,-0.0815 -6.385985,-0.13629 -0.05471,-0.0547 -0.05781,-0.16694 -0.0069,-0.24932 0.06098,-0.0987 2.234735,-0.15251 6.370395,-0.15777 3.45281,-0.004 6.44868,-0.045 6.65749,-0.0902 0.20882,-0.0452 0.5435,-0.13708 0.74374,-0.20416 0.20025,-0.0671 0.53222,-0.15826 0.73772,-0.20264 0.20549,-0.0444 0.52681,-0.21354 0.71403,-0.37592 0.18722,-0.16238 0.43754,-0.29523 0.55627,-0.29523 0.11873,0 0.35807,0.14745 0.53187,0.32767 0.17379,0.18022 0.50681,0.47513 0.74006,0.65535 0.23324,0.18022 0.53391,0.32767 0.66815,0.32767 0.13424,0 0.27841,0.0895 0.32037,0.19885 0.042,0.10936 0.59684,0.3715 1.23304,0.58252 0.6362,0.21103 1.25954,0.38368 1.38519,0.38368 0.12566,0 0.33167,-0.1032 0.4578,-0.22933 0.12613,-0.12614 0.90084,-0.4577 1.72158,-0.7368 0.82073,-0.27911 2.01651,-0.57538 2.65729,-0.65838 0.64078,-0.083 1.61662,-0.20824 2.42147,-0.13286 1.24205,0.11633 2.28335,0.47582 3.63376,0.89537 0.42544,0.13218 1.41517,-0.24924 1.76352,-0.54097 1.59854,-1.33875 1.66357,-2.2395 1.84403,-2.18312 0.11769,0.0367 0.235,0.92542 -0.89444,2.27349 -0.48715,0.58144 -1.22493,1.25076 -1.19975,1.64918 0.0236,0.37363 0.0318,1.32611 0.9781,1.791 1.78898,0.87883 2.09184,0.79716 1.88834,1.057 z m -9.92532,-2.48519 c 0.84102,0.0242 2.40771,-0.0274 3.48153,-0.1147 1.07382,-0.0873 2.01351,-0.19654 2.08819,-0.2427 0.0747,-0.0462 -0.19788,-0.27448 -0.6057,-0.50739 -0.52032,-0.29717 -1.09926,-0.47163 -1.94102,-0.58492 -0.65975,-0.0888 -1.88834,-0.12701 -2.73021,-0.0849 -0.99625,0.0498 -1.88659,0.19006 -2.55009,0.40177 -0.56068,0.17891 -1.19964,0.39839 -1.41991,0.48774 -0.22027,0.0894 -0.40049,0.20729 -0.40049,0.26207 0,0.0548 0.34406,0.13712 0.76457,0.18298 0.42051,0.0459 0.99394,0.0997 1.27428,0.1197 0.28034,0.02 1.19782,0.0562 2.03885,0.0804 z"
           transform="translate(1.4552083,70.195777)" /><g
           id="g230"
           transform="matrix(0.54596781,0,0,0.54596781,53.576706,73.818317)"><path
             id="path228"
             style="fill:#4b4b4b;fill-opacity:1;stroke-width:0.20932"
             d="m 160.98311,196.85424 -1.00476,0.87064 h -5.2e-4 c -0.46593,-0.0957 -0.93026,-0.15034 -1.38648,-0.15916 -0.81138,-0.0157 -1.64262,0.10778 -2.46186,0.34675 l -0.80683,-0.69909 a 0.09796811,0.09796811 143.38149 0 0 -0.15355,0.11412 l 0.35163,0.78444 c -0.44681,0.16249 -0.88738,0.35881 -1.31672,0.58394 h -5.1e-4 l -1.06786,-0.15978 a 0.09799499,0.09799499 110.98684 0 0 -0.0685,0.17867 l 0.50853,0.33613 c -0.78437,0.47658 -1.51906,1.05017 -2.16827,1.69469 -0.17356,0.17231 -0.12103,0.24974 0.11772,0.19731 0.12274,-0.027 0.24785,-0.0478 0.3752,-0.0621 1.30351,-0.0996 2.46978,0.80608 2.83755,2.03295 0.69015,2.27719 -0.0303,4.84754 -1.48983,6.67195 -0.0347,0.0463 -0.0708,0.0913 -0.10816,0.13491 -0.15889,0.1856 -0.11803,0.27709 0.11557,0.20507 0.78311,-0.24142 1.49898,-0.7105 2.27307,-1.12598 l 0.75377,0.57961 a 0.30090995,0.30090995 161.75312 0 0 0.47275,-0.15587 l 0.30465,-1.06608 c 0.39233,-0.10615 0.81081,-0.16849 1.26608,-0.1633 0.40991,0.005 0.77737,0.0841 1.12189,0.21033 l 0.33829,1.1844 a 0.30080406,0.30080406 18.244883 0 0 0.47265,0.15581 l 0.6882,-0.52941 c 0.88787,0.56176 1.83527,1.15022 3.26026,1.17357 0.25458,0.004 0.50219,-0.0155 0.74108,-0.0571 0.24082,-0.0419 0.23755,-0.15182 0.0169,-0.25676 -0.30001,-0.14271 -0.57467,-0.34424 -0.804,-0.60645 -1.44713,-1.54203 -2.14941,-3.76678 -1.95957,-5.86475 0.0704,-1.33844 0.92874,-2.73098 2.26843,-3.03453 0.49578,-0.0603 0.49578,-0.0603 0.49578,-0.0603 -0.94453,-0.78269 -1.60085,-1.22121 -2.28358,-1.58543 l 0.55655,-0.36772 a 0.0979818,0.0979818 69.022164 0 0 -0.0685,-0.17865 l -1.23167,0.18412 c -0.40354,-0.17837 -0.81275,-0.32965 -1.2237,-0.45114 l 0.42192,-0.94158 a 0.09799105,0.09799105 36.613959 0 0 -0.15359,-0.11413 z m -1.79076,8.15185 c 0.28736,-0.004 0.62743,0.28249 0.79633,0.52503 0.12862,0.18475 0.23793,0.53073 0.0625,0.67231 -0.28701,0.23205 -0.8401,-0.0319 -1.05678,-0.33072 h 5.2e-4 c -0.15912,-0.21939 -0.22041,-0.6704 0.01,-0.81339 0.058,-0.036 0.12128,-0.0523 0.18759,-0.0532 z m -1.82521,0.0909 c 0.0663,0.003 0.12951,0.0205 0.18655,0.0579 0.22648,0.14851 0.15444,0.59729 -0.01,0.81287 v 5.2e-4 c -0.22406,0.29333 -0.78338,0.54379 -1.06453,0.30489 -0.17158,-0.14577 -0.0541,-0.48923 0.0791,-0.67076 0.17476,-0.23835 0.52156,-0.51647 0.80874,-0.5054 z"
             inkscape:path-effect="#path-effect234"
             inkscape:original-d="m 161.3178,196.56423 -1.33945,1.16065 h -5.2e-4 c -0.46593,-0.0957 -0.93026,-0.15034 -1.38648,-0.15916 -0.81138,-0.0157 -1.64262,0.10778 -2.46186,0.34675 l -1.14153,-0.98909 0.53278,1.18856 c -0.44681,0.16249 -0.88738,0.35881 -1.31672,0.58394 h -5.1e-4 l -1.50585,-0.22531 0.87798,0.58033 c -0.9112,0.55364 -1.75536,1.2382 -2.47634,2.0128 0.25543,-0.0893 0.52288,-0.15162 0.80099,-0.18294 1.30351,-0.0996 2.46978,0.80608 2.83755,2.03295 0.69015,2.27719 -0.0303,4.84754 -1.48983,6.67195 -0.12432,0.1658 -0.26646,0.31501 -0.4222,0.44648 0.9572,-0.17753 1.78942,-0.7423 2.70268,-1.23248 l 1.10484,0.84956 0.42633,-1.4919 c 0.39233,-0.10615 0.81081,-0.16849 1.26608,-0.1633 0.40991,0.005 0.77737,0.0841 1.12189,0.21033 l 0.45992,1.61023 1.03922,-0.79943 c 0.88787,0.56176 1.83527,1.15022 3.26026,1.17357 0.41133,0.007 0.80446,-0.0492 1.17202,-0.15813 -0.4605,-0.13108 -0.88658,-0.38329 -1.21801,-0.76223 -1.44713,-1.54203 -2.14941,-3.76678 -1.95957,-5.86475 0.0778,-1.47923 1.11803,-3.02454 2.70681,-3.09284 0.0193,-7.8e-4 0.0382,-0.002 0.0574,-0.002 -0.69812,-0.61478 -1.4722,-1.15258 -2.28358,-1.58543 l 0.92604,-0.61185 -1.66966,0.2496 c -0.40354,-0.17837 -0.81275,-0.32965 -1.2237,-0.45114 z m -2.12545,8.44186 c 0.28736,-0.004 0.62743,0.28249 0.79633,0.52503 0.12862,0.18475 0.23793,0.53073 0.0625,0.67231 -0.28701,0.23205 -0.8401,-0.0319 -1.05678,-0.33072 h 5.2e-4 c -0.15912,-0.21939 -0.22041,-0.6704 0.01,-0.81339 0.058,-0.036 0.12128,-0.0523 0.18759,-0.0532 z m -1.82521,0.0909 c 0.0663,0.003 0.12951,0.0205 0.18655,0.0579 0.22648,0.14851 0.15444,0.59729 -0.01,0.81287 v 5.2e-4 c -0.22406,0.29333 -0.78338,0.54379 -1.06453,0.30489 -0.17158,-0.14577 -0.0541,-0.48923 0.0791,-0.67076 0.17476,-0.23835 0.52156,-0.51647 0.80874,-0.5054 z" /><path
             style="fill:#4b4b4b;fill-opacity:1;stroke:none;stroke-width:0.340741;stroke-opacity:1"
             d="m 148.82867,204.04591 c 0.54895,-1.35919 2.2504,-3.16519 4.02016,-2.50036 1.73846,0.65306 1.78944,3.08106 1.48622,4.49791 -0.38679,1.8074 -1.73444,4.75476 -3.98848,4.04059 -2.36154,-0.74822 -2.23784,-4.25344 -1.5179,-6.03814 z"
             id="path229"
             sodipodi:nodetypes="sssss" /><path
             style="fill:#4b4b4b;fill-opacity:1;stroke:none;stroke-width:0.340741;stroke-opacity:1"
             d="m 168.3389,203.47556 c -0.54895,-1.35919 -2.2504,-3.16519 -4.02016,-2.50036 -1.73846,0.65306 -1.78944,3.08106 -1.48622,4.49791 0.38679,1.8074 1.73444,4.75476 3.98848,4.04059 2.36154,-0.74822 2.23784,-4.25344 1.5179,-6.03814 z"
             id="path230"
             sodipodi:nodetypes="sssss" /></g></g><g
         id="g226"
         transform="translate(0,-2.245064)"><path
           style="fill:#4b4b4b;fill-opacity:1;stroke:none"
           d="m 134.60949,119.0506 c -0.14298,0.18256 -1.36232,-0.055 -2.18677,-0.61438 -1.37658,-0.93394 -1.46208,-1.37204 -1.96736,-1.28844 -0.30263,0.0501 -1.18014,0.0909 -2.42165,0.1621 -1.6604,0.0953 -2.85419,0.0765 -4.51459,-0.0709 -1.24151,-0.11022 -2.56807,-0.27282 -2.9479,-0.36133 -0.66388,-0.1547 -0.71165,-0.14357 -1.23464,0.28752 -0.29923,0.24665 -0.62031,0.44845 -0.71352,0.44845 -0.0932,0 -0.21116,-0.16607 -0.2621,-0.36904 -0.0509,-0.20296 -0.25465,-0.44285 -0.45269,-0.53308 -0.19803,-0.0902 -0.36006,-0.21269 -0.36006,-0.27213 0,-0.0594 -0.44236,-0.23952 -0.98301,-0.40017 -0.54066,-0.16066 -1.17962,-0.32883 -1.41992,-0.37372 -0.24029,-0.0449 -0.7318,-0.11818 -1.09224,-0.16287 -0.36043,-0.0447 -1.11408,-0.14488 -1.67476,-0.22265 -0.56069,-0.0778 -3.84835,-0.15793 -7.30593,-0.17815 -3.45758,-0.0202 -6.331275,-0.0815 -6.385985,-0.13629 -0.05471,-0.0547 -0.05781,-0.16694 -0.0069,-0.24932 0.06098,-0.0987 2.234735,-0.15251 6.370395,-0.15777 3.45281,-0.004 6.44868,-0.045 6.65749,-0.0902 0.20882,-0.0452 0.5435,-0.13708 0.74374,-0.20416 0.20025,-0.0671 0.53222,-0.15826 0.73772,-0.20264 0.20549,-0.0444 0.52681,-0.21354 0.71403,-0.37592 0.18722,-0.16238 0.43754,-0.29523 0.55627,-0.29523 0.11873,0 0.35807,0.14745 0.53187,0.32767 0.17379,0.18022 0.50681,0.47513 0.74006,0.65535 0.23324,0.18022 0.53391,0.32767 0.66815,0.32767 0.13424,0 0.27841,0.0895 0.32037,0.19885 0.042,0.10936 0.59684,0.3715 1.23304,0.58252 0.6362,0.21103 1.25954,0.38368 1.38519,0.38368 0.12566,0 0.33167,-0.1032 0.4578,-0.22933 0.12613,-0.12614 0.90084,-0.4577 1.72158,-0.7368 0.82073,-0.27911 2.01651,-0.57538 2.65729,-0.65838 0.64078,-0.083 1.61662,-0.20824 2.42147,-0.13286 1.24205,0.11633 2.28335,0.47582 3.63376,0.89537 0.42544,0.13218 1.41517,-0.24924 1.76352,-0.54097 1.59854,-1.33875 1.66357,-2.2395 1.84403,-2.18312 0.11769,0.0367 0.235,0.92542 -0.89444,2.27349 -0.48715,0.58144 -1.22493,1.25076 -1.19975,1.64918 0.0236,0.37363 0.0318,1.32611 0.9781,1.791 1.78898,0.87883 2.09184,0.79716 1.88834,1.057 z m -9.92532,-2.48519 c 0.84102,0.0242 2.40771,-0.0274 3.48153,-0.1147 1.07382,-0.0873 2.01351,-0.19654 2.08819,-0.2427 0.0747,-0.0462 -0.19788,-0.27448 -0.6057,-0.50739 -0.52032,-0.29717 -1.09926,-0.47163 -1.94102,-0.58492 -0.65975,-0.0888 -1.88834,-0.12701 -2.73021,-0.0849 -0.99625,0.0498 -1.88659,0.19006 -2.55009,0.40177 -0.56068,0.17891 -1.19964,0.39839 -1.41991,0.48774 -0.22027,0.0894 -0.40049,0.20729 -0.40049,0.26207 0,0.0548 0.34406,0.13712 0.76457,0.18298 0.42051,0.0459 0.99394,0.0997 1.27428,0.1197 0.28034,0.02 1.19782,0.0562 2.03885,0.0804 z m 18.11262,2.48519 c 0.14298,0.18256 1.36232,-0.055 2.18677,-0.61438 1.37658,-0.93394 1.46208,-1.37204 1.96736,-1.28844 0.30263,0.0501 1.18014,0.0909 2.42165,0.1621 1.6604,0.0953 2.85419,0.0765 4.51459,-0.0709 1.24151,-0.11022 2.56807,-0.27282 2.9479,-0.36133 0.66388,-0.1547 0.71165,-0.14357 1.23464,0.28752 0.29923,0.24665 0.62031,0.44845 0.71352,0.44845 0.0932,0 0.21116,-0.16607 0.2621,-0.36904 0.0509,-0.20296 0.25465,-0.44285 0.45269,-0.53308 0.19803,-0.0902 0.36006,-0.21269 0.36006,-0.27213 0,-0.0594 0.44236,-0.23952 0.98301,-0.40017 0.54066,-0.16066 1.17962,-0.32883 1.41992,-0.37372 0.24029,-0.0449 0.7318,-0.11818 1.09224,-0.16287 0.36043,-0.0447 1.11408,-0.14488 1.67476,-0.22265 0.56069,-0.0778 3.84835,-0.15793 7.30593,-0.17815 3.45758,-0.0202 6.33128,-0.0815 6.38599,-0.13629 0.0547,-0.0547 0.0578,-0.16694 0.007,-0.24932 -0.061,-0.0987 -2.23474,-0.15251 -6.3704,-0.15777 -3.45281,-0.004 -6.44868,-0.045 -6.65749,-0.0902 -0.20882,-0.0452 -0.5435,-0.13708 -0.74374,-0.20416 -0.20025,-0.0671 -0.53222,-0.15826 -0.73772,-0.20264 -0.20549,-0.0444 -0.52681,-0.21354 -0.71403,-0.37592 -0.18722,-0.16238 -0.43754,-0.29523 -0.55627,-0.29523 -0.11873,0 -0.35807,0.14745 -0.53187,0.32767 -0.17379,0.18022 -0.50681,0.47513 -0.74006,0.65535 -0.23324,0.18022 -0.53391,0.32767 -0.66815,0.32767 -0.13424,0 -0.27841,0.0895 -0.32037,0.19885 -0.042,0.10936 -0.59684,0.3715 -1.23304,0.58252 -0.6362,0.21103 -1.25954,0.38368 -1.38519,0.38368 -0.12566,0 -0.33167,-0.1032 -0.4578,-0.22933 -0.12613,-0.12614 -0.90084,-0.4577 -1.72158,-0.7368 -0.82073,-0.27911 -2.01651,-0.57538 -2.65729,-0.65838 -0.64078,-0.083 -1.61662,-0.20824 -2.42147,-0.13286 -1.24205,0.11633 -2.28335,0.47582 -3.63376,0.89537 -0.42544,0.13218 -1.41517,-0.24924 -1.76352,-0.54097 -1.59854,-1.33875 -1.66357,-2.2395 -1.84403,-2.18312 -0.11769,0.0367 -0.235,0.92542 0.89444,2.27349 0.48715,0.58144 1.22493,1.25076 1.19975,1.64918 -0.0236,0.37363 -0.0318,1.32611 -0.9781,1.791 -1.78898,0.87883 -2.09184,0.79716 -1.88834,1.057 z m 9.92532,-2.48519 c -0.84102,0.0242 -2.40771,-0.0274 -3.48153,-0.1147 -1.07382,-0.0873 -2.01351,-0.19654 -2.08819,-0.2427 -0.0747,-0.0462 0.19788,-0.27448 0.6057,-0.50739 0.52032,-0.29717 1.09926,-0.47163 1.94102,-0.58492 0.65975,-0.0888 1.88834,-0.12701 2.73021,-0.0849 0.99625,0.0498 1.88659,0.19006 2.55009,0.40177 0.56068,0.17891 1.19964,0.39839 1.41991,0.48774 0.22027,0.0894 0.40049,0.20729 0.40049,0.26207 0,0.0548 -0.34406,0.13712 -0.76457,0.18298 -0.42051,0.0459 -0.99394,0.0997 -1.27428,0.1197 -0.28034,0.02 -1.19782,0.0562 -2.03885,0.0804 z"
           id="path66"
           sodipodi:nodetypes="sssssssscssssssscscsssssssscsssssassssssssssssscscsccs"
           inkscape:path-effect="#path-effect76"
           inkscape:original-d="m 134.60949,119.0506 c -0.14298,0.18256 -1.36232,-0.055 -2.18677,-0.61438 -1.37658,-0.93394 -1.46208,-1.37204 -1.96736,-1.28844 -0.30263,0.0501 -1.18014,0.0909 -2.42165,0.1621 -1.6604,0.0953 -2.85419,0.0765 -4.51459,-0.0709 -1.24151,-0.11022 -2.56807,-0.27282 -2.9479,-0.36133 -0.66388,-0.1547 -0.71165,-0.14357 -1.23464,0.28752 -0.29923,0.24665 -0.62031,0.44845 -0.71352,0.44845 -0.0932,0 -0.21116,-0.16607 -0.2621,-0.36904 -0.0509,-0.20296 -0.25465,-0.44285 -0.45269,-0.53308 -0.19803,-0.0902 -0.36006,-0.21269 -0.36006,-0.27213 0,-0.0594 -0.44236,-0.23952 -0.98301,-0.40017 -0.54066,-0.16066 -1.17962,-0.32883 -1.41992,-0.37372 -0.24029,-0.0449 -0.7318,-0.11818 -1.09224,-0.16287 -0.36043,-0.0447 -1.11408,-0.14488 -1.67476,-0.22265 -0.56069,-0.0778 -3.84835,-0.15793 -7.30593,-0.17815 -3.45758,-0.0202 -6.331275,-0.0815 -6.385985,-0.13629 -0.05471,-0.0547 -0.05781,-0.16694 -0.0069,-0.24932 0.06098,-0.0987 2.234735,-0.15251 6.370395,-0.15777 3.45281,-0.004 6.44868,-0.045 6.65749,-0.0902 0.20882,-0.0452 0.5435,-0.13708 0.74374,-0.20416 0.20025,-0.0671 0.53222,-0.15826 0.73772,-0.20264 0.20549,-0.0444 0.52681,-0.21354 0.71403,-0.37592 0.18722,-0.16238 0.43754,-0.29523 0.55627,-0.29523 0.11873,0 0.35807,0.14745 0.53187,0.32767 0.17379,0.18022 0.50681,0.47513 0.74006,0.65535 0.23324,0.18022 0.53391,0.32767 0.66815,0.32767 0.13424,0 0.27841,0.0895 0.32037,0.19885 0.042,0.10936 0.59684,0.3715 1.23304,0.58252 0.6362,0.21103 1.25954,0.38368 1.38519,0.38368 0.12566,0 0.33167,-0.1032 0.4578,-0.22933 0.12613,-0.12614 0.90084,-0.4577 1.72158,-0.7368 0.82073,-0.27911 2.01651,-0.57538 2.65729,-0.65838 0.64078,-0.083 1.61662,-0.20824 2.42147,-0.13286 1.24205,0.11633 2.28335,0.47582 3.63376,0.89537 0.42544,0.13218 1.41517,-0.24924 1.76352,-0.54097 1.59854,-1.33875 1.66357,-2.2395 1.84403,-2.18312 0.11769,0.0367 0.235,0.92542 -0.89444,2.27349 -0.48715,0.58144 -1.22493,1.25076 -1.19975,1.64918 0.0236,0.37363 0.0318,1.32611 0.9781,1.791 1.78898,0.87883 2.09184,0.79716 1.88834,1.057 z m -9.92532,-2.48519 c 0.84102,0.0242 2.40771,-0.0274 3.48153,-0.1147 1.07382,-0.0873 2.01351,-0.19654 2.08819,-0.2427 0.0747,-0.0462 -0.19788,-0.27448 -0.6057,-0.50739 -0.52032,-0.29717 -1.09926,-0.47163 -1.94102,-0.58492 -0.65975,-0.0888 -1.88834,-0.12701 -2.73021,-0.0849 -0.99625,0.0498 -1.88659,0.19006 -2.55009,0.40177 -0.56068,0.17891 -1.19964,0.39839 -1.41991,0.48774 -0.22027,0.0894 -0.40049,0.20729 -0.40049,0.26207 0,0.0548 0.34406,0.13712 0.76457,0.18298 0.42051,0.0459 0.99394,0.0997 1.27428,0.1197 0.28034,0.02 1.19782,0.0562 2.03885,0.0804 z"
           transform="translate(1.4552083,70.195777)" /><g
           id="g184"
           transform="matrix(0.54596781,0,0,0.54596781,53.576706,73.818317)"><path
             id="path85"
             style="fill:#4b4b4b;fill-opacity:1;stroke-width:0.20932"
             d="m 160.98311,196.85424 -1.00476,0.87064 h -5.2e-4 c -0.46593,-0.0957 -0.93026,-0.15034 -1.38648,-0.15916 -0.81138,-0.0157 -1.64262,0.10778 -2.46186,0.34675 l -0.80683,-0.69909 a 0.09796811,0.09796811 143.38149 0 0 -0.15355,0.11412 l 0.35163,0.78444 c -0.44681,0.16249 -0.88738,0.35881 -1.31672,0.58394 h -5.1e-4 l -1.06786,-0.15978 a 0.09799499,0.09799499 110.98684 0 0 -0.0685,0.17867 l 0.50853,0.33613 c -0.78437,0.47658 -1.51906,1.05017 -2.16827,1.69469 -0.17356,0.17231 -0.12103,0.24974 0.11772,0.19731 0.12274,-0.027 0.24785,-0.0478 0.3752,-0.0621 1.30351,-0.0996 2.46978,0.80608 2.83755,2.03295 0.69015,2.27719 -0.0303,4.84754 -1.48983,6.67195 -0.0347,0.0463 -0.0708,0.0913 -0.10816,0.13491 -0.15889,0.1856 -0.11803,0.27709 0.11557,0.20507 0.78311,-0.24142 1.49898,-0.7105 2.27307,-1.12598 l 0.75377,0.57961 a 0.30090995,0.30090995 161.75312 0 0 0.47275,-0.15587 l 0.30465,-1.06608 c 0.39233,-0.10615 0.81081,-0.16849 1.26608,-0.1633 0.40991,0.005 0.77737,0.0841 1.12189,0.21033 l 0.33829,1.1844 a 0.30080406,0.30080406 18.244883 0 0 0.47265,0.15581 l 0.6882,-0.52941 c 0.88787,0.56176 1.83527,1.15022 3.26026,1.17357 0.25458,0.004 0.50219,-0.0155 0.74108,-0.0571 0.24082,-0.0419 0.23755,-0.15182 0.0169,-0.25676 -0.30001,-0.14271 -0.57467,-0.34424 -0.804,-0.60645 -1.44713,-1.54203 -2.14941,-3.76678 -1.95957,-5.86475 0.0704,-1.33844 0.92874,-2.73098 2.26843,-3.03453 0.49578,-0.0603 0.49578,-0.0603 0.49578,-0.0603 -0.94453,-0.78269 -1.60085,-1.22121 -2.28358,-1.58543 l 0.55655,-0.36772 a 0.0979818,0.0979818 69.022164 0 0 -0.0685,-0.17865 l -1.23167,0.18412 c -0.40354,-0.17837 -0.81275,-0.32965 -1.2237,-0.45114 l 0.42192,-0.94158 a 0.09799105,0.09799105 36.613959 0 0 -0.15359,-0.11413 z m -1.79076,8.15185 c 0.28736,-0.004 0.62743,0.28249 0.79633,0.52503 0.12862,0.18475 0.23793,0.53073 0.0625,0.67231 -0.28701,0.23205 -0.8401,-0.0319 -1.05678,-0.33072 h 5.2e-4 c -0.15912,-0.21939 -0.22041,-0.6704 0.01,-0.81339 0.058,-0.036 0.12128,-0.0523 0.18759,-0.0532 z m -1.82521,0.0909 c 0.0663,0.003 0.12951,0.0205 0.18655,0.0579 0.22648,0.14851 0.15444,0.59729 -0.01,0.81287 v 5.2e-4 c -0.22406,0.29333 -0.78338,0.54379 -1.06453,0.30489 -0.17158,-0.14577 -0.0541,-0.48923 0.0791,-0.67076 0.17476,-0.23835 0.52156,-0.51647 0.80874,-0.5054 z"
             inkscape:path-effect="#path-effect182"
             inkscape:original-d="m 161.3178,196.56423 -1.33945,1.16065 h -5.2e-4 c -0.46593,-0.0957 -0.93026,-0.15034 -1.38648,-0.15916 -0.81138,-0.0157 -1.64262,0.10778 -2.46186,0.34675 l -1.14153,-0.98909 0.53278,1.18856 c -0.44681,0.16249 -0.88738,0.35881 -1.31672,0.58394 h -5.1e-4 l -1.50585,-0.22531 0.87798,0.58033 c -0.9112,0.55364 -1.75536,1.2382 -2.47634,2.0128 0.25543,-0.0893 0.52288,-0.15162 0.80099,-0.18294 1.30351,-0.0996 2.46978,0.80608 2.83755,2.03295 0.69015,2.27719 -0.0303,4.84754 -1.48983,6.67195 -0.12432,0.1658 -0.26646,0.31501 -0.4222,0.44648 0.9572,-0.17753 1.78942,-0.7423 2.70268,-1.23248 l 1.10484,0.84956 0.42633,-1.4919 c 0.39233,-0.10615 0.81081,-0.16849 1.26608,-0.1633 0.40991,0.005 0.77737,0.0841 1.12189,0.21033 l 0.45992,1.61023 1.03922,-0.79943 c 0.88787,0.56176 1.83527,1.15022 3.26026,1.17357 0.41133,0.007 0.80446,-0.0492 1.17202,-0.15813 -0.4605,-0.13108 -0.88658,-0.38329 -1.21801,-0.76223 -1.44713,-1.54203 -2.14941,-3.76678 -1.95957,-5.86475 0.0778,-1.47923 1.11803,-3.02454 2.70681,-3.09284 0.0193,-7.8e-4 0.0382,-0.002 0.0574,-0.002 -0.69812,-0.61478 -1.4722,-1.15258 -2.28358,-1.58543 l 0.92604,-0.61185 -1.66966,0.2496 c -0.40354,-0.17837 -0.81275,-0.32965 -1.2237,-0.45114 z m -2.12545,8.44186 c 0.28736,-0.004 0.62743,0.28249 0.79633,0.52503 0.12862,0.18475 0.23793,0.53073 0.0625,0.67231 -0.28701,0.23205 -0.8401,-0.0319 -1.05678,-0.33072 h 5.2e-4 c -0.15912,-0.21939 -0.22041,-0.6704 0.01,-0.81339 0.058,-0.036 0.12128,-0.0523 0.18759,-0.0532 z m -1.82521,0.0909 c 0.0663,0.003 0.12951,0.0205 0.18655,0.0579 0.22648,0.14851 0.15444,0.59729 -0.01,0.81287 v 5.2e-4 c -0.22406,0.29333 -0.78338,0.54379 -1.06453,0.30489 -0.17158,-0.14577 -0.0541,-0.48923 0.0791,-0.67076 0.17476,-0.23835 0.52156,-0.51647 0.80874,-0.5054 z" /><path
             style="fill:#4b4b4b;fill-opacity:1;stroke:none;stroke-width:0.340741;stroke-opacity:1"
             d="m 148.82867,204.04591 c 0.54895,-1.35919 2.2504,-3.16519 4.02016,-2.50036 1.73846,0.65306 1.78944,3.08106 1.48622,4.49791 -0.38679,1.8074 -1.73444,4.75476 -3.98848,4.04059 -2.36154,-0.74822 -2.23784,-4.25344 -1.5179,-6.03814 z"
             id="path177"
             sodipodi:nodetypes="sssss" /><path
             style="fill:#4b4b4b;fill-opacity:1;stroke:none;stroke-width:0.340741;stroke-opacity:1"
             d="m 168.3389,203.47556 c -0.54895,-1.35919 -2.2504,-3.16519 -4.02016,-2.50036 -1.73846,0.65306 -1.78944,3.08106 -1.48622,4.49791 0.38679,1.8074 1.73444,4.75476 3.98848,4.04059 2.36154,-0.74822 2.23784,-4.25344 1.5179,-6.03814 z"
             id="path178"
             sodipodi:nodetypes="sssss" /></g></g></g><g
       id="g240"
       transform="translate(0,-1.4552083)"><g
         id="g235"
         style="opacity:0.5;filter:url(#filter239)"><path
           style="fill:#4b4b4b;fill-opacity:1;stroke:none"
           d="m 134.79306,118.91948 c 0.20701,0.10449 -1.66165,-0.12234 -2.4861,-0.6817 -1.37658,-0.93394 -1.34632,-1.1736 -1.8516,-1.09 -0.30263,0.0501 -1.18014,0.0909 -2.42165,0.1621 -1.6604,0.0953 -2.85419,0.0765 -4.51459,-0.0709 -1.24151,-0.11022 -2.56807,-0.27282 -2.9479,-0.36133 -0.66388,-0.1547 -0.71165,0.0879 -1.23464,0.51903 -0.29923,0.24665 -1.49674,1.34142 -1.58995,1.34142 -0.0932,0 0.86371,-1.30709 0.81277,-1.51006 -0.0148,-0.0588 -0.70338,-0.80528 -1.9942,-1.18884 -0.54066,-0.16066 -1.17962,-0.32883 -1.41992,-0.37372 -0.24029,-0.0449 -0.7318,-0.11818 -1.09224,-0.16287 -0.36043,-0.0447 -1.11408,-0.14488 -1.67476,-0.22265 -0.56069,-0.0778 -3.84835,-0.15793 -7.30593,-0.17815 -3.45758,-0.0202 -6.331275,-0.0815 -6.385985,-0.13629 -0.329233,-0.32917 4.242545,-0.14432 6.363495,-0.22519 2.2194,-0.0846 4.44427,-0.0861 6.65749,-0.2721 0.51565,-0.0433 1.04052,-0.0608 1.53993,-0.19633 0.32742,-0.0889 0.74897,-0.23692 0.93619,-0.3993 0.18722,-0.16238 -1.04954,-1.32838 -0.57094,-1.05929 0.65082,0.3659 1.47941,1.14323 2.11851,1.55999 0.69328,0.45209 1.39459,0.8247 2.22156,1.10904 0.6362,0.21103 1.25954,0.38368 1.38519,0.38368 0.12566,0 0.33167,-0.1032 0.4578,-0.22933 0.12613,-0.12614 0.90084,-0.4577 1.72158,-0.7368 0.82073,-0.27911 2.01651,-0.57538 2.65729,-0.65838 0.64078,-0.083 1.61662,-0.20824 2.42147,-0.13286 1.24205,0.11633 2.28335,0.47582 3.63376,0.89537 0.42544,0.13218 0.79265,-0.32876 0.94845,-0.75561 0.715,-1.95866 0.29839,-2.62321 0.33827,-2.89168 0.0182,-0.12192 0.55047,0.75009 0.24638,2.48227 -0.13116,0.74712 -0.23489,1.60566 -0.0197,2.3636 0.18817,0.66277 0.56678,1.27165 1.10071,1.74942 0.53394,0.47777 1.94926,0.96746 1.94926,0.96746 z m -10.10889,-2.35407 c 0.84102,0.0242 2.40771,-0.0274 3.48153,-0.1147 1.07382,-0.0873 2.01351,-0.19654 2.08819,-0.2427 0.0747,-0.0462 -0.19788,-0.27448 -0.6057,-0.50739 -0.52032,-0.29717 -1.09926,-0.47163 -1.94102,-0.58492 -0.65975,-0.0888 -1.88834,-0.12701 -2.73021,-0.0849 -0.99625,0.0498 -1.88659,0.19006 -2.55009,0.40177 -0.56068,0.17891 -1.19964,0.39839 -1.41991,0.48774 -0.22027,0.0894 -0.40049,0.20729 -0.40049,0.26207 0,0.0548 0.34406,0.13712 0.76457,0.18298 0.42051,0.0459 0.99394,0.0997 1.27428,0.1197 0.28034,0.02 1.19782,0.0562 2.03885,0.0804 z m 17.92905,2.35407 c -0.20701,0.10449 1.66165,-0.12234 2.4861,-0.6817 1.37658,-0.93394 1.34632,-1.1736 1.8516,-1.09 0.30263,0.0501 1.18014,0.0909 2.42165,0.1621 1.6604,0.0953 2.85419,0.0765 4.51459,-0.0709 1.24151,-0.11022 2.56807,-0.27282 2.9479,-0.36133 0.66388,-0.1547 0.71165,0.0879 1.23464,0.51903 0.29923,0.24665 1.49674,1.34142 1.58995,1.34142 0.0932,0 -0.86371,-1.30709 -0.81277,-1.51006 0.0148,-0.0588 0.70338,-0.80528 1.9942,-1.18884 0.54066,-0.16066 1.17962,-0.32883 1.41992,-0.37372 0.24029,-0.0449 0.7318,-0.11818 1.09224,-0.16287 0.36043,-0.0447 1.11408,-0.14488 1.67476,-0.22265 0.56069,-0.0778 3.84835,-0.15793 7.30593,-0.17815 3.45758,-0.0202 6.33128,-0.0815 6.38599,-0.13629 0.32923,-0.32917 -4.24255,-0.14432 -6.3635,-0.22519 -2.2194,-0.0846 -4.44427,-0.0861 -6.65749,-0.2721 -0.51565,-0.0433 -1.04052,-0.0608 -1.53993,-0.19633 -0.32742,-0.0889 -0.74897,-0.23692 -0.93619,-0.3993 -0.18722,-0.16238 1.04954,-1.32838 0.57094,-1.05929 -0.65082,0.3659 -1.47941,1.14323 -2.11851,1.55999 -0.69328,0.45209 -1.39459,0.8247 -2.22156,1.10904 -0.6362,0.21103 -1.25954,0.38368 -1.38519,0.38368 -0.12566,0 -0.33167,-0.1032 -0.4578,-0.22933 -0.12613,-0.12614 -0.90084,-0.4577 -1.72158,-0.7368 -0.82073,-0.27911 -2.01651,-0.57538 -2.65729,-0.65838 -0.64078,-0.083 -1.61662,-0.20824 -2.42147,-0.13286 -1.24205,0.11633 -2.28335,0.47582 -3.63376,0.89537 -0.42544,0.13218 -0.79265,-0.32876 -0.94845,-0.75561 -0.715,-1.95866 -0.29839,-2.62321 -0.33827,-2.89168 -0.0182,-0.12192 -0.55047,0.75009 -0.24638,2.48227 0.13116,0.74712 0.23489,1.60566 0.0197,2.3636 -0.18817,0.66277 -0.56678,1.27165 -1.10071,1.74942 -0.53394,0.47777 -1.94926,0.96746 -1.94926,0.96746 z m 10.10889,-2.35407 c -0.84102,0.0242 -2.40771,-0.0274 -3.48153,-0.1147 -1.07382,-0.0873 -2.01351,-0.19654 -2.08819,-0.2427 -0.0747,-0.0462 0.19788,-0.27448 0.6057,-0.50739 0.52032,-0.29717 1.09926,-0.47163 1.94102,-0.58492 0.65975,-0.0888 1.88834,-0.12701 2.73021,-0.0849 0.99625,0.0498 1.88659,0.19006 2.55009,0.40177 0.56068,0.17891 1.19964,0.39839 1.41991,0.48774 0.22027,0.0894 0.40049,0.20729 0.40049,0.26207 0,0.0548 -0.34406,0.13712 -0.76457,0.18298 -0.42051,0.0459 -0.99394,0.0997 -1.27428,0.1197 -0.28034,0.02 -1.19782,0.0562 -2.03885,0.0804 z"
           id="path234"
           sodipodi:nodetypes="sssssssscssssscaaassssssssassssassssssscscsccss"
           transform="translate(1.4552083,84.615569)"
           inkscape:original-d="m 134.79306,118.91948 c 0.20701,0.10449 -1.66165,-0.12234 -2.4861,-0.6817 -1.37658,-0.93394 -1.34632,-1.1736 -1.8516,-1.09 -0.30263,0.0501 -1.18014,0.0909 -2.42165,0.1621 -1.6604,0.0953 -2.85419,0.0765 -4.51459,-0.0709 -1.24151,-0.11022 -2.56807,-0.27282 -2.9479,-0.36133 -0.66388,-0.1547 -0.71165,0.0879 -1.23464,0.51903 -0.29923,0.24665 -1.49674,1.34142 -1.58995,1.34142 -0.0932,0 0.86371,-1.30709 0.81277,-1.51006 -0.0148,-0.0588 -0.70338,-0.80528 -1.9942,-1.18884 -0.54066,-0.16066 -1.17962,-0.32883 -1.41992,-0.37372 -0.24029,-0.0449 -0.7318,-0.11818 -1.09224,-0.16287 -0.36043,-0.0447 -1.11408,-0.14488 -1.67476,-0.22265 -0.56069,-0.0778 -3.84835,-0.15793 -7.30593,-0.17815 -3.45758,-0.0202 -6.331275,-0.0815 -6.385985,-0.13629 -0.329233,-0.32917 4.242545,-0.14432 6.363495,-0.22519 2.2194,-0.0846 4.44427,-0.0861 6.65749,-0.2721 0.51565,-0.0433 1.04052,-0.0608 1.53993,-0.19633 0.32742,-0.0889 0.74897,-0.23692 0.93619,-0.3993 0.18722,-0.16238 -1.04954,-1.32838 -0.57094,-1.05929 0.65082,0.3659 1.47941,1.14323 2.11851,1.55999 0.69328,0.45209 1.39459,0.8247 2.22156,1.10904 0.6362,0.21103 1.25954,0.38368 1.38519,0.38368 0.12566,0 0.33167,-0.1032 0.4578,-0.22933 0.12613,-0.12614 0.90084,-0.4577 1.72158,-0.7368 0.82073,-0.27911 2.01651,-0.57538 2.65729,-0.65838 0.64078,-0.083 1.61662,-0.20824 2.42147,-0.13286 1.24205,0.11633 2.28335,0.47582 3.63376,0.89537 0.42544,0.13218 0.79265,-0.32876 0.94845,-0.75561 0.715,-1.95866 0.29839,-2.62321 0.33827,-2.89168 0.0182,-0.12192 0.55047,0.75009 0.24638,2.48227 -0.13116,0.74712 -0.23489,1.60566 -0.0197,2.3636 0.18817,0.66277 0.56678,1.27165 1.10071,1.74942 0.53394,0.47777 1.94926,0.96746 1.94926,0.96746 z m -10.10889,-2.35407 c 0.84102,0.0242 2.40771,-0.0274 3.48153,-0.1147 1.07382,-0.0873 2.01351,-0.19654 2.08819,-0.2427 0.0747,-0.0462 -0.19788,-0.27448 -0.6057,-0.50739 -0.52032,-0.29717 -1.09926,-0.47163 -1.94102,-0.58492 -0.65975,-0.0888 -1.88834,-0.12701 -2.73021,-0.0849 -0.99625,0.0498 -1.88659,0.19006 -2.55009,0.40177 -0.56068,0.17891 -1.19964,0.39839 -1.41991,0.48774 -0.22027,0.0894 -0.40049,0.20729 -0.40049,0.26207 0,0.0548 0.34406,0.13712 0.76457,0.18298 0.42051,0.0459 0.99394,0.0997 1.27428,0.1197 0.28034,0.02 1.19782,0.0562 2.03885,0.0804 z"
           inkscape:path-effect="#path-effect236" /><path
           id="path235"
           style="fill:#4b4b4b;fill-opacity:1;stroke:none;stroke-width:0.3;stroke-opacity:1"
           d="m 137.18336,203.97644 c -4.86573,0.39591 -11.16177,3.73864 -11.84941,9.93194 -0.75977,6.84302 5.78218,7.76583 6.74429,6.7439 -3.28601,0.4829 -3.68251,-4.6876 0.0388,-3.34018 -0.0901,-0.42675 -0.17322,-0.87238 -0.0915,-1.18817 0.20613,-0.79621 2.81027,-2.87835 3.77135,-3.28818 -0.67887,0.41351 -2.74635,2.18385 -3.42563,3.17009 -0.1931,0.28036 -0.089,1.12027 0.29145,1.75448 0.81809,1.0592 2.52623,2.06548 4.52066,2.10867 1.33189,-0.0288 2.53556,-0.48711 3.43183,-1.10393 0.0272,-0.0187 0.0529,-0.0383 0.0796,-0.0573 l 0.12609,-0.0905 c 0.001,-8e-4 0.002,-0.002 0.003,-0.002 0.24346,-0.18426 0.46004,-0.38016 0.64596,-0.58061 0.53004,-0.68145 0.74599,-1.67379 0.52426,-1.99572 -0.67928,-0.98624 -2.79405,-2.78927 -3.47292,-3.20278 0.96108,0.40983 3.56573,2.49197 3.77186,3.28818 0.0829,0.32028 -0.003,0.77374 -0.094,1.20599 3.77407,-1.41122 3.38833,3.80738 0.0879,3.32236 0.96211,1.02193 7.50406,0.0991 6.74429,-6.7439 -0.68763,-6.1933 -6.98213,-9.53603 -11.84785,-9.93194 z m -3.78811,12.23224 c 0.57241,0.10275 1.94972,0.40328 2.36959,0.97488 0.27153,0.36968 0.37436,1.02718 0.0341,1.34368 -0.32611,0.30334 -0.99189,0.19606 -1.38183,-0.0327 -0.69205,-0.50465 -0.96955,-1.31365 -1.20147,-2.08223 -0.0408,-0.13525 0.0402,-0.22864 0.17961,-0.20363 z m 7.75427,0.20427 c -0.16483,0.55036 -0.54042,1.69368 -1.20147,2.08155 -0.38994,0.2288 -1.05572,0.33608 -1.38183,0.0327 -0.34025,-0.3165 -0.23742,-0.974 0.0341,-1.34368 0.42002,-0.57181 1.7982,-0.87233 2.37023,-0.97496 0.139,-0.0249 0.2196,0.0687 0.17897,0.20439 z"
           transform="matrix(0.56561378,0,0,0.60712434,62.565982,68.825912)"
           sodipodi:nodetypes="csccccsccsccccscsccscccssccsssss"
           inkscape:path-effect="#path-effect238"
           inkscape:original-d="m 137.18336,203.97644 c -4.86573,0.39591 -11.16177,3.73864 -11.84941,9.93194 -0.75977,6.84302 5.78218,7.76583 6.74429,6.7439 -3.28601,0.4829 -3.68251,-4.6876 0.0388,-3.34018 -0.0901,-0.42675 -0.17322,-0.87238 -0.0915,-1.18817 0.20613,-0.79621 2.81027,-2.87835 3.77135,-3.28818 -0.67887,0.41351 -2.74635,2.18385 -3.42563,3.17009 -0.1931,0.28036 -0.089,1.12027 0.29145,1.75448 0.81809,1.0592 2.52623,2.06548 4.52066,2.10867 1.33189,-0.0288 2.53556,-0.48711 3.43183,-1.10393 0.0272,-0.0187 0.0529,-0.0383 0.0796,-0.0573 l 0.12609,-0.0905 c 0.001,-8e-4 0.002,-0.002 0.003,-0.002 0.24346,-0.18426 0.46004,-0.38016 0.64596,-0.58061 0.53004,-0.68145 0.74599,-1.67379 0.52426,-1.99572 -0.67928,-0.98624 -2.79405,-2.78927 -3.47292,-3.20278 0.96108,0.40983 3.56573,2.49197 3.77186,3.28818 0.0829,0.32028 -0.003,0.77374 -0.094,1.20599 3.77407,-1.41122 3.38833,3.80738 0.0879,3.32236 0.96211,1.02193 7.50406,0.0991 6.74429,-6.7439 -0.68763,-6.1933 -6.98213,-9.53603 -11.84785,-9.93194 z m -4.0411,12.19082 c 0,0 2.08783,0.2883 2.62258,1.0163 0.27153,0.36968 0.37436,1.02718 0.0341,1.34368 -0.32611,0.30334 -0.99189,0.19606 -1.38183,-0.0327 -0.76614,-0.55868 -1.02422,-1.49037 -1.27485,-2.32728 z m 8.08064,0 c -0.10149,0.31701 -0.48376,1.86307 -1.27485,2.32724 -0.38994,0.2288 -1.05572,0.33608 -1.38183,0.0327 -0.34025,-0.3165 -0.23742,-0.974 0.0341,-1.34368 0.53475,-0.728 2.62258,-1.01626 2.62258,-1.01626 z" /></g><g
         id="g227"><path
           style="fill:#4b4b4b;fill-opacity:1;stroke:none"
           d="m 134.79306,118.91948 c 0.20701,0.10449 -1.66165,-0.12234 -2.4861,-0.6817 -1.37658,-0.93394 -1.34632,-1.1736 -1.8516,-1.09 -0.30263,0.0501 -1.18014,0.0909 -2.42165,0.1621 -1.6604,0.0953 -2.85419,0.0765 -4.51459,-0.0709 -1.24151,-0.11022 -2.56807,-0.27282 -2.9479,-0.36133 -0.66388,-0.1547 -0.71165,0.0879 -1.23464,0.51903 -0.29923,0.24665 -1.49674,1.34142 -1.58995,1.34142 -0.0932,0 0.86371,-1.30709 0.81277,-1.51006 -0.0148,-0.0588 -0.70338,-0.80528 -1.9942,-1.18884 -0.54066,-0.16066 -1.17962,-0.32883 -1.41992,-0.37372 -0.24029,-0.0449 -0.7318,-0.11818 -1.09224,-0.16287 -0.36043,-0.0447 -1.11408,-0.14488 -1.67476,-0.22265 -0.56069,-0.0778 -3.84835,-0.15793 -7.30593,-0.17815 -3.45758,-0.0202 -6.331275,-0.0815 -6.385985,-0.13629 -0.329233,-0.32917 4.242545,-0.14432 6.363495,-0.22519 2.2194,-0.0846 4.44427,-0.0861 6.65749,-0.2721 0.51565,-0.0433 1.04052,-0.0608 1.53993,-0.19633 0.32742,-0.0889 0.74897,-0.23692 0.93619,-0.3993 0.18722,-0.16238 -1.04954,-1.32838 -0.57094,-1.05929 0.65082,0.3659 1.47941,1.14323 2.11851,1.55999 0.69328,0.45209 1.39459,0.8247 2.22156,1.10904 0.6362,0.21103 1.25954,0.38368 1.38519,0.38368 0.12566,0 0.33167,-0.1032 0.4578,-0.22933 0.12613,-0.12614 0.90084,-0.4577 1.72158,-0.7368 0.82073,-0.27911 2.01651,-0.57538 2.65729,-0.65838 0.64078,-0.083 1.61662,-0.20824 2.42147,-0.13286 1.24205,0.11633 2.28335,0.47582 3.63376,0.89537 0.42544,0.13218 0.79265,-0.32876 0.94845,-0.75561 0.715,-1.95866 0.29839,-2.62321 0.33827,-2.89168 0.0182,-0.12192 0.55047,0.75009 0.24638,2.48227 -0.13116,0.74712 -0.23489,1.60566 -0.0197,2.3636 0.18817,0.66277 0.56678,1.27165 1.10071,1.74942 0.53394,0.47777 1.94926,0.96746 1.94926,0.96746 z m -10.10889,-2.35407 c 0.84102,0.0242 2.40771,-0.0274 3.48153,-0.1147 1.07382,-0.0873 2.01351,-0.19654 2.08819,-0.2427 0.0747,-0.0462 -0.19788,-0.27448 -0.6057,-0.50739 -0.52032,-0.29717 -1.09926,-0.47163 -1.94102,-0.58492 -0.65975,-0.0888 -1.88834,-0.12701 -2.73021,-0.0849 -0.99625,0.0498 -1.88659,0.19006 -2.55009,0.40177 -0.56068,0.17891 -1.19964,0.39839 -1.41991,0.48774 -0.22027,0.0894 -0.40049,0.20729 -0.40049,0.26207 0,0.0548 0.34406,0.13712 0.76457,0.18298 0.42051,0.0459 0.99394,0.0997 1.27428,0.1197 0.28034,0.02 1.19782,0.0562 2.03885,0.0804 z m 17.92905,2.35407 c -0.20701,0.10449 1.66165,-0.12234 2.4861,-0.6817 1.37658,-0.93394 1.34632,-1.1736 1.8516,-1.09 0.30263,0.0501 1.18014,0.0909 2.42165,0.1621 1.6604,0.0953 2.85419,0.0765 4.51459,-0.0709 1.24151,-0.11022 2.56807,-0.27282 2.9479,-0.36133 0.66388,-0.1547 0.71165,0.0879 1.23464,0.51903 0.29923,0.24665 1.49674,1.34142 1.58995,1.34142 0.0932,0 -0.86371,-1.30709 -0.81277,-1.51006 0.0148,-0.0588 0.70338,-0.80528 1.9942,-1.18884 0.54066,-0.16066 1.17962,-0.32883 1.41992,-0.37372 0.24029,-0.0449 0.7318,-0.11818 1.09224,-0.16287 0.36043,-0.0447 1.11408,-0.14488 1.67476,-0.22265 0.56069,-0.0778 3.84835,-0.15793 7.30593,-0.17815 3.45758,-0.0202 6.33128,-0.0815 6.38599,-0.13629 0.32923,-0.32917 -4.24255,-0.14432 -6.3635,-0.22519 -2.2194,-0.0846 -4.44427,-0.0861 -6.65749,-0.2721 -0.51565,-0.0433 -1.04052,-0.0608 -1.53993,-0.19633 -0.32742,-0.0889 -0.74897,-0.23692 -0.93619,-0.3993 -0.18722,-0.16238 1.04954,-1.32838 0.57094,-1.05929 -0.65082,0.3659 -1.47941,1.14323 -2.11851,1.55999 -0.69328,0.45209 -1.39459,0.8247 -2.22156,1.10904 -0.6362,0.21103 -1.25954,0.38368 -1.38519,0.38368 -0.12566,0 -0.33167,-0.1032 -0.4578,-0.22933 -0.12613,-0.12614 -0.90084,-0.4577 -1.72158,-0.7368 -0.82073,-0.27911 -2.01651,-0.57538 -2.65729,-0.65838 -0.64078,-0.083 -1.61662,-0.20824 -2.42147,-0.13286 -1.24205,0.11633 -2.28335,0.47582 -3.63376,0.89537 -0.42544,0.13218 -0.79265,-0.32876 -0.94845,-0.75561 -0.715,-1.95866 -0.29839,-2.62321 -0.33827,-2.89168 -0.0182,-0.12192 -0.55047,0.75009 -0.24638,2.48227 0.13116,0.74712 0.23489,1.60566 0.0197,2.3636 -0.18817,0.66277 -0.56678,1.27165 -1.10071,1.74942 -0.53394,0.47777 -1.94926,0.96746 -1.94926,0.96746 z m 10.10889,-2.35407 c -0.84102,0.0242 -2.40771,-0.0274 -3.48153,-0.1147 -1.07382,-0.0873 -2.01351,-0.19654 -2.08819,-0.2427 -0.0747,-0.0462 0.19788,-0.27448 0.6057,-0.50739 0.52032,-0.29717 1.09926,-0.47163 1.94102,-0.58492 0.65975,-0.0888 1.88834,-0.12701 2.73021,-0.0849 0.99625,0.0498 1.88659,0.19006 2.55009,0.40177 0.56068,0.17891 1.19964,0.39839 1.41991,0.48774 0.22027,0.0894 0.40049,0.20729 0.40049,0.26207 0,0.0548 -0.34406,0.13712 -0.76457,0.18298 -0.42051,0.0459 -0.99394,0.0997 -1.27428,0.1197 -0.28034,0.02 -1.19782,0.0562 -2.03885,0.0804 z"
           id="path208"
           sodipodi:nodetypes="sssssssscssssscaaassssssssassssassssssscscsccss"
           transform="translate(1.4552083,84.615569)"
           inkscape:original-d="m 134.79306,118.91948 c 0.20701,0.10449 -1.66165,-0.12234 -2.4861,-0.6817 -1.37658,-0.93394 -1.34632,-1.1736 -1.8516,-1.09 -0.30263,0.0501 -1.18014,0.0909 -2.42165,0.1621 -1.6604,0.0953 -2.85419,0.0765 -4.51459,-0.0709 -1.24151,-0.11022 -2.56807,-0.27282 -2.9479,-0.36133 -0.66388,-0.1547 -0.71165,0.0879 -1.23464,0.51903 -0.29923,0.24665 -1.49674,1.34142 -1.58995,1.34142 -0.0932,0 0.86371,-1.30709 0.81277,-1.51006 -0.0148,-0.0588 -0.70338,-0.80528 -1.9942,-1.18884 -0.54066,-0.16066 -1.17962,-0.32883 -1.41992,-0.37372 -0.24029,-0.0449 -0.7318,-0.11818 -1.09224,-0.16287 -0.36043,-0.0447 -1.11408,-0.14488 -1.67476,-0.22265 -0.56069,-0.0778 -3.84835,-0.15793 -7.30593,-0.17815 -3.45758,-0.0202 -6.331275,-0.0815 -6.385985,-0.13629 -0.329233,-0.32917 4.242545,-0.14432 6.363495,-0.22519 2.2194,-0.0846 4.44427,-0.0861 6.65749,-0.2721 0.51565,-0.0433 1.04052,-0.0608 1.53993,-0.19633 0.32742,-0.0889 0.74897,-0.23692 0.93619,-0.3993 0.18722,-0.16238 -1.04954,-1.32838 -0.57094,-1.05929 0.65082,0.3659 1.47941,1.14323 2.11851,1.55999 0.69328,0.45209 1.39459,0.8247 2.22156,1.10904 0.6362,0.21103 1.25954,0.38368 1.38519,0.38368 0.12566,0 0.33167,-0.1032 0.4578,-0.22933 0.12613,-0.12614 0.90084,-0.4577 1.72158,-0.7368 0.82073,-0.27911 2.01651,-0.57538 2.65729,-0.65838 0.64078,-0.083 1.61662,-0.20824 2.42147,-0.13286 1.24205,0.11633 2.28335,0.47582 3.63376,0.89537 0.42544,0.13218 0.79265,-0.32876 0.94845,-0.75561 0.715,-1.95866 0.29839,-2.62321 0.33827,-2.89168 0.0182,-0.12192 0.55047,0.75009 0.24638,2.48227 -0.13116,0.74712 -0.23489,1.60566 -0.0197,2.3636 0.18817,0.66277 0.56678,1.27165 1.10071,1.74942 0.53394,0.47777 1.94926,0.96746 1.94926,0.96746 z m -10.10889,-2.35407 c 0.84102,0.0242 2.40771,-0.0274 3.48153,-0.1147 1.07382,-0.0873 2.01351,-0.19654 2.08819,-0.2427 0.0747,-0.0462 -0.19788,-0.27448 -0.6057,-0.50739 -0.52032,-0.29717 -1.09926,-0.47163 -1.94102,-0.58492 -0.65975,-0.0888 -1.88834,-0.12701 -2.73021,-0.0849 -0.99625,0.0498 -1.88659,0.19006 -2.55009,0.40177 -0.56068,0.17891 -1.19964,0.39839 -1.41991,0.48774 -0.22027,0.0894 -0.40049,0.20729 -0.40049,0.26207 0,0.0548 0.34406,0.13712 0.76457,0.18298 0.42051,0.0459 0.99394,0.0997 1.27428,0.1197 0.28034,0.02 1.19782,0.0562 2.03885,0.0804 z"
           inkscape:path-effect="#path-effect212" /><path
           id="path214"
           style="fill:#4b4b4b;fill-opacity:1;stroke:none;stroke-width:0.3;stroke-opacity:1"
           d="m 137.18336,203.97644 c -4.86573,0.39591 -11.16177,3.73864 -11.84941,9.93194 -0.75977,6.84302 5.78218,7.76583 6.74429,6.7439 -3.28601,0.4829 -3.68251,-4.6876 0.0388,-3.34018 -0.0901,-0.42675 -0.17322,-0.87238 -0.0915,-1.18817 0.20613,-0.79621 2.81027,-2.87835 3.77135,-3.28818 -0.67887,0.41351 -2.74635,2.18385 -3.42563,3.17009 -0.1931,0.28036 -0.089,1.12027 0.29145,1.75448 0.81809,1.0592 2.52623,2.06548 4.52066,2.10867 1.33189,-0.0288 2.53556,-0.48711 3.43183,-1.10393 0.0272,-0.0187 0.0529,-0.0383 0.0796,-0.0573 l 0.12609,-0.0905 c 0.001,-8e-4 0.002,-0.002 0.003,-0.002 0.24346,-0.18426 0.46004,-0.38016 0.64596,-0.58061 0.53004,-0.68145 0.74599,-1.67379 0.52426,-1.99572 -0.67928,-0.98624 -2.79405,-2.78927 -3.47292,-3.20278 0.96108,0.40983 3.56573,2.49197 3.77186,3.28818 0.0829,0.32028 -0.003,0.77374 -0.094,1.20599 3.77407,-1.41122 3.38833,3.80738 0.0879,3.32236 0.96211,1.02193 7.50406,0.0991 6.74429,-6.7439 -0.68763,-6.1933 -6.98213,-9.53603 -11.84785,-9.93194 z m -3.78811,12.23224 c 0.57241,0.10275 1.94972,0.40328 2.36959,0.97488 0.27153,0.36968 0.37436,1.02718 0.0341,1.34368 -0.32611,0.30334 -0.99189,0.19606 -1.38183,-0.0327 -0.69205,-0.50465 -0.96955,-1.31365 -1.20147,-2.08223 -0.0408,-0.13525 0.0402,-0.22864 0.17961,-0.20363 z m 7.75427,0.20427 c -0.16483,0.55036 -0.54042,1.69368 -1.20147,2.08155 -0.38994,0.2288 -1.05572,0.33608 -1.38183,0.0327 -0.34025,-0.3165 -0.23742,-0.974 0.0341,-1.34368 0.42002,-0.57181 1.7982,-0.87233 2.37023,-0.97496 0.139,-0.0249 0.2196,0.0687 0.17897,0.20439 z"
           transform="matrix(0.56561378,0,0,0.60712434,62.565982,68.825912)"
           sodipodi:nodetypes="csccccsccsccccscsccscccssccsssss"
           inkscape:path-effect="#path-effect223"
           inkscape:original-d="m 137.18336,203.97644 c -4.86573,0.39591 -11.16177,3.73864 -11.84941,9.93194 -0.75977,6.84302 5.78218,7.76583 6.74429,6.7439 -3.28601,0.4829 -3.68251,-4.6876 0.0388,-3.34018 -0.0901,-0.42675 -0.17322,-0.87238 -0.0915,-1.18817 0.20613,-0.79621 2.81027,-2.87835 3.77135,-3.28818 -0.67887,0.41351 -2.74635,2.18385 -3.42563,3.17009 -0.1931,0.28036 -0.089,1.12027 0.29145,1.75448 0.81809,1.0592 2.52623,2.06548 4.52066,2.10867 1.33189,-0.0288 2.53556,-0.48711 3.43183,-1.10393 0.0272,-0.0187 0.0529,-0.0383 0.0796,-0.0573 l 0.12609,-0.0905 c 0.001,-8e-4 0.002,-0.002 0.003,-0.002 0.24346,-0.18426 0.46004,-0.38016 0.64596,-0.58061 0.53004,-0.68145 0.74599,-1.67379 0.52426,-1.99572 -0.67928,-0.98624 -2.79405,-2.78927 -3.47292,-3.20278 0.96108,0.40983 3.56573,2.49197 3.77186,3.28818 0.0829,0.32028 -0.003,0.77374 -0.094,1.20599 3.77407,-1.41122 3.38833,3.80738 0.0879,3.32236 0.96211,1.02193 7.50406,0.0991 6.74429,-6.7439 -0.68763,-6.1933 -6.98213,-9.53603 -11.84785,-9.93194 z m -4.0411,12.19082 c 0,0 2.08783,0.2883 2.62258,1.0163 0.27153,0.36968 0.37436,1.02718 0.0341,1.34368 -0.32611,0.30334 -0.99189,0.19606 -1.38183,-0.0327 -0.76614,-0.55868 -1.02422,-1.49037 -1.27485,-2.32728 z m 8.08064,0 c -0.10149,0.31701 -0.48376,1.86307 -1.27485,2.32724 -0.38994,0.2288 -1.05572,0.33608 -1.38183,0.0327 -0.34025,-0.3165 -0.23742,-0.974 0.0341,-1.34368 0.53475,-0.728 2.62258,-1.01626 2.62258,-1.01626 z" /></g></g></g></svg>
